<?xml version="1.0" encoding="UTF-8"?>
<!-- Generator: visioncortex VTracer 0.6.3 -->
<svg version="1.1" xmlns="http://www.w3.org/2000/svg" width="1280" height="1280">
<path d="M0 0 C0.92 0.01 1.83 0.01 2.78 0.02 C14.99 0.31 24.59 4.75 34.62 11.44 C34.62 12.1 34.62 12.76 34.62 13.44 C35.22 13.71 35.82 13.97 36.44 14.25 C38.62 15.44 40.04 16.53 41.62 18.44 C41.62 19.1 41.62 19.76 41.62 20.44 C42.29 20.44 42.94 20.44 43.62 20.44 C54.27 34.73 56.4 50.5 54.2 67.78 C51.79 77.83 45.79 87.1 38.62 94.44 C37.96 94.44 37.31 94.44 36.62 94.44 C36.62 95.1 36.62 95.76 36.62 96.44 C35.25 98.06 35.25 98.06 33.62 99.44 C32.96 99.44 32.31 99.44 31.62 99.44 C31.62 100.1 31.62 100.76 31.62 101.44 C30.25 103.06 30.25 103.06 28.62 104.44 C27.96 104.44 27.31 104.44 26.62 104.44 C26.62 105.1 26.62 105.76 26.62 106.44 C25.25 108.06 25.25 108.06 23.62 109.44 C22.96 109.44 22.31 109.44 21.62 109.44 C21.62 110.1 21.62 110.76 21.62 111.44 C20.25 113.06 20.25 113.06 18.62 114.44 C17.96 114.44 17.31 114.44 16.62 114.44 C16.62 115.1 16.62 115.76 16.62 116.44 C15.25 118.06 15.25 118.06 13.62 119.44 C12.96 119.44 12.31 119.44 11.62 119.44 C11.62 120.1 11.62 120.76 11.62 121.44 C10.25 123.06 10.25 123.06 8.62 124.44 C7.96 124.44 7.31 124.44 6.62 124.44 C6.62 125.1 6.62 125.76 6.62 126.44 C5.25 128.06 5.25 128.06 3.62 129.44 C2.96 129.44 2.31 129.44 1.62 129.44 C1.62 130.1 1.62 130.76 1.62 131.44 C0.25 133.06 0.25 133.06 -1.38 134.44 C-2.04 134.44 -2.69 134.44 -3.38 134.44 C-3.38 135.1 -3.38 135.76 -3.38 136.44 C-4.75 138.06 -4.75 138.06 -6.38 139.44 C-7.04 139.44 -7.69 139.44 -8.38 139.44 C-8.38 140.1 -8.38 140.76 -8.38 141.44 C-9.75 143.06 -9.75 143.06 -11.38 144.44 C-12.04 144.44 -12.69 144.44 -13.38 144.44 C-13.38 145.1 -13.38 145.76 -13.38 146.44 C-14.75 148.06 -14.75 148.06 -16.38 149.44 C-17.04 149.44 -17.69 149.44 -18.38 149.44 C-18.38 150.1 -18.38 150.76 -18.38 151.44 C-19.75 153.06 -19.75 153.06 -21.38 154.44 C-22.04 154.44 -22.69 154.44 -23.38 154.44 C-23.38 155.1 -23.38 155.76 -23.38 156.44 C-24.75 158.06 -24.75 158.06 -26.38 159.44 C-27.04 159.44 -27.69 159.44 -28.38 159.44 C-28.38 160.1 -28.38 160.76 -28.38 161.44 C-29.75 163.06 -29.75 163.06 -31.38 164.44 C-32.04 164.44 -32.69 164.44 -33.38 164.44 C-33.38 165.1 -33.38 165.76 -33.38 166.44 C-34.75 168.06 -34.75 168.06 -36.38 169.44 C-37.04 169.44 -37.69 169.44 -38.38 169.44 C-38.38 170.1 -38.38 170.76 -38.38 171.44 C-39.75 173.06 -39.75 173.06 -41.38 174.44 C-42.04 174.44 -42.69 174.44 -43.38 174.44 C-43.38 175.1 -43.38 175.76 -43.38 176.44 C-44.75 178.06 -44.75 178.06 -46.38 179.44 C-47.04 179.44 -47.69 179.44 -48.38 179.44 C-48.38 180.1 -48.38 180.76 -48.38 181.44 C-49.75 183.06 -49.75 183.06 -51.38 184.44 C-52.04 184.44 -52.69 184.44 -53.38 184.44 C-53.38 185.1 -53.38 185.76 -53.38 186.44 C-54.75 188.06 -54.75 188.06 -56.38 189.44 C-57.04 189.44 -57.69 189.44 -58.38 189.44 C-58.38 190.1 -58.38 190.76 -58.38 191.44 C-59.75 193.06 -59.75 193.06 -61.38 194.44 C-62.04 194.44 -62.69 194.44 -63.38 194.44 C-63.38 195.1 -63.38 195.76 -63.38 196.44 C-64.75 198.06 -64.75 198.06 -66.38 199.44 C-67.04 199.44 -67.69 199.44 -68.38 199.44 C-68.38 200.1 -68.38 200.76 -68.38 201.44 C-69.75 203.06 -69.75 203.06 -71.38 204.44 C-72.04 204.44 -72.69 204.44 -73.38 204.44 C-73.38 205.1 -73.38 205.76 -73.38 206.44 C-74.75 208.06 -74.75 208.06 -76.38 209.44 C-77.04 209.44 -77.69 209.44 -78.38 209.44 C-78.38 210.1 -78.38 210.76 -78.38 211.44 C-79.75 213.06 -79.75 213.06 -81.38 214.44 C-82.04 214.44 -82.69 214.44 -83.38 214.44 C-83.38 215.1 -83.38 215.76 -83.38 216.44 C-84.75 218.06 -84.75 218.06 -86.38 219.44 C-87.04 219.44 -87.69 219.44 -88.38 219.44 C-88.38 220.1 -88.38 220.76 -88.38 221.44 C-89.75 223.06 -89.75 223.06 -91.38 224.44 C-92.04 224.44 -92.69 224.44 -93.38 224.44 C-93.38 225.1 -93.38 225.76 -93.38 226.44 C-94.75 228.06 -94.75 228.06 -96.38 229.44 C-97.04 229.44 -97.69 229.44 -98.38 229.44 C-98.38 230.1 -98.38 230.76 -98.38 231.44 C-99.75 233.06 -99.75 233.06 -101.38 234.44 C-102.04 234.44 -102.69 234.44 -103.38 234.44 C-103.38 235.1 -103.38 235.76 -103.38 236.44 C-104.75 238.06 -104.75 238.06 -106.38 239.44 C-107.04 239.44 -107.69 239.44 -108.38 239.44 C-108.38 240.1 -108.38 240.76 -108.38 241.44 C-109.75 243.06 -109.75 243.06 -111.38 244.44 C-112.04 244.44 -112.69 244.44 -113.38 244.44 C-113.38 245.1 -113.38 245.76 -113.38 246.44 C-114.75 248.06 -114.75 248.06 -116.38 249.44 C-117.03 249.44 -117.69 249.44 -118.38 249.44 C-118.38 250.1 -118.38 250.76 -118.38 251.44 C-119.75 253.06 -119.75 253.06 -121.38 254.44 C-122.03 254.44 -122.69 254.44 -123.38 254.44 C-123.38 255.1 -123.38 255.76 -123.38 256.44 C-124.75 258.06 -124.75 258.06 -126.38 259.44 C-127.03 259.44 -127.69 259.44 -128.38 259.44 C-128.38 260.1 -128.38 260.76 -128.38 261.44 C-129.75 263.06 -129.75 263.06 -131.38 264.44 C-132.03 264.44 -132.69 264.44 -133.38 264.44 C-133.38 265.1 -133.38 265.76 -133.38 266.44 C-134.75 268.06 -134.75 268.06 -136.38 269.44 C-137.03 269.44 -137.69 269.44 -138.38 269.44 C-138.38 270.1 -138.38 270.76 -138.38 271.44 C-139.75 273.06 -139.75 273.06 -141.38 274.44 C-142.03 274.44 -142.69 274.44 -143.38 274.44 C-143.38 275.1 -143.38 275.76 -143.38 276.44 C-144.75 278.06 -144.75 278.06 -146.38 279.44 C-147.03 279.44 -147.69 279.44 -148.38 279.44 C-148.38 280.1 -148.38 280.76 -148.38 281.44 C-149.75 283.06 -149.75 283.06 -151.38 284.44 C-152.03 284.44 -152.69 284.44 -153.38 284.44 C-153.38 285.1 -153.38 285.76 -153.38 286.44 C-154.75 288.06 -154.75 288.06 -156.38 289.44 C-157.03 289.44 -157.69 289.44 -158.38 289.44 C-158.38 290.1 -158.38 290.76 -158.38 291.44 C-159.75 293.06 -159.75 293.06 -161.38 294.44 C-162.03 294.44 -162.69 294.44 -163.38 294.44 C-163.38 295.1 -163.38 295.76 -163.38 296.44 C-164.75 298.06 -164.75 298.06 -166.38 299.44 C-167.03 299.44 -167.69 299.44 -168.38 299.44 C-168.38 300.1 -168.38 300.76 -168.38 301.44 C-169.75 303.06 -169.75 303.06 -171.38 304.44 C-172.03 304.44 -172.69 304.44 -173.38 304.44 C-173.38 305.1 -173.38 305.76 -173.38 306.44 C-174.75 308.06 -174.75 308.06 -176.38 309.44 C-177.03 309.44 -177.69 309.44 -178.38 309.44 C-178.38 310.1 -178.38 310.76 -178.38 311.44 C-179.75 313.06 -179.75 313.06 -181.38 314.44 C-182.03 314.44 -182.69 314.44 -183.38 314.44 C-183.38 315.1 -183.38 315.76 -183.38 316.44 C-184.75 318.06 -184.75 318.06 -186.38 319.44 C-187.03 319.44 -187.69 319.44 -188.38 319.44 C-188.38 320.1 -188.38 320.76 -188.38 321.44 C-189.75 323.06 -189.75 323.06 -191.38 324.44 C-192.03 324.44 -192.69 324.44 -193.38 324.44 C-193.38 325.1 -193.38 325.76 -193.38 326.44 C-194.75 328.06 -194.75 328.06 -196.38 329.44 C-197.03 329.44 -197.69 329.44 -198.38 329.44 C-198.38 330.1 -198.38 330.76 -198.38 331.44 C-199.75 333.06 -199.75 333.06 -201.38 334.44 C-202.03 334.44 -202.69 334.44 -203.38 334.44 C-203.38 335.1 -203.38 335.76 -203.38 336.44 C-204.75 338.06 -204.75 338.06 -206.38 339.44 C-207.03 339.44 -207.69 339.44 -208.38 339.44 C-208.38 340.1 -208.38 340.76 -208.38 341.44 C-209.75 343.06 -209.75 343.06 -211.38 344.44 C-212.03 344.44 -212.69 344.44 -213.38 344.44 C-213.38 345.1 -213.38 345.76 -213.38 346.44 C-214.75 348.06 -214.75 348.06 -216.38 349.44 C-217.03 349.44 -217.69 349.44 -218.38 349.44 C-218.38 350.1 -218.38 350.76 -218.38 351.44 C-219.75 353.06 -219.75 353.06 -221.38 354.44 C-222.03 354.44 -222.69 354.44 -223.38 354.44 C-223.38 355.1 -223.38 355.76 -223.38 356.44 C-224.75 358.06 -224.75 358.06 -226.38 359.44 C-227.03 359.44 -227.69 359.44 -228.38 359.44 C-228.38 360.1 -228.38 360.76 -228.38 361.44 C-229.75 363.06 -229.75 363.06 -231.38 364.44 C-232.03 364.44 -232.69 364.44 -233.38 364.44 C-233.38 365.1 -233.38 365.76 -233.38 366.44 C-234.75 368.06 -234.75 368.06 -236.38 369.44 C-237.03 369.44 -237.69 369.44 -238.38 369.44 C-238.38 370.76 -238.38 372.08 -238.38 373.44 C-237.72 373.44 -237.06 373.44 -236.38 373.44 C-234.75 374.81 -234.75 374.81 -233.38 376.44 C-233.38 377.1 -233.38 377.76 -233.38 378.44 C-232.72 378.44 -232.06 378.44 -231.38 378.44 C-229.75 379.81 -229.75 379.81 -228.38 381.44 C-228.38 382.1 -228.38 382.76 -228.38 383.44 C-227.72 383.44 -227.06 383.44 -226.38 383.44 C-224.75 384.81 -224.75 384.81 -223.38 386.44 C-223.38 387.1 -223.38 387.76 -223.38 388.44 C-222.72 388.44 -222.06 388.44 -221.38 388.44 C-219.75 389.81 -219.75 389.81 -218.38 391.44 C-218.38 392.1 -218.38 392.76 -218.38 393.44 C-217.72 393.44 -217.06 393.44 -216.38 393.44 C-214.75 394.81 -214.75 394.81 -213.38 396.44 C-213.38 397.1 -213.38 397.76 -213.38 398.44 C-212.72 398.44 -212.06 398.44 -211.38 398.44 C-209.75 399.81 -209.75 399.81 -208.38 401.44 C-208.38 402.1 -208.38 402.76 -208.38 403.44 C-207.72 403.44 -207.06 403.44 -206.38 403.44 C-204.75 404.81 -204.75 404.81 -203.38 406.44 C-203.38 407.1 -203.38 407.76 -203.38 408.44 C-202.72 408.44 -202.06 408.44 -201.38 408.44 C-199.75 409.81 -199.75 409.81 -198.38 411.44 C-198.38 412.1 -198.38 412.76 -198.38 413.44 C-197.72 413.44 -197.06 413.44 -196.38 413.44 C-194.75 414.81 -194.75 414.81 -193.38 416.44 C-193.38 417.1 -193.38 417.76 -193.38 418.44 C-192.72 418.44 -192.06 418.44 -191.38 418.44 C-189.75 419.81 -189.75 419.81 -188.38 421.44 C-188.38 422.1 -188.38 422.76 -188.38 423.44 C-187.72 423.44 -187.06 423.44 -186.38 423.44 C-184.75 424.81 -184.75 424.81 -183.38 426.44 C-183.38 427.1 -183.38 427.76 -183.38 428.44 C-182.72 428.44 -182.06 428.44 -181.38 428.44 C-179.75 429.81 -179.75 429.81 -178.38 431.44 C-178.38 432.1 -178.38 432.76 -178.38 433.44 C-177.72 433.44 -177.06 433.44 -176.38 433.44 C-174.75 434.81 -174.75 434.81 -173.38 436.44 C-173.38 437.1 -173.38 437.76 -173.38 438.44 C-172.72 438.44 -172.06 438.44 -171.38 438.44 C-169.75 439.81 -169.75 439.81 -168.38 441.44 C-168.38 442.1 -168.38 442.76 -168.38 443.44 C-167.72 443.44 -167.06 443.44 -166.38 443.44 C-164.75 444.81 -164.75 444.81 -163.38 446.44 C-163.38 447.1 -163.38 447.76 -163.38 448.44 C-162.72 448.44 -162.06 448.44 -161.38 448.44 C-159.75 449.81 -159.75 449.81 -158.38 451.44 C-158.38 452.1 -158.38 452.76 -158.38 453.44 C-157.72 453.44 -157.06 453.44 -156.38 453.44 C-154.75 454.81 -154.75 454.81 -153.38 456.44 C-153.38 457.1 -153.38 457.76 -153.38 458.44 C-152.72 458.44 -152.06 458.44 -151.38 458.44 C-149.75 459.81 -149.75 459.81 -148.38 461.44 C-148.38 462.1 -148.38 462.76 -148.38 463.44 C-147.72 463.44 -147.06 463.44 -146.38 463.44 C-144.75 464.81 -144.75 464.81 -143.38 466.44 C-143.38 467.1 -143.38 467.76 -143.38 468.44 C-142.72 468.44 -142.06 468.44 -141.38 468.44 C-139.75 469.81 -139.75 469.81 -138.38 471.44 C-138.38 472.1 -138.38 472.76 -138.38 473.44 C-137.72 473.44 -137.06 473.44 -136.38 473.44 C-134.75 474.81 -134.75 474.81 -133.38 476.44 C-133.38 477.1 -133.38 477.76 -133.38 478.44 C-132.72 478.44 -132.06 478.44 -131.38 478.44 C-129.75 479.81 -129.75 479.81 -128.38 481.44 C-128.38 482.1 -128.38 482.76 -128.38 483.44 C-127.72 483.44 -127.06 483.44 -126.38 483.44 C-124.75 484.81 -124.75 484.81 -123.38 486.44 C-123.38 487.1 -123.38 487.76 -123.38 488.44 C-122.72 488.44 -122.06 488.44 -121.38 488.44 C-119.75 489.81 -119.75 489.81 -118.38 491.44 C-118.38 492.1 -118.38 492.76 -118.38 493.44 C-117.72 493.44 -117.06 493.44 -116.38 493.44 C-114.75 494.81 -114.75 494.81 -113.38 496.44 C-113.38 497.1 -113.38 497.76 -113.38 498.44 C-112.71 498.44 -112.06 498.44 -111.38 498.44 C-109.75 499.81 -109.75 499.81 -108.38 501.44 C-108.38 502.1 -108.38 502.76 -108.38 503.44 C-107.71 503.44 -107.06 503.44 -106.38 503.44 C-104.75 504.81 -104.75 504.81 -103.38 506.44 C-103.38 507.1 -103.38 507.76 -103.38 508.44 C-102.71 508.44 -102.06 508.44 -101.38 508.44 C-99.75 509.81 -99.75 509.81 -98.38 511.44 C-98.38 512.1 -98.38 512.76 -98.38 513.44 C-97.71 513.44 -97.06 513.44 -96.38 513.44 C-94.75 514.81 -94.75 514.81 -93.38 516.44 C-93.38 517.1 -93.38 517.76 -93.38 518.44 C-92.71 518.44 -92.06 518.44 -91.38 518.44 C-89.75 519.81 -89.75 519.81 -88.38 521.44 C-88.38 522.1 -88.38 522.76 -88.38 523.44 C-87.71 523.44 -87.06 523.44 -86.38 523.44 C-84.75 524.81 -84.75 524.81 -83.38 526.44 C-83.38 527.1 -83.38 527.76 -83.38 528.44 C-82.71 528.44 -82.06 528.44 -81.38 528.44 C-79.75 529.81 -79.75 529.81 -78.38 531.44 C-78.38 532.1 -78.38 532.76 -78.38 533.44 C-77.71 533.44 -77.06 533.44 -76.38 533.44 C-74.75 534.81 -74.75 534.81 -73.38 536.44 C-73.38 537.1 -73.38 537.76 -73.38 538.44 C-72.71 538.44 -72.06 538.44 -71.38 538.44 C-69.75 539.81 -69.75 539.81 -68.38 541.44 C-68.38 542.1 -68.38 542.76 -68.38 543.44 C-67.71 543.44 -67.06 543.44 -66.38 543.44 C-64.75 544.81 -64.75 544.81 -63.38 546.44 C-63.38 547.1 -63.38 547.76 -63.38 548.44 C-62.71 548.44 -62.06 548.44 -61.38 548.44 C-59.75 549.81 -59.75 549.81 -58.38 551.44 C-58.38 552.1 -58.38 552.76 -58.38 553.44 C-57.71 553.44 -57.06 553.44 -56.38 553.44 C-54.75 554.81 -54.75 554.81 -53.38 556.44 C-53.38 557.1 -53.38 557.76 -53.38 558.44 C-52.71 558.44 -52.06 558.44 -51.38 558.44 C-49.75 559.81 -49.75 559.81 -48.38 561.44 C-48.38 562.1 -48.38 562.76 -48.38 563.44 C-47.71 563.44 -47.06 563.44 -46.38 563.44 C-44.75 564.81 -44.75 564.81 -43.38 566.44 C-43.38 567.1 -43.38 567.76 -43.38 568.44 C-42.71 568.44 -42.06 568.44 -41.38 568.44 C-39.75 569.81 -39.75 569.81 -38.38 571.44 C-38.38 572.1 -38.38 572.76 -38.38 573.44 C-37.71 573.44 -37.06 573.44 -36.38 573.44 C-34.75 574.81 -34.75 574.81 -33.38 576.44 C-33.38 577.1 -33.38 577.76 -33.38 578.44 C-32.71 578.44 -32.06 578.44 -31.38 578.44 C-29.75 579.81 -29.75 579.81 -28.38 581.44 C-28.38 582.1 -28.38 582.76 -28.38 583.44 C-27.71 583.44 -27.06 583.44 -26.38 583.44 C-24.75 584.81 -24.75 584.81 -23.38 586.44 C-23.38 587.1 -23.38 587.76 -23.38 588.44 C-22.71 588.44 -22.06 588.44 -21.38 588.44 C-19.75 589.81 -19.75 589.81 -18.38 591.44 C-18.38 592.1 -18.38 592.76 -18.38 593.44 C-17.71 593.44 -17.06 593.44 -16.38 593.44 C-14.75 594.81 -14.75 594.81 -13.38 596.44 C-13.38 597.1 -13.38 597.76 -13.38 598.44 C-12.71 598.44 -12.06 598.44 -11.38 598.44 C-9.75 599.81 -9.75 599.81 -8.38 601.44 C-8.38 602.1 -8.38 602.76 -8.38 603.44 C-7.71 603.44 -7.06 603.44 -6.38 603.44 C-4.75 604.81 -4.75 604.81 -3.38 606.44 C-3.38 607.1 -3.38 607.76 -3.38 608.44 C-2.71 608.44 -2.06 608.44 -1.38 608.44 C0.25 609.81 0.25 609.81 1.62 611.44 C1.62 612.1 1.62 612.76 1.62 613.44 C2.29 613.44 2.94 613.44 3.62 613.44 C5.25 614.81 5.25 614.81 6.62 616.44 C6.62 617.1 6.62 617.76 6.62 618.44 C7.29 618.44 7.94 618.44 8.62 618.44 C10.25 619.81 10.25 619.81 11.62 621.44 C11.62 622.1 11.62 622.76 11.62 623.44 C12.29 623.44 12.94 623.44 13.62 623.44 C15.25 624.81 15.25 624.81 16.62 626.44 C16.62 627.1 16.62 627.76 16.62 628.44 C17.29 628.44 17.94 628.44 18.62 628.44 C20.25 629.81 20.25 629.81 21.62 631.44 C21.62 632.1 21.62 632.76 21.62 633.44 C22.29 633.44 22.94 633.44 23.62 633.44 C25.25 634.81 25.25 634.81 26.62 636.44 C26.62 637.1 26.62 637.76 26.62 638.44 C27.29 638.44 27.94 638.44 28.62 638.44 C30.25 639.81 30.25 639.81 31.62 641.44 C31.62 642.1 31.62 642.76 31.62 643.44 C32.29 643.44 32.94 643.44 33.62 643.44 C35.25 644.81 35.25 644.81 36.62 646.44 C36.62 647.1 36.62 647.76 36.62 648.44 C37.29 648.44 37.94 648.44 38.62 648.44 C41.17 650.91 43.37 653.7 45.62 656.44 C46.16 657.05 46.69 657.66 47.24 658.29 C53.74 666.19 57.39 676.23 57.62 686.44 C57.65 687.25 57.68 688.06 57.71 688.89 C57.75 691.42 57.71 693.92 57.62 696.44 C57.61 697.16 57.59 697.87 57.57 698.61 C56.65 713 48.83 723.64 38.75 733.25 C34.1 737.3 29.3 740.06 23.62 742.44 C22.83 742.79 22.04 743.13 21.22 743.49 C12.87 746.53 4.3 746.77 -4.38 745.44 C-5.62 745.34 -6.87 745.24 -8.15 745.14 C-12.84 744.56 -16.55 742.7 -20.69 740.5 C-21.39 740.14 -22.09 739.78 -22.81 739.41 C-25.78 737.88 -28.6 736.29 -31.38 734.44 C-31.38 733.78 -31.38 733.12 -31.38 732.44 C-32.37 732.11 -33.36 731.78 -34.38 731.44 C-34.38 730.78 -34.38 730.12 -34.38 729.44 C-35.01 729.17 -35.65 728.9 -36.31 728.62 C-38.38 727.44 -38.38 727.44 -39.38 724.44 C-40.04 724.11 -40.69 723.78 -41.38 723.44 C-43.38 722.44 -43.38 722.44 -44.38 719.44 C-45.04 719.11 -45.69 718.78 -46.38 718.44 C-48.38 717.44 -48.38 717.44 -49.38 714.44 C-50.04 714.11 -50.69 713.78 -51.38 713.44 C-53.38 712.44 -53.38 712.44 -54.38 709.44 C-55.04 709.11 -55.69 708.78 -56.38 708.44 C-58.38 707.44 -58.38 707.44 -59.38 704.44 C-60.04 704.11 -60.69 703.78 -61.38 703.44 C-63.38 702.44 -63.38 702.44 -64.38 699.44 C-65.04 699.11 -65.69 698.78 -66.38 698.44 C-68.38 697.44 -68.38 697.44 -69.38 694.44 C-70.04 694.11 -70.69 693.78 -71.38 693.44 C-73.38 692.44 -73.38 692.44 -74.38 689.44 C-75.04 689.11 -75.69 688.78 -76.38 688.44 C-78.38 687.44 -78.38 687.44 -79.38 684.44 C-80.04 684.11 -80.69 683.78 -81.38 683.44 C-83.38 682.44 -83.38 682.44 -84.38 679.44 C-85.04 679.11 -85.69 678.78 -86.38 678.44 C-88.38 677.44 -88.38 677.44 -89.38 674.44 C-90.04 674.11 -90.69 673.78 -91.38 673.44 C-93.38 672.44 -93.38 672.44 -94.38 669.44 C-95.04 669.11 -95.69 668.78 -96.38 668.44 C-98.38 667.44 -98.38 667.44 -99.38 664.44 C-100.04 664.11 -100.69 663.78 -101.38 663.44 C-103.38 662.44 -103.38 662.44 -104.38 659.44 C-105.04 659.11 -105.69 658.78 -106.38 658.44 C-108.38 657.44 -108.38 657.44 -109.38 654.44 C-110.04 654.11 -110.69 653.78 -111.38 653.44 C-113.38 652.44 -113.38 652.44 -114.38 649.44 C-115.04 649.11 -115.69 648.78 -116.38 648.44 C-118.38 647.44 -118.38 647.44 -119.38 644.44 C-120.03 644.11 -120.69 643.78 -121.38 643.44 C-123.38 642.44 -123.38 642.44 -124.38 639.44 C-125.03 639.11 -125.69 638.78 -126.38 638.44 C-128.38 637.44 -128.38 637.44 -129.38 634.44 C-130.03 634.11 -130.69 633.78 -131.38 633.44 C-133.38 632.44 -133.38 632.44 -134.38 629.44 C-135.03 629.11 -135.69 628.78 -136.38 628.44 C-138.38 627.44 -138.38 627.44 -139.38 624.44 C-140.03 624.11 -140.69 623.78 -141.38 623.44 C-143.38 622.44 -143.38 622.44 -144.38 619.44 C-145.03 619.11 -145.69 618.78 -146.38 618.44 C-148.38 617.44 -148.38 617.44 -149.38 614.44 C-150.03 614.11 -150.69 613.78 -151.38 613.44 C-153.38 612.44 -153.38 612.44 -154.38 609.44 C-155.03 609.11 -155.69 608.78 -156.38 608.44 C-158.38 607.44 -158.38 607.44 -159.38 604.44 C-160.03 604.11 -160.69 603.78 -161.38 603.44 C-163.38 602.44 -163.38 602.44 -164.38 599.44 C-165.03 599.11 -165.69 598.78 -166.38 598.44 C-168.38 597.44 -168.38 597.44 -169.38 594.44 C-170.03 594.11 -170.69 593.78 -171.38 593.44 C-173.38 592.44 -173.38 592.44 -174.38 589.44 C-175.03 589.11 -175.69 588.78 -176.38 588.44 C-178.38 587.44 -178.38 587.44 -179.38 584.44 C-180.03 584.11 -180.69 583.78 -181.38 583.44 C-183.38 582.44 -183.38 582.44 -184.38 579.44 C-185.03 579.11 -185.69 578.78 -186.38 578.44 C-188.38 577.44 -188.38 577.44 -189.38 574.44 C-190.03 574.11 -190.69 573.78 -191.38 573.44 C-193.38 572.44 -193.38 572.44 -194.38 569.44 C-195.03 569.11 -195.69 568.78 -196.38 568.44 C-198.38 567.44 -198.38 567.44 -199.38 564.44 C-200.03 564.11 -200.69 563.78 -201.38 563.44 C-203.38 562.44 -203.38 562.44 -204.38 559.44 C-205.03 559.11 -205.69 558.78 -206.38 558.44 C-208.38 557.44 -208.38 557.44 -209.38 554.44 C-210.03 554.11 -210.69 553.78 -211.38 553.44 C-213.38 552.44 -213.38 552.44 -214.38 549.44 C-215.03 549.11 -215.69 548.78 -216.38 548.44 C-218.38 547.44 -218.38 547.44 -219.38 544.44 C-220.03 544.11 -220.69 543.78 -221.38 543.44 C-223.38 542.44 -223.38 542.44 -224.38 539.44 C-225.03 539.11 -225.69 538.78 -226.38 538.44 C-228.38 537.44 -228.38 537.44 -229.38 534.44 C-230.03 534.11 -230.69 533.78 -231.38 533.44 C-233.38 532.44 -233.38 532.44 -234.38 529.44 C-235.03 529.11 -235.69 528.78 -236.38 528.44 C-238.38 527.44 -238.38 527.44 -239.38 524.44 C-240.03 524.11 -240.69 523.78 -241.38 523.44 C-243.38 522.44 -243.38 522.44 -244.38 519.44 C-245.03 519.11 -245.69 518.78 -246.38 518.44 C-248.38 517.44 -248.38 517.44 -249.38 514.44 C-250.03 514.11 -250.69 513.78 -251.38 513.44 C-253.38 512.44 -253.38 512.44 -254.38 509.44 C-255.03 509.11 -255.69 508.78 -256.38 508.44 C-258.38 507.44 -258.38 507.44 -259.38 504.44 C-260.03 504.11 -260.69 503.78 -261.38 503.44 C-263.38 502.44 -263.38 502.44 -264.38 499.44 C-265.03 499.11 -265.69 498.78 -266.38 498.44 C-268.38 497.44 -268.38 497.44 -269.38 494.44 C-270.03 494.11 -270.69 493.78 -271.38 493.44 C-273.38 492.44 -273.38 492.44 -274.38 489.44 C-275.03 489.11 -275.69 488.78 -276.38 488.44 C-278.38 487.44 -278.38 487.44 -279.38 484.44 C-280.03 484.11 -280.69 483.78 -281.38 483.44 C-283.38 482.44 -283.38 482.44 -284.38 479.44 C-285.03 479.11 -285.69 478.78 -286.38 478.44 C-288.38 477.44 -288.38 477.44 -289.38 474.44 C-290.03 474.11 -290.69 473.78 -291.38 473.44 C-293.38 472.44 -293.38 472.44 -294.38 469.44 C-295.03 469.11 -295.69 468.78 -296.38 468.44 C-298.38 467.44 -298.38 467.44 -299.38 464.44 C-300.03 464.11 -300.69 463.78 -301.38 463.44 C-303.38 462.44 -303.38 462.44 -304.38 459.44 C-305.03 459.11 -305.69 458.78 -306.38 458.44 C-308.38 457.44 -308.38 457.44 -309.38 454.44 C-310.03 454.11 -310.69 453.78 -311.38 453.44 C-313.38 452.44 -313.38 452.44 -314.38 449.44 C-315.03 449.11 -315.69 448.78 -316.38 448.44 C-318.38 447.44 -318.38 447.44 -319.38 444.44 C-320.03 444.11 -320.69 443.78 -321.38 443.44 C-323.38 442.44 -323.38 442.44 -324.38 439.44 C-325.03 439.11 -325.69 438.78 -326.38 438.44 C-328.38 437.44 -328.38 437.44 -329.38 434.44 C-330.03 434.11 -330.69 433.78 -331.38 433.44 C-333.38 432.44 -333.38 432.44 -334.38 429.44 C-335.03 429.11 -335.69 428.78 -336.38 428.44 C-338.38 427.44 -338.38 427.44 -339.38 424.44 C-340.04 424.11 -340.69 423.78 -341.38 423.44 C-343.38 422.44 -343.38 422.44 -344.38 419.44 C-345.04 419.11 -345.69 418.78 -346.38 418.44 C-348.38 417.44 -348.38 417.44 -349.38 414.44 C-350.04 414.11 -350.69 413.78 -351.38 413.44 C-353.38 412.44 -353.38 412.44 -354.38 409.44 C-355.37 409.11 -356.36 408.78 -357.38 408.44 C-357.38 407.78 -357.38 407.12 -357.38 406.44 C-358.04 406.44 -358.69 406.44 -359.38 406.44 C-360.67 404.21 -361.96 401.98 -363.25 399.75 C-363.61 399.12 -363.98 398.5 -364.36 397.85 C-371.72 385.07 -372.83 371.87 -369.28 357.68 C-366.65 348.24 -362.78 341.85 -356.38 334.44 C-355.42 333.23 -354.46 332.02 -353.5 330.81 C-352.8 330.03 -352.1 329.25 -351.38 328.44 C-350.71 328.44 -350.06 328.44 -349.38 328.44 C-349.38 327.78 -349.38 327.12 -349.38 326.44 C-348 324.81 -348 324.81 -346.38 323.44 C-345.71 323.44 -345.06 323.44 -344.38 323.44 C-344.38 322.78 -344.38 322.12 -344.38 321.44 C-343 319.81 -343 319.81 -341.38 318.44 C-340.71 318.44 -340.06 318.44 -339.38 318.44 C-339.38 317.78 -339.38 317.12 -339.38 316.44 C-338 314.81 -338 314.81 -336.38 313.44 C-335.72 313.44 -335.06 313.44 -334.38 313.44 C-334.38 312.78 -334.38 312.12 -334.38 311.44 C-333 309.81 -333 309.81 -331.38 308.44 C-330.72 308.44 -330.06 308.44 -329.38 308.44 C-329.38 307.78 -329.38 307.12 -329.38 306.44 C-328 304.81 -328 304.81 -326.38 303.44 C-325.72 303.44 -325.06 303.44 -324.38 303.44 C-324.38 302.78 -324.38 302.12 -324.38 301.44 C-323 299.81 -323 299.81 -321.38 298.44 C-320.72 298.44 -320.06 298.44 -319.38 298.44 C-319.38 297.78 -319.38 297.12 -319.38 296.44 C-318 294.81 -318 294.81 -316.38 293.44 C-315.72 293.44 -315.06 293.44 -314.38 293.44 C-314.38 292.78 -314.38 292.12 -314.38 291.44 C-313 289.81 -313 289.81 -311.38 288.44 C-310.72 288.44 -310.06 288.44 -309.38 288.44 C-309.38 287.78 -309.38 287.12 -309.38 286.44 C-308 284.81 -308 284.81 -306.38 283.44 C-305.72 283.44 -305.06 283.44 -304.38 283.44 C-304.38 282.78 -304.38 282.12 -304.38 281.44 C-303 279.81 -303 279.81 -301.38 278.44 C-300.72 278.44 -300.06 278.44 -299.38 278.44 C-299.38 277.78 -299.38 277.12 -299.38 276.44 C-298 274.81 -298 274.81 -296.38 273.44 C-295.72 273.44 -295.06 273.44 -294.38 273.44 C-294.38 272.78 -294.38 272.12 -294.38 271.44 C-293 269.81 -293 269.81 -291.38 268.44 C-290.72 268.44 -290.06 268.44 -289.38 268.44 C-289.38 267.78 -289.38 267.12 -289.38 266.44 C-288 264.81 -288 264.81 -286.38 263.44 C-285.72 263.44 -285.06 263.44 -284.38 263.44 C-284.38 262.78 -284.38 262.12 -284.38 261.44 C-283 259.81 -283 259.81 -281.38 258.44 C-280.72 258.44 -280.06 258.44 -279.38 258.44 C-279.38 257.78 -279.38 257.12 -279.38 256.44 C-278 254.81 -278 254.81 -276.38 253.44 C-275.72 253.44 -275.06 253.44 -274.38 253.44 C-274.38 252.78 -274.38 252.12 -274.38 251.44 C-273 249.81 -273 249.81 -271.38 248.44 C-270.72 248.44 -270.06 248.44 -269.38 248.44 C-269.38 247.78 -269.38 247.12 -269.38 246.44 C-268 244.81 -268 244.81 -266.38 243.44 C-265.72 243.44 -265.06 243.44 -264.38 243.44 C-264.38 242.78 -264.38 242.12 -264.38 241.44 C-263 239.81 -263 239.81 -261.38 238.44 C-260.72 238.44 -260.06 238.44 -259.38 238.44 C-259.38 237.78 -259.38 237.12 -259.38 236.44 C-258 234.81 -258 234.81 -256.38 233.44 C-255.72 233.44 -255.06 233.44 -254.38 233.44 C-254.38 232.78 -254.38 232.12 -254.38 231.44 C-253 229.81 -253 229.81 -251.38 228.44 C-250.72 228.44 -250.06 228.44 -249.38 228.44 C-249.38 227.78 -249.38 227.12 -249.38 226.44 C-248 224.81 -248 224.81 -246.38 223.44 C-245.72 223.44 -245.06 223.44 -244.38 223.44 C-244.38 222.78 -244.38 222.12 -244.38 221.44 C-243 219.81 -243 219.81 -241.38 218.44 C-240.72 218.44 -240.06 218.44 -239.38 218.44 C-239.38 217.78 -239.38 217.12 -239.38 216.44 C-238 214.81 -238 214.81 -236.38 213.44 C-235.72 213.44 -235.06 213.44 -234.38 213.44 C-234.38 212.78 -234.38 212.12 -234.38 211.44 C-233 209.81 -233 209.81 -231.38 208.44 C-230.72 208.44 -230.06 208.44 -229.38 208.44 C-229.38 207.78 -229.38 207.12 -229.38 206.44 C-228 204.81 -228 204.81 -226.38 203.44 C-225.72 203.44 -225.06 203.44 -224.38 203.44 C-224.38 202.78 -224.38 202.12 -224.38 201.44 C-223 199.81 -223 199.81 -221.38 198.44 C-220.72 198.44 -220.06 198.44 -219.38 198.44 C-219.38 197.78 -219.38 197.12 -219.38 196.44 C-218 194.81 -218 194.81 -216.38 193.44 C-215.72 193.44 -215.06 193.44 -214.38 193.44 C-214.38 192.78 -214.38 192.12 -214.38 191.44 C-213 189.81 -213 189.81 -211.38 188.44 C-210.72 188.44 -210.06 188.44 -209.38 188.44 C-209.38 187.78 -209.38 187.12 -209.38 186.44 C-208 184.81 -208 184.81 -206.38 183.44 C-205.72 183.44 -205.06 183.44 -204.38 183.44 C-204.38 182.78 -204.38 182.12 -204.38 181.44 C-203 179.81 -203 179.81 -201.38 178.44 C-200.72 178.44 -200.06 178.44 -199.38 178.44 C-199.38 177.78 -199.38 177.12 -199.38 176.44 C-198 174.81 -198 174.81 -196.38 173.44 C-195.72 173.44 -195.06 173.44 -194.38 173.44 C-194.38 172.78 -194.38 172.12 -194.38 171.44 C-193 169.81 -193 169.81 -191.38 168.44 C-190.72 168.44 -190.06 168.44 -189.38 168.44 C-189.38 167.78 -189.38 167.12 -189.38 166.44 C-188 164.81 -188 164.81 -186.38 163.44 C-185.72 163.44 -185.06 163.44 -184.38 163.44 C-184.38 162.78 -184.38 162.12 -184.38 161.44 C-183 159.81 -183 159.81 -181.38 158.44 C-180.72 158.44 -180.06 158.44 -179.38 158.44 C-179.38 157.78 -179.38 157.12 -179.38 156.44 C-178 154.81 -178 154.81 -176.38 153.44 C-175.72 153.44 -175.06 153.44 -174.38 153.44 C-174.38 152.78 -174.38 152.12 -174.38 151.44 C-173 149.81 -173 149.81 -171.38 148.44 C-170.72 148.44 -170.06 148.44 -169.38 148.44 C-169.38 147.78 -169.38 147.12 -169.38 146.44 C-168 144.81 -168 144.81 -166.38 143.44 C-165.72 143.44 -165.06 143.44 -164.38 143.44 C-164.38 142.78 -164.38 142.12 -164.38 141.44 C-163 139.81 -163 139.81 -161.38 138.44 C-160.72 138.44 -160.06 138.44 -159.38 138.44 C-159.38 137.78 -159.38 137.12 -159.38 136.44 C-158 134.81 -158 134.81 -156.38 133.44 C-155.72 133.44 -155.06 133.44 -154.38 133.44 C-154.38 132.78 -154.38 132.12 -154.38 131.44 C-153 129.81 -153 129.81 -151.38 128.44 C-150.72 128.44 -150.06 128.44 -149.38 128.44 C-149.38 127.78 -149.38 127.12 -149.38 126.44 C-148 124.81 -148 124.81 -146.38 123.44 C-145.72 123.44 -145.06 123.44 -144.38 123.44 C-144.38 122.78 -144.38 122.12 -144.38 121.44 C-143 119.81 -143 119.81 -141.38 118.44 C-140.72 118.44 -140.06 118.44 -139.38 118.44 C-139.38 117.78 -139.38 117.12 -139.38 116.44 C-138 114.81 -138 114.81 -136.38 113.44 C-135.72 113.44 -135.06 113.44 -134.38 113.44 C-134.38 112.78 -134.38 112.12 -134.38 111.44 C-133 109.81 -133 109.81 -131.38 108.44 C-130.72 108.44 -130.06 108.44 -129.38 108.44 C-129.38 107.78 -129.38 107.12 -129.38 106.44 C-128 104.81 -128 104.81 -126.38 103.44 C-125.72 103.44 -125.06 103.44 -124.38 103.44 C-124.38 102.78 -124.38 102.12 -124.38 101.44 C-123 99.81 -123 99.81 -121.38 98.44 C-120.72 98.44 -120.06 98.44 -119.38 98.44 C-119.38 97.78 -119.38 97.12 -119.38 96.44 C-118 94.81 -118 94.81 -116.38 93.44 C-115.72 93.44 -115.06 93.44 -114.38 93.44 C-114.38 92.78 -114.38 92.12 -114.38 91.44 C-113 89.81 -113 89.81 -111.38 88.44 C-110.71 88.44 -110.06 88.44 -109.38 88.44 C-109.38 87.78 -109.38 87.12 -109.38 86.44 C-108 84.81 -108 84.81 -106.38 83.44 C-105.71 83.44 -105.06 83.44 -104.38 83.44 C-104.38 82.78 -104.38 82.12 -104.38 81.44 C-103 79.81 -103 79.81 -101.38 78.44 C-100.71 78.44 -100.06 78.44 -99.38 78.44 C-99.38 77.78 -99.38 77.12 -99.38 76.44 C-98 74.81 -98 74.81 -96.38 73.44 C-95.71 73.44 -95.06 73.44 -94.38 73.44 C-94.38 72.78 -94.38 72.12 -94.38 71.44 C-93 69.81 -93 69.81 -91.38 68.44 C-90.71 68.44 -90.06 68.44 -89.38 68.44 C-89.38 67.78 -89.38 67.12 -89.38 66.44 C-88 64.81 -88 64.81 -86.38 63.44 C-85.71 63.44 -85.06 63.44 -84.38 63.44 C-84.38 62.78 -84.38 62.12 -84.38 61.44 C-83 59.81 -83 59.81 -81.38 58.44 C-80.71 58.44 -80.06 58.44 -79.38 58.44 C-79.38 57.78 -79.38 57.12 -79.38 56.44 C-78 54.81 -78 54.81 -76.38 53.44 C-75.71 53.44 -75.06 53.44 -74.38 53.44 C-74.38 52.78 -74.38 52.12 -74.38 51.44 C-73 49.81 -73 49.81 -71.38 48.44 C-70.71 48.44 -70.06 48.44 -69.38 48.44 C-69.38 47.78 -69.38 47.12 -69.38 46.44 C-68 44.81 -68 44.81 -66.38 43.44 C-65.71 43.44 -65.06 43.44 -64.38 43.44 C-64.38 42.78 -64.38 42.12 -64.38 41.44 C-63 39.81 -63 39.81 -61.38 38.44 C-60.71 38.44 -60.06 38.44 -59.38 38.44 C-59.38 37.78 -59.38 37.12 -59.38 36.44 C-58 34.81 -58 34.81 -56.38 33.44 C-55.71 33.44 -55.06 33.44 -54.38 33.44 C-54.38 32.78 -54.38 32.12 -54.38 31.44 C-53 29.81 -53 29.81 -51.38 28.44 C-50.71 28.44 -50.06 28.44 -49.38 28.44 C-49.38 27.78 -49.38 27.12 -49.38 26.44 C-48 24.81 -48 24.81 -46.38 23.44 C-45.71 23.44 -45.06 23.44 -44.38 23.44 C-44.38 22.78 -44.38 22.12 -44.38 21.44 C-43 19.81 -43 19.81 -41.38 18.44 C-40.71 18.44 -40.06 18.44 -39.38 18.44 C-39.38 17.78 -39.38 17.12 -39.38 16.44 C-28.13 5.81 -15.52 -0.18 0 0 Z " fill="#000000" transform="translate(796.375,268.5625)"/>
</svg>
