<?xml version="1.0" encoding="UTF-8"?>
<!-- Generator: visioncortex VTracer 0.6.3 -->
<svg version="1.1" xmlns="http://www.w3.org/2000/svg" width="1280" height="1280">
<path d="M0 0 C0.47 0.45 0.95 0.91 1.44 1.38 C1.44 2.04 1.44 2.69 1.44 3.38 C2.1 3.38 2.76 3.38 3.44 3.38 C4.69 4.77 4.69 4.77 6 6.75 C6.43 7.38 6.87 8 7.32 8.65 C10.08 15.36 9.58 23.4 9.56 30.58 C9.56 31.45 9.57 32.32 9.57 33.22 C9.57 36.13 9.57 39.04 9.56 41.95 C9.57 44.07 9.57 46.18 9.57 48.3 C9.57 54.09 9.57 59.89 9.57 65.69 C9.57 71.95 9.57 78.2 9.57 84.46 C9.58 96.01 9.58 107.55 9.57 119.1 C9.57 129.76 9.57 140.43 9.57 151.09 C9.57 151.8 9.57 152.51 9.57 153.24 C9.57 156.11 9.57 158.98 9.57 161.86 C9.58 188.8 9.57 215.75 9.57 242.69 C9.56 266.63 9.56 290.56 9.57 314.5 C9.57 341.39 9.58 368.29 9.57 395.19 C9.57 398.06 9.57 400.93 9.57 403.79 C9.57 404.5 9.57 405.21 9.57 405.93 C9.57 416.59 9.57 427.25 9.57 437.91 C9.58 450.03 9.58 462.15 9.57 474.27 C9.57 480.45 9.57 486.64 9.57 492.82 C9.57 498.48 9.57 504.14 9.57 509.8 C9.57 511.85 9.57 513.9 9.57 515.95 C9.57 518.73 9.57 521.52 9.56 524.3 C9.57 525.09 9.57 525.89 9.57 526.71 C9.54 536.62 8.92 543.53 2.44 551.38 C0.06 553.69 0.06 553.69 -2.56 555.38 C-3.09 555.74 -3.62 556.11 -4.16 556.5 C-10.49 560.38 -17.35 560.22 -24.56 559.38 C-27.59 558.45 -29.98 557.19 -32.56 555.38 C-33.45 554.8 -34.34 554.22 -35.25 553.62 C-41.61 547.44 -44.54 539.91 -44.81 531.08 C-44.82 529.51 -44.82 527.93 -44.81 526.36 C-44.82 525.48 -44.82 524.6 -44.82 523.7 C-44.83 520.76 -44.82 517.82 -44.82 514.88 C-44.82 512.76 -44.82 510.63 -44.83 508.5 C-44.83 502.65 -44.83 496.8 -44.82 490.95 C-44.82 484.65 -44.83 478.34 -44.83 472.03 C-44.84 460.39 -44.84 448.75 -44.83 437.11 C-44.83 426.35 -44.83 415.6 -44.83 404.84 C-44.83 404.13 -44.83 403.41 -44.83 402.68 C-44.83 399.78 -44.83 396.89 -44.83 393.99 C-44.84 366.82 -44.83 339.65 -44.82 312.48 C-44.81 288.34 -44.81 264.21 -44.82 240.07 C-44.83 212.95 -44.84 185.84 -44.83 158.72 C-44.83 155.83 -44.83 152.93 -44.83 150.04 C-44.83 149.33 -44.83 148.62 -44.83 147.89 C-44.83 137.14 -44.83 126.39 -44.84 115.64 C-44.84 103.42 -44.84 91.2 -44.83 78.98 C-44.82 72.74 -44.82 66.5 -44.83 60.27 C-44.83 54.56 -44.83 48.85 -44.82 43.14 C-44.82 41.07 -44.82 39.01 -44.82 36.94 C-44.83 34.13 -44.82 31.33 -44.81 28.52 C-44.82 27.72 -44.82 26.91 -44.83 26.09 C-44.76 15.4 -42.36 8.25 -34.82 0.61 C-24.37 -8.96 -11.28 -7.15 0 0 Z " fill="#000000" transform="translate(964.5625,260.625)"/>
<path d="M0 0 C7.55 4.95 11.75 11.14 13.61 19.86 C14.27 23.74 14.31 27.54 14.29 31.46 C14.29 32.78 14.29 32.78 14.3 34.12 C14.3 37.05 14.3 39.98 14.29 42.91 C14.29 45.03 14.29 47.16 14.3 49.29 C14.31 55.12 14.3 60.95 14.3 66.79 C14.29 73.08 14.3 79.38 14.3 85.67 C14.31 97.29 14.31 108.9 14.31 120.52 C14.3 131.25 14.3 141.98 14.3 152.71 C14.3 153.43 14.3 154.14 14.3 154.87 C14.3 157.76 14.3 160.65 14.31 163.54 C14.31 190.65 14.31 217.76 14.29 244.87 C14.29 268.96 14.29 293.04 14.3 317.12 C14.31 344.18 14.31 371.24 14.3 398.3 C14.3 401.19 14.3 404.07 14.3 406.96 C14.3 407.67 14.3 408.38 14.3 409.11 C14.3 419.84 14.3 430.56 14.31 441.28 C14.31 453.48 14.31 465.67 14.3 477.87 C14.3 484.09 14.29 490.31 14.3 496.54 C14.31 502.23 14.3 507.93 14.29 513.62 C14.29 515.68 14.29 517.75 14.3 519.81 C14.3 522.61 14.3 525.41 14.29 528.21 C14.29 529.41 14.29 529.41 14.3 530.64 C14.24 540.22 12.33 547.94 6.04 555.34 C-0.75 561.48 -7.33 562.87 -16.39 562.71 C-24.84 561.83 -30.3 557.72 -35.59 551.3 C-40.63 544.1 -40.12 535.74 -40.09 527.26 C-40.09 526.39 -40.09 525.52 -40.1 524.62 C-40.1 521.71 -40.1 518.8 -40.09 515.88 C-40.09 513.77 -40.09 511.66 -40.1 509.55 C-40.1 503.75 -40.1 497.95 -40.1 492.15 C-40.09 485.9 -40.1 479.64 -40.1 473.38 C-40.1 461.84 -40.1 450.3 -40.1 438.75 C-40.1 428.09 -40.1 417.42 -40.1 406.75 C-40.1 406.05 -40.1 405.34 -40.1 404.61 C-40.1 401.74 -40.1 398.86 -40.1 395.99 C-40.1 369.04 -40.1 342.1 -40.09 315.15 C-40.09 291.21 -40.09 267.28 -40.1 243.35 C-40.1 216.45 -40.1 189.55 -40.1 162.66 C-40.1 159.79 -40.1 156.92 -40.1 154.05 C-40.1 153.35 -40.1 152.64 -40.1 151.91 C-40.1 141.25 -40.1 130.6 -40.1 119.94 C-40.1 107.82 -40.1 95.7 -40.1 83.58 C-40.1 77.39 -40.09 71.21 -40.1 65.02 C-40.1 59.36 -40.1 53.7 -40.09 48.04 C-40.09 45.99 -40.09 43.94 -40.1 41.89 C-40.1 39.11 -40.1 36.32 -40.09 33.54 C-40.09 32.74 -40.1 31.95 -40.1 31.14 C-40.04 14.78 -40.04 14.78 -36.53 9.71 C-36.1 9.06 -35.66 8.41 -35.22 7.73 C-34.8 7.27 -34.39 6.81 -33.96 6.34 C-33.3 6.34 -32.64 6.34 -31.96 6.34 C-31.96 5.68 -31.96 5.02 -31.96 4.34 C-23.22 -3.73 -10.62 -5.44 0 0 Z " fill="#000000" transform="translate(345.96484375,257.6640625)"/>
<path d="M0 0 C6.54 3.71 11.62 7.68 14.62 14.75 C15.46 20.18 15.77 25.48 15.75 30.97 C15.75 31.77 15.75 32.56 15.76 33.37 C15.76 36.02 15.76 38.67 15.75 41.31 C15.75 43.23 15.75 45.15 15.76 47.07 C15.76 52.34 15.76 57.61 15.76 62.87 C15.75 68.56 15.76 74.24 15.76 79.93 C15.76 91.06 15.76 102.19 15.76 113.32 C15.76 122.37 15.76 131.42 15.76 140.46 C15.76 141.75 15.76 143.04 15.76 144.36 C15.76 146.98 15.76 149.59 15.76 152.21 C15.76 176.03 15.76 199.86 15.75 223.68 C15.75 245.43 15.75 267.17 15.76 288.92 C15.76 313.35 15.76 337.79 15.76 362.22 C15.76 364.83 15.76 367.43 15.76 370.04 C15.76 371.96 15.76 371.96 15.76 373.92 C15.76 382.96 15.76 392 15.76 401.03 C15.76 412.04 15.76 423.06 15.76 434.07 C15.76 439.69 15.75 445.31 15.76 450.92 C15.76 456.07 15.76 461.21 15.75 466.35 C15.75 468.21 15.75 470.08 15.76 471.94 C15.76 474.47 15.76 477 15.75 479.53 C15.75 480.25 15.76 480.97 15.76 481.72 C15.72 491.1 14.81 498.24 8.21 505.26 C1.02 511.7 -5.39 512.29 -14.76 512.11 C-20.8 511.51 -24.38 509.08 -29.38 505.75 C-29.38 505.09 -29.38 504.43 -29.38 503.75 C-30.03 503.75 -30.7 503.75 -31.38 503.75 C-40.37 493.69 -38.66 478.67 -38.63 466.12 C-38.63 464.23 -38.63 462.34 -38.64 460.45 C-38.65 455.28 -38.64 450.1 -38.64 444.93 C-38.63 439.34 -38.64 433.75 -38.64 428.17 C-38.65 417.23 -38.65 406.29 -38.65 395.35 C-38.64 386.46 -38.64 377.57 -38.64 368.67 C-38.64 367.41 -38.64 366.14 -38.64 364.84 C-38.64 362.27 -38.64 359.69 -38.65 357.12 C-38.65 333.69 -38.65 310.27 -38.63 286.84 C-38.63 265.47 -38.63 244.1 -38.64 222.73 C-38.65 198.7 -38.65 174.68 -38.64 150.65 C-38.64 148.09 -38.64 145.52 -38.64 142.96 C-38.64 141.7 -38.64 140.44 -38.64 139.14 C-38.64 130.26 -38.64 121.38 -38.65 112.5 C-38.65 101.68 -38.65 90.86 -38.64 80.03 C-38.64 74.51 -38.63 68.99 -38.64 63.47 C-38.65 58.41 -38.64 53.36 -38.63 48.3 C-38.63 46.47 -38.63 44.65 -38.64 42.82 C-38.71 14.66 -38.71 14.66 -30.38 5.75 C-21.28 -1.7 -11.15 -5.42 0 0 Z " fill="#000000" transform="translate(753.375,359.25)"/>
<path d="M0 0 C7.81 3.79 13.52 8.05 17.24 16.02 C19.96 26.03 19.52 36.5 19.49 46.78 C19.49 48.67 19.5 50.56 19.5 52.45 C19.51 57.62 19.51 62.8 19.5 67.97 C19.5 73.56 19.5 79.15 19.51 84.74 C19.52 95.68 19.51 106.62 19.51 117.56 C19.5 126.45 19.5 135.34 19.51 144.23 C19.51 145.5 19.51 146.76 19.51 148.07 C19.51 150.64 19.51 153.21 19.51 155.78 C19.51 179.21 19.51 202.63 19.5 226.06 C19.49 247.43 19.49 268.8 19.5 290.17 C19.51 314.2 19.51 338.23 19.51 362.26 C19.51 364.82 19.51 367.38 19.51 369.94 C19.51 371.2 19.51 372.47 19.5 373.76 C19.5 382.64 19.51 391.52 19.51 400.4 C19.52 411.23 19.51 422.05 19.5 432.87 C19.5 438.39 19.5 443.91 19.5 449.43 C19.51 454.49 19.51 459.54 19.5 464.6 C19.49 466.43 19.49 468.25 19.5 470.08 C19.57 496.82 19.57 496.82 12.24 505.02 C11.58 505.02 10.92 505.02 10.24 505.02 C10.24 505.68 10.24 506.34 10.24 507.02 C8.59 508.27 8.59 508.27 6.43 509.58 C5.72 510.02 5.01 510.45 4.28 510.9 C-2.02 514.36 -11.5 514.26 -18.35 512.27 C-20.3 511.31 -22.01 510.28 -23.76 509.02 C-24.65 508.44 -25.54 507.86 -26.45 507.27 C-33.2 500.7 -34.6 494.26 -34.89 485.05 C-34.89 483.63 -34.89 482.21 -34.89 480.8 C-34.89 480 -34.89 479.21 -34.89 478.4 C-34.9 475.75 -34.89 473.1 -34.89 470.46 C-34.89 468.54 -34.89 466.62 -34.89 464.7 C-34.9 459.43 -34.9 454.16 -34.89 448.9 C-34.89 443.21 -34.89 437.53 -34.9 431.84 C-34.9 420.71 -34.9 409.58 -34.9 398.45 C-34.89 389.4 -34.89 380.35 -34.9 371.31 C-34.9 370.02 -34.9 368.73 -34.9 367.41 C-34.9 364.79 -34.9 362.18 -34.9 359.56 C-34.9 335.74 -34.9 311.91 -34.89 288.09 C-34.89 266.34 -34.89 244.6 -34.89 222.85 C-34.9 198.42 -34.9 173.98 -34.9 149.55 C-34.9 146.94 -34.9 144.34 -34.9 141.73 C-34.9 139.81 -34.9 139.81 -34.9 137.85 C-34.89 128.81 -34.9 119.77 -34.9 110.74 C-34.9 99.73 -34.9 88.71 -34.89 77.7 C-34.89 72.08 -34.89 66.46 -34.89 60.85 C-34.9 55.7 -34.9 50.56 -34.89 45.42 C-34.89 43.55 -34.89 41.69 -34.89 39.83 C-34.9 37.3 -34.89 34.77 -34.89 32.24 C-34.89 31.16 -34.89 31.16 -34.89 30.05 C-34.86 20.12 -33.54 13.58 -26.76 6.02 C-19.07 -0.22 -9.67 -3.43 0 0 Z " fill="#000000" transform="translate(545.76171875,357.98046875)"/>
<path d="M0 0 C4.97 4.74 7.72 10.13 8.38 16.91 C8.39 18.37 8.39 19.82 8.38 21.28 C8.38 22.09 8.39 22.89 8.39 23.73 C8.4 26.44 8.39 29.15 8.38 31.87 C8.38 33.83 8.39 35.79 8.4 37.76 C8.41 43.16 8.4 48.55 8.39 53.95 C8.39 59.77 8.4 65.6 8.4 71.42 C8.42 82.82 8.41 94.22 8.41 105.63 C8.4 114.9 8.4 124.16 8.4 133.43 C8.4 134.75 8.4 136.07 8.4 137.42 C8.4 139.43 8.4 141.44 8.41 143.44 C8.41 168.52 8.41 193.59 8.39 218.66 C8.38 240.94 8.38 263.21 8.39 285.49 C8.41 310.51 8.41 335.54 8.4 360.57 C8.4 363.23 8.4 365.9 8.4 368.57 C8.4 369.88 8.4 371.2 8.4 372.55 C8.4 381.81 8.4 391.06 8.41 400.32 C8.42 411.6 8.42 422.88 8.4 434.16 C8.39 439.92 8.39 445.67 8.4 451.43 C8.41 456.7 8.4 461.96 8.39 467.23 C8.38 469.14 8.38 471.05 8.39 472.96 C8.4 475.55 8.39 478.13 8.38 480.72 C8.38 481.47 8.39 482.21 8.4 482.98 C8.34 488.08 7.22 491.51 5 496 C4.34 496 3.68 496 3 496 C2.74 496.6 2.47 497.19 2.2 497.8 C-0.21 502.2 -4.28 505.12 -8.69 507.38 C-19.45 509.41 -27.26 507.86 -36.25 501.81 C-43.7 494.2 -45.16 486.4 -45.13 476.01 C-45.13 475.22 -45.13 474.42 -45.13 473.61 C-45.14 470.95 -45.14 468.3 -45.13 465.64 C-45.14 463.72 -45.14 461.8 -45.14 459.88 C-45.15 454.59 -45.15 449.31 -45.15 444.02 C-45.15 438.33 -45.15 432.63 -45.16 426.93 C-45.16 415.77 -45.17 404.6 -45.17 393.44 C-45.17 384.37 -45.17 375.3 -45.17 366.23 C-45.18 344.7 -45.19 323.17 -45.19 301.65 C-45.19 300.96 -45.19 300.27 -45.19 299.56 C-45.19 296.07 -45.19 292.58 -45.19 289.09 C-45.19 288.4 -45.19 287.71 -45.19 286.99 C-45.19 285.59 -45.19 284.19 -45.19 282.79 C-45.18 260.98 -45.19 239.18 -45.21 217.37 C-45.22 192.87 -45.23 168.38 -45.23 143.88 C-45.23 130.91 -45.23 117.94 -45.24 104.96 C-45.25 93.92 -45.25 82.88 -45.25 71.84 C-45.24 66.2 -45.24 60.57 -45.25 54.93 C-45.26 49.77 -45.26 44.61 -45.25 39.46 C-45.25 37.59 -45.25 35.72 -45.26 33.86 C-45.26 31.32 -45.26 28.78 -45.25 26.25 C-45.25 25.52 -45.26 24.8 -45.26 24.05 C-45.22 17.43 -44.16 11.13 -40.5 5.5 C-40.08 4.83 -39.65 4.16 -39.22 3.47 C-38.62 2.74 -38.62 2.74 -38 2 C-37.34 2 -36.68 2 -36 2 C-36 1.34 -36 0.68 -36 0 C-26.06 -8.29 -9.83 -8.67 0 0 Z " fill="#000000" transform="translate(863,517)"/>
<path d="M0 0 C0 0.66 0 1.32 0 2 C0.99 2.33 1.98 2.66 3 3 C4.35 4.86 4.35 4.86 5.62 7.19 C6.26 8.32 6.26 8.32 6.91 9.48 C9.2 14.78 9.14 20.31 9.13 25.99 C9.13 26.78 9.13 27.57 9.13 28.39 C9.14 31.04 9.14 33.7 9.13 36.35 C9.14 38.27 9.14 40.19 9.14 42.11 C9.15 47.4 9.15 52.68 9.15 57.96 C9.15 63.66 9.15 69.35 9.16 75.05 C9.16 86.21 9.17 97.37 9.17 108.53 C9.17 117.6 9.17 126.67 9.17 135.74 C9.18 157.26 9.19 178.78 9.19 200.3 C9.19 200.99 9.19 201.68 9.19 202.39 C9.19 205.88 9.19 209.37 9.19 212.85 C9.19 213.55 9.19 214.24 9.19 214.95 C9.19 216.35 9.19 217.76 9.19 219.16 C9.18 240.96 9.19 262.76 9.21 284.55 C9.22 309.05 9.23 333.54 9.23 358.03 C9.23 371 9.23 383.96 9.24 396.93 C9.25 407.97 9.25 419.01 9.25 430.05 C9.24 435.68 9.24 441.32 9.25 446.95 C9.26 452.11 9.26 457.27 9.25 462.42 C9.25 464.29 9.25 466.15 9.26 468.02 C9.26 470.56 9.26 473.09 9.25 475.63 C9.25 476.35 9.26 477.08 9.26 477.82 C9.2 487 7.43 494.26 1 501 C-5.66 506.89 -12.14 508.49 -20.96 508.31 C-28.75 507.51 -34.03 503.86 -39 498 C-39 497.34 -39 496.68 -39 496 C-39.66 496 -40.32 496 -41 496 C-43.58 490.79 -44.43 486.56 -44.38 480.73 C-44.38 479.92 -44.39 479.11 -44.39 478.27 C-44.41 475.56 -44.4 472.85 -44.39 470.14 C-44.39 468.18 -44.4 466.21 -44.4 464.25 C-44.42 458.85 -44.41 453.46 -44.41 448.06 C-44.4 442.24 -44.41 436.42 -44.42 430.6 C-44.44 419.2 -44.44 407.8 -44.44 396.4 C-44.43 387.14 -44.44 377.87 -44.44 368.61 C-44.44 367.29 -44.44 365.97 -44.44 364.62 C-44.44 362.61 -44.44 360.6 -44.45 358.6 C-44.46 339.95 -44.46 321.3 -44.45 302.65 C-44.45 301.95 -44.45 301.25 -44.45 300.52 C-44.45 294.81 -44.45 289.1 -44.45 283.4 C-44.43 261.13 -44.44 238.86 -44.47 216.59 C-44.49 191.57 -44.51 166.55 -44.5 141.53 C-44.49 128.28 -44.5 115.03 -44.51 101.79 C-44.53 90.51 -44.53 79.23 -44.51 67.95 C-44.5 62.2 -44.5 56.45 -44.52 50.69 C-44.53 45.42 -44.53 40.16 -44.51 34.89 C-44.5 32.98 -44.51 31.08 -44.52 29.17 C-44.53 26.58 -44.52 23.99 -44.5 21.4 C-44.51 20.66 -44.52 19.92 -44.53 19.15 C-44.43 11.73 -41.16 5.31 -36 0 C-26.1 -7.8 -9.69 -9.15 0 0 Z " fill="#000000" transform="translate(453,517)"/>
<path d="M0 0 C1.08 -0.01 2.17 -0.01 3.28 -0.02 C6.64 0.26 9.36 1.06 12.5 2.25 C12.5 2.91 12.5 3.57 12.5 4.25 C13.1 4.36 13.69 4.47 14.31 4.58 C18.9 5.98 21.76 10.08 24.25 14 C27.98 23.69 27.79 33.62 27.76 43.85 C27.76 45.54 27.77 47.22 27.77 48.9 C27.78 53.51 27.78 58.11 27.78 62.71 C27.77 67.69 27.78 72.66 27.79 77.63 C27.8 87.37 27.8 97.1 27.8 106.84 C27.8 114.75 27.8 122.67 27.81 130.58 C27.81 132.27 27.81 132.27 27.81 134 C27.81 136.29 27.81 138.58 27.81 140.87 C27.82 162.34 27.82 183.81 27.81 205.28 C27.81 224.91 27.82 244.54 27.84 264.16 C27.86 284.33 27.87 304.5 27.86 324.67 C27.86 335.99 27.86 347.3 27.88 358.62 C27.89 368.26 27.89 377.89 27.88 387.53 C27.87 392.44 27.87 397.35 27.88 402.27 C27.9 406.77 27.89 411.27 27.88 415.78 C27.88 417.4 27.88 419.02 27.89 420.65 C27.93 430.21 27.15 438.99 24.5 448.25 C23.84 448.25 23.18 448.25 22.5 448.25 C22.41 449.09 22.41 449.09 22.31 449.94 C20.43 455.3 15.18 458.43 10.5 461.25 C4.41 464.05 -1.83 464.52 -8.23 462.3 C-16.01 458.57 -21.65 454.3 -25.44 446.43 C-27.64 439.84 -27.18 432.87 -27.12 426 C-27.13 424.25 -27.13 422.49 -27.14 420.74 C-27.16 415.94 -27.14 411.14 -27.12 406.35 C-27.11 401.16 -27.12 395.98 -27.13 390.8 C-27.15 380.66 -27.13 370.52 -27.11 360.37 C-27.09 348.56 -27.09 336.75 -27.09 324.94 C-27.1 303.87 -27.08 282.8 -27.04 261.73 C-27.01 241.28 -26.99 220.83 -27 200.38 C-27.01 178.11 -27.01 155.84 -26.99 133.57 C-26.98 132.39 -26.98 131.22 -26.98 130 C-26.98 127.64 -26.98 125.27 -26.98 122.91 C-26.97 114.68 -26.97 106.44 -26.97 98.21 C-26.97 88.18 -26.96 78.14 -26.94 68.11 C-26.93 62.99 -26.92 57.88 -26.92 52.76 C-26.93 48.07 -26.92 43.39 -26.9 38.7 C-26.9 37.01 -26.9 35.31 -26.9 33.62 C-26.91 31.31 -26.9 29.01 -26.88 26.71 C-26.88 25.43 -26.88 24.15 -26.88 22.83 C-26.44 18.69 -25.31 15.97 -23.5 12.25 C-22.84 12.25 -22.18 12.25 -21.5 12.25 C-21.24 11.65 -20.97 11.06 -20.7 10.45 C-19.44 8.14 -18.23 6.83 -16.25 5.12 C-15.69 4.63 -15.13 4.13 -14.55 3.62 C-9.96 0.55 -5.42 -0.03 0 0 Z " fill="#000000" transform="translate(230.5,459.75)"/>
<path d="M0 0 C3.17 2.09 5.48 4.38 7.95 7.28 C7.95 7.94 7.95 8.6 7.95 9.28 C8.61 9.28 9.27 9.28 9.95 9.28 C13.95 17.26 13.37 25.53 13.34 34.23 C13.34 35.98 13.35 37.72 13.36 39.47 C13.37 44.25 13.37 49.04 13.37 53.82 C13.36 58.99 13.38 64.15 13.39 69.32 C13.41 79.43 13.42 89.55 13.41 99.66 C13.41 107.88 13.42 116.1 13.42 124.32 C13.43 126.69 13.43 129.06 13.43 131.43 C13.43 132.61 13.43 133.79 13.43 135 C13.45 157.29 13.45 179.58 13.45 201.87 C13.44 222.26 13.46 242.66 13.49 263.05 C13.53 283.99 13.54 304.93 13.54 325.86 C13.54 337.62 13.54 349.38 13.57 361.13 C13.59 371.14 13.59 381.14 13.57 391.15 C13.56 396.26 13.56 401.36 13.58 406.47 C13.6 411.14 13.6 415.82 13.57 420.49 C13.57 422.18 13.57 423.87 13.59 425.56 C13.66 435.95 13.12 444.66 5.73 452.68 C-2.29 458.38 -9.01 461.76 -19.05 460.28 C-25.15 458.18 -29.85 455.14 -34.05 450.28 C-34.71 449.62 -35.37 448.96 -36.05 448.28 C-36.05 447.29 -36.05 446.3 -36.05 445.28 C-36.71 445.28 -37.37 445.28 -38.05 445.28 C-40.94 435.2 -41.48 425.69 -41.44 415.31 C-41.44 413.62 -41.44 411.94 -41.45 410.25 C-41.46 405.65 -41.46 401.05 -41.45 396.45 C-41.44 391.48 -41.45 386.51 -41.46 381.54 C-41.47 371.81 -41.47 362.08 -41.46 352.35 C-41.45 344.44 -41.45 336.53 -41.46 328.62 C-41.46 327.5 -41.46 326.37 -41.46 325.21 C-41.46 322.92 -41.46 320.63 -41.46 318.34 C-41.47 296.89 -41.46 275.43 -41.44 253.98 C-41.43 235.58 -41.43 217.19 -41.45 198.79 C-41.46 177.41 -41.47 156.03 -41.46 134.65 C-41.46 132.37 -41.46 130.08 -41.46 127.8 C-41.46 126.68 -41.46 125.56 -41.45 124.4 C-41.45 116.51 -41.46 108.61 -41.46 100.71 C-41.47 91.09 -41.47 81.46 -41.45 71.83 C-41.45 66.92 -41.44 62.01 -41.45 57.11 C-41.46 52.61 -41.46 48.11 -41.44 43.61 C-41.44 41.99 -41.44 40.37 -41.45 38.74 C-41.5 25.36 -40.75 13.79 -31.49 3.41 C-29.05 1.28 -29.05 1.28 -26.05 1.28 C-26.05 0.62 -26.05 -0.04 -26.05 -0.72 C-17.49 -3.93 -8.25 -4.26 0 0 Z " fill="#000000" transform="translate(1063.0546875,462.71875)"/>
<path d="M0 0 C0 0.66 0 1.32 0 2 C0.99 2.33 1.98 2.66 3 3 C4.35 4.75 4.35 4.75 5.62 7 C6.05 7.72 6.48 8.44 6.91 9.19 C9.41 15.64 9.15 22.92 9.13 29.77 C9.13 30.6 9.13 31.44 9.13 32.29 C9.14 35.07 9.13 37.84 9.13 40.61 C9.13 42.6 9.13 44.6 9.13 46.6 C9.14 52 9.14 57.4 9.13 62.81 C9.13 68.47 9.13 74.14 9.14 79.81 C9.14 89.32 9.14 98.83 9.13 108.34 C9.12 119.33 9.13 130.32 9.13 141.3 C9.14 150.75 9.14 160.19 9.13 169.64 C9.13 175.27 9.13 180.91 9.14 186.54 C9.14 191.84 9.14 197.14 9.13 202.44 C9.13 204.38 9.13 206.32 9.13 208.26 C9.14 210.92 9.13 213.58 9.13 216.23 C9.13 217 9.13 217.76 9.13 218.54 C9.08 233.28 9.08 233.28 5.06 239.56 C4.54 240.41 4.01 241.26 3.47 242.13 C2.74 243.06 2.74 243.06 2 244 C1.34 244 0.68 244 0 244 C0 244.66 0 245.32 0 246 C-6.38 252.03 -13.96 252 -22.27 252 C-27.58 251.66 -31.99 249.42 -36 246 C-36 245.34 -36 244.68 -36 244 C-36.66 244 -37.32 244 -38 244 C-39.47 242.13 -39.47 242.13 -41.06 239.56 C-41.59 238.74 -42.12 237.92 -42.66 237.07 C-45.48 230.6 -45.15 223.19 -45.13 216.23 C-45.13 215.4 -45.13 214.56 -45.13 213.71 C-45.14 210.93 -45.13 208.16 -45.13 205.39 C-45.13 203.4 -45.13 201.4 -45.13 199.4 C-45.14 194 -45.14 188.6 -45.13 183.19 C-45.13 177.53 -45.13 171.86 -45.14 166.19 C-45.14 156.68 -45.14 147.17 -45.13 137.66 C-45.12 126.67 -45.13 115.68 -45.13 104.7 C-45.14 95.25 -45.14 85.81 -45.13 76.36 C-45.13 70.73 -45.13 65.09 -45.14 59.46 C-45.14 54.16 -45.14 48.86 -45.13 43.56 C-45.13 41.62 -45.13 39.68 -45.13 37.74 C-45.14 35.08 -45.13 32.42 -45.13 29.77 C-45.13 29 -45.13 28.24 -45.13 27.46 C-45.08 12.72 -45.08 12.72 -41.06 6.44 C-40.54 5.59 -40.01 4.74 -39.47 3.87 C-38.99 3.25 -38.5 2.64 -38 2 C-37.34 2 -36.68 2 -36 2 C-36 1.34 -36 0.68 -36 0 C-26.45 -8.15 -9.41 -8.89 0 0 Z " fill="#000000" transform="translate(658,517)"/>
<path d="M0 0 C3.83 2.17 6.79 4.4 9.56 7.81 C9.56 8.47 9.56 9.13 9.56 9.81 C10.22 9.81 10.88 9.81 11.56 9.81 C15.24 15.48 14.99 20.8 14.95 27.41 C14.96 28.58 14.96 29.74 14.97 30.93 C14.98 34.77 14.97 38.6 14.96 42.44 C14.96 45.1 14.97 47.77 14.97 50.44 C14.98 56.03 14.97 61.62 14.95 67.21 C14.94 73.66 14.94 80.11 14.96 86.56 C14.97 92.11 14.97 97.66 14.97 103.21 C14.96 106.52 14.96 109.83 14.97 113.14 C14.98 116.83 14.97 120.52 14.95 124.21 C14.96 125.3 14.96 126.39 14.97 127.52 C14.92 133.12 14.64 137.06 11.56 141.81 C10.9 141.81 10.24 141.81 9.56 141.81 C9.19 142.71 9.19 142.71 8.8 143.62 C7.4 146.1 6.04 147.26 3.75 148.94 C3.08 149.44 2.42 149.93 1.73 150.45 C-4.42 154.32 -10.32 154.68 -17.44 153.81 C-26.08 150.92 -31.88 145.67 -36.44 137.81 C-38.59 131.86 -38.73 126.38 -38.73 120.09 C-38.73 119.04 -38.74 117.98 -38.75 116.89 C-38.77 113.41 -38.77 109.93 -38.77 106.45 C-38.78 104.02 -38.79 101.59 -38.79 99.16 C-38.81 94.07 -38.81 88.98 -38.81 83.89 C-38.81 77.39 -38.84 70.88 -38.87 64.38 C-38.89 59.36 -38.9 54.34 -38.89 49.32 C-38.9 46.93 -38.91 44.53 -38.92 42.13 C-38.94 38.77 -38.94 35.41 -38.92 32.05 C-38.93 31.07 -38.95 30.09 -38.96 29.08 C-38.88 21.03 -37.26 13.32 -32.12 6.94 C-22.22 -0.89 -12.58 -5.99 0 0 Z " fill="#000000" transform="translate(1163.4375,564.1875)"/>
<path d="M0 0 C6.89 3.92 11.93 9.31 14.66 16.84 C15.97 21.69 15.86 26.54 15.85 31.53 C15.86 32.59 15.87 33.64 15.87 34.73 C15.89 38.21 15.9 41.69 15.9 45.17 C15.9 47.6 15.91 50.03 15.92 52.46 C15.93 57.55 15.93 62.64 15.93 67.73 C15.93 74.24 15.96 80.74 15.99 87.25 C16.02 92.26 16.02 97.28 16.02 102.3 C16.02 104.7 16.03 107.1 16.05 109.49 C16.07 112.85 16.06 116.22 16.05 119.58 C16.06 120.56 16.07 121.53 16.08 122.54 C16.01 130.6 14.39 138.3 9.25 144.69 C1.49 150.82 -4.07 154.37 -14.3 154.2 C-21.61 153.3 -27.84 149.49 -32.44 143.81 C-32.44 143.15 -32.44 142.49 -32.44 141.81 C-33.1 141.81 -33.76 141.81 -34.44 141.81 C-38.12 136.14 -37.86 130.83 -37.83 124.21 C-37.83 123.05 -37.84 121.89 -37.84 120.69 C-37.85 116.86 -37.85 113.02 -37.84 109.19 C-37.84 106.52 -37.84 103.85 -37.84 101.19 C-37.85 95.6 -37.84 90.01 -37.83 84.42 C-37.81 77.97 -37.82 71.52 -37.83 65.06 C-37.85 59.52 -37.85 53.97 -37.84 48.42 C-37.84 45.11 -37.84 41.8 -37.85 38.49 C-37.85 34.8 -37.84 31.11 -37.83 27.41 C-37.83 26.32 -37.84 25.23 -37.84 24.11 C-37.8 18.5 -37.52 14.56 -34.44 9.81 C-33.78 9.81 -33.12 9.81 -32.44 9.81 C-32.19 9.22 -31.93 8.62 -31.68 8.01 C-30.28 5.53 -28.92 4.36 -26.62 2.69 C-25.96 2.19 -25.29 1.69 -24.61 1.18 C-16.98 -3.63 -8.11 -3.86 0 0 Z " fill="#000000" transform="translate(139.4375,564.1875)"/>
</svg>
