<?xml version="1.0" encoding="UTF-8"?>
<svg version="1.1" viewBox="0 0 1600 1600" width="1280" height="1280" xmlns="http://www.w3.org/2000/svg">
<path transform="translate(782 189)" d="m0 0c1.08 0.823 1.08 0.823 2.17 1.66 2.98 2.29 5.91 4.61 8.78 7.04 0.777 0.656 1.55 1.31 2.36 1.99 0.624 0.556 1.25 1.11 1.89 1.68 1.9 1.13 1.9 1.13 4.27 0.309 2.95-1.63 5.24-3.51 7.78-5.74 21.7-18.6 47.7-36.1 73.4-48.6 3.9-1.91 7.78-3.85 11.6-5.84 66.9-34.1 142-50.6 217-50.5 0.984 6.04e-4 1.97 0.00121 2.98 0.00183 97 0.161 193 28.7 273 84.2 0.664 0.454 1.33 0.908 2.01 1.38 10.1 6.94 19.8 14.3 29.2 22.2 2.46 2.03 4.96 4.02 7.45 6.02 5.76 4.72 11.2 9.78 16.6 14.9 2.28 2.12 4.57 4.23 6.87 6.33 6.92 6.36 13.6 12.8 19.7 19.9 2.09 2.37 4.23 4.68 6.39 6.99 5.84 6.25 11.4 12.6 16.7 19.4 0.518 0.651 1.04 1.3 1.57 1.97 8.26 10.4 16.1 20.9 23.4 32 0.531 0.804 1.06 1.61 1.61 2.44 31.9 48.6 55.2 102 68.4 159 0.261 1.11 0.522 2.22 0.792 3.37 4.69 20.3 7.54 40.7 9.94 61.3 0.18 1.53 0.365 3.05 0.554 4.58 1.61 13 2.12 25.8 2.09 38.9-8.16e-4 1.52-8.16e-4 1.52-0.00165 3.07-0.228 93.6-27.8 187-105 303l-2.26 2.81c-16.1 19.9-16.1 19.9-24.1 27.5-1.7 1.7-3.24 3.46-4.8 5.29-4.19 4.82-8.67 9.32-13.2 13.8-0.922 0.923-1.84 1.85-2.79 2.8-2.55 2.55-5.1 5.11-7.66 7.66-2.78 2.78-5.56 5.56-8.34 8.34-4.87 4.87-9.74 9.74-14.6 14.6-7.24 7.24-14.5 14.5-21.7 21.7-13.7 13.7-27.4 27.4-41 41.1-10.6 10.6-21.1 21.1-31.7 31.7-3.04 3.04-6.08 6.09-9.13 9.13-0.756 0.756-1.51 1.51-2.29 2.29-21.3 21.3-42.5 42.5-63.8 63.8-0.802 0.802-1.6 1.6-2.43 2.43-4.06 4.06-8.13 8.13-12.2 12.2-1.21 1.21-1.21 1.21-2.45 2.45-1.63 1.63-3.26 3.26-4.9 4.9-25.4 25.4-50.8 50.8-76.2 76.2-28.5 28.5-57.1 57.1-85.6 85.6-3.04 3.04-6.09 6.09-9.13 9.13-0.749 0.749-1.5 1.5-2.27 2.27-12.1 12.1-24.1 24.1-36.2 36.2-12.1 12.1-24.2 24.2-36.3 36.4-7.2 7.2-14.4 14.4-21.6 21.6-4.81 4.81-9.62 9.62-14.4 14.4-2.74 2.74-5.48 5.48-8.22 8.22-2.95 2.96-5.91 5.91-8.87 8.86-0.84 0.845-1.68 1.69-2.55 2.56-33.7 33.5-77.3 51.4-125 52.3-41.9-0.813-85.8-14.6-116-45.4-1.78-1.77-3.61-3.4-5.52-5.02-4.79-4.16-9.25-8.61-13.7-13.1-0.915-0.914-1.83-1.83-2.77-2.77-2.53-2.53-5.06-5.06-7.59-7.59-2.76-2.76-5.51-5.51-8.27-8.27-4.83-4.83-9.66-9.65-14.5-14.5-7.18-7.18-14.4-14.4-21.5-21.5-12.8-12.8-25.6-25.6-38.5-38.5-11.2-11.2-22.4-22.4-33.7-33.7-1.12-1.12-1.12-1.12-2.26-2.26-3.02-3.02-6.04-6.04-9.06-9.06-28.3-28.3-56.7-56.7-85-85-25.2-25.2-50.4-50.4-75.5-75.5-28.3-28.3-56.6-56.6-84.9-84.9-3.02-3.02-6.03-6.03-9.05-9.05-0.742-0.743-1.48-1.49-2.25-2.25-11.2-11.2-22.4-22.4-33.6-33.6-12.8-12.7-25.5-25.5-38.3-38.3-7.14-7.14-14.3-14.3-21.4-21.4-4.77-4.77-9.53-9.53-14.3-14.3-2.72-2.72-5.43-5.43-8.15-8.15-2.93-2.93-5.85-5.85-8.78-8.78-1.26-1.26-1.26-1.26-2.55-2.55-4.22-4.23-8.28-8.53-12.2-13.1-1.56-1.78-3.21-3.42-4.91-5.06-4.12-4.06-7.69-8.53-11.3-13-1.42-1.76-2.86-3.5-4.3-5.24-23.7-28.7-43.7-60.1-60.1-93.5-0.839-1.69-1.71-3.36-2.59-5.02-26.1-49.9-39-107-45.3-163-0.0865-0.704-0.173-1.41-0.262-2.13-1.83-15-2.18-29.9-2.18-45.1-0.00107-1.24-0.00214-2.49-0.00323-3.77 0.0269-21.9 1.58-43.2 5.08-64.8 0.36-2.24 0.704-4.49 1.04-6.73 6.42-42.1 18.5-82.4 35.3-122 0.401-0.941 0.802-1.88 1.22-2.85 4.66-10.9 9.84-21.2 15.8-31.4 1.4-2.42 2.73-4.87 4.05-7.33 0.978-1.79 1.96-3.58 2.94-5.38 0.545-1.01 1.09-2.01 1.65-3.05 6.14-11.1 13.2-21.5 20.3-32 0.462-0.676 0.924-1.35 1.4-2.05 6.24-9.09 13.1-17.6 20.1-26.1 2.1-2.55 4.17-5.13 6.25-7.7 3.62-4.42 7.39-8.67 11.2-12.9 1.72-1.91 3.35-3.86 4.95-5.86 0.681-0.784 1.36-1.57 2.06-2.38h2c0.269-0.594 0.537-1.19 0.814-1.8 1.19-2.21 2.39-3.65 4.16-5.41 0.584-0.583 1.17-1.17 1.77-1.77 0.93-0.91 0.93-0.91 1.88-1.84 0.637-0.629 1.27-1.26 1.93-1.91 3.7-3.63 7.44-7.17 11.4-10.5 2.15-1.85 4.23-3.77 6.31-5.7 6.05-5.61 12.3-10.9 18.7-16.1 1.12-0.922 2.24-1.85 3.36-2.77 9.8-8.05 20.1-15.2 30.6-22.2 1.05-0.701 1.05-0.701 2.12-1.42 28.6-19.1 58.9-34.8 90.9-47.6 1.61-0.644 1.61-0.644 3.25-1.3 84.6-33.5 179-39.8 470 66.1z" fill="#000002"/>
</svg>
