<?xml version="1.0" encoding="UTF-8"?>
<!-- Generator: visioncortex VTracer 0.6.3 -->
<svg version="1.1" xmlns="http://www.w3.org/2000/svg" width="1280" height="1280">
<path d="M0 0 C1 0 2.01 0 3.04 0 C18.35 0.04 33.26 0.67 48.38 3.31 C49.56 3.51 49.56 3.51 50.77 3.72 C55.33 4.49 59.85 5.38 64.38 6.31 C65.42 6.5 66.46 6.68 67.53 6.88 C68.45 7.04 69.37 7.21 70.31 7.38 C71.47 7.58 71.47 7.58 72.65 7.79 C73.51 8.05 73.51 8.05 74.38 8.31 C74.7 8.97 75.04 9.63 75.38 10.31 C76.2 10.25 77.02 10.19 77.88 10.12 C81.31 10.31 83.85 11.1 87.02 12.38 C89.86 13.5 92.73 14.47 95.62 15.44 C96.62 15.77 97.62 16.1 98.64 16.45 C100.88 17.15 103.1 17.75 105.38 18.31 C107.05 18.96 108.72 19.62 110.38 20.31 C110.38 20.97 110.38 21.63 110.38 22.31 C111.21 22.41 112.05 22.51 112.91 22.61 C116.84 23.41 120.18 24.88 123.75 26.62 C124.41 26.94 125.07 27.26 125.75 27.58 C127.63 28.48 129.5 29.39 131.38 30.31 C132.24 30.74 133.1 31.16 133.99 31.59 C135.79 32.49 137.58 33.4 139.38 34.31 C140.05 34.65 140.73 34.99 141.43 35.33 C144.85 37.06 147.92 38.93 150.88 41.38 C153.33 43.27 155.46 44.31 158.38 45.31 C158.38 45.97 158.38 46.63 158.38 47.31 C159.86 46.82 159.86 46.82 161.38 46.31 C162.46 47.46 162.46 47.46 163.56 48.62 C166.12 51.07 168.37 52.51 171.38 54.31 C173 55.56 174.6 56.83 176.19 58.12 C179.32 60.67 182.48 63.14 185.75 65.5 C188.85 67.79 190.99 70.28 193.38 73.31 C195.03 74.33 196.7 75.32 198.38 76.31 C203.38 80.25 207.67 84.62 211.79 89.46 C213.86 91.88 216.1 94.09 218.38 96.31 C268.37 146.31 268.37 146.31 271 149 C273.35 151.43 273.35 151.43 276.38 153.31 C276.71 153.64 277.03 153.97 277.38 154.31 C278.06 153.63 278.74 152.95 279.44 152.25 C350.23 81.46 350.23 81.46 351.89 79.8 C353.17 78.52 354.42 77.23 355.67 75.93 C357.56 74.14 358.82 73.68 361.38 73.31 C361.38 72.65 361.38 71.99 361.38 71.31 C362.08 70.9 362.78 70.49 363.5 70.06 C366.52 68.22 368.51 66.22 370.85 63.62 C372.66 62.07 374.08 61.83 376.38 61.31 C377.73 60 379.06 58.67 380.38 57.31 C381.71 56.65 383.04 55.98 384.38 55.31 C385.43 54.46 386.47 53.58 387.5 52.69 C390.38 50.31 390.38 50.31 392.38 50.31 C393.3 49.32 393.3 49.32 394.25 48.31 C396.38 46.31 396.38 46.31 400.38 46.31 C400.71 45.32 401.03 44.33 401.38 43.31 C402.7 43.31 404.01 43.31 405.38 43.31 C405.38 42.65 405.38 41.99 405.38 41.31 C407.55 38.57 409.62 37.71 412.94 36.75 C416.53 35.71 416.53 35.71 419.38 33.31 C421.15 32.59 422.94 31.93 424.75 31.31 C429.19 29.78 433.17 27.95 437.31 25.75 C440.38 24.31 440.38 24.31 443.19 23.75 C443.91 23.61 444.63 23.46 445.38 23.31 C445.71 22.65 446.03 21.99 446.38 21.31 C446.71 21.64 447.03 21.97 447.38 22.31 C449.87 21.11 452.06 19.86 454.38 18.31 C456.34 17.76 458.32 17.27 460.31 16.81 C463.98 15.98 467.04 15.02 470.38 13.31 C471.43 13.17 472.48 13.02 473.56 12.88 C477.42 12.31 480.64 11.24 484.26 9.84 C486.68 9.24 488.05 9.52 490.38 10.31 C490.38 9.65 490.38 8.99 490.38 8.31 C491.59 8.13 491.59 8.13 492.83 7.95 C499.19 6.98 505.52 5.96 511.84 4.78 C512.68 4.62 513.51 4.47 514.38 4.31 C515.27 4.14 516.16 3.97 517.09 3.79 C521.41 3.16 525.71 2.95 530.06 2.75 C531.34 2.69 531.34 2.69 532.65 2.62 C535.9 2.46 539.12 2.31 542.38 2.31 C544.22 2.3 546.06 2.29 547.91 2.28 C572.96 2.16 597.49 2.77 621.82 9.35 C624.97 10.2 628.13 10.95 631.31 11.69 C638.55 13.48 645.51 16.09 652.5 18.64 C654.15 19.23 655.82 19.79 657.48 20.33 C695.9 33.36 695.9 33.36 700.38 42.31 C701.28 42.42 702.19 42.52 703.12 42.62 C707.27 43.5 708.52 45.25 711.38 48.31 C715.54 51.3 719.91 53.81 724.38 56.31 C724.38 56.97 724.38 57.63 724.38 58.31 C724.96 58.59 725.54 58.86 726.14 59.14 C732.18 62.3 737.13 66.83 741.73 71.8 C743.51 73.43 745.23 74.24 747.38 75.31 C749.12 76.86 749.12 76.86 750.81 78.62 C751.42 79.25 752.02 79.87 752.65 80.52 C753.5 81.41 753.5 81.41 754.38 82.31 C755.22 83.16 756.07 84 756.94 84.88 C757.74 85.68 758.55 86.48 759.38 87.31 C759.88 87.8 760.39 88.28 760.91 88.78 C763.21 90.99 765.14 92.91 766.75 95.69 C768.91 99.18 771.75 101.73 774.73 104.54 C776.38 106.31 776.38 106.31 776.38 108.31 C777.04 108.31 777.69 108.31 778.38 108.31 C779.88 109.99 779.88 109.99 781.5 112.19 C782.04 112.91 782.58 113.63 783.13 114.37 C784.38 116.31 784.38 116.31 784.38 118.31 C785.04 118.31 785.69 118.31 786.38 118.31 C786.81 119.22 787.24 120.13 787.69 121.06 C789.09 123.76 790.56 125.91 792.38 128.31 C792.7 129.3 793.04 130.29 793.38 131.31 C793.81 131.75 794.24 132.18 794.69 132.62 C798.33 136.27 800.38 139.11 800.38 144.31 C801.04 144.31 801.69 144.31 802.38 144.31 C802.76 145.11 803.15 145.9 803.55 146.71 C804.93 149.47 806.38 152.18 807.86 154.88 C808.3 155.69 808.74 156.51 809.19 157.35 C810.11 159.04 811.03 160.73 811.97 162.41 C812.4 163.23 812.84 164.04 813.29 164.88 C813.69 165.61 814.09 166.34 814.5 167.1 C815.5 169.64 815.53 171.6 815.38 174.31 C816.04 174.31 816.69 174.31 817.38 174.31 C819.37 178.77 821.05 183.21 822.55 187.86 C823.46 190.55 824.44 193.21 825.44 195.88 C827.07 200.32 828.3 204.7 829.38 209.31 C829.68 210.36 829.99 211.42 830.31 212.5 C831.61 217.14 832.65 221.82 833.69 226.52 C834.25 229.25 834.25 229.25 835.38 231.31 C837.07 239.7 837.69 248.06 838.03 256.59 C838.24 260.27 838.24 260.27 839.38 263.46 C840.55 267.99 840.65 272.03 840.61 276.68 C840.6 278.01 840.6 278.01 840.6 279.35 C840.6 281.21 840.59 283.06 840.58 284.92 C840.56 287.74 840.56 290.56 840.56 293.38 C840.56 295.19 840.55 297 840.54 298.81 C840.54 299.64 840.54 300.48 840.54 301.33 C840.43 315.26 840.43 315.26 838.38 317.31 C838.16 319.8 838 322.26 837.88 324.75 C837.51 332.04 837.51 332.04 836.38 334.31 C836.1 337.04 835.93 339.76 835.75 342.49 C835.36 345.39 834.51 347.62 833.38 350.31 C833.03 352.64 832.69 354.98 832.38 357.31 C832.05 357.64 831.71 357.97 831.38 358.31 C831.05 359.83 830.77 361.35 830.5 362.88 C829.74 366.86 828.71 370.48 827.16 374.23 C826.28 376.47 826.28 376.47 825.49 379.47 C824.2 383.92 822.67 388.23 821.06 392.56 C820.76 393.39 820.45 394.23 820.13 395.09 C817.81 401.3 815.28 407.35 812.38 413.31 C811.71 413.31 811.06 413.31 810.38 413.31 C810.25 414.03 810.13 414.76 810 415.5 C809.38 418.27 808.49 420.71 807.38 423.31 C806.71 423.31 806.06 423.31 805.38 423.31 C805.29 423.99 805.21 424.67 805.12 425.38 C804.14 429.23 802.51 431.95 800.38 435.31 C799.71 435.64 799.06 435.97 798.38 436.31 C797.54 438.16 797.54 438.16 796.88 440.31 C796.16 442.5 796.16 442.5 795.38 444.31 C794.71 444.64 794.06 444.97 793.38 445.31 C793.38 444.65 793.38 443.99 793.38 443.31 C792.38 443.31 791.39 443.31 790.38 443.31 C790.38 444.3 790.38 445.29 790.38 446.31 C791.04 446.31 791.69 446.31 792.38 446.31 C792.38 446.97 792.38 447.63 792.38 448.31 C791.71 448.31 791.06 448.31 790.38 448.31 C790.33 448.99 790.29 449.67 790.25 450.38 C789.18 453.98 787.39 455.86 784.85 458.57 C783.32 460.38 782.35 462.15 781.38 464.31 C780.71 464.31 780.06 464.31 779.38 464.31 C779.13 464.85 778.88 465.38 778.62 465.94 C777.07 468.89 775.34 471.61 773.38 474.31 C772.71 474.31 772.06 474.31 771.38 474.31 C770.98 475.19 770.98 475.19 770.58 476.09 C769.3 478.44 767.94 479.99 766.05 481.89 C765.36 482.58 764.67 483.28 763.96 484 C763.19 484.76 762.43 485.52 761.64 486.3 C760.83 487.12 760.02 487.93 759.18 488.77 C756.92 491.04 754.65 493.31 752.38 495.57 C749.92 498.03 747.46 500.5 745 502.97 C740.69 507.29 736.37 511.61 732.05 515.93 C725.63 522.35 719.21 528.78 712.79 535.21 C700.66 547.35 688.53 559.49 676.39 571.63 C667.03 581 657.66 590.37 648.29 599.74 C645.6 602.43 642.91 605.13 640.21 607.82 C639.21 608.83 639.21 608.83 638.18 609.85 C619.35 628.7 600.51 647.55 581.67 666.39 C580.95 667.1 580.24 667.82 579.51 668.55 C575.91 672.15 572.31 675.75 568.7 679.35 C567.63 680.43 567.63 680.43 566.54 681.52 C565.09 682.97 563.64 684.42 562.19 685.86 C539.67 708.39 517.15 730.92 494.65 753.45 C469.37 778.76 444.09 804.05 418.81 829.34 C416.11 832.03 413.42 834.73 410.72 837.42 C410.06 838.08 409.4 838.75 408.71 839.43 C398.02 850.13 387.33 860.83 376.64 871.53 C365.91 882.28 355.17 893.02 344.43 903.75 C338.04 910.14 331.65 916.52 325.27 922.92 C321.02 927.19 316.76 931.45 312.49 935.7 C310.06 938.13 307.62 940.56 305.2 943 C302.6 945.62 299.98 948.22 297.36 950.83 C296.6 951.6 295.84 952.37 295.06 953.16 C294.36 953.84 293.66 954.53 292.95 955.24 C292.35 955.84 291.75 956.44 291.14 957.05 C289.38 958.31 289.38 958.31 285.38 958.31 C285.38 958.97 285.38 959.63 285.38 960.31 C282.96 960.37 280.54 960.41 278.12 960.44 C277.44 960.45 276.76 960.47 276.06 960.49 C272.31 960.52 269.55 960.39 266.38 958.31 C266.38 957.65 266.38 956.99 266.38 956.31 C265.62 956.05 264.87 955.78 264.1 955.51 C261.37 954.31 259.88 953.2 257.79 951.1 C257.12 950.44 256.44 949.77 255.75 949.09 C254.66 947.98 254.66 947.98 253.54 946.86 C252.76 946.08 251.97 945.29 251.16 944.49 C248.51 941.85 245.87 939.2 243.23 936.55 C241.33 934.64 239.42 932.73 237.5 930.83 C233.34 926.67 229.18 922.52 225.03 918.35 C218.86 912.16 212.67 905.98 206.48 899.8 C195.44 888.77 184.4 877.73 173.37 866.68 C163.71 857.01 154.05 847.35 144.39 837.69 C143.43 836.73 143.43 836.73 142.45 835.75 C139.85 833.15 137.26 830.56 134.66 827.96 C110.27 803.58 85.89 779.19 61.52 754.79 C39.85 733.1 18.17 711.42 -3.51 689.74 C-4.9 688.35 -6.3 686.96 -7.69 685.56 C-8.38 684.88 -9.07 684.19 -9.78 683.48 C-13.24 680.01 -16.71 676.55 -20.17 673.09 C-20.86 672.4 -21.54 671.72 -22.24 671.01 C-40.34 652.92 -58.44 634.82 -76.54 616.71 C-78.48 614.77 -80.43 612.82 -82.37 610.87 C-83.66 609.58 -84.95 608.29 -86.25 607 C-95.26 597.98 -104.28 588.96 -113.29 579.95 C-124.91 568.33 -136.53 556.71 -148.13 545.09 C-154.28 538.94 -160.42 532.79 -166.58 526.64 C-170.68 522.54 -174.77 518.44 -178.87 514.34 C-181.21 511.99 -183.55 509.65 -185.89 507.31 C-188.41 504.8 -190.92 502.29 -193.42 499.77 C-194.16 499.03 -194.9 498.3 -195.67 497.54 C-196.33 496.87 -196.99 496.21 -197.67 495.52 C-198.24 494.95 -198.82 494.37 -199.41 493.78 C-200.62 492.31 -200.62 492.31 -200.62 490.31 C-201.28 490.31 -201.94 490.31 -202.62 490.31 C-203.22 489.4 -203.82 488.5 -204.44 487.56 C-206.59 484.36 -208.6 482.64 -211.62 480.31 C-214.62 476.8 -214.62 476.8 -214.62 474.31 C-215.28 474.31 -215.94 474.31 -216.62 474.31 C-217.65 472.66 -218.65 470.99 -219.62 469.31 C-220.46 468.48 -220.46 468.48 -221.31 467.62 C-221.75 467.19 -222.18 466.76 -222.62 466.31 C-222.62 465.65 -222.62 464.99 -222.62 464.31 C-223.28 464.31 -223.94 464.31 -224.62 464.31 C-225.91 462.63 -225.91 462.63 -227.25 460.44 C-227.7 459.72 -228.14 459 -228.6 458.26 C-229.62 456.31 -229.62 456.31 -229.62 454.31 C-230.28 453.98 -230.94 453.65 -231.62 453.31 C-232.82 451.6 -233.96 449.84 -235.06 448.06 C-235.66 447.11 -236.26 446.15 -236.87 445.17 C-237.99 443.35 -239.1 441.53 -240.19 439.7 C-241.46 437.58 -242.78 435.51 -244.12 433.44 C-245.74 430.87 -247.1 428.37 -248.25 425.56 C-249.42 422.4 -249.42 422.4 -251.12 420.38 C-252.95 417.87 -253.78 415.36 -254.81 412.45 C-255.62 410.33 -256.57 408.38 -257.62 406.38 C-259.38 402.95 -260.62 399.54 -261.77 395.88 C-263.17 391.67 -264.82 387.55 -266.44 383.43 C-280.89 345.41 -294.53 284.06 -279.62 244.31 C-280.28 243.98 -280.94 243.65 -281.62 243.31 C-280.97 243.31 -280.31 243.31 -279.62 243.31 C-279.62 239.68 -279.62 236.05 -279.62 232.31 C-278.97 232.31 -278.31 232.31 -277.62 232.31 C-277.82 231.76 -278.01 231.21 -278.21 230.64 C-278.73 227.71 -278.13 225.9 -277.25 223.06 C-276.24 219.64 -275.42 216.42 -275.06 212.88 C-274.66 209.62 -274.15 208.09 -272.62 205.31 C-271.92 202.99 -271.26 200.65 -270.62 198.31 C-269.49 194.19 -268.21 190.28 -266.62 186.31 C-265.94 183.99 -265.27 181.65 -264.62 179.31 C-263.97 179.31 -263.31 179.31 -262.62 179.31 C-262.13 176.34 -262.13 176.34 -261.62 173.31 C-260.97 173.31 -260.31 173.31 -259.62 173.31 C-259.72 172.01 -259.72 172.01 -259.81 170.69 C-259.6 166.87 -258.5 164.6 -256.62 161.31 C-255.97 161.31 -255.31 161.31 -254.62 161.31 C-254.62 159.66 -254.62 158.01 -254.62 156.31 C-253.97 156.31 -253.31 156.31 -252.62 156.31 C-252.3 154.66 -251.97 153.01 -251.62 151.31 C-250.97 151.31 -250.31 151.31 -249.62 151.31 C-249.67 150.53 -249.71 149.75 -249.75 148.94 C-249.62 146.31 -249.62 146.31 -247.62 144.31 C-247.3 143.32 -246.97 142.33 -246.62 141.31 C-245.97 141.31 -245.31 141.31 -244.62 141.31 C-244.44 140.17 -244.44 140.17 -244.25 139 C-243.62 136.31 -243.62 136.31 -241.62 133.31 C-240.97 133.31 -240.31 133.31 -239.62 133.31 C-239.52 132.55 -239.42 131.79 -239.31 131 C-238.54 127.96 -237.82 127.43 -235.62 125.31 C-234.2 123.02 -232.92 120.68 -231.62 118.31 C-230.97 118.31 -230.31 118.31 -229.62 118.31 C-229.54 117.57 -229.46 116.83 -229.37 116.06 C-228.47 112.74 -227.23 111.59 -224.69 109.31 C-222.23 107.1 -220.79 105.72 -219.56 102.62 C-219.25 101.86 -218.94 101.1 -218.62 100.31 C-217.63 99.98 -216.64 99.65 -215.62 99.31 C-214.95 97.98 -214.29 96.65 -213.62 95.31 C-212.05 93.58 -210.42 91.9 -208.76 90.25 C-208.28 89.78 -207.81 89.3 -207.32 88.82 C-205.8 87.31 -204.27 85.81 -202.75 84.31 C-201.73 83.31 -200.72 82.3 -199.7 81.29 C-197.82 79.43 -195.95 77.58 -194.07 75.72 C-192.5 74.18 -190.95 72.61 -189.43 71.02 C-187.62 69.31 -187.62 69.31 -185.68 68.87 C-181.62 67.77 -179.05 63.76 -176.26 60.76 C-173.53 58.22 -170.99 56.87 -167.62 55.31 C-166.27 54 -164.94 52.67 -163.62 51.31 C-161.99 50.26 -160.32 49.26 -158.62 48.31 C-155.86 46.73 -153.49 45.2 -151.06 43.12 C-148.62 41.31 -148.62 41.31 -144.62 41.31 C-144.29 40.32 -143.97 39.33 -143.62 38.31 C-142.31 38.31 -140.99 38.31 -139.62 38.31 C-139.62 37.65 -139.62 36.99 -139.62 36.31 C-138.88 36.04 -138.14 35.78 -137.38 35.5 C-134.64 34.46 -134.64 34.46 -132.69 32.81 C-130.15 30.97 -127.59 30.3 -124.62 29.31 C-123.29 28.32 -121.95 27.32 -120.62 26.31 C-116.59 24.37 -114.14 23.31 -109.62 23.31 C-109.62 22.65 -109.62 21.99 -109.62 21.31 C-109.03 21.19 -108.43 21.06 -107.81 20.94 C-105.36 20.36 -105.36 20.36 -102.62 18.31 C-100.83 17.76 -99.01 17.27 -97.19 16.81 C-94.46 16.13 -92.02 15.51 -89.51 14.25 C-87.03 13.02 -84.59 12.94 -81.86 12.66 C-77.97 12.05 -74.32 10.67 -70.62 9.31 C-70.62 8.98 -70.62 8.65 -70.62 8.31 C-68.64 8.31 -66.66 8.31 -64.62 8.31 C-64.29 7.65 -63.97 6.99 -63.62 6.31 C-63.62 6.97 -63.62 7.63 -63.62 8.31 C-62.66 7.84 -61.69 7.36 -60.69 6.88 C-56.96 5.25 -53.47 4.81 -49.45 4.52 C-47.61 4.5 -47.61 4.5 -46.62 3.31 C-43.33 3.02 -40.03 2.86 -36.73 2.69 C-33.73 2.48 -30.93 1.95 -28 1.3 C-18.79 -0.44 -9.33 -0.03 0 0 Z M-17.62 82.31 C-20.06 82.56 -22.5 82.75 -24.94 82.88 C-29.44 82.96 -29.44 82.96 -33.62 84.31 C-35.86 84.58 -38.09 84.76 -40.34 84.93 C-42.77 85.34 -44.45 86.18 -46.62 87.31 C-47.66 87.44 -48.69 87.56 -49.75 87.69 C-53.9 88.36 -57.24 89.66 -61.1 91.28 C-63.36 92.2 -65.61 93 -67.94 93.75 C-71.85 95.03 -75.71 96.43 -79.56 97.88 C-80.66 98.29 -81.77 98.7 -82.9 99.13 C-85.71 100.15 -85.71 100.15 -87.62 102.31 C-88.41 102.62 -89.19 102.93 -90 103.25 C-92.6 104.16 -92.6 104.16 -94.4 105.68 C-97.09 107.65 -99.88 109.04 -102.88 110.5 C-103.95 111.03 -105.03 111.56 -106.14 112.11 C-106.96 112.5 -107.78 112.9 -108.62 113.31 C-108.62 113.97 -108.62 114.63 -108.62 115.31 C-109.62 115.31 -110.61 115.31 -111.62 115.31 C-111.62 115.97 -111.62 116.63 -111.62 117.31 C-112.28 117.31 -112.94 117.31 -113.62 117.31 C-113.62 117.97 -113.62 118.63 -113.62 119.31 C-114.47 119.52 -115.32 119.73 -116.19 119.94 C-120.52 121.67 -123.23 124.18 -126.62 127.31 C-127.98 128.5 -129.33 129.69 -130.69 130.88 C-131.35 131.46 -132.02 132.04 -132.7 132.64 C-134.43 134.14 -136.17 135.61 -137.94 137.06 C-140.93 139.53 -140.93 139.53 -143.62 142.31 C-143.62 142.97 -143.62 143.63 -143.62 144.31 C-144.28 144.31 -144.94 144.31 -145.62 144.31 C-152.57 151.04 -158.68 159.31 -163.48 167.68 C-164.62 169.31 -164.62 169.31 -167.62 171.31 C-168.68 173.28 -169.67 175.29 -170.62 177.31 C-171.32 178.59 -172.03 179.86 -172.75 181.12 C-175.31 185.7 -177.79 190.31 -180.25 194.94 C-180.63 195.65 -181.02 196.37 -181.41 197.11 C-184.79 203.47 -187.59 209.83 -189.62 216.75 C-190.72 220.4 -191.83 223.97 -193.25 227.5 C-194.76 231.34 -195.49 235.25 -196.2 239.31 C-196.62 241.31 -196.62 241.31 -197.62 242.31 C-197.83 243.97 -197.99 245.64 -198.12 247.31 C-198.51 252.2 -198.51 252.2 -199.62 253.31 C-199.84 255.14 -200 256.97 -200.12 258.81 C-200.21 259.92 -200.29 261.04 -200.38 262.19 C-200.5 263.95 -200.5 263.95 -200.62 265.75 C-200.79 268.06 -200.95 270.37 -201.12 272.68 C-201.2 273.71 -201.27 274.74 -201.34 275.81 C-201.62 278.31 -201.62 278.31 -202.62 280.31 C-202.75 283.01 -202.82 285.67 -202.81 288.38 C-202.81 289.15 -202.81 289.93 -202.81 290.73 C-202.77 295.34 -202.38 299.46 -201.13 303.92 C-200.14 308.58 -200.1 313.4 -199.87 318.15 C-199.83 321.21 -199.83 321.21 -198.62 323.31 C-198.35 325.51 -198.18 327.71 -198 329.93 C-197.71 332.35 -197.71 332.35 -196.68 334.65 C-195.39 337.92 -194.85 341.11 -194.25 344.56 C-193.28 349.76 -192.01 354.39 -189.66 359.14 C-188.46 361.66 -187.55 364.23 -186.62 366.88 C-185.41 370.29 -184.1 373.53 -182.44 376.75 C-181.05 379.48 -180.26 381.41 -179.62 384.31 C-178.97 384.31 -178.31 384.31 -177.62 384.31 C-177.52 385.04 -177.41 385.78 -177.3 386.53 C-176.57 389.53 -175.52 391.31 -173.75 393.81 C-173.21 394.59 -172.67 395.37 -172.11 396.18 C-171.62 396.88 -171.13 397.59 -170.62 398.31 C-168.96 400.97 -167.52 403.53 -166.19 406.38 C-164.62 409.32 -163 411.01 -160.62 413.31 C-160.19 414.06 -159.76 414.8 -159.31 415.56 C-157.31 418.83 -154.91 421.51 -152.34 424.35 C-150.62 426.31 -150.62 426.31 -149.03 428.56 C-148.34 429.43 -148.34 429.43 -147.62 430.31 C-146.97 430.31 -146.31 430.31 -145.62 430.31 C-145.4 430.87 -145.17 431.43 -144.94 432 C-142.09 437.02 -137.27 440.53 -132.88 444.18 C-130.99 445.97 -129.35 447.76 -127.67 449.73 C-122.88 455.27 -117.7 460.42 -112.53 465.6 C-110.79 467.33 -109.07 469.07 -107.35 470.82 C-106.25 471.92 -105.14 473.02 -104.04 474.12 C-103.53 474.65 -103.01 475.17 -102.48 475.71 C-100.02 478.48 -100.02 478.48 -96.62 479.31 C-96.36 479.9 -96.1 480.49 -95.82 481.1 C-94.58 483.39 -93.27 484.92 -91.44 486.77 C-90.82 487.38 -90.21 488 -89.57 488.64 C-88.61 489.59 -88.61 489.59 -87.62 490.56 C-86.98 491.21 -86.34 491.86 -85.68 492.53 C-84.76 493.45 -84.76 493.45 -83.81 494.39 C-83.25 494.95 -82.69 495.51 -82.11 496.09 C-80.69 497.52 -80.69 497.52 -78.62 497.31 C-78.62 497.97 -78.62 498.63 -78.62 499.31 C-77.97 499.31 -77.31 499.31 -76.62 499.31 C-76.4 499.89 -76.17 500.47 -75.94 501.06 C-74.73 503.44 -74.73 503.44 -72.44 505.06 C-70.02 507 -68.29 508.78 -66.31 511.12 C-63.31 514.65 -60.08 517.59 -56.55 520.57 C-54.04 522.85 -51.95 525.37 -49.85 528.03 C-49.45 528.45 -49.04 528.88 -48.62 529.31 C-47.97 529.31 -47.31 529.31 -46.62 529.31 C-46.29 530.3 -45.97 531.29 -45.62 532.31 C-44.01 534.03 -42.33 535.68 -40.62 537.31 C-40.03 537.93 -39.43 538.55 -38.81 539.19 C-38.19 539.83 -37.57 540.47 -36.94 541.12 C-36.36 541.73 -35.77 542.33 -35.18 542.96 C-33.72 544.53 -33.72 544.53 -31.62 544.31 C-31.29 545.3 -30.97 546.29 -30.62 547.31 C-28.93 548.99 -28.93 548.99 -26.88 550.62 C-24.32 552.78 -22.02 554.88 -19.94 557.5 C-17.7 560.22 -15.39 562.15 -12.62 564.31 C-11.63 565.8 -11.63 565.8 -10.62 567.31 C-9.97 567.31 -9.31 567.31 -8.62 567.31 C-8.38 567.9 -8.14 568.48 -7.89 569.08 C-6.41 571.7 -4.75 573.14 -2.44 575.06 C1.37 578.33 4.62 581.75 7.77 585.65 C9.3 587.43 9.3 587.43 11.51 588.35 C13.38 589.31 13.38 589.31 14.38 592.31 C15.03 592.31 15.69 592.31 16.38 592.31 C16.38 592.97 16.38 593.63 16.38 594.31 C17.03 594.31 17.69 594.31 18.38 594.31 C18.62 594.89 18.87 595.47 19.12 596.06 C20.56 598.64 22.16 600.37 24.38 602.31 C25.03 602.31 25.69 602.31 26.38 602.31 C26.38 602.97 26.38 603.63 26.38 604.31 C27.03 604.31 27.69 604.31 28.38 604.31 C28.71 605.3 29.03 606.29 29.38 607.31 C30.03 607.31 30.69 607.31 31.38 607.31 C31.38 607.97 31.38 608.63 31.38 609.31 C32.03 609.31 32.69 609.31 33.38 609.31 C33.71 610.3 34.03 611.29 34.38 612.31 C35.03 612.31 35.69 612.31 36.38 612.31 C36.38 612.97 36.38 613.63 36.38 614.31 C37.03 614.31 37.69 614.31 38.38 614.31 C38.71 615.3 39.03 616.29 39.38 617.31 C40.03 617.31 40.69 617.31 41.38 617.31 C41.38 617.97 41.38 618.63 41.38 619.31 C42.03 619.31 42.69 619.31 43.38 619.31 C43.71 620.3 44.03 621.29 44.38 622.31 C45.03 622.31 45.69 622.31 46.38 622.31 C46.38 622.97 46.38 623.63 46.38 624.31 C47.03 624.31 47.69 624.31 48.38 624.31 C48.71 625.3 49.03 626.29 49.38 627.31 C50.03 627.31 50.69 627.31 51.38 627.31 C51.38 627.97 51.38 628.63 51.38 629.31 C52.03 629.31 52.69 629.31 53.38 629.31 C53.7 630.3 54.04 631.29 54.38 632.31 C55.04 632.31 55.69 632.31 56.38 632.31 C56.38 632.97 56.38 633.63 56.38 634.31 C57.04 634.31 57.69 634.31 58.38 634.31 C58.7 635.3 59.04 636.29 59.38 637.31 C61 639.02 62.67 640.69 64.38 642.31 C66.96 644.9 69.54 647.48 72.06 650.12 C74.09 652.54 74.09 652.54 76.38 652.31 C76.38 652.97 76.38 653.63 76.38 654.31 C77.04 654.31 77.69 654.31 78.38 654.31 C78.7 655.3 79.04 656.29 79.38 657.31 C80.04 657.31 80.69 657.31 81.38 657.31 C81.64 657.91 81.91 658.5 82.19 659.11 C83.38 661.32 84.58 662.78 86.34 664.55 C87.2 665.41 87.2 665.41 88.07 666.29 C88.67 666.87 89.26 667.46 89.88 668.06 C90.47 668.66 91.06 669.27 91.68 669.89 C92.25 670.46 92.82 671.02 93.41 671.61 C94.19 672.39 94.19 672.39 94.99 673.18 C96.34 674.52 96.34 674.52 98.38 674.31 C98.61 674.87 98.85 675.44 99.09 676.02 C100.67 678.84 102.59 680.77 104.88 683.05 C105.79 683.95 106.69 684.86 107.62 685.79 C108.33 686.49 108.33 686.49 109.06 687.2 C110.48 688.6 111.89 690.02 113.3 691.43 C117.88 695.98 122.52 700.37 127.42 704.57 C132.02 708.67 136.25 713.19 140.55 717.61 C141.27 718.35 142 719.08 142.74 719.84 C143.39 720.51 144.04 721.18 144.71 721.86 C146.26 723.53 146.26 723.53 148.38 723.31 C148.7 724.3 149.04 725.29 149.38 726.31 C150.04 726.31 150.69 726.31 151.38 726.31 C151.38 726.97 151.38 727.63 151.38 728.31 C152.04 728.31 152.69 728.31 153.38 728.31 C153.7 729.3 154.04 730.29 154.38 731.31 C155.04 731.31 155.69 731.31 156.38 731.31 C156.38 731.97 156.38 732.63 156.38 733.31 C157.04 733.31 157.69 733.31 158.38 733.31 C158.7 734.3 159.04 735.29 159.38 736.31 C160.04 736.31 160.69 736.31 161.38 736.31 C161.38 736.97 161.38 737.63 161.38 738.31 C162.04 738.31 162.69 738.31 163.38 738.31 C163.7 739.3 164.04 740.29 164.38 741.31 C165.04 741.31 165.69 741.31 166.38 741.31 C166.38 741.97 166.38 742.63 166.38 743.31 C167.04 743.31 167.69 743.31 168.38 743.31 C168.7 744.3 169.04 745.29 169.38 746.31 C170.04 746.31 170.69 746.31 171.38 746.31 C171.38 746.97 171.38 747.63 171.38 748.31 C172.04 748.31 172.69 748.31 173.38 748.31 C173.7 749.3 174.04 750.29 174.38 751.31 C175.04 751.31 175.69 751.31 176.38 751.31 C176.38 751.97 176.38 752.63 176.38 753.31 C177.04 753.31 177.69 753.31 178.38 753.31 C178.7 754.3 179.04 755.29 179.38 756.31 C180.04 756.31 180.69 756.31 181.38 756.31 C181.38 756.97 181.38 757.63 181.38 758.31 C182.04 758.31 182.69 758.31 183.38 758.31 C183.7 759.3 184.04 760.29 184.38 761.31 C185.04 761.31 185.69 761.31 186.38 761.31 C186.38 761.97 186.38 762.63 186.38 763.31 C187.04 763.31 187.69 763.31 188.38 763.31 C188.7 764.3 189.04 765.29 189.38 766.31 C190.04 766.31 190.69 766.31 191.38 766.31 C191.38 766.97 191.38 767.63 191.38 768.31 C192.04 768.31 192.69 768.31 193.38 768.31 C193.7 769.3 194.04 770.29 194.38 771.31 C195.04 771.31 195.69 771.31 196.38 771.31 C196.38 771.97 196.38 772.63 196.38 773.31 C197.04 773.31 197.69 773.31 198.38 773.31 C198.7 774.3 199.04 775.29 199.38 776.31 C200.04 776.31 200.69 776.31 201.38 776.31 C201.38 776.97 201.38 777.63 201.38 778.31 C202.04 778.31 202.69 778.31 203.38 778.31 C203.7 779.3 204.04 780.29 204.38 781.31 C205.04 781.31 205.69 781.31 206.38 781.31 C206.38 781.97 206.38 782.63 206.38 783.31 C207.04 783.31 207.69 783.31 208.38 783.31 C208.7 784.3 209.04 785.29 209.38 786.31 C210.04 786.31 210.69 786.31 211.38 786.31 C211.38 786.97 211.38 787.63 211.38 788.31 C212.04 788.31 212.69 788.31 213.38 788.31 C213.7 789.3 214.04 790.29 214.38 791.31 C215.04 791.31 215.69 791.31 216.38 791.31 C216.38 791.97 216.38 792.63 216.38 793.31 C217.04 793.31 217.69 793.31 218.38 793.31 C218.7 794.3 219.04 795.29 219.38 796.31 C220.04 796.31 220.69 796.31 221.38 796.31 C221.38 796.97 221.38 797.63 221.38 798.31 C222.04 798.31 222.69 798.31 223.38 798.31 C223.7 799.3 224.04 800.29 224.38 801.31 C225.04 801.31 225.69 801.31 226.38 801.31 C226.38 801.97 226.38 802.63 226.38 803.31 C227.04 803.31 227.69 803.31 228.38 803.31 C228.7 804.3 229.04 805.29 229.38 806.31 C230.04 806.31 230.69 806.31 231.38 806.31 C231.38 806.97 231.38 807.63 231.38 808.31 C232.99 809.95 232.99 809.95 235.06 811.62 C238.32 814.4 241.39 817.25 244.38 820.31 C245.2 821.14 246.02 821.96 246.88 822.81 C258.12 834.06 258.12 834.06 269.38 845.31 C270.26 846.18 271.15 847.04 272.06 847.94 C274.38 850.31 274.38 850.31 276.38 853.31 C278.36 853.05 278.36 853.05 280.38 852.31 C280.7 851.32 281.04 850.33 281.38 849.31 C282.04 848.98 282.69 848.65 283.38 848.31 C283.38 847.65 283.38 846.99 283.38 846.31 C284.04 846.31 284.69 846.31 285.38 846.31 C287.04 844.98 287.04 844.98 288.38 843.31 C288.38 842.65 288.38 841.99 288.38 841.31 C289.04 841.31 289.69 841.31 290.38 841.31 C292.04 839.98 292.04 839.98 293.38 838.31 C293.38 837.65 293.38 836.99 293.38 836.31 C294.04 836.31 294.69 836.31 295.38 836.31 C297.04 834.98 297.04 834.98 298.38 833.31 C298.38 832.65 298.38 831.99 298.38 831.31 C299.04 831.31 299.69 831.31 300.38 831.31 C302.04 829.98 302.04 829.98 303.38 828.31 C303.38 827.65 303.38 826.99 303.38 826.31 C304.04 826.31 304.69 826.31 305.38 826.31 C307.04 824.98 307.04 824.98 308.38 823.31 C308.38 822.65 308.38 821.99 308.38 821.31 C309.04 821.31 309.7 821.31 310.38 821.31 C311.18 820.51 311.98 819.7 312.81 818.88 C315.38 816.31 315.38 816.31 318.38 815.31 C318.38 813.99 318.38 812.67 318.38 811.31 C319.03 811.31 319.7 811.31 320.38 811.31 C322.04 809.98 322.04 809.98 323.38 808.31 C323.38 807.65 323.38 806.99 323.38 806.31 C325.02 805.98 326.67 805.65 328.38 805.31 C328.38 803.99 328.38 802.67 328.38 801.31 C330.02 800.98 331.67 800.65 333.38 800.31 C333.38 799.32 333.38 798.33 333.38 797.31 C335.02 796.65 336.67 795.99 338.38 795.31 C338.38 793.99 338.38 792.67 338.38 791.31 C340.02 790.98 341.67 790.65 343.38 790.31 C343.38 788.99 343.38 787.67 343.38 786.31 C345.02 785.98 346.67 785.65 348.38 785.31 C348.46 784.71 348.54 784.12 348.62 783.5 C349.58 780.71 351.02 779.98 353.38 778.31 C353.38 777.65 353.38 776.99 353.38 776.31 C354.16 776.25 354.94 776.19 355.75 776.12 C356.62 775.86 357.48 775.59 358.38 775.31 C359.5 772.97 359.5 772.97 360.38 770.31 C362.82 767.38 364.56 765.86 368.38 765.31 C368.04 764.32 367.72 763.33 367.38 762.31 C368.03 762.31 368.7 762.31 369.38 762.31 C369.38 761.65 369.38 760.99 369.38 760.31 C369.92 760.09 370.47 759.87 371.04 759.64 C374.07 757.92 376.32 755.61 378.74 753.14 C379.26 752.62 379.78 752.09 380.32 751.55 C381.45 750.41 382.58 749.27 383.71 748.13 C385.49 746.32 387.28 744.52 389.07 742.72 C392.86 738.9 396.65 735.08 400.44 731.25 C404.83 726.81 409.22 722.37 413.63 717.95 C415.39 716.17 417.15 714.39 418.9 712.61 C419.98 711.52 421.06 710.44 422.14 709.35 C422.63 708.85 423.12 708.35 423.62 707.84 C425.88 705.58 427.29 704.34 430.38 703.31 C431.89 701.83 431.89 701.83 433.38 699.95 C438.08 694.4 443.23 689.32 448.37 684.19 C449.48 683.08 450.59 681.97 451.7 680.86 C454.73 677.82 457.77 674.79 460.8 671.76 C464.08 668.48 467.36 665.2 470.63 661.92 C477.04 655.5 483.46 649.09 489.87 642.68 C495.09 637.47 500.3 632.26 505.51 627.05 C506.25 626.3 506.99 625.56 507.76 624.8 C509.26 623.29 510.77 621.78 512.28 620.27 C526.4 606.15 540.53 592.03 554.65 577.9 C566.78 565.78 578.91 553.65 591.03 541.53 C605.11 527.44 619.19 513.36 633.28 499.28 C634.78 497.78 636.28 496.28 637.78 494.78 C638.89 493.67 638.89 493.67 640.02 492.54 C645.22 487.33 650.43 482.12 655.64 476.91 C661.98 470.57 668.32 464.23 674.66 457.89 C677.9 454.65 681.14 451.42 684.37 448.18 C687.33 445.22 690.29 442.26 693.26 439.3 C694.33 438.23 695.4 437.16 696.48 436.08 C697.93 434.63 699.38 433.17 700.84 431.72 C701.65 430.91 702.46 430.1 703.29 429.27 C705.38 427.31 705.38 427.31 708.38 425.31 C709.33 423.6 710.28 421.89 711.21 420.17 C712.78 417.67 714.78 415.87 716.93 413.86 C718.48 412.2 719.48 410.56 720.56 408.56 C722.38 405.31 722.38 405.31 725.38 403.31 C725.74 401.99 726.07 400.65 726.38 399.31 C727.03 398.98 727.7 398.65 728.38 398.31 C728.68 397.16 728.99 396 729.31 394.81 C729.66 393.66 730.01 392.5 730.38 391.31 C731.37 390.98 732.36 390.65 733.38 390.31 C733.38 388.99 733.38 387.67 733.38 386.31 C734.03 386.31 734.7 386.31 735.38 386.31 C735.64 385.59 735.91 384.87 736.19 384.12 C737.37 381.33 738.82 378.91 740.38 376.31 C741.06 374.65 741.73 372.99 742.38 371.31 C743.71 367.98 745.04 364.65 746.38 361.31 C746.7 361.31 747.03 361.31 747.38 361.31 C747.68 360.22 747.99 359.13 748.31 358 C748.96 355.76 749.64 353.53 750.38 351.31 C750.54 350.49 750.7 349.66 750.88 348.81 C751.38 346.31 751.38 346.31 752.38 343.31 C752.41 341.31 752.42 339.31 752.38 337.31 C753.03 337.31 753.7 337.31 754.38 337.31 C755.7 333.33 755.44 329.46 755.38 325.31 C756.03 325.31 756.7 325.31 757.38 325.31 C759.43 310.35 759.43 310.35 760.38 295.31 C760.43 293.45 760.43 293.45 760.48 291.55 C760.84 273.81 758.79 256.5 754.38 239.31 C754.22 238.5 754.07 237.69 753.91 236.85 C753.29 233.93 752.4 231.19 751.44 228.38 C751.1 227.38 750.76 226.38 750.41 225.35 C750.07 224.35 749.73 223.34 749.38 222.31 C749.04 221.3 748.71 220.29 748.37 219.25 C746.25 212.98 743.98 206.89 740.38 201.31 C739.29 199.35 738.42 197.44 737.69 195.32 C737.44 194.6 737.19 193.87 736.94 193.12 C736.71 192.43 736.49 191.74 736.25 191.02 C735.44 188.95 735.44 188.95 732.38 188.31 C732.22 186.67 732.22 186.67 732.06 185 C731.35 181.19 731.08 180.7 728.38 178.31 C728.07 177.51 727.76 176.7 727.44 175.88 C726.21 172.92 724.65 171.52 722.38 169.31 C721.36 167.66 720.36 165.99 719.38 164.31 C717.41 161.54 717.41 161.54 715.38 159.31 C714.72 159.31 714.05 159.31 713.38 159.31 C713.32 158.77 713.27 158.23 713.21 157.67 C711.99 154.23 709.57 152.1 707.02 149.59 C706.48 149.05 705.94 148.51 705.39 147.96 C704.24 146.82 703.1 145.68 701.95 144.55 C700.2 142.83 698.47 141.09 696.74 139.36 C695.63 138.25 694.51 137.14 693.39 136.03 C692.88 135.52 692.37 135 691.84 134.47 C688.59 131.29 685.21 128.75 681.38 126.31 C679.63 124.88 677.96 123.39 676.28 121.88 C668.03 115.11 654.77 105.25 644.19 102.81 C643.59 102.64 642.99 102.48 642.38 102.31 C642.04 101.65 641.72 100.99 641.38 100.31 C639.73 100.31 638.08 100.31 636.38 100.31 C636.38 99.65 636.38 98.99 636.38 98.31 C635.22 98.04 634.07 97.78 632.88 97.5 C627.3 96.11 622.07 94 616.75 91.85 C612.07 90.1 607.33 89.13 602.44 88.19 C600.74 87.85 599.04 87.52 597.35 87.18 C596.61 87.04 595.87 86.89 595.11 86.75 C593.38 86.31 593.38 86.31 592.38 85.31 C589.75 85.1 587.13 84.94 584.5 84.81 C576.78 84.45 576.78 84.45 573.38 83.31 C571.13 83.22 568.88 83.18 566.62 83.18 C565.97 83.18 565.32 83.18 564.64 83.18 C563.26 83.18 561.88 83.18 560.5 83.18 C558.38 83.19 556.27 83.18 554.16 83.18 C552.81 83.18 551.47 83.18 550.12 83.18 C548.9 83.18 547.68 83.18 546.42 83.18 C543.33 83.17 543.33 83.17 540.38 84.31 C537.06 84.54 533.76 84.7 530.44 84.83 C526.06 85.05 522.49 85.85 518.38 87.31 C514.99 87.99 511.61 88.59 508.21 89.17 C504.35 89.85 500.98 90.82 497.38 92.31 C495.28 92.8 493.17 93.26 491.06 93.69 C486.4 94.73 482.53 95.98 478.37 98.29 C476.07 99.47 473.76 100.25 471.31 101.06 C465.75 103.01 460.73 105.65 455.59 108.5 C452.95 109.96 450.36 111.32 447.55 112.43 C444.81 113.54 443.42 115.2 441.38 117.31 C438.76 119.04 436.15 120.42 433.31 121.75 C430.37 123.32 428.67 124.94 426.38 127.31 C425.63 127.73 424.89 128.14 424.12 128.56 C420.74 130.71 418.27 133.36 415.54 136.28 C413.38 138.31 413.38 138.31 410.71 139.98 C406.58 142.7 403.26 146.17 399.8 149.68 C398.7 150.78 398.7 150.78 397.57 151.91 C395.16 154.33 392.75 156.76 390.34 159.19 C388.66 160.88 386.97 162.57 385.29 164.25 C380.86 168.69 376.44 173.14 372.02 177.58 C364.95 184.7 357.87 191.81 350.78 198.92 C348.31 201.4 345.84 203.89 343.37 206.37 C341.86 207.9 340.34 209.42 338.82 210.95 C338.14 211.64 337.46 212.33 336.75 213.04 C334.05 215.74 331.42 218.28 328.41 220.65 C327.74 221.2 327.07 221.75 326.38 222.31 C326.38 222.97 326.38 223.63 326.38 224.31 C325.72 224.31 325.05 224.31 324.38 224.31 C322.71 225.65 322.71 225.65 321.38 227.31 C321.38 227.97 321.38 228.63 321.38 229.31 C320.72 229.31 320.05 229.31 319.38 229.31 C317.71 230.65 317.71 230.65 316.38 232.31 C316.38 232.97 316.38 233.63 316.38 234.31 C315.72 234.31 315.05 234.31 314.38 234.31 C312.71 235.65 312.71 235.65 311.38 237.31 C311.38 237.97 311.38 238.63 311.38 239.31 C310.72 239.31 310.05 239.31 309.38 239.31 C307.71 240.65 307.71 240.65 306.38 242.31 C306.38 242.97 306.38 243.63 306.38 244.31 C305.71 244.31 305.06 244.31 304.38 244.31 C302.71 245.65 302.71 245.65 301.38 247.31 C301.38 247.97 301.38 248.63 301.38 249.31 C300.71 249.31 300.06 249.31 299.38 249.31 C297.71 250.65 297.71 250.65 296.38 252.31 C296.38 252.97 296.38 253.63 296.38 254.31 C295.71 254.31 295.06 254.31 294.38 254.31 C292.71 255.65 292.71 255.65 291.38 257.31 C291.38 257.97 291.38 258.63 291.38 259.31 C290.71 259.31 290.06 259.31 289.38 259.31 C287.71 260.65 287.71 260.65 286.38 262.31 C286.38 262.97 286.38 263.63 286.38 264.31 C285.71 264.31 285.06 264.31 284.38 264.31 C282.71 265.65 282.71 265.65 281.38 267.31 C281.38 267.97 281.38 268.63 281.38 269.31 C280.71 269.31 280.06 269.31 279.38 269.31 C277.71 270.65 277.71 270.65 276.38 272.31 C276.38 272.97 276.38 273.63 276.38 274.31 C275.71 274.31 275.06 274.31 274.38 274.31 C272.71 275.65 272.71 275.65 271.38 277.31 C271.38 277.97 271.38 278.63 271.38 279.31 C270.71 279.31 270.06 279.31 269.38 279.31 C267.71 280.65 267.71 280.65 266.38 282.31 C266.38 282.97 266.38 283.63 266.38 284.31 C265.71 284.31 265.06 284.31 264.38 284.31 C262.71 285.65 262.71 285.65 261.38 287.31 C261.38 287.97 261.38 288.63 261.38 289.31 C260.71 289.31 260.06 289.31 259.38 289.31 C257.71 290.65 257.71 290.65 256.38 292.31 C256.38 292.97 256.38 293.63 256.38 294.31 C255.71 294.31 255.06 294.31 254.38 294.31 C252.71 295.65 252.71 295.65 251.38 297.31 C251.38 297.97 251.38 298.63 251.38 299.31 C250.71 299.31 250.06 299.31 249.38 299.31 C247.71 300.65 247.71 300.65 246.38 302.31 C246.38 302.97 246.38 303.63 246.38 304.31 C245.71 304.31 245.06 304.31 244.38 304.31 C242.71 305.65 242.71 305.65 241.38 307.31 C241.38 307.97 241.38 308.63 241.38 309.31 C240.71 309.31 240.06 309.31 239.38 309.31 C237.71 310.65 237.71 310.65 236.38 312.31 C236.38 312.97 236.38 313.63 236.38 314.31 C235.71 314.31 235.06 314.31 234.38 314.31 C232.71 315.65 232.71 315.65 231.38 317.31 C231.38 317.97 231.38 318.63 231.38 319.31 C230.71 319.31 230.06 319.31 229.38 319.31 C227.71 320.65 227.71 320.65 226.38 322.31 C226.38 322.97 226.38 323.63 226.38 324.31 C225.71 324.31 225.06 324.31 224.38 324.31 C222.71 325.65 222.71 325.65 221.38 327.31 C221.38 327.97 221.38 328.63 221.38 329.31 C220.51 329.58 219.64 329.85 218.75 330.12 C215.4 331.19 215.4 331.19 212.62 332.88 C208.82 334.56 205.57 334.84 201.45 335.1 C199.39 335.09 199.39 335.09 198.38 336.31 C191.85 336.55 191.85 336.55 189.38 335.31 C188 335.18 186.63 335.08 185.25 335 C174.69 333.81 167.94 327.2 161.38 319.31 C154.62 308.68 153.75 297.54 155.67 285.34 C156.31 282.61 157.1 280.77 158.38 278.31 C158.81 277.36 158.81 277.36 159.25 276.38 C161.51 271.51 164.12 268.02 167.97 264.31 C168.52 263.77 169.06 263.23 169.63 262.67 C170.8 261.5 171.98 260.34 173.17 259.19 C175.04 257.36 176.91 255.52 178.77 253.68 C182.04 250.44 185.32 247.21 188.61 243.98 C193.89 238.8 199.15 233.61 204.41 228.41 C206.25 226.59 208.09 224.79 209.94 222.99 C211.06 221.88 212.18 220.77 213.3 219.67 C213.82 219.17 214.33 218.67 214.87 218.15 C216.09 216.93 217.24 215.63 218.38 214.31 C218.38 213.32 218.38 212.33 218.38 211.31 C217.38 210.98 216.39 210.65 215.38 210.31 C214.67 209 214.01 207.66 213.38 206.31 C211.96 204.6 211.96 204.6 210.29 202.97 C209.66 202.33 209.02 201.69 208.37 201.04 C207.68 200.35 206.98 199.66 206.27 198.95 C205.53 198.21 204.8 197.47 204.05 196.72 C201.63 194.29 199.2 191.86 196.77 189.44 C195.08 187.75 193.39 186.06 191.71 184.37 C188.17 180.83 184.63 177.29 181.08 173.76 C176.55 169.23 172.02 164.7 167.49 160.16 C164.01 156.67 160.52 153.19 157.03 149.7 C155.36 148.03 153.69 146.36 152.02 144.69 C149.69 142.35 147.34 140.01 145 137.68 C144.32 136.99 143.63 136.3 142.92 135.59 C139.28 131.98 135.73 129.01 131.38 126.31 C129.63 124.88 127.96 123.39 126.28 121.88 C123.77 119.82 121.09 118.09 118.38 116.31 C117.45 115.68 116.53 115.04 115.59 114.38 C104.35 106.02 104.35 106.02 91.38 102.31 C91.38 101.65 91.38 100.99 91.38 100.31 C84.95 97.64 78.49 95.31 71.84 93.24 C69.38 92.31 69.38 92.31 67.38 90.31 C64.89 89.74 62.45 89.24 59.94 88.81 C52.78 87.58 52.78 87.58 49.38 85.31 C46.9 84.89 46.9 84.89 44.25 84.75 C39.47 84.41 39.47 84.41 38.38 83.31 C35.98 83.13 33.59 82.98 31.19 82.88 C24.03 82.54 24.03 82.54 20.54 81.31 C17.16 80.24 14.45 80.05 10.91 80.05 C9.7 80.04 8.49 80.04 7.24 80.04 C5.36 80.05 5.36 80.05 3.44 80.06 C2.19 80.05 0.94 80.05 -0.35 80.04 C-6.56 80.05 -11.74 80.36 -17.62 82.31 Z M413.38 133.31 C414.38 135.31 414.38 135.31 414.38 135.31 Z M290.38 951.31 C291.38 953.31 291.38 953.31 291.38 953.31 Z " fill="#0071FB" transform="translate(361.625,158.6875)"/>
<path d="M0 0 C9.24 0 18.48 0 28 0 C28 0.33 28 0.66 28 1 C18.76 1 9.52 1 0 1 C0 0.67 0 0.34 0 0 Z " fill="#000002" transform="translate(351,240)"/>
<path d="M0 0 C0.33 0 0.66 0 1 0 C1 5.61 1 11.22 1 17 C0.67 17 0.34 17 0 17 C0 11.39 0 5.78 0 0 Z " fill="#000002" transform="translate(160,439)"/>
<path d="M0 0 C0.33 0 0.66 0 1 0 C1 2.31 1 4.62 1 7 C0.67 7 0.34 7 0 7 C0 4.69 0 2.38 0 0 Z " fill="#000002" transform="translate(1200,412)"/>
<path d="M0 0 C2.31 0 4.62 0 7 0 C7 0.33 7 0.66 7 1 C4.69 1 2.38 1 0 1 C0 0.67 0 0.34 0 0 Z " fill="#0072FC" transform="translate(921,159)"/>
<path d="M0 0 C2.31 0 4.62 0 7 0 C7 0.33 7 0.66 7 1 C4.69 1 2.38 1 0 1 C0 0.67 0 0.34 0 0 Z " fill="#0072FC" transform="translate(913,159)"/>
<path d="M0 0 C0.33 0 0.66 0 1 0 C1 1.98 1 3.96 1 6 C0.67 6 0.34 6 0 6 C0 4.02 0 2.04 0 0 Z " fill="#000002" transform="translate(1200,476)"/>
<path d="M0 0 C1.65 0 3.3 0 5 0 C5 0.33 5 0.66 5 1 C3.35 1 1.7 1 0 1 C0 0.67 0 0.34 0 0 Z " fill="#000002" transform="translate(561,495)"/>
<path d="M0 0 C1.65 0 3.3 0 5 0 C5 0.33 5 0.66 5 1 C3.35 1 1.7 1 0 1 C0 0.67 0 0.34 0 0 Z " fill="#000002" transform="translate(949,245)"/>
<path d="M0 0 C4 1 4 1 4 1 Z " fill="#000002" transform="translate(547,495)"/>
<path d="M0 0 C1 4 1 4 1 4 Z " fill="#0072FC" transform="translate(77,441)"/>
<path d="" fill="#0072FC" transform="translate(0,0)"/>
<path d="" fill="#000002" transform="translate(0,0)"/>
<path d="" fill="#000002" transform="translate(0,0)"/>
<path d="M0 0 C3 1 3 1 3 1 Z " fill="#000002" transform="translate(886,245)"/>
<path d="M0 0 C3 1 3 1 3 1 Z " fill="#000002" transform="translate(408,245)"/>
<path d="" fill="#000002" transform="translate(0,0)"/>
<path d="" fill="#0072FC" transform="translate(0,0)"/>
<path d="" fill="#0072FC" transform="translate(0,0)"/>
<path d="" fill="#0072FC" transform="translate(0,0)"/>
<path d="" fill="#000002" transform="translate(0,0)"/>
<path d="M0 0 C2 1 2 1 2 1 Z " fill="#000002" transform="translate(427,250)"/>
<path d="M0 0 C2 1 2 1 2 1 Z " fill="#000002" transform="translate(319,245)"/>
<path d="M0 0 C2 1 2 1 2 1 Z " fill="#0072FC" transform="translate(909,159)"/>
<path d="" fill="#0072FC" transform="translate(0,0)"/>
<path d="" fill="#0072FC" transform="translate(0,0)"/>
<path d="" fill="#0072FC" transform="translate(0,0)"/>
<path d="" fill="#0072FC" transform="translate(0,0)"/>
<path d="" fill="#0072FC" transform="translate(0,0)"/>
<path d="" fill="#0072FC" transform="translate(0,0)"/>
<path d="" fill="#0072FC" transform="translate(0,0)"/>
<path d="" fill="#0072FC" transform="translate(0,0)"/>
<path d="" fill="#0072FC" transform="translate(0,0)"/>
<path d="" fill="#0072FC" transform="translate(0,0)"/>
<path d="" fill="#003EA1" transform="translate(0,0)"/>
<path d="" fill="#000002" transform="translate(0,0)"/>
<path d="" fill="#0072FC" transform="translate(0,0)"/>
<path d="" fill="#000002" transform="translate(0,0)"/>
<path d="" fill="#000002" transform="translate(0,0)"/>
<path d="" fill="#000002" transform="translate(0,0)"/>
<path d="" fill="#0072FC" transform="translate(0,0)"/>
<path d="" fill="#000002" transform="translate(0,0)"/>
<path d="" fill="#0072FC" transform="translate(0,0)"/>
<path d="" fill="#000002" transform="translate(0,0)"/>
<path d="" fill="#0072FC" transform="translate(0,0)"/>
<path d="" fill="#0072FC" transform="translate(0,0)"/>
<path d="" fill="#0072FC" transform="translate(0,0)"/>
<path d="" fill="#000002" transform="translate(0,0)"/>
<path d="" fill="#000002" transform="translate(0,0)"/>
<path d="" fill="#000002" transform="translate(0,0)"/>
<path d="" fill="#000002" transform="translate(0,0)"/>
<path d="" fill="#000002" transform="translate(0,0)"/>
<path d="" fill="#0072FC" transform="translate(0,0)"/>
<path d="" fill="#003EA1" transform="translate(0,0)"/>
<path d="" fill="#0072FC" transform="translate(0,0)"/>
<path d="" fill="#0072FC" transform="translate(0,0)"/>
<path d="" fill="#0072FC" transform="translate(0,0)"/>
<path d="" fill="#0072FC" transform="translate(0,0)"/>
<path d="" fill="#0072FC" transform="translate(0,0)"/>
<path d="" fill="#0072FC" transform="translate(0,0)"/>
<path d="" fill="#0072FC" transform="translate(0,0)"/>
<path d="" fill="#0072FC" transform="translate(0,0)"/>
<path d="" fill="#0072FC" transform="translate(0,0)"/>
<path d="" fill="#0072FC" transform="translate(0,0)"/>
<path d="" fill="#0072FC" transform="translate(0,0)"/>
<path d="" fill="#0072FC" transform="translate(0,0)"/>
<path d="" fill="#000002" transform="translate(0,0)"/>
</svg>
