<?xml version="1.0" encoding="UTF-8"?>
<svg version="1.1" viewBox="0 0 1600 1600" width="1280" height="1280" xmlns="http://www.w3.org/2000/svg">
<path transform="translate(482 -.26)" d="m0 0c1.7-3e-3 3.39-0.00687 5.09-0.0115 4.66-0.0103 9.31-0.00813 14-0.00394 5.07 0.00237 10.1-0.00681 15.2-0.0145 8.88-0.0118 17.8-0.0162 26.6-0.0157 13.2 7.94e-4 26.4-0.00976 39.6-0.0224 25-0.0234 49.9-0.033 74.9-0.0378 2.75-5.24e-4 5.51-0.00105 8.26-0.00158 1.02-1.94e-4 1.02-1.94e-4 2.07-3.91e-4 15.1-0.00291 30.3-0.00907 45.4-0.0157 6.24-0.00272 12.5-0.00535 18.7-0.00799 0.69-2.91e-4 1.38-5.82e-4 2.09-8.82e-4 39.5-0.0166 79-0.0285 119-0.0309 1.48-9.46e-5 2.96-1.9e-4 4.43-2.85e-4 6.67-4.28e-4 13.3-8.33e-4 20-0.00124 2.98-1.82e-4 5.95-3.66e-4 8.93-5.52e-4 1.49-9.2e-5 2.98-1.82e-4 4.47-2.71e-4 47.1-0.00281 94.2-0.0245 141-0.0614 35.1-0.0275 70.2-0.0534 105-0.0599 0.707-1.33e-4 1.41-2.67e-4 2.14-4.04e-4 15.5-0.00287 31.1-0.00429 46.6-0.00436 5.56-3.97e-5 11.1-1.97e-4 16.7-4.15e-4 1.38-5.36e-5 2.77-1.02e-4 4.15-1.44e-4 22-7.42e-4 44-0.0164 66-0.0396 22.8-0.024 45.6-0.0296 68.4-0.0146 13.1 0.00814 26.3 0.00249 39.4-0.0232 8.78-0.0158 17.6-0.0132 26.3 0.00391 5 0.00925 9.99 0.0108 15-0.00997 19.8-0.0771 38.3 0.0826 57.5 5.64 2.29 0.601 4.58 1.19 6.87 1.78 18.3 4.92 39.5 15 53.1 28.3 2.36 2.27 4.89 4.24 7.46 6.26 5.8 4.74 10.8 9.93 15.6 15.7 0.46 0.549 0.92 1.1 1.39 1.67 17.7 21.5 29 46.8 34.2 74.1 0.287 1.43 0.604 2.85 0.96 4.26 1.94 8.13 1.77 16.3 1.75 24.6 3e-3 1.69 0.00687 3.38 0.0115 5.07 0.0103 4.64 0.00813 9.29 0.00394 13.9-0.00237 5.05 0.0068 10.1 0.0145 15.2 0.0118 8.85 0.0162 17.7 0.0157 26.6-7.93e-4 13.2 0.00976 26.3 0.0224 39.5 0.0235 24.9 0.033 49.8 0.0378 74.7 5.24e-4 2.74 0.00105 5.49 0.00158 8.23 1.94e-4 1.02 1.94e-4 1.02 3.91e-4 2.06 0.00291 15.1 0.00907 30.2 0.0157 45.3 0.00272 6.22 0.00535 12.4 0.00799 18.7 2.91e-4 0.687 5.82e-4 1.37 8.82e-4 2.08 0.0166 39.4 0.0285 78.8 0.0309 118 9.46e-5 1.47 1.9e-4 2.95 2.85e-4 4.42 4.28e-4 6.65 8.33e-4 13.3 0.00124 20 1.82e-4 2.97 3.66e-4 5.93 5.52e-4 8.9 9.2e-5 1.49 1.82e-4 2.97 2.71e-4 4.46 0.00281 46.9 0.0245 93.9 0.0614 141 0.0275 35 0.0534 70 0.0599 105 1.33e-4 0.705 2.67e-4 1.41 4.04e-4 2.14 0.00287 15.5 0.00429 31 0.00436 46.5 3.97e-5 5.54 1.97e-4 11.1 4.15e-4 16.6 5.36e-5 1.38 1.02e-4 2.76 1.44e-4 4.14 7.42e-4 21.9 0.0164 43.9 0.0396 65.8 0.024 22.7 0.0296 45.4 0.0146 68.2-0.00814 13.1-0.00251 26.2 0.0232 39.3 0.0158 8.76 0.0132 17.5-0.00391 26.3-0.00924 4.98-0.0109 9.96 0.00997 14.9 0.08 20.4-0.282 39.7-5.64 59.6-0.365 1.4-0.365 1.4-0.738 2.83-2.9 11.1-6.66 21.2-12.2 31.2-1.11 2.03-2.19 4.07-3.27 6.12-4.49 8.4-9.5 15.7-15.8 22.8-0.953 1.15-1.9 2.31-2.85 3.47-6.13 7.44-12.5 13.7-20.2 19.5-0.72 0.597-1.44 1.19-2.18 1.81-5.91 4.87-12 8.95-18.6 12.7-0.993 0.557-1.99 1.11-3.01 1.69-24.9 13.6-51.2 19.1-79.4 19.1-1.7 0.0027-3.4 0.00627-5.1 0.0106-4.65 0.0094-9.3 0.00648-14 0.00144-5.07-0.00328-10.1 0.00503-15.2 0.0118-8.88 0.0103-17.8 0.0131-26.6 0.0111-13.2-0.00305-26.4 0.00528-39.6 0.0157-25 0.0193-49.9 0.025-74.9 0.0261-2.75 1.3e-4 -5.5 2.65e-4 -8.25 4.07e-4 -0.683 3.4e-5 -1.37 6.8e-5 -2.07 1.03e-4 -15.1 8.18e-4 -30.3 0.0052-45.4 0.0102-6.24 0.00206-12.5 0.00404-18.7 0.00603-0.689 2.21e-4 -1.38 4.42e-4 -2.09 6.7e-4 -39.5 0.0126-79 0.0209-118 0.02-1.48-3.16e-5 -2.95-6.3e-5 -4.43-9.44e-5 -6.67-1.47e-4 -13.3-3.23e-4 -20-5.08e-4 -2.97-8.22e-5 -5.95-1.63e-4 -8.92-2.43e-4 -1.49-4.08e-5 -2.98-8.28e-5 -4.47-1.26e-4 -47.1-0.00136-94.1 0.0133-141 0.0411-11.9 7e-3 -23.7 0.0139-35.6 0.0205-1.1 6.09e-4 -1.1 6.09e-4 -2.21 0.00123-22.5 0.0124-45 0.02-67.5 0.0225-0.707 7.99e-5 -1.41 1.6e-4 -2.14 2.42e-4 -15.5 0.00171-31.1 0.00223-46.6 0.00166-5.56-1.93e-4 -11.1-2.97e-4 -16.7-3.57e-4 -1.38-1.58e-5 -2.76-3.62e-5 -4.15-6.12e-5 -22-3.52e-4 -44 0.011-66 0.0283-22.8 0.0178-45.6 0.0209-68.3 0.00738-13.1-0.00738-26.2-0.00375-39.4 0.0159-8.78 0.012-17.6 0.00939-26.3-0.00494-4.99-0.00774-9.99-0.00937-15 0.00691-48.2 0.147-88-9.13-125-42-1.59-1.4-3.22-2.73-4.87-4.06-4.6-3.94-8.08-8.68-11.8-13.4-0.785-0.935-1.57-1.87-2.38-2.83-26.3-32.2-33.8-70.7-33.7-111-0.00135-1.67-0.00314-3.33-0.00531-5-0.00469-4.55-0.00324-9.1-7.22e-4 -13.6 0.00164-4.96-0.00251-9.92-0.00591-14.9-0.00514-8.68-0.00657-17.4-0.00554-26 0.00153-12.9-0.00264-25.8-0.00787-38.7-0.00966-24.4-0.0125-48.8-0.0131-73.2-6.48e-5 -2.69-1.33e-4 -5.38-2.03e-4 -8.07-1.7e-5 -0.667-3.4e-5 -1.33-5.15e-5 -2.02-4.09e-4 -14.8-0.0026-29.6-0.0051-44.4-0.00103-6.1-0.00202-12.2-0.00302-18.3-1.11e-4 -0.674-2.21e-4 -1.35-3.35e-4 -2.04-0.00632-38.6-0.0104-77.3-0.00999-116 1.58e-5 -1.44 3.15e-5 -2.89 4.72e-5 -4.33 7.34e-5 -6.52 1.62e-4 -13 2.54e-4 -19.6 4.11e-5 -2.91 8.13e-5 -5.82 1.21e-4 -8.72 2.04e-5 -1.46 4.14e-5 -2.91 6.31e-5 -4.37 6.8e-4 -46-0.00664-92.1-0.0205-138-0.0035-11.6-0.00697-23.2-0.0103-34.8-2.03e-4 -0.714-4.06e-4 -1.43-6.15e-4 -2.16-0.00622-22-0.00998-44-0.0112-66.1-4e-5 -0.692-7.99e-5 -1.38-1.21e-4 -2.1-8.53e-4 -15.2-0.00111-30.4-8.3e-4 -45.6 9.65e-5 -5.43 1.49e-4 -10.9 1.79e-4 -16.3 7.91e-6 -1.35 1.81e-5 -2.7 3.06e-5 -4.05 1.71e-4 -20.8-0.00499-41.7-0.0134-62.5-0.00919-22.9-0.0115-45.9-0.00449-68.8 0.00369-12.8 0.00187-25.7-0.00794-38.5-6e-3 -8.58-0.0047-17.2 0.00247-25.7 0.00388-4.88 0.00467-9.77-0.00346-14.7-0.0871-56.1 9.44-101 49.9-143 3.85-3.81 8.11-7.09 12.4-10.4 0.877-0.715 1.75-1.43 2.66-2.17 20-15.9 43.6-24.6 68.3-29.8 0.828-0.175 1.66-0.35 2.51-0.53 8.81-1.67 17.5-1.75 26.4-1.73zm479 239c-2.5 3.75-2.25 5.68-2.25 10.2-0.00261 0.737-0.00521 1.47-0.0079 2.23-0.00634 2.49 0.00169 4.98 0.00955 7.47-0.00159 1.8-0.00405 3.59-0.00732 5.39-0.00644 4.95-3.28e-4 9.9 0.00776 14.8 0.00656 5.33 0.00163 10.7-0.00188 16-0.00505 10.4 6.09e-4 20.9 0.00985 31.3 0.0104 12.2 0.0103 24.3 0.00983 36.5-5.01e-4 21.7 0.00867 43.4 0.0232 65.1 0.0141 21.1 0.0212 42.1 0.0205 63.2-5.99e-5 1.95-5.99e-5 1.95-1.21e-4 3.93-6.05e-5 1.94-6.05e-5 1.94-1.22e-4 3.92-6.89e-4 23.9 0.0052 47.9 0.0142 71.8 0.00302 8.48 0.00408 17 0.00453 25.5 6.81e-4 10.3 0.00513 20.7 0.0143 31 0.00463 5.28 0.00766 10.6 0.00641 15.8-0.00109 4.82 0.00239 9.65 0.00965 14.5 0.00182 1.75 0.00193 3.5 2.33e-4 5.25-0.00205 2.37 0.00197 4.73 0.00761 7.1 0.00106 1.98 0.00106 1.98 0.00213 4-0.0843 2.95-0.0843 2.95 1.13 5.03-5.18-2.81-10.2-5.74-15.2-8.89-42-26.5-95.2-37.5-144-27.4-9.7 2.22-19.2 5.09-28.6 8.33-0.699 0.239-1.4 0.479-2.12 0.726-31.2 11-62.3 32.2-82.9 58.3-0.764 0.95-1.53 1.9-2.32 2.88-6.11 7.7-11.6 15.7-16.7 24.1l-2.02 3.26c-26.6 44.4-33.1 99.5-20.6 149 2.76 10.4 6.24 20.5 10.6 30.3 0.469 1.09 0.469 1.09 0.948 2.19 7.14 16.4 16.4 31.2 28.1 44.8 1.02 1.22 2.03 2.45 3.05 3.68 1.09 1.3 2.17 2.59 3.26 3.89 0.516 0.621 1.03 1.24 1.56 1.88 2.99 3.56 2.99 3.56 7.12 5.56 0.495 1.48 0.495 1.48 1 3 1.58 1.66 1.58 1.66 3.54 3.27 0.725 0.614 1.45 1.23 2.2 1.86 0.746 0.618 1.49 1.24 2.26 1.87 0.672 0.561 1.34 1.12 2.04 1.7 11 9.06 22.4 16.6 35 23.3 1.02 0.56 1.02 0.56 2.07 1.13 38.7 21.1 85.8 27.2 129 18.9 0.864-0.166 1.73-0.333 2.62-0.504 37.1-7.44 74.3-25.6 100-53.5 5-5 5-5 6.73-6.66 5.05-4.9 9.44-10.1 13.6-15.7 0.649-0.871 1.3-1.74 1.97-2.64 6.05-8.27 11-16.9 15.7-26 0.383-0.729 0.767-1.46 1.16-2.21 15.9-30.2 21-62.7 21-96.5 0.00457-1.87 0.00958-3.74 0.015-5.61 0.0135-5.11 0.021-10.2 0.0274-15.3 0.00804-5.52 0.0217-11 0.0347-16.6 0.0217-9.56 0.0399-19.1 0.0556-28.7 0.0227-13.8 0.0509-27.6 0.0803-41.5 0.0476-22.4 0.0909-44.9 0.131-67.3 0.0394-21.8 0.0808-43.6 0.125-65.4 0.00278-1.37 0.00555-2.74 0.00833-4.11 0.0215-10.6 0.0432-21.2 0.0648-31.8 0.106-52 0.202-104 0.299-156 78.9-0.33 158-0.66 239-1 0.0206-26.4 0.0412-52.8 0.0625-79.9 0.0137-12.5 0.0137-12.5 0.0276-25.3 0.00334-7.45 0.00334-7.45 0.00536-14.9 9.36e-4 -3.33 0.0047-6.66 0.0101-9.99 0.00683-4.24 0.00892-8.48 0.0075-12.7 2.98e-4 -1.56 0.0023-3.12 0.00614-4.68 0.00493-2.1 0.00379-4.2 0.00104-6.3 9.22e-4 -1.18 0.00184-2.36 0.00279-3.57 0.175-2.55 0.175-2.55-1.12-3.62-1.69-0.1-3.39-0.129-5.08-0.131-1.66-0.00576-1.66-0.00576-3.36-0.0116-1.85 0.0013-1.85 0.0013-3.74 0.00263-1.3-0.00297-2.6-0.00594-3.93-9e-3 -3.62-0.0081-7.24-0.00986-10.9-0.0106-3.9-0.00185-7.79-0.00939-11.7-0.0161-8.53-0.0136-17.1-0.0196-25.6-0.024-5.32-0.00276-10.6-7e-3 -16-0.0115-14.7-0.0122-29.4-0.0225-44.2-0.0259-0.943-2.2e-4 -1.89-4.39e-4 -2.86-6.65e-4 -0.945-2.18e-4 -1.89-4.37e-4 -2.86-6.61e-4 -1.92-4.43e-4 -3.83-8.9e-4 -5.75-0.00134-0.95-2.21e-4 -1.9-4.43e-4 -2.88-6.71e-4 -15.4-0.00395-30.8-0.0214-46.2-0.0447-15.8-0.0237-31.6-0.0362-47.4-0.0373-8.88-9.19e-4 -17.8-0.00672-26.6-0.0248-7.56-0.0154-15.1-0.0205-22.7-0.0123-3.86 0.00392-7.72 0.0029-11.6-0.0111-4.17-0.015-8.35-0.00692-12.5 0.00358-1.23-0.00806-2.46-0.0161-3.73-0.0244-1.11 0.00659-2.22 0.0132-3.37 0.02-0.965-5.97e-4 -1.93-0.00119-2.92-0.00181-1.13 0.185-1.13 0.185-2.29 0.374z" fill="#000002"/>
<path transform="translate(116 320)" d="m0 0c5.15-0.0356 10.3-0.0595 15.5-0.0739 1.69-0.00973 1.69-0.00973 3.42-0.0197 8.2-0.00473 16.1 0.564 24.4 1.11 0.33 369 0.66 739 1 1119 356-0.0396 356-0.0396 713-0.0901 68.9-0.00452 68.9-0.00452 101-0.00536 23.3-9.64e-4 46.6-0.00493 69.8-0.0107 24.6-0.00605 49.1-0.00883 73.7-0.00744 3.43 1.94e-4 6.87 3.53e-4 10.3 4.9e-4 1.01 4.23e-5 1.01 4.23e-5 2.04 8.54e-5 11.1 3.7e-4 22.3-0.00315 33.4-0.00782 9.63-0.00377 19.3-0.00385 28.9-0.00103 5.47 0.0015 10.9 0.00149 16.4-0.00305 5.01-0.00412 10-0.00342 15 7.43e-4 1.78 7e-4 3.56-1.86e-4 5.34-0.0031 16.8-0.0257 33.5 0.602 50.4 1.13v159c-51.6 0.0405-51.6 0.0405-71.6 0.0555-1.25 9.35e-4 -2.49 0.00187-3.78 0.00283-9.4 0.00704-18.8 0.014-28.2 0.021-1.01 7.48e-4 -1.01 7.48e-4 -2.05 0.00151-72.5 0.0535-145 0.0996-217 0.131-1.61 6.97e-4 -3.22 0.00139-4.83 0.00209-33.8 0.0146-67.6 0.0282-101 0.0406-17 0.00623-34 0.0127-50.9 0.0193-2.56 9.96e-4 -5.12 0.00199-7.68 0.00298-39.4 0.0153-78.8 0.0348-118 0.0667-0.847 6.84e-4 -1.69 0.00137-2.57 0.00207-13.7 0.0111-27.3 0.0225-41 0.0339-39.4 0.033-78.7 0.0634-118 0.0764-1.21 4.02e-4 -1.21 4.02e-4 -2.45 8.11e-4 -17.8 0.00583-35.6 0.0103-53.3 0.0135-7.16 0.00131-14.3 0.00281-21.5 0.00438-0.783 1.67e-4 -1.57 3.34e-4 -2.37 5.06e-4 -25.2 0.00548-50.4 0.0268-75.6 0.0565-25.4 0.0299-50.8 0.0441-76.2 0.0367-3.52-0.00102-7.03-0.00185-10.5-0.00258-0.689-1.49e-4 -1.38-2.99e-4 -2.09-4.53e-4 -10.2-0.00178-20.4 0.0104-30.7 0.0309-11.4 0.0228-22.8 0.0291-34.1 0.0131-5.73-0.00753-11.5-0.00732-17.2 0.0153-43.3 0.161-43.3 0.161-63.2-5.62-1.85-0.495-3.7-0.987-5.56-1.48-10.1-2.68-19.3-6.42-28.5-11.5-1.94-1.06-3.91-2.07-5.88-3.07-10.1-5.25-18.6-11.9-27.1-19.3-1.88-1.63-3.79-3.25-5.69-4.86-3.83-3.29-7-6.9-10.2-10.8l-1.25-1.5c-6.94-8.37-12.7-16.8-17.7-26.5-0.512-0.971-0.512-0.971-1.04-1.96-7.67-14.6-12.9-29.1-16.4-45.3-0.356-1.66-0.727-3.33-1.12-4.98-1.99-9.22-1.74-18.4-1.71-27.8-0.00148-1.95-0.00384-3.89-0.00699-5.84-0.00613-5.35 2.05e-4 -10.7 0.00856-16.1 0.00687-5.82 0.00213-11.6-0.00115-17.5-0.00442-10.9 1.82e-4 -21.8 0.00889-32.6 0.00812-10.3 0.0115-20.6 0.0106-30.8-5.74e-5 -0.692-1.15e-4 -1.38-1.74e-4 -2.1-3.13e-4 -3.53-6.97e-4 -7.06-0.00111-10.6-0.00281-25.5 0.00404-51.1 0.016-76.6 0.0118-25.3 0.0196-50.6 0.0217-75.8 6.88e-5 -0.785 1.38e-4 -1.57 2.09e-4 -2.38 6.26e-4 -7.17 0.0012-14.3 0.00172-21.5 0.00128-17.8 0.0032-35.7 0.00555-53.5 1.07e-4 -0.812 2.13e-4 -1.62 3.23e-4 -2.46 0.00524-39.5 0.0179-79 0.0311-118 0.00458-13.7 0.00913-27.4 0.0135-41.1 2.74e-4 -0.85 5.48e-4 -1.7 8.3e-4 -2.58 0.0127-39.5 0.0201-79 0.0262-119 3.96e-4 -2.57 7.95e-4 -5.13 0.00119-7.7 0.00264-17 0.00519-34 0.00768-51 0.00495-33.8 0.0104-67.7 0.0163-101 2.78e-4 -1.61 5.57e-4 -3.22 8.34e-4 -4.83 0.0125-72.5 0.0312-145 0.0525-218 2e-4 -0.679 4e-4 -1.36 6.06e-4 -2.06 0.01-34 0.0204-67.9 0.0311-102 14.2-0.132 28.4-0.263 42.6-0.391 6.6-0.0598 13.2-0.12 19.8-0.182 17.8-0.166 35.6-0.319 53.4-0.447z" fill="#000002"/>
</svg>
