<?xml version="1.0" encoding="UTF-8"?>
<!-- Generator: visioncortex VTracer 0.6.3 -->
<svg version="1.1" xmlns="http://www.w3.org/2000/svg" width="1280" height="1280">
<path d="M0 0 C1.29 0.01 2.59 0.01 3.92 0.02 C4.95 0.02 4.95 0.02 6 0.02 C8.2 0.03 10.4 0.04 12.6 0.05 C14.09 0.06 15.58 0.06 17.07 0.06 C20.73 0.08 24.38 0.09 28.04 0.11 C28.04 0.77 28.04 1.43 28.04 2.11 C29.03 1.78 30.02 1.45 31.04 1.11 C36.97 2.78 42.04 5.61 47.04 9.11 C47.7 9.11 48.36 9.11 49.04 9.11 C49.54 11.09 49.54 11.09 50.04 13.11 C51.69 13.44 53.34 13.77 55.04 14.11 C55.54 15.6 55.54 15.6 56.04 17.11 C57.03 17.11 58.02 17.11 59.04 17.11 C59.04 17.77 59.04 18.43 59.04 19.11 C60.03 19.11 61.02 19.11 62.04 19.11 C62.31 19.75 62.58 20.39 62.85 21.05 C63.93 23.44 63.93 23.44 67.04 24.11 C67.71 25.45 68.37 26.78 69.04 28.11 C70.53 28.61 70.53 28.61 72.04 29.11 C72.71 30.45 73.37 31.78 74.04 33.11 C75.03 33.44 76.02 33.77 77.04 34.11 C77.71 35.45 78.37 36.78 79.04 38.11 C80.03 38.44 81.02 38.77 82.04 39.11 C82.71 40.45 83.37 41.78 84.04 43.11 C85.03 43.44 86.02 43.77 87.04 44.11 C88.06 45.77 89.06 47.44 90.04 49.11 C91.59 50.84 93.19 52.52 94.83 54.16 C95.31 54.64 95.78 55.12 96.27 55.61 C97.82 57.17 99.38 58.73 100.95 60.29 C102.03 61.37 103.12 62.46 104.21 63.55 C106.48 65.83 108.76 68.1 111.04 70.37 C113.96 73.28 116.87 76.2 119.78 79.12 C122.02 81.37 124.27 83.61 126.52 85.86 C127.59 86.93 128.67 88.01 129.74 89.09 C131.24 90.59 132.74 92.09 134.25 93.58 C135.1 94.43 135.96 95.29 136.84 96.17 C138.97 98.31 138.97 98.31 142.04 99.11 C142.71 100.45 143.37 101.78 144.04 103.11 C145.03 103.44 146.02 103.77 147.04 104.11 C147.71 105.45 148.37 106.78 149.04 108.11 C150.03 108.44 151.02 108.77 152.04 109.11 C152.71 110.45 153.37 111.78 154.04 113.11 C155.03 113.44 156.02 113.77 157.04 114.11 C158.07 115.76 159.07 117.43 160.04 119.11 C161.29 120.53 162.58 121.91 163.91 123.25 C165.07 124.41 165.07 124.41 166.25 125.6 C167.08 126.42 167.91 127.25 168.76 128.1 C169.61 128.95 170.47 129.81 171.35 130.69 C173.15 132.5 174.96 134.3 176.76 136.1 C179.54 138.86 182.3 141.63 185.06 144.41 C186.81 146.16 188.57 147.91 190.32 149.66 C191.56 150.91 191.56 150.91 192.83 152.18 C193.6 152.95 194.37 153.71 195.17 154.5 C196.18 155.51 196.18 155.51 197.22 156.55 C199.06 158.33 199.06 158.33 202.04 159.11 C202.71 160.45 203.37 161.78 204.04 163.11 C205.03 163.44 206.02 163.77 207.04 164.11 C207.71 165.45 208.37 166.78 209.04 168.11 C210.03 168.44 211.02 168.77 212.04 169.11 C212.71 170.45 213.37 171.78 214.04 173.11 C215.03 173.44 216.02 173.77 217.04 174.11 C217.71 175.45 218.37 176.78 219.04 178.11 C220.03 178.44 221.02 178.77 222.04 179.11 C222.71 180.45 223.37 181.78 224.04 183.11 C225.03 183.44 226.02 183.77 227.04 184.11 C228.07 185.76 229.07 187.43 230.04 189.11 C231.29 190.53 232.58 191.91 233.91 193.25 C235.07 194.41 235.07 194.41 236.25 195.6 C237.08 196.42 237.91 197.25 238.76 198.1 C239.61 198.95 240.47 199.81 241.35 200.69 C243.15 202.5 244.96 204.3 246.76 206.1 C249.54 208.86 252.3 211.63 255.06 214.41 C256.81 216.16 258.57 217.91 260.32 219.66 C261.15 220.49 261.98 221.32 262.83 222.18 C263.6 222.95 264.37 223.71 265.17 224.5 C265.84 225.17 266.52 225.85 267.22 226.55 C269.06 228.33 269.06 228.33 272.04 229.11 C272.71 230.45 273.37 231.78 274.04 233.11 C275.03 233.44 276.02 233.77 277.04 234.11 C277.71 235.45 278.37 236.78 279.04 238.11 C280.03 238.44 281.02 238.77 282.04 239.11 C282.71 240.45 283.37 241.78 284.04 243.11 C285.03 243.44 286.02 243.77 287.04 244.11 C288.07 245.76 289.06 247.43 290.04 249.11 C291.44 250.69 292.89 252.22 294.37 253.7 C295.24 254.58 296.11 255.46 297.01 256.36 C297.96 257.31 298.91 258.25 299.85 259.19 C300.83 260.17 301.8 261.15 302.78 262.12 C304.82 264.16 306.86 266.2 308.9 268.23 C311.52 270.84 314.13 273.46 316.74 276.08 C318.75 278.1 320.76 280.11 322.78 282.12 C323.74 283.08 324.7 284.05 325.67 285.01 C327.01 286.36 328.36 287.7 329.71 289.04 C330.47 289.8 331.24 290.57 332.03 291.36 C334.02 293.32 334.02 293.32 337.04 294.11 C338.05 295.78 339.04 297.44 340.04 299.11 C341.99 301.24 343.95 303.27 345.99 305.29 C346.59 305.89 347.19 306.49 347.8 307.1 C349.77 309.07 351.75 311.03 353.72 312.99 C355.09 314.36 356.47 315.73 357.84 317.1 C361.46 320.71 365.08 324.31 368.7 327.91 C372.37 331.56 376.04 335.22 379.71 338.88 C385.64 344.79 391.58 350.71 397.52 356.61 C400.7 359.77 403.87 362.94 407.04 366.11 C408.43 367.5 409.82 368.9 411.21 370.29 C469.71 428.78 528.2 487.27 629.04 588.11 C629.94 589.01 630.84 589.91 631.77 590.84 C645.76 604.86 645.76 604.86 647.04 615.11 C647.7 615.11 648.36 615.11 649.04 615.11 C649.35 616.21 649.66 617.3 649.98 618.43 C650.62 620.67 651.3 622.9 652.04 625.11 C652.29 629.28 652.31 633.44 652.34 637.61 C652.35 638.97 652.37 640.34 652.4 641.71 C652.59 650.48 651.95 657.24 648.04 665.11 C647.7 665.96 647.37 666.81 647.02 667.68 C642.62 678.63 634.51 686.94 626.28 695.12 C625.29 696.12 624.3 697.11 623.3 698.11 C620.58 700.84 617.85 703.56 615.12 706.29 C612.15 709.25 609.19 712.22 606.23 715.19 C601.03 720.39 595.83 725.59 590.63 730.79 C582.89 738.52 575.17 746.25 567.44 753.98 C553.64 767.8 539.83 781.6 526.02 795.4 C513.94 807.48 501.86 819.55 489.79 831.63 C488.99 832.43 488.19 833.24 487.36 834.06 C484.11 837.31 480.86 840.56 477.61 843.81 C447.13 874.3 416.63 904.79 386.14 935.28 C359.02 962.38 331.91 989.49 304.81 1016.6 C274.37 1047.05 243.93 1077.5 213.49 1107.94 C210.24 1111.18 207 1114.42 203.76 1117.66 C202.56 1118.86 202.56 1118.86 201.34 1120.08 C189.26 1132.16 177.19 1144.24 165.11 1156.31 C151.39 1170.04 137.67 1183.76 123.94 1197.48 C116.25 1205.16 108.57 1212.85 100.88 1220.54 C95.76 1225.67 90.63 1230.79 85.5 1235.91 C82.58 1238.83 79.65 1241.76 76.73 1244.69 C74.07 1247.35 71.42 1250 68.75 1252.65 C67.34 1254.07 65.92 1255.49 64.51 1256.91 C63.26 1258.15 63.26 1258.15 61.99 1259.42 C61.27 1260.14 60.55 1260.86 59.81 1261.6 C58.04 1263.11 58.04 1263.11 56.04 1263.11 C55.71 1264.1 55.38 1265.09 55.04 1266.11 C47.37 1272.51 38.06 1277.56 28.04 1278.11 C28.04 1278.77 28.04 1279.43 28.04 1280.11 C23.72 1280.19 19.39 1280.24 15.07 1280.28 C13.6 1280.29 12.13 1280.31 10.66 1280.34 C8.55 1280.38 6.43 1280.39 4.31 1280.41 C3.04 1280.42 1.77 1280.44 0.45 1280.45 C-3.2 1280.09 -4.99 1279.19 -7.96 1277.11 C-9.28 1276.74 -10.62 1276.41 -11.96 1276.11 C-13.63 1275.47 -15.3 1274.8 -16.96 1274.11 C-16.96 1273.45 -16.96 1272.79 -16.96 1272.11 C-17.66 1272.01 -18.36 1271.91 -19.08 1271.8 C-22.35 1271.02 -25.01 1269.69 -27.96 1268.11 C-27.96 1267.45 -27.96 1266.79 -27.96 1266.11 C-28.52 1265.88 -29.08 1265.65 -29.65 1265.42 C-38.71 1260.29 -43.96 1250.31 -47.96 1241.11 C-48.36 1240.25 -48.76 1239.39 -49.17 1238.5 C-51.89 1232.6 -53.09 1228.16 -53.06 1221.6 C-53.05 1219.72 -53.05 1219.72 -53.05 1217.81 C-53.04 1216.51 -53.03 1215.2 -53.02 1213.86 C-53.02 1212.55 -53.01 1211.23 -53.01 1209.87 C-53 1206.62 -52.98 1203.37 -52.96 1200.11 C-52.63 1200.11 -52.3 1200.11 -51.96 1200.11 C-51.63 1197.47 -51.3 1194.83 -50.96 1192.11 C-50.3 1192.11 -49.64 1192.11 -48.96 1192.11 C-48.86 1191.02 -48.75 1189.93 -48.65 1188.8 C-47.95 1185.05 -47.7 1184.42 -44.96 1182.11 C-44.5 1181.15 -44.5 1181.15 -44.02 1180.18 C-42.96 1178.11 -42.96 1178.11 -41.02 1176.24 C-38.8 1174.2 -38.8 1174.2 -37.71 1171.3 C-35.67 1167.58 -33.3 1165.64 -30.07 1162.97 C-27.98 1161.14 -26.24 1159.23 -24.46 1157.11 C-21.54 1153.66 -18.37 1150.81 -14.93 1147.89 C-12.92 1146.08 -11.2 1144.18 -9.46 1142.11 C-6.54 1138.66 -3.37 1135.81 0.07 1132.89 C2.08 1131.08 3.8 1129.18 5.54 1127.11 C8.46 1123.66 11.63 1120.81 15.07 1117.89 C17.08 1116.08 18.8 1114.18 20.54 1112.11 C23.45 1108.67 26.61 1105.82 30.05 1102.92 C32.85 1100.38 35.21 1097.54 37.6 1094.62 C38.31 1093.87 38.31 1093.87 39.04 1093.11 C39.7 1093.11 40.36 1093.11 41.04 1093.11 C41.04 1092.45 41.04 1091.79 41.04 1091.11 C41.7 1091.11 42.36 1091.11 43.04 1091.11 C43.37 1090.12 43.7 1089.13 44.04 1088.11 C45.64 1086.57 45.64 1086.57 47.67 1084.93 C50.56 1082.48 53.1 1080.01 55.54 1077.11 C58.46 1073.66 61.63 1070.81 65.07 1067.89 C67.08 1066.08 68.8 1064.18 70.54 1062.11 C73.46 1058.66 76.63 1055.81 80.07 1052.89 C82.08 1051.08 83.8 1049.18 85.54 1047.11 C88.46 1043.66 91.63 1040.81 95.07 1037.89 C97.08 1036.08 98.8 1034.18 100.54 1032.11 C103.46 1028.66 106.63 1025.81 110.07 1022.89 C112.08 1021.08 113.8 1019.18 115.54 1017.11 C117.88 1014.35 120.28 1011.95 123.04 1009.61 C126.48 1006.7 129.41 1003.56 132.3 1000.11 C134.44 997.66 136.74 995.41 139.04 993.11 C140.68 991.47 142.32 989.83 143.95 988.19 C144.93 987.22 145.9 986.25 146.87 985.27 C147.39 984.76 147.9 984.24 148.43 983.71 C160.29 971.83 172.15 959.96 184.02 948.08 C190.87 941.22 197.73 934.36 204.58 927.5 C210.57 921.5 216.56 915.5 222.55 909.51 C225.72 906.34 228.89 903.17 232.05 900 C235.03 897.01 238.01 894.03 240.99 891.05 C242.08 889.96 243.17 888.87 244.26 887.78 C249.47 882.55 254.68 877.38 260.35 872.64 C262.25 870.92 263.89 869.07 265.54 867.11 C268.46 863.66 271.63 860.81 275.07 857.89 C277.08 856.08 278.8 854.18 280.54 852.11 C283.46 848.66 286.63 845.81 290.07 842.89 C292.08 841.08 293.8 839.18 295.54 837.11 C298.46 833.66 301.63 830.81 305.07 827.89 C307.08 826.08 308.8 824.18 310.54 822.11 C313.46 818.66 316.63 815.81 320.07 812.89 C322.08 811.08 323.8 809.18 325.54 807.11 C328.46 803.66 331.63 800.81 335.07 797.89 C337.08 796.08 338.8 794.18 340.54 792.11 C343.46 788.66 346.63 785.81 350.07 782.89 C352.08 781.08 353.8 779.18 355.54 777.11 C358.43 773.7 361.57 770.86 364.98 767.97 C366.86 766.28 368.45 764.56 370.07 762.62 C374.95 756.98 380.25 751.77 385.53 746.51 C386.68 745.36 387.83 744.21 388.97 743.07 C392.07 739.97 395.18 736.87 398.28 733.78 C401.53 730.53 404.78 727.28 408.03 724.03 C414.18 717.88 420.33 711.74 426.49 705.6 C433.48 698.61 440.47 691.62 447.47 684.64 C459.42 672.7 471.37 660.76 483.32 648.82 C483.82 648.32 484.33 647.82 484.84 647.3 C486.18 645.96 487.52 644.63 488.86 643.29 C490.59 641.56 492.32 639.84 494.04 638.11 C493.38 638.11 492.72 638.11 492.04 638.11 C492.04 637.45 492.04 636.79 492.04 636.11 C491.05 635.78 490.06 635.45 489.04 635.11 C489.04 634.45 489.04 633.79 489.04 633.11 C488.38 633.11 487.72 633.11 487.04 633.11 C487.04 632.45 487.04 631.79 487.04 631.11 C486.05 630.78 485.06 630.45 484.04 630.11 C484.04 629.45 484.04 628.79 484.04 628.11 C483.38 628.11 482.72 628.11 482.04 628.11 C482.04 627.45 482.04 626.79 482.04 626.11 C481.05 625.78 480.06 625.45 479.04 625.11 C479.04 624.45 479.04 623.79 479.04 623.11 C478.38 623.11 477.72 623.11 477.04 623.11 C477.04 622.45 477.04 621.79 477.04 621.11 C476.05 620.78 475.06 620.45 474.04 620.11 C474.04 619.45 474.04 618.79 474.04 618.11 C473.38 618.11 472.72 618.11 472.04 618.11 C472.04 617.45 472.04 616.79 472.04 616.11 C471.05 615.78 470.06 615.45 469.04 615.11 C469.04 614.45 469.04 613.79 469.04 613.11 C468.38 613.11 467.72 613.11 467.04 613.11 C467.04 612.45 467.04 611.79 467.04 611.11 C466.05 610.78 465.06 610.45 464.04 610.11 C464.04 609.45 464.04 608.79 464.04 608.11 C463.38 608.11 462.72 608.11 462.04 608.11 C462.04 607.45 462.04 606.79 462.04 606.11 C461.05 605.78 460.06 605.45 459.04 605.11 C459.04 604.45 459.04 603.79 459.04 603.11 C458.38 603.11 457.72 603.11 457.04 603.11 C457.04 602.45 457.04 601.79 457.04 601.11 C456.05 600.78 455.06 600.45 454.04 600.11 C454.04 599.45 454.04 598.79 454.04 598.11 C453.38 598.11 452.72 598.11 452.04 598.11 C452.04 597.45 452.04 596.79 452.04 596.11 C451.05 595.78 450.06 595.45 449.04 595.11 C449.04 594.45 449.04 593.79 449.04 593.11 C448.38 593.11 447.72 593.11 447.04 593.11 C447.04 592.45 447.04 591.79 447.04 591.11 C446.05 590.78 445.06 590.45 444.04 590.11 C444.04 589.45 444.04 588.79 444.04 588.11 C443.38 588.11 442.72 588.11 442.04 588.11 C442.04 587.45 442.04 586.79 442.04 586.11 C441.05 585.78 440.06 585.45 439.04 585.11 C439.04 584.45 439.04 583.79 439.04 583.11 C438.38 583.11 437.72 583.11 437.04 583.11 C437.04 582.45 437.04 581.79 437.04 581.11 C436.05 580.78 435.06 580.45 434.04 580.11 C434.04 579.45 434.04 578.79 434.04 578.11 C433.38 578.11 432.72 578.11 432.04 578.11 C432.04 577.45 432.04 576.79 432.04 576.11 C431.05 575.78 430.06 575.45 429.04 575.11 C429.04 574.45 429.04 573.79 429.04 573.11 C428.38 573.11 427.72 573.11 427.04 573.11 C427.04 572.45 427.04 571.79 427.04 571.11 C426.28 570.85 425.51 570.58 424.73 570.3 C422.14 569.16 420.74 568.35 419.04 566.11 C419.04 565.12 419.04 564.13 419.04 563.11 C417.39 562.45 415.74 561.79 414.04 561.11 C414.04 560.12 414.04 559.13 414.04 558.11 C412.39 557.45 410.74 556.79 409.04 556.11 C409.04 555.12 409.04 554.13 409.04 553.11 C407.39 552.45 405.74 551.79 404.04 551.11 C404.04 550.12 404.04 549.13 404.04 548.11 C402.39 547.45 400.74 546.79 399.04 546.11 C399.04 545.12 399.04 544.13 399.04 543.11 C397.39 542.45 395.74 541.79 394.04 541.11 C394.04 540.12 394.04 539.13 394.04 538.11 C392.39 537.45 390.74 536.79 389.04 536.11 C389.04 535.12 389.04 534.13 389.04 533.11 C387.39 532.45 385.74 531.79 384.04 531.11 C384.04 530.12 384.04 529.13 384.04 528.11 C382.39 527.45 380.74 526.79 379.04 526.11 C379.04 525.12 379.04 524.13 379.04 523.11 C377.39 522.45 375.74 521.79 374.04 521.11 C374.04 520.12 374.04 519.13 374.04 518.11 C373.38 518.11 372.72 518.11 372.04 518.11 C372.04 517.45 372.04 516.79 372.04 516.11 C371.05 515.78 370.06 515.45 369.04 515.11 C369.04 514.45 369.04 513.79 369.04 513.11 C368.38 513.11 367.72 513.11 367.04 513.11 C367.04 512.45 367.04 511.79 367.04 511.11 C366.05 510.78 365.06 510.45 364.04 510.11 C364.04 509.45 364.04 508.79 364.04 508.11 C363.38 508.11 362.72 508.11 362.04 508.11 C362.04 507.45 362.04 506.79 362.04 506.11 C361.05 505.78 360.06 505.45 359.04 505.11 C359.04 504.45 359.04 503.79 359.04 503.11 C358.38 503.11 357.72 503.11 357.04 503.11 C357.04 502.45 357.04 501.79 357.04 501.11 C356.05 500.78 355.06 500.45 354.04 500.11 C354.04 499.45 354.04 498.79 354.04 498.11 C353.38 498.11 352.72 498.11 352.04 498.11 C352.04 497.45 352.04 496.79 352.04 496.11 C351.05 495.78 350.06 495.45 349.04 495.11 C349.04 494.45 349.04 493.79 349.04 493.11 C348.38 493.11 347.72 493.11 347.04 493.11 C347.04 492.45 347.04 491.79 347.04 491.11 C346.05 490.78 345.06 490.45 344.04 490.11 C344.04 489.45 344.04 488.79 344.04 488.11 C343.38 488.11 342.72 488.11 342.04 488.11 C342.04 487.45 342.04 486.79 342.04 486.11 C341.05 485.78 340.06 485.45 339.04 485.11 C339.04 484.45 339.04 483.79 339.04 483.11 C338.38 483.11 337.72 483.11 337.04 483.11 C337.04 482.45 337.04 481.79 337.04 481.11 C336.05 480.78 335.06 480.45 334.04 480.11 C334.04 479.45 334.04 478.79 334.04 478.11 C333.38 478.11 332.72 478.11 332.04 478.11 C332.04 477.45 332.04 476.79 332.04 476.11 C331.05 475.78 330.06 475.45 329.04 475.11 C329.04 474.45 329.04 473.79 329.04 473.11 C328.38 473.11 327.72 473.11 327.04 473.11 C327.04 472.45 327.04 471.79 327.04 471.11 C326.05 470.78 325.06 470.45 324.04 470.11 C324.04 469.45 324.04 468.79 324.04 468.11 C323.38 468.11 322.72 468.11 322.04 468.11 C322.04 467.45 322.04 466.79 322.04 466.11 C321.05 465.78 320.06 465.45 319.04 465.11 C319.04 464.45 319.04 463.79 319.04 463.11 C318.38 463.11 317.72 463.11 317.04 463.11 C317.04 462.45 317.04 461.79 317.04 461.11 C316.05 460.78 315.06 460.45 314.04 460.11 C314.04 459.45 314.04 458.79 314.04 458.11 C313.38 458.11 312.72 458.11 312.04 458.11 C312.04 457.45 312.04 456.79 312.04 456.11 C311.05 455.78 310.06 455.45 309.04 455.11 C309.04 454.45 309.04 453.79 309.04 453.11 C308.38 453.11 307.72 453.11 307.04 453.11 C307.04 452.45 307.04 451.79 307.04 451.11 C306.05 450.78 305.06 450.45 304.04 450.11 C304.04 449.45 304.04 448.79 304.04 448.11 C303.38 448.11 302.72 448.11 302.04 448.11 C302.04 447.45 302.04 446.79 302.04 446.11 C301.05 445.78 300.06 445.45 299.04 445.11 C299.04 444.45 299.04 443.79 299.04 443.11 C298.38 443.11 297.72 443.11 297.04 443.11 C297.04 442.45 297.04 441.79 297.04 441.11 C296.05 440.78 295.06 440.45 294.04 440.11 C294.04 439.45 294.04 438.79 294.04 438.11 C293.38 438.11 292.72 438.11 292.04 438.11 C292.04 437.45 292.04 436.79 292.04 436.11 C291.05 435.78 290.06 435.45 289.04 435.11 C289.04 434.45 289.04 433.79 289.04 433.11 C288.38 433.11 287.72 433.11 287.04 433.11 C287.04 432.45 287.04 431.79 287.04 431.11 C286.05 430.78 285.06 430.45 284.04 430.11 C284.04 429.45 284.04 428.79 284.04 428.11 C283.38 428.11 282.72 428.11 282.04 428.11 C282.04 427.45 282.04 426.79 282.04 426.11 C281.05 425.78 280.06 425.45 279.04 425.11 C279.04 424.45 279.04 423.79 279.04 423.11 C278.38 423.11 277.72 423.11 277.04 423.11 C277.04 422.45 277.04 421.79 277.04 421.11 C276.05 420.78 275.06 420.45 274.04 420.11 C274.04 419.45 274.04 418.79 274.04 418.11 C273.38 418.11 272.72 418.11 272.04 418.11 C272.04 417.45 272.04 416.79 272.04 416.11 C270.39 415.45 268.74 414.79 267.04 414.11 C267.04 413.12 267.04 412.13 267.04 411.11 C266.05 410.78 265.06 410.45 264.04 410.11 C264.04 409.45 264.04 408.79 264.04 408.11 C263.38 408.11 262.72 408.11 262.04 408.11 C262.04 407.45 262.04 406.79 262.04 406.11 C261.05 405.78 260.06 405.45 259.04 405.11 C259.04 404.45 259.04 403.79 259.04 403.11 C258.38 403.11 257.72 403.11 257.04 403.11 C257.04 402.45 257.04 401.79 257.04 401.11 C256.05 400.78 255.06 400.45 254.04 400.11 C254.04 399.45 254.04 398.79 254.04 398.11 C253.38 398.11 252.72 398.11 252.04 398.11 C252.04 397.45 252.04 396.79 252.04 396.11 C251.05 395.78 250.06 395.45 249.04 395.11 C249.04 394.45 249.04 393.79 249.04 393.11 C248.38 393.11 247.72 393.11 247.04 393.11 C247.04 392.45 247.04 391.79 247.04 391.11 C246.05 390.78 245.06 390.45 244.04 390.11 C244.04 389.45 244.04 388.79 244.04 388.11 C243.38 388.11 242.72 388.11 242.04 388.11 C242.04 387.45 242.04 386.79 242.04 386.11 C241.05 385.78 240.06 385.45 239.04 385.11 C239.04 384.45 239.04 383.79 239.04 383.11 C238.38 383.11 237.72 383.11 237.04 383.11 C237.04 382.45 237.04 381.79 237.04 381.11 C236.05 380.78 235.06 380.45 234.04 380.11 C234.04 379.45 234.04 378.79 234.04 378.11 C233.38 378.11 232.72 378.11 232.04 378.11 C232.04 377.45 232.04 376.79 232.04 376.11 C231.05 375.78 230.06 375.45 229.04 375.11 C229.04 374.45 229.04 373.79 229.04 373.11 C228.38 373.11 227.72 373.11 227.04 373.11 C227.04 372.45 227.04 371.79 227.04 371.11 C226.05 370.78 225.06 370.45 224.04 370.11 C224.04 369.45 224.04 368.79 224.04 368.11 C223.38 368.11 222.72 368.11 222.04 368.11 C222.04 367.45 222.04 366.79 222.04 366.11 C221.05 365.78 220.06 365.45 219.04 365.11 C219.04 364.45 219.04 363.79 219.04 363.11 C218.38 363.11 217.72 363.11 217.04 363.11 C217.04 362.45 217.04 361.79 217.04 361.11 C216.05 360.78 215.06 360.45 214.04 360.11 C214.04 359.45 214.04 358.79 214.04 358.11 C213.38 358.11 212.72 358.11 212.04 358.11 C212.04 357.45 212.04 356.79 212.04 356.11 C211.05 355.78 210.06 355.45 209.04 355.11 C209.04 354.45 209.04 353.79 209.04 353.11 C208.38 353.11 207.72 353.11 207.04 353.11 C207.04 352.45 207.04 351.79 207.04 351.11 C206.05 350.78 205.06 350.45 204.04 350.11 C204.04 349.45 204.04 348.79 204.04 348.11 C203.38 348.11 202.72 348.11 202.04 348.11 C202.04 347.45 202.04 346.79 202.04 346.11 C201.05 345.78 200.06 345.45 199.04 345.11 C199.04 344.45 199.04 343.79 199.04 343.11 C198.38 343.11 197.72 343.11 197.04 343.11 C197.04 342.45 197.04 341.79 197.04 341.11 C196.05 340.78 195.06 340.45 194.04 340.11 C194.04 339.45 194.04 338.79 194.04 338.11 C193.38 338.11 192.72 338.11 192.04 338.11 C192.04 337.45 192.04 336.79 192.04 336.11 C191.05 335.78 190.06 335.45 189.04 335.11 C189.04 334.45 189.04 333.79 189.04 333.11 C188.38 333.11 187.72 333.11 187.04 333.11 C187.04 332.45 187.04 331.79 187.04 331.11 C186.05 330.78 185.06 330.45 184.04 330.11 C184.04 329.45 184.04 328.79 184.04 328.11 C183.38 328.11 182.72 328.11 182.04 328.11 C182.04 327.45 182.04 326.79 182.04 326.11 C181.05 325.78 180.06 325.45 179.04 325.11 C179.04 324.45 179.04 323.79 179.04 323.11 C178.38 323.11 177.72 323.11 177.04 323.11 C177.04 322.45 177.04 321.79 177.04 321.11 C176.05 320.78 175.06 320.45 174.04 320.11 C174.04 319.45 174.04 318.79 174.04 318.11 C173.38 318.11 172.72 318.11 172.04 318.11 C172.04 317.45 172.04 316.79 172.04 316.11 C171.05 315.78 170.06 315.45 169.04 315.11 C169.04 314.45 169.04 313.79 169.04 313.11 C168.38 313.11 167.72 313.11 167.04 313.11 C167.04 312.45 167.04 311.79 167.04 311.11 C166.05 310.78 165.06 310.45 164.04 310.11 C164.04 309.45 164.04 308.79 164.04 308.11 C163.38 308.11 162.72 308.11 162.04 308.11 C162.04 307.45 162.04 306.79 162.04 306.11 C161.05 305.78 160.06 305.45 159.04 305.11 C159.04 304.45 159.04 303.79 159.04 303.11 C158.38 303.11 157.72 303.11 157.04 303.11 C157.04 302.45 157.04 301.79 157.04 301.11 C156.05 300.78 155.06 300.45 154.04 300.11 C154.04 299.45 154.04 298.79 154.04 298.11 C153.38 298.11 152.72 298.11 152.04 298.11 C152.04 297.45 152.04 296.79 152.04 296.11 C151.05 295.78 150.06 295.45 149.04 295.11 C149.04 294.45 149.04 293.79 149.04 293.11 C148.38 293.11 147.72 293.11 147.04 293.11 C147.04 292.45 147.04 291.79 147.04 291.11 C146.05 290.78 145.06 290.45 144.04 290.11 C144.04 289.45 144.04 288.79 144.04 288.11 C143.38 288.11 142.72 288.11 142.04 288.11 C142.04 287.45 142.04 286.79 142.04 286.11 C141.05 285.78 140.06 285.45 139.04 285.11 C139.04 284.45 139.04 283.79 139.04 283.11 C138.38 283.11 137.72 283.11 137.04 283.11 C137.04 282.45 137.04 281.79 137.04 281.11 C136.05 280.78 135.06 280.45 134.04 280.11 C134.04 279.45 134.04 278.79 134.04 278.11 C133.38 278.11 132.72 278.11 132.04 278.11 C132.04 277.45 132.04 276.79 132.04 276.11 C131.05 275.78 130.06 275.45 129.04 275.11 C129.04 274.45 129.04 273.79 129.04 273.11 C128.38 273.11 127.72 273.11 127.04 273.11 C127.04 272.45 127.04 271.79 127.04 271.11 C126.05 270.78 125.06 270.45 124.04 270.11 C124.04 269.45 124.04 268.79 124.04 268.11 C123.38 268.11 122.72 268.11 122.04 268.11 C122.04 267.45 122.04 266.79 122.04 266.11 C121.05 265.78 120.06 265.45 119.04 265.11 C119.04 264.45 119.04 263.79 119.04 263.11 C118.38 263.11 117.72 263.11 117.04 263.11 C117.04 262.45 117.04 261.79 117.04 261.11 C116.05 260.78 115.06 260.45 114.04 260.11 C114.04 259.45 114.04 258.79 114.04 258.11 C113.38 258.11 112.72 258.11 112.04 258.11 C112.04 257.45 112.04 256.79 112.04 256.11 C111.05 255.78 110.06 255.45 109.04 255.11 C109.04 254.45 109.04 253.79 109.04 253.11 C108.38 253.11 107.72 253.11 107.04 253.11 C107.04 252.45 107.04 251.79 107.04 251.11 C106.05 250.78 105.06 250.45 104.04 250.11 C104.04 249.45 104.04 248.79 104.04 248.11 C103.38 248.11 102.72 248.11 102.04 248.11 C102.04 247.45 102.04 246.79 102.04 246.11 C101.05 245.78 100.06 245.45 99.04 245.11 C99.04 244.45 99.04 243.79 99.04 243.11 C98.38 243.11 97.72 243.11 97.04 243.11 C97.04 242.45 97.04 241.79 97.04 241.11 C96.05 240.78 95.06 240.45 94.04 240.11 C94.04 239.45 94.04 238.79 94.04 238.11 C93.38 238.11 92.72 238.11 92.04 238.11 C92.04 237.45 92.04 236.79 92.04 236.11 C91.05 235.78 90.06 235.45 89.04 235.11 C89.04 234.45 89.04 233.79 89.04 233.11 C88.38 233.11 87.72 233.11 87.04 233.11 C87.04 232.45 87.04 231.79 87.04 231.11 C86.05 230.78 85.06 230.45 84.04 230.11 C84.04 229.45 84.04 228.79 84.04 228.11 C83.38 228.11 82.72 228.11 82.04 228.11 C82.04 227.45 82.04 226.79 82.04 226.11 C81.05 225.78 80.06 225.45 79.04 225.11 C79.04 224.45 79.04 223.79 79.04 223.11 C78.38 223.11 77.72 223.11 77.04 223.11 C77.04 222.45 77.04 221.79 77.04 221.11 C76.05 220.78 75.06 220.45 74.04 220.11 C74.04 219.45 74.04 218.79 74.04 218.11 C73.38 218.11 72.72 218.11 72.04 218.11 C72.04 217.45 72.04 216.79 72.04 216.11 C71.05 215.78 70.06 215.45 69.04 215.11 C69.04 214.45 69.04 213.79 69.04 213.11 C68.38 213.11 67.72 213.11 67.04 213.11 C67.04 212.45 67.04 211.79 67.04 211.11 C66.05 210.78 65.06 210.45 64.04 210.11 C64.04 209.45 64.04 208.79 64.04 208.11 C63.38 208.11 62.72 208.11 62.04 208.11 C62.04 207.45 62.04 206.79 62.04 206.11 C61.05 205.78 60.06 205.45 59.04 205.11 C59.04 204.45 59.04 203.79 59.04 203.11 C58.38 203.11 57.72 203.11 57.04 203.11 C57.04 202.45 57.04 201.79 57.04 201.11 C56.05 200.78 55.06 200.45 54.04 200.11 C54.04 199.45 54.04 198.79 54.04 198.11 C53.38 198.11 52.72 198.11 52.04 198.11 C52.04 197.45 52.04 196.79 52.04 196.11 C51.05 195.78 50.06 195.45 49.04 195.11 C49.04 194.45 49.04 193.79 49.04 193.11 C48.38 193.11 47.72 193.11 47.04 193.11 C47.04 192.45 47.04 191.79 47.04 191.11 C45.39 190.45 43.74 189.79 42.04 189.11 C42.04 188.12 42.04 187.13 42.04 186.11 C41.05 185.78 40.06 185.45 39.04 185.11 C39.04 184.45 39.04 183.79 39.04 183.11 C38.38 183.11 37.72 183.11 37.04 183.11 C37.04 182.45 37.04 181.79 37.04 181.11 C36.05 180.78 35.06 180.45 34.04 180.11 C34.04 179.45 34.04 178.79 34.04 178.11 C33.38 178.11 32.72 178.11 32.04 178.11 C32.04 177.45 32.04 176.79 32.04 176.11 C31.05 175.78 30.06 175.45 29.04 175.11 C29.04 174.45 29.04 173.79 29.04 173.11 C28.38 173.11 27.72 173.11 27.04 173.11 C27.04 172.45 27.04 171.79 27.04 171.11 C26.05 170.78 25.06 170.45 24.04 170.11 C24.04 169.45 24.04 168.79 24.04 168.11 C23.38 168.11 22.72 168.11 22.04 168.11 C22.04 167.45 22.04 166.79 22.04 166.11 C21.05 165.78 20.06 165.45 19.04 165.11 C19.04 164.45 19.04 163.79 19.04 163.11 C18.38 163.11 17.72 163.11 17.04 163.11 C17.04 162.45 17.04 161.79 17.04 161.11 C16.05 160.78 15.06 160.45 14.04 160.11 C14.04 159.45 14.04 158.79 14.04 158.11 C13.38 158.11 12.72 158.11 12.04 158.11 C12.04 157.45 12.04 156.79 12.04 156.11 C11.05 155.78 10.06 155.45 9.04 155.11 C9.04 154.45 9.04 153.79 9.04 153.11 C8.38 153.11 7.72 153.11 7.04 153.11 C7.04 152.45 7.04 151.79 7.04 151.11 C6.05 150.78 5.06 150.45 4.04 150.11 C4.04 149.45 4.04 148.79 4.04 148.11 C3.38 148.11 2.72 148.11 2.04 148.11 C2.04 147.45 2.04 146.79 2.04 146.11 C1.05 145.78 0.06 145.45 -0.96 145.11 C-0.96 144.45 -0.96 143.79 -0.96 143.11 C-1.62 143.11 -2.28 143.11 -2.96 143.11 C-2.96 142.45 -2.96 141.79 -2.96 141.11 C-3.95 140.78 -4.94 140.45 -5.96 140.11 C-5.96 139.45 -5.96 138.79 -5.96 138.11 C-6.62 138.11 -7.28 138.11 -7.96 138.11 C-7.96 137.45 -7.96 136.79 -7.96 136.11 C-8.95 135.78 -9.94 135.45 -10.96 135.11 C-10.96 134.45 -10.96 133.79 -10.96 133.11 C-11.62 133.11 -12.28 133.11 -12.96 133.11 C-12.96 132.45 -12.96 131.79 -12.96 131.11 C-13.95 130.78 -14.94 130.45 -15.96 130.11 C-15.96 129.45 -15.96 128.79 -15.96 128.11 C-16.62 128.11 -17.28 128.11 -17.96 128.11 C-17.96 127.45 -17.96 126.79 -17.96 126.11 C-18.95 125.78 -19.94 125.45 -20.96 125.11 C-20.96 124.45 -20.96 123.79 -20.96 123.11 C-21.62 123.11 -22.28 123.11 -22.96 123.11 C-22.96 122.45 -22.96 121.79 -22.96 121.11 C-24.44 120.62 -24.44 120.62 -25.96 120.11 C-25.96 119.45 -25.96 118.79 -25.96 118.11 C-26.62 118.11 -27.28 118.11 -27.96 118.11 C-27.96 117.45 -27.96 116.79 -27.96 116.11 C-29.44 115.62 -29.44 115.62 -30.96 115.11 C-30.96 114.45 -30.96 113.79 -30.96 113.11 C-31.72 112.89 -32.49 112.66 -33.27 112.43 C-36.57 110.81 -37.22 109.29 -38.96 106.11 C-39.62 105.49 -40.28 104.88 -40.96 104.24 C-43.06 102 -44.06 99.88 -45.17 97.04 C-46.02 94.96 -47 92.99 -48.02 90.99 C-52.85 81.41 -53.17 72.86 -53.21 62.24 C-53.23 61 -53.25 59.76 -53.27 58.48 C-53.3 51.58 -52.94 46.36 -49.96 40.11 C-49.33 38.75 -49.33 38.75 -48.68 37.36 C-48.07 36.18 -48.07 36.18 -47.46 34.99 C-46.02 32.19 -44.64 29.41 -43.33 26.55 C-41.96 24.11 -41.96 24.11 -38.96 23.11 C-38.29 21.78 -37.62 20.45 -36.96 19.11 C-34.87 17.01 -34.87 17.01 -32.46 14.93 C-31.67 14.23 -30.87 13.54 -30.05 12.82 C-27.96 11.11 -27.96 11.11 -25.96 10.11 C-25.36 9.64 -24.76 9.16 -24.15 8.68 C-20.18 5.84 -15.57 4.61 -10.96 3.11 C-10.96 2.45 -10.96 1.79 -10.96 1.11 C-9.82 1.13 -8.69 1.15 -7.52 1.18 C-3.63 1.11 -3.67 0.14 0 0 Z M-51.96 48.11 C-50.96 50.11 -50.96 50.11 -50.96 50.11 Z M-46.96 1185.11 C-45.96 1187.11 -45.96 1187.11 -45.96 1187.11 Z " fill="#000202" transform="translate(339.959228515625,-0.113525390625)"/>
<path d="" fill="#FDFDFD" transform="translate(0,0)"/>
<path d="" fill="#000202" transform="translate(0,0)"/>
<path d="" fill="#FDFDFD" transform="translate(0,0)"/>
<path d="" fill="#FDFDFD" transform="translate(0,0)"/>
<path d="" fill="#FDFDFD" transform="translate(0,0)"/>
<path d="" fill="#FDFDFD" transform="translate(0,0)"/>
<path d="" fill="#FDFDFD" transform="translate(0,0)"/>
<path d="" fill="#000202" transform="translate(0,0)"/>
<path d="" fill="#000202" transform="translate(0,0)"/>
<path d="" fill="#000202" transform="translate(0,0)"/>
<path d="" fill="#000202" transform="translate(0,0)"/>
</svg>
