<?xml version="1.0" encoding="UTF-8"?>
<!-- Generator: visioncortex VTracer 0.6.3 -->
<svg version="1.1" xmlns="http://www.w3.org/2000/svg" width="1280" height="1280">
<path d="M0 0 C1.39 -0 1.39 -0 2.8 -0.01 C5.86 -0.01 8.92 -0.01 11.99 -0 C14.11 -0 16.24 -0.01 18.37 -0.01 C22.84 -0.01 27.31 -0.01 31.78 -0 C37.49 0 43.21 0 48.92 -0 C53.32 -0.01 57.72 -0.01 62.12 -0 C64.23 -0 66.33 -0 68.44 -0.01 C71.39 -0.01 74.35 -0.01 77.3 0 C78.16 -0 79.03 -0 79.92 -0.01 C85.03 0.01 89.91 0.42 94.97 1.13 C97.62 1.32 100.26 1.48 102.91 1.63 C114.09 2.29 124.95 3.77 135.95 5.89 C137.33 6.16 138.71 6.43 140.1 6.69 C140.78 6.82 141.47 6.96 142.17 7.09 C146.73 7.95 151.24 8.51 155.86 8.88 C159.03 9.25 161.92 10.2 164.97 11.13 C165.96 11.13 166.95 11.13 167.97 11.13 C173.91 12.2 179.76 13.8 185.6 15.28 C188.04 15.89 190.47 16.5 192.91 17.11 C214.4 22.43 214.4 22.43 223.2 25.68 C225.06 26.36 225.06 26.36 226.97 25.13 C227.3 25.79 227.63 26.45 227.97 27.13 C231.61 28.37 235.04 29.14 238.85 29.63 C239.88 29.79 240.91 29.96 241.97 30.13 C242.3 30.79 242.63 31.45 242.97 32.13 C244.92 32.78 244.92 32.78 247.22 33.19 C248.03 33.36 248.84 33.52 249.68 33.7 C251.44 34.03 253.21 34.33 254.97 34.63 C255.63 34.79 256.29 34.96 256.97 35.13 C257.3 35.79 257.63 36.45 257.97 37.13 C260.21 38.13 260.21 38.13 262.91 39 C267.64 40.65 272.27 42.45 276.88 44.4 C279.08 45.29 279.08 45.29 281.97 45.13 C282.3 45.79 282.63 46.45 282.97 47.13 C285.08 48.16 285.08 48.16 287.6 49.07 C288.5 49.41 289.41 49.76 290.34 50.12 C291.21 50.45 292.08 50.79 292.97 51.13 C294.25 51.66 295.52 52.2 296.79 52.75 C298.58 53.53 300.38 54.29 302.21 54.98 C305.7 56.43 309.05 58.11 312.41 59.82 C313.84 60.54 315.28 61.26 316.71 61.98 C317.42 62.34 318.14 62.7 318.88 63.08 C320.81 64.05 322.74 65.01 324.68 65.97 C331.62 69.41 338.46 72.98 345.23 76.75 C347.82 78.19 347.82 78.19 350.22 78.64 C351.97 79.13 351.97 79.13 353.97 82.13 C356.18 83.47 356.18 83.47 358.72 84.63 C359.61 85.06 360.51 85.49 361.42 85.93 C362.26 86.33 363.11 86.72 363.97 87.13 C369.87 89.92 369.87 89.92 370.97 92.13 C372.86 93.03 372.86 93.03 375.04 93.75 C375.77 94.01 376.5 94.28 377.26 94.54 C378.11 94.83 378.11 94.83 378.97 95.13 C378.97 95.79 378.97 96.45 378.97 97.13 C380.19 97.54 381.41 97.95 382.66 98.38 C386.36 99.76 389 101.5 391.97 104.13 C392.96 104.79 393.95 105.45 394.97 106.13 C394.97 106.79 394.97 107.45 394.97 108.13 C396.95 108.46 398.93 108.79 400.97 109.13 C401.3 110.12 401.63 111.11 401.97 112.13 C405.48 113.85 405.48 113.85 408.97 115.13 C408.97 115.79 408.97 116.45 408.97 117.13 C409.61 117.47 410.25 117.8 410.91 118.15 C412.15 118.82 412.15 118.82 413.41 119.5 C414.65 120.17 414.65 120.17 415.91 120.84 C417.97 122.13 417.97 122.13 418.97 124.13 C419.96 124.46 420.95 124.79 421.97 125.13 C421.97 125.79 421.97 126.45 421.97 127.13 C422.76 127.42 423.54 127.71 424.35 128 C426.97 129.13 426.97 129.13 428.97 131.13 C431.76 133.52 434.5 135.47 437.72 137.19 C440.97 139.13 440.97 139.13 441.97 142.13 C443.9 143.41 443.9 143.41 446.22 144.5 C450.24 146.63 453.06 148.65 455.97 152.13 C455.97 152.79 455.97 153.45 455.97 154.13 C456.96 154.46 457.95 154.79 458.97 155.13 C458.97 155.79 458.97 156.45 458.97 157.13 C460.61 158.18 462.28 159.17 463.97 160.13 C465.32 161.12 466.65 162.12 467.97 163.13 C468.67 163.64 469.37 164.15 470.09 164.67 C474.73 168.14 478.53 171.72 482.23 176.16 C484.02 178.18 485.91 179.89 487.97 181.63 C491.47 184.59 494.37 187.8 497.32 191.29 C499.1 193.36 499.1 193.36 502.04 195.63 C505.13 198.26 507.23 200.98 509.58 204.27 C511.03 206.3 511.03 206.3 513.35 208.5 C513.89 209.04 514.42 209.58 514.97 210.13 C514.97 210.79 514.97 211.45 514.97 212.13 C515.63 212.13 516.29 212.13 516.97 212.13 C520.97 216.6 520.97 216.6 520.97 219.13 C521.63 219.13 522.29 219.13 522.97 219.13 C525.6 221.5 525.6 221.5 527.97 224.13 C527.97 224.79 527.97 225.45 527.97 226.13 C528.63 226.13 529.29 226.13 529.97 226.13 C529.97 227.12 529.97 228.11 529.97 229.13 C530.63 229.13 531.29 229.13 531.97 229.13 C533.45 230.78 533.45 230.78 535.16 233.07 C535.78 233.88 536.39 234.7 537.02 235.54 C537.67 236.39 538.31 237.25 538.97 238.13 C540.84 240.48 542.71 242.84 544.59 245.18 C545.97 247.13 545.97 247.13 546.97 250.13 C547.72 250.87 548.46 251.61 549.22 252.38 C552.3 255.46 554.58 258.5 556.97 262.13 C556.97 262.79 556.97 263.45 556.97 264.13 C557.63 264.13 558.29 264.13 558.97 264.13 C560.19 265.77 560.19 265.77 561.47 267.94 C562.11 269 562.11 269 562.76 270.09 C563.16 270.76 563.56 271.43 563.97 272.13 C564.63 273.12 565.29 274.11 565.97 275.13 C565.97 276.12 565.97 277.11 565.97 278.13 C566.93 278.47 566.93 278.47 567.91 278.82 C569.97 280.13 569.97 280.13 570.72 282.75 C570.85 283.93 570.85 283.93 570.97 285.13 C571.96 285.46 572.95 285.79 573.97 286.13 C575.97 289.13 575.97 289.13 575.97 293.13 C576.87 293.44 576.87 293.44 577.79 293.75 C580.82 295.66 581.49 297.91 582.97 301.13 C584.06 302.74 584.06 302.74 585.16 304.38 C586.97 307.13 586.97 307.13 586.97 309.13 C587.63 309.46 588.29 309.79 588.97 310.13 C590.02 311.77 590.02 311.77 591.16 313.94 C593.08 317.51 595.08 321.02 597.16 324.5 C601.57 332.05 605.62 339.77 609.63 347.53 C610.55 349.31 611.47 351.09 612.4 352.86 C613.81 355.57 615.21 358.29 616.6 361 C617.26 362.26 617.26 362.26 617.93 363.54 C618.33 364.33 618.73 365.12 619.14 365.93 C619.67 366.97 619.67 366.97 620.21 368.03 C621.11 370.5 621.11 372.52 620.97 375.13 C621.96 375.46 622.95 375.79 623.97 376.13 C624.36 377.45 624.68 378.79 624.97 380.13 C625.96 382.14 626.96 384.14 627.97 386.13 C631.3 393.66 634.35 401.31 637.17 409.05 C637.87 410.86 638.64 412.65 639.42 414.43 C640.93 417.94 642.16 421.5 643.35 425.13 C643.78 426.45 644.22 427.78 644.65 429.1 C644.98 430.1 644.98 430.1 645.31 431.13 C645.95 433.06 646.61 434.98 647.27 436.91 C649.85 444.47 652.07 452.03 654.07 459.75 C655.01 463.28 656.13 466.71 657.33 470.17 C658.17 472.71 658.82 475.3 659.44 477.9 C659.85 479.6 660.28 481.29 660.73 482.98 C662.15 488.4 663.32 493.59 663.67 499.19 C664.03 501.47 664.93 503.08 665.97 505.13 C667.63 511.19 668.26 517.34 668.63 523.59 C669.01 526.37 669.91 528.54 670.97 531.13 C672.76 538.86 673.29 546.68 673.63 554.59 C673.86 558.14 673.86 558.14 674.97 561.45 C676.44 566.86 676.4 572.18 676.54 577.75 C676.57 578.59 676.6 579.44 676.63 580.32 C676.65 581.07 676.67 581.83 676.69 582.61 C676.9 585.26 676.9 585.26 677.98 588.19 C679.27 592.67 679.25 596.99 679.23 601.63 C679.24 602.55 679.24 603.48 679.24 604.43 C679.25 607.48 679.25 610.52 679.24 613.57 C679.24 615.69 679.24 617.82 679.25 619.94 C679.25 624.39 679.24 628.84 679.23 633.29 C679.22 638.98 679.23 644.67 679.24 650.37 C679.25 654.75 679.25 659.14 679.24 663.53 C679.24 665.63 679.24 667.73 679.25 669.82 C679.25 672.76 679.24 675.7 679.23 678.63 C679.24 679.49 679.24 680.36 679.24 681.24 C679.21 686.27 678.53 690.35 676.97 695.13 C676.65 697.62 676.65 697.62 676.63 699.98 C676.6 700.83 676.57 701.68 676.54 702.56 C676.5 704.32 676.45 706.08 676.41 707.83 C676.24 712.7 675.59 716.51 673.97 721.13 C673.76 723.6 673.62 726.08 673.54 728.57 C673.17 736.78 672.69 746.7 668.97 754.13 C668.82 755.75 668.7 757.38 668.6 759 C668.05 765.72 667.01 773.05 663.97 779.13 C663.79 781.05 663.79 781.05 663.6 783 C662.08 798.02 662.08 798.02 658.97 801.13 C658.18 804.64 657.49 808.18 656.79 811.71 C656.1 814.61 655.29 816.52 653.97 819.13 C653.28 821.71 652.64 824.28 652.04 826.88 C650.87 831.69 649.69 836.36 647.82 840.95 C646.6 844.1 645.54 847.3 644.47 850.5 C644.26 851.15 644.04 851.8 643.82 852.47 C642.3 857.04 640.92 861.63 639.65 866.27 C638.97 868.13 638.97 868.13 636.97 870.13 C636.29 872.16 635.61 874.18 634.96 876.22 C633.75 879.8 632.38 883.31 630.97 886.82 C630.72 887.45 630.48 888.08 630.22 888.72 C628.65 892.63 626.9 896.39 624.97 900.13 C624.31 900.13 623.65 900.13 622.97 900.13 C623.3 901.45 623.63 902.77 623.97 904.13 C623.31 904.46 622.65 904.79 621.97 905.13 C621.34 907.14 620.71 909.15 620.07 911.16 C614.81 925.41 606.42 939.03 599.01 952.25 C597.58 954.84 596.27 957.48 594.97 960.13 C594.31 960.13 593.65 960.13 592.97 960.13 C592.87 960.85 592.77 961.57 592.66 962.32 C591.9 965.42 590.71 967.46 588.97 970.13 C588.5 970.95 588.03 971.78 587.54 972.63 C585.97 975.13 585.97 975.13 583.97 977.57 C581.89 980.05 581.89 980.05 580.6 982.94 C578.88 986.32 576.82 989.07 574.51 992.06 C573.05 994.03 571.75 996.03 570.47 998.13 C568.74 1000.97 566.88 1003.62 564.85 1006.25 C562.45 1009.38 560.6 1012.52 558.97 1016.13 C558.31 1016.13 557.65 1016.13 556.97 1016.13 C555.77 1018.46 554.81 1020.63 553.97 1023.13 C553.31 1023.13 552.65 1023.13 551.97 1023.13 C551.57 1024.31 551.57 1024.31 551.16 1025.5 C549.97 1028.13 549.97 1028.13 546.97 1030.13 C545.95 1031.78 544.95 1033.45 543.97 1035.13 C542.69 1036.8 541.37 1038.44 540.04 1040.07 C537.74 1042.89 535.54 1045.67 533.6 1048.75 C533.06 1049.54 532.53 1050.32 531.97 1051.13 C531.31 1051.13 530.65 1051.13 529.97 1051.13 C529.77 1051.69 529.56 1052.24 529.35 1052.82 C527.97 1055.13 527.97 1055.13 525.04 1057.57 C522.13 1060 520.71 1061.83 518.97 1065.13 C518.31 1066.12 517.65 1067.11 516.97 1068.13 C516.31 1068.13 515.65 1068.13 514.97 1068.13 C514.61 1068.98 514.61 1068.98 514.24 1069.85 C512.73 1072.57 510.94 1074.42 508.74 1076.62 C507.43 1077.94 507.43 1077.94 506.09 1079.29 C505.13 1080.24 504.18 1081.19 503.22 1082.15 C502.24 1083.13 501.27 1084.11 500.29 1085.09 C498.24 1087.14 496.19 1089.19 494.13 1091.23 C491.5 1093.86 488.87 1096.49 486.25 1099.13 C484.23 1101.15 482.21 1103.17 480.18 1105.19 C479.21 1106.16 478.24 1107.13 477.27 1108.1 C475.92 1109.46 474.57 1110.81 473.21 1112.15 C472.44 1112.92 471.67 1113.69 470.87 1114.49 C468.97 1116.13 468.97 1116.13 466.97 1116.13 C466.97 1116.79 466.97 1117.45 466.97 1118.13 C464.33 1120.49 462.36 1122 458.97 1123.13 C457.16 1124.99 457.16 1124.99 455.41 1127.19 C454.31 1128.54 453.17 1129.86 451.97 1131.13 C451.31 1131.13 450.65 1131.13 449.97 1131.13 C449.97 1131.79 449.97 1132.45 449.97 1133.13 C448.07 1134.61 448.07 1134.61 445.47 1136.32 C441.31 1139.14 437.55 1142.13 433.86 1145.55 C431.97 1147.13 431.97 1147.13 429.57 1148.57 C425.8 1150.84 422.56 1153.68 419.18 1156.48 C416.97 1158.13 416.97 1158.13 414.97 1158.13 C414.97 1158.79 414.97 1159.45 414.97 1160.13 C413.58 1161.17 413.58 1161.17 411.6 1162.32 C407.37 1164.85 403.37 1167.62 399.37 1170.48 C397.78 1171.58 396.15 1172.62 394.49 1173.61 C390.93 1175.76 387.63 1178.24 384.28 1180.7 C381.97 1182.13 381.97 1182.13 378.97 1182.13 C378.97 1182.79 378.97 1183.45 378.97 1184.13 C378.42 1184.39 377.87 1184.66 377.29 1184.93 C376.57 1185.29 375.85 1185.64 375.1 1186 C374.38 1186.35 373.66 1186.7 372.92 1187.06 C370.82 1188.09 370.82 1188.09 368.97 1190.13 C367.7 1190.89 366.41 1191.62 365.1 1192.32 C361.55 1194.25 358.07 1196.25 354.6 1198.32 C347.06 1202.73 339.33 1206.78 331.57 1210.79 C329.79 1211.71 328.02 1212.63 326.24 1213.55 C323.53 1214.97 320.82 1216.36 318.1 1217.75 C316.84 1218.41 316.84 1218.41 315.56 1219.08 C314.77 1219.48 313.98 1219.88 313.17 1220.29 C312.13 1220.83 312.13 1220.83 311.08 1221.37 C308.6 1222.26 306.58 1222.26 303.97 1222.13 C303.97 1222.79 303.97 1223.45 303.97 1224.13 C303.34 1224.37 302.72 1224.61 302.07 1224.86 C297.95 1226.47 293.9 1228.1 289.97 1230.13 C283.58 1233.42 276.81 1235.87 270.06 1238.32 C268.31 1239 266.59 1239.74 264.87 1240.5 C260.82 1242.24 256.68 1243.63 252.48 1244.98 C251.69 1245.23 250.89 1245.49 250.08 1245.76 C248.41 1246.3 246.74 1246.84 245.08 1247.37 C242.55 1248.19 240.02 1249.01 237.49 1249.83 C235.86 1250.36 234.23 1250.89 232.6 1251.41 C231.48 1251.78 231.48 1251.78 230.34 1252.15 C225.59 1253.68 220.82 1254.95 215.97 1256.13 C214.45 1256.63 212.92 1257.14 211.41 1257.69 C207.62 1259 203.95 1259.58 199.97 1260.13 C198.64 1260.79 197.31 1261.46 195.97 1262.13 C190.74 1263.66 185.44 1264.39 180.02 1264.79 C177.7 1265.18 176.06 1266.06 173.97 1267.13 C167.92 1268.78 161.77 1269.42 155.52 1269.79 C152.73 1270.16 150.56 1271.06 147.97 1272.13 C139.95 1274.01 131.84 1274.46 123.64 1274.79 C120.05 1274.97 120.05 1274.97 117.12 1276.13 C112.77 1277.51 108.58 1277.52 104.04 1277.63 C102.3 1277.67 100.56 1277.73 98.82 1277.79 C98.06 1277.8 97.3 1277.82 96.51 1277.84 C93.84 1278.06 93.84 1278.06 90.91 1279.13 C86.43 1280.43 82.11 1280.41 77.48 1280.39 C76.55 1280.39 75.63 1280.4 74.67 1280.4 C71.63 1280.41 68.58 1280.4 65.54 1280.4 C63.41 1280.4 61.29 1280.4 59.16 1280.4 C54.71 1280.4 50.26 1280.4 45.81 1280.39 C40.12 1280.38 34.43 1280.39 28.74 1280.4 C24.35 1280.4 19.96 1280.4 15.57 1280.4 C13.48 1280.4 11.38 1280.4 9.28 1280.4 C6.34 1280.41 3.41 1280.4 0.47 1280.39 C-0.39 1280.39 -1.25 1280.4 -2.14 1280.4 C-7.17 1280.37 -11.25 1279.69 -16.03 1278.13 C-18.52 1277.81 -18.52 1277.81 -20.87 1277.79 C-21.73 1277.76 -22.58 1277.73 -23.46 1277.7 C-25.22 1277.65 -26.97 1277.61 -28.73 1277.56 C-33.59 1277.39 -37.4 1276.75 -42.03 1275.13 C-44.5 1274.91 -46.98 1274.77 -49.46 1274.69 C-57.68 1274.32 -67.6 1273.84 -75.03 1270.13 C-76.65 1269.97 -78.27 1269.85 -79.9 1269.75 C-86.61 1269.2 -93.94 1268.17 -100.03 1265.13 C-101.3 1265.01 -102.58 1264.88 -103.9 1264.75 C-118.92 1263.24 -118.92 1263.24 -122.03 1260.13 C-125.54 1259.33 -129.07 1258.65 -132.61 1257.95 C-135.49 1257.26 -137.44 1256.45 -140.03 1255.13 C-142.14 1254.59 -144.27 1254.1 -146.4 1253.63 C-159.87 1250.49 -172.95 1245.6 -186.03 1241.13 C-186.03 1240.47 -186.03 1239.81 -186.03 1239.13 C-186.67 1239.03 -187.3 1238.92 -187.96 1238.82 C-194.78 1237.29 -201.23 1234.7 -207.71 1232.13 C-208.34 1231.88 -208.97 1231.63 -209.62 1231.37 C-213.52 1229.81 -217.29 1228.06 -221.03 1226.13 C-221.03 1225.47 -221.03 1224.81 -221.03 1224.13 C-221.67 1224.03 -222.3 1223.92 -222.96 1223.82 C-238.85 1220.25 -254.58 1211.03 -268.48 1202.65 C-271.77 1200.69 -275.14 1198.91 -278.53 1197.13 C-282.76 1194.9 -286.94 1192.63 -291.03 1190.13 C-292.26 1189.42 -292.26 1189.42 -293.53 1188.69 C-296.03 1187.13 -296.03 1187.13 -298.46 1185.13 C-301.01 1182.99 -301.01 1182.99 -304.28 1181.57 C-307.03 1180.13 -307.03 1180.13 -308.03 1177.13 C-308.79 1177.01 -309.55 1176.88 -310.34 1176.75 C-313.03 1176.13 -313.03 1176.13 -316.03 1174.13 C-316.03 1173.47 -316.03 1172.81 -316.03 1172.13 C-316.81 1172.05 -317.59 1171.96 -318.4 1171.88 C-319.7 1171.51 -319.7 1171.51 -321.03 1171.13 C-321.69 1169.8 -322.36 1168.46 -323.03 1167.13 C-324.68 1166.75 -326.35 1166.42 -328.03 1166.13 C-329.05 1165.15 -330.05 1164.15 -331.03 1163.13 C-333 1162.08 -335 1161.07 -337.03 1160.13 C-337.03 1159.47 -337.03 1158.81 -337.03 1158.13 C-337.87 1157.73 -337.87 1157.73 -338.73 1157.32 C-341.17 1156.05 -343.42 1154.64 -345.71 1153.13 C-346.5 1152.61 -347.29 1152.1 -348.1 1151.57 C-350.03 1150.13 -350.03 1150.13 -351.03 1148.13 C-351.69 1147.8 -352.35 1147.47 -353.03 1147.13 C-355.03 1146.13 -355.03 1146.13 -356.03 1144.13 C-357.65 1143.22 -359.27 1142.31 -360.91 1141.41 C-364.86 1139.03 -368.63 1136.25 -372.03 1133.13 C-372.03 1132.47 -372.03 1131.81 -372.03 1131.13 C-373.02 1131.13 -374.01 1131.13 -375.03 1131.13 C-375.03 1130.47 -375.03 1129.81 -375.03 1129.13 C-375.69 1129.13 -376.35 1129.13 -377.03 1129.13 C-379.65 1126.75 -379.65 1126.75 -382.03 1124.13 C-382.03 1123.47 -382.03 1122.81 -382.03 1122.13 C-382.62 1121.84 -383.22 1121.55 -383.84 1121.25 C-386.03 1120.13 -386.03 1120.13 -389.03 1118.13 C-389.03 1117.47 -389.03 1116.81 -389.03 1116.13 C-389.75 1115.9 -390.47 1115.68 -391.21 1115.44 C-394.61 1113.86 -396.48 1111.87 -399.03 1109.13 C-401.92 1106.16 -404.89 1103.35 -408.03 1100.63 C-413.74 1095.66 -418.76 1090.23 -423.74 1084.53 C-425.97 1082.08 -425.97 1082.08 -428.58 1080.1 C-431.02 1078.13 -432.72 1076.19 -434.59 1073.69 C-435.48 1072.51 -435.48 1072.51 -436.39 1071.31 C-436.93 1070.59 -437.47 1069.87 -438.03 1069.13 C-438.77 1068.2 -439.51 1067.27 -440.28 1066.32 C-441.44 1064.87 -442.56 1063.39 -443.65 1061.88 C-444.92 1060 -444.92 1060 -447.03 1059.13 C-447.03 1058.47 -447.03 1057.81 -447.03 1057.13 C-447.69 1057.13 -448.35 1057.13 -449.03 1057.13 C-453.2 1053.64 -455.42 1049.88 -457.82 1045.02 C-458.96 1042.8 -458.96 1042.8 -462.03 1042.13 C-463.46 1040 -463.46 1040 -465.03 1037.13 C-465.75 1035.86 -466.48 1034.59 -467.21 1033.32 C-467.81 1032.27 -468.41 1031.21 -469.03 1030.13 C-469.69 1030.13 -470.35 1030.13 -471.03 1030.13 C-474.03 1025.74 -474.03 1025.74 -474.03 1023.13 C-474.69 1023.13 -475.35 1023.13 -476.03 1023.13 C-476.52 1021.64 -476.52 1021.64 -477.03 1020.13 C-477.95 1019.51 -477.95 1019.51 -478.9 1018.88 C-481.82 1016.47 -482.56 1013.57 -484.03 1010.13 C-485.02 1009.8 -486.01 1009.47 -487.03 1009.13 C-487.36 1006.82 -487.69 1004.51 -488.03 1002.13 C-489.02 1002.13 -490.01 1002.13 -491.03 1002.13 C-491.4 1000.71 -491.4 1000.71 -491.78 999.25 C-492.71 996.04 -492.71 996.04 -495.15 994.75 C-495.77 994.55 -496.39 994.34 -497.03 994.13 C-497.03 993.47 -497.03 992.81 -497.03 992.13 C-497.69 991.8 -498.35 991.47 -499.03 991.13 C-499.52 989.64 -499.52 989.64 -500.03 988.13 C-500.69 987.47 -501.35 986.81 -502.03 986.13 C-503.03 984.13 -504.03 982.13 -505.03 980.13 C-505.69 979.47 -506.35 978.81 -507.03 978.13 C-507.74 976.15 -508.41 974.15 -509.03 972.13 C-509.69 972.13 -510.35 972.13 -511.03 972.13 C-511.15 971.57 -511.27 971.02 -511.4 970.44 C-512.09 967.89 -512.92 965.53 -514.03 963.13 C-514.69 962.8 -515.35 962.47 -516.03 962.13 C-515.7 961.47 -515.37 960.81 -515.03 960.13 C-515.69 960.13 -516.35 960.13 -517.03 960.13 C-517.71 958.68 -517.71 958.68 -518.4 957.19 C-519.68 954.06 -519.68 954.06 -522.03 953.13 C-522.39 951.8 -522.72 950.47 -523.03 949.13 C-523.38 948.45 -523.73 947.77 -524.09 947.07 C-525.03 945.13 -525.03 945.13 -525.03 942.13 C-525.69 942.13 -526.35 942.13 -527.03 942.13 C-531.86 932.58 -536.57 922.98 -541.06 913.25 C-541.41 912.48 -541.77 911.71 -542.14 910.92 C-542.46 910.23 -542.77 909.55 -543.1 908.85 C-544.02 906.94 -544.02 906.94 -546.03 905.13 C-546.56 903.54 -547.03 901.94 -547.46 900.32 C-548.55 896.48 -549.87 893.5 -552.03 890.13 C-552.69 888.13 -553.36 886.13 -554.03 884.13 C-554.69 883.47 -555.35 882.81 -556.03 882.13 C-556.17 881.39 -556.31 880.64 -556.46 879.88 C-556.92 877.05 -556.92 877.05 -558.4 874.38 C-560.39 870.41 -561.69 866.35 -563.03 862.13 C-563.52 860.64 -563.52 860.64 -564.03 859.13 C-564.69 858.8 -565.35 858.47 -566.03 858.13 C-565.98 857.2 -565.94 856.27 -565.9 855.32 C-565.75 851.97 -565.75 851.97 -568.03 849.13 C-568.19 848.26 -568.36 847.4 -568.53 846.5 C-568.69 845.72 -568.86 844.94 -569.03 844.13 C-569.69 843.8 -570.35 843.47 -571.03 843.13 C-570.96 841.74 -570.96 841.74 -570.9 840.32 C-570.75 836.97 -570.75 836.97 -573.03 834.13 C-573.19 833.26 -573.36 832.4 -573.53 831.5 C-573.69 830.72 -573.86 829.94 -574.03 829.13 C-574.69 828.8 -575.35 828.47 -576.03 828.13 C-575.7 827.14 -575.37 826.15 -575.03 825.13 C-575.7 823.23 -576.39 821.34 -577.14 819.47 C-581.5 807.95 -583.86 795.33 -586.59 783.32 C-587.9 777.54 -589.42 771.83 -591.03 766.13 C-590.7 765.8 -590.37 765.47 -590.03 765.13 C-590.43 763.24 -590.9 761.37 -591.4 759.5 C-592.57 755.04 -593.4 750.7 -594.03 746.13 C-594.62 743.77 -595.31 741.46 -596.03 739.13 C-595.37 739.13 -594.71 739.13 -594.03 739.13 C-594.5 737.95 -594.97 736.78 -595.46 735.57 C-597.38 729.92 -597.56 724.29 -597.82 718.39 C-597.89 715.12 -597.89 715.12 -599.03 712.13 C-599.16 710.54 -599.25 708.94 -599.31 707.35 C-599.34 706.42 -599.38 705.5 -599.42 704.55 C-599.49 702.6 -599.56 700.66 -599.63 698.71 C-599.67 697.79 -599.71 696.86 -599.74 695.91 C-599.78 695.07 -599.81 694.22 -599.84 693.35 C-599.95 690.96 -599.95 690.96 -601.03 688.13 C-601.13 685.11 -601.17 682.11 -601.17 679.09 C-601.17 678.16 -601.18 677.24 -601.18 676.28 C-601.19 673.22 -601.19 670.15 -601.19 667.08 C-601.2 664.95 -601.2 662.82 -601.2 660.69 C-601.21 656.22 -601.21 651.74 -601.21 647.27 C-601.21 641.55 -601.22 635.82 -601.24 630.1 C-601.25 625.7 -601.26 621.29 -601.25 616.89 C-601.26 614.78 -601.26 612.67 -601.27 610.56 C-601.28 607.6 -601.28 604.64 -601.27 601.69 C-601.27 600.82 -601.28 599.95 -601.29 599.06 C-601.26 594.03 -600.64 589.9 -599.03 585.13 C-599.69 584.8 -600.35 584.47 -601.03 584.13 C-600.37 584.13 -599.71 584.13 -599.03 584.13 C-599.03 583.54 -599.04 582.96 -599.04 582.36 C-599.06 579.7 -599.08 577.04 -599.09 574.38 C-599.1 573.46 -599.11 572.54 -599.11 571.59 C-599.12 570.7 -599.12 569.81 -599.12 568.9 C-599.13 567.67 -599.13 567.67 -599.14 566.42 C-599.03 564.18 -598.6 562.29 -598.03 560.13 C-597.76 556.54 -597.58 552.94 -597.41 549.34 C-597.03 546.13 -597.03 546.13 -595.03 543.13 C-594.76 540.97 -594.58 538.8 -594.46 536.63 C-594.27 533.18 -594.12 530.41 -593.03 527.13 C-592.76 524.62 -592.58 522.12 -592.41 519.6 C-592.01 517.04 -591.19 515.42 -590.03 513.13 C-589.61 510.84 -589.61 510.84 -589.46 508.5 C-589.12 504.32 -589.12 504.32 -588.03 502.13 C-587.76 500.09 -587.58 498.05 -587.41 496 C-587.03 494.13 -587.03 494.13 -585.03 492.13 C-584.6 489.76 -584.6 489.76 -584.46 487.13 C-584.12 482.32 -584.12 482.32 -583.03 480.13 C-582.88 478.97 -582.74 477.82 -582.59 476.63 C-582.03 473.13 -582.03 473.13 -580.03 471.13 C-579.65 468.8 -579.32 466.47 -579.03 464.13 C-578.7 463.47 -578.37 462.81 -578.03 462.13 C-577.88 461.12 -577.74 460.11 -577.59 459.07 C-577.31 457.61 -577.31 457.61 -577.03 456.13 C-576.37 455.8 -575.71 455.47 -575.03 455.13 C-574.76 453.13 -574.51 451.13 -574.3 449.12 C-573.98 446.78 -573.18 445.17 -572.03 443.13 C-570.99 440.26 -570.1 437.51 -569.53 434.5 C-569.01 432.07 -568.19 430.32 -567.03 428.13 C-565.78 425.35 -565.01 423.02 -564.53 420 C-564.03 417.13 -564.03 417.13 -562.03 414.13 C-561.23 411.64 -560.57 409.13 -559.91 406.6 C-558.98 403.99 -557.74 402.28 -556.03 400.13 C-555.66 398.8 -555.33 397.47 -555.03 396.13 C-554.05 393.79 -553.05 391.45 -552.03 389.13 C-551.7 388.26 -551.37 387.4 -551.03 386.5 C-550.03 384.13 -550.03 384.13 -548.59 381.94 C-547.11 379.27 -546.39 377.05 -545.59 374.13 C-544.42 369.95 -542.87 367.44 -540.03 364.13 C-539.78 362.89 -539.78 362.89 -539.53 361.63 C-538.87 358.35 -537.09 356.71 -535.03 354.13 C-534.86 353.3 -534.7 352.48 -534.53 351.63 C-533.87 348.35 -532.09 346.71 -530.03 344.13 C-529.66 342.47 -529.33 340.8 -529.03 339.13 C-527.59 336.82 -527.59 336.82 -526.03 335.13 C-525.37 335.13 -524.71 335.13 -524.03 335.13 C-524.52 333.64 -524.52 333.64 -525.03 332.13 C-524.56 331.72 -524.1 331.3 -523.62 330.88 C-521.9 329 -521.27 327.59 -520.46 325.19 C-517.74 317.49 -517.74 317.49 -515.03 316.13 C-514.68 314.8 -514.35 313.47 -514.03 312.13 C-513.37 311.47 -512.71 310.81 -512.03 310.13 C-511.7 309.47 -511.37 308.81 -511.03 308.13 C-510.57 307.53 -510.12 306.93 -509.65 306.32 C-507.02 302.77 -504.84 299.52 -504.03 295.13 C-503.37 295.13 -502.71 295.13 -502.03 295.13 C-501.7 294.14 -501.37 293.15 -501.03 292.13 C-500.37 292.13 -499.71 292.13 -499.03 292.13 C-499.11 291.37 -499.19 290.6 -499.28 289.82 C-499.19 288.93 -499.11 288.04 -499.03 287.13 C-497.73 286.08 -496.39 285.08 -495.03 284.13 C-494.23 282.04 -494.23 282.04 -494.03 280.13 C-493.37 280.13 -492.71 280.13 -492.03 280.13 C-491.7 279.14 -491.37 278.15 -491.03 277.13 C-490.37 277.13 -489.71 277.13 -489.03 277.13 C-488.7 276.14 -488.37 275.15 -488.03 274.13 C-487.4 272.74 -486.76 271.37 -486.09 270 C-485.75 269.3 -485.41 268.6 -485.06 267.87 C-484.03 266.13 -484.03 266.13 -482.03 265.13 C-481.7 264.14 -481.37 263.15 -481.03 262.13 C-480.37 262.13 -479.71 262.13 -479.03 262.13 C-478.7 261.14 -478.37 260.15 -478.03 259.13 C-477.37 259.13 -476.71 259.13 -476.03 259.13 C-475.92 258.57 -475.82 258.02 -475.71 257.44 C-474.89 254.66 -473.65 252.53 -472.03 250.13 C-471.37 249.8 -470.71 249.47 -470.03 249.13 C-469.37 248.14 -468.71 247.15 -468.03 246.13 C-467.53 245.66 -467.04 245.18 -466.53 244.69 C-464.94 243.21 -464.94 243.21 -464.15 241.25 C-462.61 238.34 -460.38 236.42 -458.03 234.13 C-455.62 231.46 -455.62 231.46 -455.03 228.13 C-452.61 225.51 -450.13 223.21 -447.34 221 C-444.83 219.16 -444.83 219.16 -443.03 216.13 C-442.57 215.7 -442.12 215.26 -441.65 214.82 C-439.89 213.12 -439.89 213.12 -438.54 210.66 C-435.14 205.52 -430.56 201.36 -426.22 197.02 C-425.25 196.05 -424.29 195.08 -423.32 194.11 C-421.3 192.09 -419.28 190.06 -417.26 188.04 C-414.67 185.46 -412.09 182.87 -409.52 180.28 C-407.53 178.27 -405.53 176.27 -403.54 174.28 C-402.12 172.86 -400.72 171.44 -399.31 170.02 C-398.44 169.16 -397.58 168.3 -396.68 167.41 C-395.93 166.66 -395.17 165.9 -394.39 165.12 C-392.03 163.13 -392.03 163.13 -388.8 161.55 C-385.72 160.38 -385.72 160.38 -385.03 157.13 C-384.04 156.8 -383.05 156.47 -382.03 156.13 C-380.31 154.4 -380.31 154.4 -378.65 152.32 C-375.31 148.39 -372.02 145.28 -367.53 142.69 C-364.85 141.16 -364.85 141.16 -362.46 138.5 C-360.02 136.12 -359.18 135.8 -356.03 135.13 C-355.7 134.14 -355.37 133.15 -355.03 132.13 C-353.39 131.08 -351.71 130.09 -350.03 129.13 C-347.75 127.48 -345.55 125.74 -343.34 124 C-337.28 119.26 -337.28 119.26 -335.03 118.13 C-333.36 116.8 -331.69 115.47 -330.03 114.13 C-327.03 112.13 -327.03 112.13 -324.03 112.13 C-323.7 111.14 -323.37 110.15 -323.03 109.13 C-322.37 109.13 -321.71 109.13 -321.03 109.13 C-321.03 108.47 -321.03 107.81 -321.03 107.13 C-319.85 106.73 -319.85 106.73 -318.65 106.32 C-315.74 105.28 -315.74 105.28 -314.03 102.13 C-311.4 101.94 -311.4 101.94 -309.03 102.13 C-308.7 101.14 -308.37 100.15 -308.03 99.13 C-305.66 97.63 -305.66 97.63 -302.71 96.13 C-299.22 94.34 -296.16 92.48 -293.03 90.13 C-291.54 89.63 -291.54 89.63 -290.03 89.13 C-289.59 88.68 -289.16 88.22 -288.71 87.75 C-284.96 84.14 -279.91 82.64 -275.03 81.13 C-275.03 80.47 -275.03 79.81 -275.03 79.13 C-272.69 77.92 -270.53 76.96 -268.03 76.13 C-267.37 76.46 -266.71 76.79 -266.03 77.13 C-265.84 76.51 -265.65 75.89 -265.46 75.25 C-263.33 72.11 -260.61 72.12 -257.03 71.13 C-256.37 70.47 -255.71 69.81 -255.03 69.13 C-252.32 66.43 -249.69 66.12 -246.03 65.13 C-243.61 63.91 -241.35 62.53 -239.03 61.13 C-237.69 60.46 -236.36 59.8 -235.03 59.13 C-234.04 58.47 -233.05 57.81 -232.03 57.13 C-231.16 56.96 -230.29 56.8 -229.4 56.63 C-228.62 56.46 -227.83 56.3 -227.03 56.13 C-226.7 55.47 -226.37 54.81 -226.03 54.13 C-224.36 53.77 -222.7 53.44 -221.03 53.13 C-218.99 52.36 -216.97 51.55 -214.96 50.69 C-213.94 50.26 -212.92 49.83 -211.87 49.38 C-210.2 48.65 -208.55 47.89 -206.92 47.07 C-203.73 45.48 -200.37 44.36 -197.03 43.13 C-197.03 42.8 -197.03 42.47 -197.03 42.13 C-193.56 41.63 -193.56 41.63 -190.03 41.13 C-190.03 40.47 -190.03 39.81 -190.03 39.13 C-189.12 39.01 -188.21 38.88 -187.28 38.75 C-184.37 38.2 -182.6 37.46 -180.03 36.13 C-178.36 35.78 -176.7 35.45 -175.03 35.13 C-173.02 34.49 -171.02 33.82 -169.03 33.13 C-169.03 32.8 -169.03 32.47 -169.03 32.13 C-167.89 32.01 -166.76 31.88 -165.59 31.75 C-164.41 31.55 -163.24 31.34 -162.03 31.13 C-161.7 30.47 -161.37 29.81 -161.03 29.13 C-158.7 28.72 -156.37 28.39 -154.03 28.13 C-154.03 27.8 -154.03 27.47 -154.03 27.13 C-148.28 26 -148.28 26 -146.03 27.13 C-146.03 26.47 -146.03 25.81 -146.03 25.13 C-143.06 24.47 -140.09 23.81 -137.03 23.13 C-137.03 22.8 -137.03 22.47 -137.03 22.13 C-135.89 22.03 -134.76 21.92 -133.59 21.82 C-125.73 20.85 -125.73 20.85 -119.03 17.13 C-116.48 16.85 -113.93 16.68 -111.37 16.51 C-108.84 16.33 -108.84 16.33 -107.03 14.13 C-104.64 13.72 -104.64 13.72 -101.9 13.5 C-100.99 13.43 -100.08 13.35 -99.14 13.28 C-98.1 13.2 -98.1 13.2 -97.03 13.13 C-97.03 12.8 -97.03 12.47 -97.03 12.13 C-96.26 12.08 -95.48 12.03 -94.69 11.98 C-93.69 11.91 -92.68 11.83 -91.65 11.75 C-90.65 11.68 -89.66 11.62 -88.63 11.54 C-85.87 11.37 -85.87 11.37 -84.03 9.13 C-80.99 8.72 -80.99 8.72 -77.4 8.5 C-76.21 8.43 -75.02 8.35 -73.8 8.28 C-72.88 8.23 -71.97 8.18 -71.03 8.13 C-71.03 7.8 -71.03 7.47 -71.03 7.13 C-70.12 7.08 -69.22 7.03 -68.29 6.98 C-67.11 6.91 -65.93 6.83 -64.71 6.75 C-62.96 6.65 -62.96 6.65 -61.16 6.54 C-57.87 6.34 -57.87 6.34 -55.03 4.13 C-53.03 3.81 -53.03 3.81 -50.8 3.72 C-49.99 3.68 -49.19 3.64 -48.36 3.6 C-47.53 3.57 -46.7 3.54 -45.84 3.5 C-44.99 3.47 -44.15 3.43 -43.28 3.39 C-41.19 3.29 -39.11 3.21 -37.03 3.13 C-37.03 2.8 -37.03 2.47 -37.03 2.13 C-36.28 2.1 -35.54 2.08 -34.78 2.05 C-31.42 1.94 -28.07 1.81 -24.71 1.69 C-22.96 1.63 -22.96 1.63 -21.18 1.57 C-20.06 1.53 -18.94 1.49 -17.79 1.45 C-16.76 1.41 -15.72 1.37 -14.66 1.33 C-9.69 0.95 -5.1 -0.01 0 0 Z M28.26 102.84 C24.16 103.2 20.07 103.3 15.95 103.38 C14.76 103.4 14.76 103.4 13.54 103.43 C10.25 103.49 6.95 103.55 3.65 103.61 C1.21 103.65 -1.23 103.7 -3.67 103.75 C-4.41 103.76 -5.14 103.77 -5.9 103.78 C-10.57 103.89 -14.53 104.73 -19.03 106.13 C-21.44 106.38 -23.86 106.57 -26.28 106.69 C-31.24 106.94 -31.24 106.94 -36.03 108.13 C-39.58 108.4 -43.12 108.57 -46.68 108.75 C-49.88 108.91 -49.88 108.91 -51.93 110.1 C-54.3 111.26 -56.26 111.59 -58.87 111.91 C-59.79 112.03 -60.7 112.15 -61.65 112.27 C-63.57 112.51 -65.49 112.75 -67.41 112.98 C-68.32 113.1 -69.24 113.22 -70.18 113.35 C-71.02 113.45 -71.85 113.55 -72.71 113.66 C-75.11 114.15 -76.86 115.01 -79.03 116.13 C-82.4 116.83 -85.78 117.42 -89.18 117.98 C-92.81 118.61 -95.8 119.36 -99.03 121.13 C-100.1 121.27 -101.17 121.42 -102.28 121.57 C-105.85 122.1 -108.6 123.05 -111.92 124.38 C-114.11 125.16 -116.25 125.66 -118.53 126.13 C-124.06 127.28 -129.07 129.25 -134.21 131.57 C-138.62 133.5 -143.24 134.76 -147.85 136.15 C-151.64 137.32 -155.33 138.68 -159.03 140.13 C-159.03 140.79 -159.03 141.45 -159.03 142.13 C-159.89 142.25 -160.76 142.38 -161.65 142.5 C-166.69 143.44 -171.3 145.18 -176.03 147.13 C-176.03 147.79 -176.03 148.45 -176.03 149.13 C-176.67 149.21 -177.32 149.29 -177.98 149.38 C-182.19 150.42 -185.88 152.25 -189.78 154.13 C-190.61 154.53 -191.44 154.93 -192.3 155.34 C-199.38 158.76 -206.34 162.4 -213.26 166.12 C-217.14 168.2 -221.07 170.16 -225.05 172.06 C-227.22 173.23 -229.06 174.64 -231.03 176.13 C-232.43 176.95 -233.85 177.74 -235.28 178.5 C-238.97 180.52 -242.55 182.66 -246.1 184.92 C-247.53 185.82 -248.98 186.69 -250.43 187.56 C-253.13 189.19 -255.74 190.91 -258.34 192.69 C-259.22 193.29 -260.1 193.89 -261.01 194.51 C-261.68 195.04 -262.34 195.58 -263.03 196.13 C-263.03 196.79 -263.03 197.45 -263.03 198.13 C-266 199.12 -266 199.12 -269.03 200.13 C-269.03 200.79 -269.03 201.45 -269.03 202.13 C-269.58 202.39 -270.13 202.65 -270.7 202.91 C-273.37 204.31 -275.79 205.92 -278.28 207.63 C-279.17 208.24 -280.06 208.85 -280.98 209.47 C-281.65 210.02 -282.33 210.57 -283.03 211.13 C-283.03 211.79 -283.03 212.45 -283.03 213.13 C-283.87 213.34 -284.72 213.54 -285.59 213.75 C-289.25 215.22 -291.34 216.92 -294.21 219.54 C-296.05 221.15 -297.95 222.51 -299.96 223.88 C-300.97 224.62 -301.98 225.36 -303.03 226.13 C-303.03 226.79 -303.03 227.45 -303.03 228.13 C-303.58 228.38 -304.14 228.62 -304.71 228.88 C-308.42 230.88 -311.37 233.47 -314.34 236.44 C-317.24 239.34 -320.3 241.95 -323.45 244.58 C-323.97 245.09 -324.49 245.6 -325.03 246.13 C-325.03 246.79 -325.03 247.45 -325.03 248.13 C-325.61 248.4 -326.19 248.67 -326.79 248.94 C-329.05 250.14 -330.83 251.47 -332.78 253.13 C-333.7 253.9 -333.7 253.9 -334.64 254.69 C-336.26 256.04 -336.26 256.04 -336.03 258.13 C-336.81 258.36 -337.59 258.58 -338.4 258.82 C-341.24 259.91 -341.24 259.91 -342.34 262.75 C-342.68 263.93 -342.68 263.93 -343.03 265.13 C-343.69 265.13 -344.35 265.13 -345.03 265.13 C-346.8 266.81 -346.8 266.81 -348.59 268.94 C-349.21 269.65 -349.83 270.36 -350.47 271.09 C-352.21 273.14 -352.21 273.14 -353.03 276.13 C-353.69 276.13 -354.35 276.13 -355.03 276.13 C-356.66 277.75 -356.66 277.75 -358.34 279.82 C-361.11 283.08 -364 286.1 -367.03 289.13 C-371.23 293.09 -371.23 293.09 -373.03 298.13 C-373.69 298.13 -374.35 298.13 -375.03 298.13 C-376.38 299.81 -377.66 301.55 -378.9 303.32 C-380.95 306.23 -382.99 309.08 -385.24 311.85 C-386.97 314.05 -387.62 315.4 -388.03 318.13 C-388.69 318.13 -389.35 318.13 -390.03 318.13 C-391.45 319.84 -392.79 321.63 -394.09 323.44 C-394.8 324.43 -395.51 325.41 -396.25 326.43 C-398.15 329.06 -398.15 329.06 -399.03 332.13 C-399.69 332.13 -400.35 332.13 -401.03 332.13 C-402.02 335.1 -402.02 335.1 -403.03 338.13 C-403.69 338.13 -404.35 338.13 -405.03 338.13 C-408.74 342.21 -413.03 347.46 -413.03 353.13 C-413.69 353.13 -414.35 353.13 -415.03 353.13 C-416.6 355.31 -418.05 357.48 -419.46 359.75 C-419.86 360.37 -420.25 360.99 -420.66 361.63 C-422.5 364.52 -424.16 367.39 -425.69 370.47 C-427.03 373.13 -427.03 373.13 -429.03 375.13 C-429.19 375.81 -429.36 376.49 -429.53 377.19 C-429.69 377.83 -429.86 378.47 -430.03 379.13 C-430.69 379.46 -431.35 379.79 -432.03 380.13 C-432.94 382.47 -432.94 382.47 -433.65 385.19 C-433.91 386.11 -434.17 387.03 -434.44 387.98 C-434.63 388.69 -434.83 389.4 -435.03 390.13 C-435.69 390.13 -436.35 390.13 -437.03 390.13 C-438.51 395.08 -438.51 395.08 -440.03 400.13 C-440.69 400.13 -441.35 400.13 -442.03 400.13 C-444.32 404.94 -444.32 404.94 -445.03 410.13 C-445.69 410.13 -446.35 410.13 -447.03 410.13 C-448.51 415.08 -448.51 415.08 -450.03 420.13 C-450.69 420.13 -451.35 420.13 -452.03 420.13 C-452.03 421.78 -452.03 423.43 -452.03 425.13 C-452.69 425.13 -453.35 425.13 -454.03 425.13 C-454.29 425.81 -454.56 426.49 -454.84 427.19 C-455.72 429.36 -456.67 431.51 -457.65 433.63 C-458.91 436.84 -459.33 438.75 -459.03 442.13 C-460.02 442.46 -461.01 442.79 -462.03 443.13 C-462.58 444.78 -463.11 446.44 -463.53 448.13 C-464.34 451.39 -465.46 454.57 -466.53 457.75 C-466.74 458.4 -466.95 459.04 -467.17 459.7 C-468.35 463.23 -469.61 466.69 -471.03 470.13 C-473.01 475.01 -474.44 479.75 -475.49 484.91 C-476.01 487.07 -476.7 489.01 -477.53 491.07 C-479.1 495 -479.87 498.96 -480.6 503.13 C-481.03 505.13 -481.03 505.13 -482.03 506.13 C-482.68 509.46 -483.27 512.79 -483.83 516.14 C-484.82 521.73 -484.82 521.73 -486.03 524.07 C-487.17 526.42 -487.49 528.38 -487.81 530.97 C-487.93 531.89 -488.05 532.81 -488.17 533.75 C-488.29 534.7 -488.41 535.65 -488.53 536.63 C-488.76 538.52 -489 540.4 -489.24 542.29 C-489.4 543.54 -489.4 543.54 -489.56 544.81 C-490.04 547.21 -490.92 548.96 -492.03 551.13 C-492.29 553.48 -492.47 555.83 -492.59 558.19 C-492.93 564.84 -492.93 564.84 -494.03 568.13 C-494.3 571.58 -494.47 575.03 -494.65 578.49 C-495.03 582.13 -495.03 582.13 -496.03 585.34 C-497.1 589.4 -497.36 593.18 -497.41 597.34 C-497.42 598.12 -497.44 598.89 -497.46 599.69 C-497.51 602.15 -497.55 604.61 -497.59 607.07 C-497.65 610.28 -497.71 613.5 -497.78 616.72 C-497.8 617.51 -497.81 618.3 -497.83 619.12 C-497.94 624.29 -498.23 629.42 -498.62 634.57 C-498.99 640.12 -498.89 645.32 -498.31 650.84 C-497.96 654.95 -497.86 659.03 -497.78 663.15 C-497.76 663.94 -497.75 664.74 -497.73 665.56 C-497.66 668.86 -497.6 672.15 -497.55 675.45 C-497.51 677.89 -497.46 680.33 -497.41 682.77 C-497.4 683.51 -497.39 684.25 -497.38 685 C-497.27 689.68 -496.43 693.63 -495.03 698.13 C-494.78 700.54 -494.59 702.96 -494.46 705.38 C-494.21 710.34 -494.21 710.34 -493.03 715.13 C-492.76 718.39 -492.58 721.64 -492.41 724.9 C-492.18 728.04 -492.18 728.04 -491.08 730.42 C-489.17 735.32 -488.86 740.63 -488.17 745.82 C-487.56 750.25 -486.79 754 -485.03 758.13 C-484.2 761.92 -483.51 765.72 -482.81 769.54 C-482.14 772.63 -481.23 775.23 -480.03 778.13 C-479.86 779.31 -479.7 780.48 -479.53 781.69 C-479.24 784.95 -479.24 784.95 -478.09 786.94 C-476.24 790.74 -475.68 794.92 -474.81 799.04 C-474.18 801.99 -474.18 801.99 -473.09 803.98 C-471.86 806.46 -471.03 808.95 -470.19 811.59 C-469.67 813.17 -469.67 813.17 -469.15 814.77 C-468.44 816.96 -467.74 819.16 -467.04 821.35 C-466.69 822.4 -466.35 823.45 -466 824.53 C-465.54 825.96 -465.54 825.96 -465.07 827.42 C-463.99 830.22 -462.61 832.59 -461.03 835.13 C-460.48 836.57 -459.97 838.03 -459.53 839.5 C-458.61 842.39 -457.63 845.17 -456.4 847.94 C-455.35 850.38 -454.54 852.54 -454.03 855.13 C-453.37 855.13 -452.71 855.13 -452.03 855.13 C-451.94 855.77 -451.86 856.42 -451.78 857.08 C-450.74 861.3 -448.91 864.98 -447.03 868.88 C-446.63 869.71 -446.23 870.54 -445.82 871.39 C-441.32 880.72 -436.68 890.07 -431.33 898.95 C-430.03 901.13 -430.03 901.13 -429.09 903.63 C-428.12 906.23 -428.12 906.23 -426.15 908.44 C-423.97 911.19 -422.61 913.85 -421.1 916.99 C-419.34 920.5 -417.45 924.03 -415.03 927.13 C-414.37 927.13 -413.71 927.13 -413.03 927.13 C-412.88 927.94 -412.88 927.94 -412.74 928.77 C-411.81 931.83 -410.3 934.19 -408.59 936.88 C-407.97 937.86 -407.35 938.85 -406.72 939.86 C-406.16 940.61 -405.6 941.36 -405.03 942.13 C-404.37 942.13 -403.71 942.13 -403.03 942.13 C-402.8 943.02 -402.57 943.9 -402.34 944.82 C-400.83 948.62 -398.97 950.33 -396.03 953.13 C-394.65 955.1 -393.31 957.1 -392.03 959.13 C-391.04 960.61 -391.04 960.61 -390.03 962.13 C-389.37 962.13 -388.71 962.13 -388.03 962.13 C-387.62 963.58 -387.62 963.58 -387.21 965.07 C-386.63 966.58 -386.63 966.58 -386.03 968.13 C-385.04 968.46 -384.05 968.79 -383.03 969.13 C-382.09 970.82 -382.09 970.82 -381.03 973.13 C-379.71 975.14 -378.38 977.14 -377.03 979.13 C-376.04 980.61 -376.04 980.61 -375.03 982.13 C-374.37 982.13 -373.71 982.13 -373.03 982.13 C-372.77 982.7 -372.51 983.27 -372.24 983.86 C-370.91 986.34 -369.38 988.26 -367.53 990.38 C-366.92 991.09 -366.31 991.79 -365.68 992.52 C-364.17 994.36 -364.17 994.36 -362.03 994.13 C-361.7 995.12 -361.37 996.11 -361.03 997.13 C-360.37 997.13 -359.71 997.13 -359.03 997.13 C-359.03 997.79 -359.03 998.45 -359.03 999.13 C-358.37 999.13 -357.71 999.13 -357.03 999.13 C-356.37 1000.78 -355.71 1002.43 -355.03 1004.13 C-354.37 1004.13 -353.71 1004.13 -353.03 1004.13 C-352.77 1004.72 -352.51 1005.31 -352.24 1005.92 C-350.95 1008.26 -349.6 1009.69 -347.65 1011.5 C-345.33 1013.74 -343.74 1015.58 -341.96 1018.32 C-339.7 1021.61 -337.37 1022.97 -334.03 1025.13 C-331.6 1027.37 -329.31 1029.74 -327.03 1032.13 C-326.37 1032.79 -325.71 1033.45 -325.03 1034.13 C-324.04 1034.13 -323.05 1034.13 -322.03 1034.13 C-321.7 1035.12 -321.37 1036.11 -321.03 1037.13 C-320.37 1037.13 -319.71 1037.13 -319.03 1037.13 C-319.03 1037.79 -319.03 1038.45 -319.03 1039.13 C-318.41 1039.19 -317.79 1039.25 -317.15 1039.32 C-316.45 1039.59 -315.75 1039.85 -315.03 1040.13 C-314.78 1040.83 -314.53 1041.53 -314.28 1042.25 C-312.38 1046.62 -308.85 1049.36 -305.03 1052.13 C-304.37 1052.13 -303.71 1052.13 -303.03 1052.13 C-303.03 1052.79 -303.03 1053.45 -303.03 1054.13 C-302.43 1054.4 -301.83 1054.67 -301.21 1054.94 C-299 1056.14 -297.79 1057.36 -296.03 1059.13 C-294.99 1059.81 -293.96 1060.49 -292.9 1061.19 C-290.03 1063.13 -290.03 1063.13 -289.03 1065.13 C-287.05 1065.86 -285.05 1066.53 -283.03 1067.13 C-283.03 1067.79 -283.03 1068.45 -283.03 1069.13 C-282.43 1069.4 -281.83 1069.67 -281.21 1069.94 C-279.02 1071.14 -277.74 1072.34 -276.03 1074.13 C-272.98 1076.76 -272.98 1076.76 -269.03 1077.13 C-269.03 1078.12 -269.03 1079.11 -269.03 1080.13 C-268.06 1080.42 -267.09 1080.71 -266.09 1081 C-263.03 1082.13 -263.03 1082.13 -262.03 1084.13 C-261.04 1084.79 -260.05 1085.45 -259.03 1086.13 C-258.37 1086.79 -257.71 1087.45 -257.03 1088.13 C-256.37 1088.46 -255.71 1088.79 -255.03 1089.13 C-254.39 1089.65 -253.75 1090.16 -253.09 1090.69 C-251.03 1092.42 -251.03 1092.42 -248.03 1092.13 C-248.03 1092.79 -248.03 1093.45 -248.03 1094.13 C-242.59 1098.68 -236.06 1101.69 -229.73 1104.76 C-226.65 1106.32 -223.9 1108.21 -221.03 1110.13 C-218.11 1111.64 -215.16 1113.09 -212.21 1114.54 C-208.16 1116.56 -204.23 1118.78 -200.3 1121.03 C-198 1122.35 -198 1122.35 -195.03 1122.13 C-194.7 1122.79 -194.37 1123.45 -194.03 1124.13 C-191.41 1125.37 -188.82 1126.52 -186.15 1127.63 C-184.69 1128.24 -183.24 1128.86 -181.78 1129.47 C-181.14 1129.74 -180.49 1130.01 -179.82 1130.29 C-178.03 1131.13 -178.03 1131.13 -175.03 1133.13 C-173.36 1133.74 -171.67 1134.3 -169.96 1134.82 C-169.09 1135.09 -168.21 1135.36 -167.3 1135.64 C-165.01 1136.38 -165.01 1136.38 -163.03 1135.13 C-162.7 1136.12 -162.37 1137.11 -162.03 1138.13 C-160.22 1139.21 -160.22 1139.21 -157.9 1140 C-157.01 1140.34 -156.11 1140.67 -155.19 1141.02 C-150.3 1142.73 -145.38 1144.38 -140.44 1145.98 C-137.59 1146.94 -134.82 1148 -132.03 1149.13 C-130.7 1149.47 -129.36 1149.81 -128.03 1150.13 C-125.12 1151.06 -122.28 1152.02 -119.46 1153.19 C-117.1 1154.18 -117.1 1154.18 -114.78 1154.56 C-110.51 1155.44 -106.42 1156.86 -102.28 1158.19 C-99.19 1159.08 -96.19 1159.64 -93.03 1160.13 C-91.42 1160.59 -91.42 1160.59 -89.78 1161.07 C-86.94 1161.87 -84.22 1162.51 -81.34 1163.07 C-76.34 1164.03 -71.42 1165.26 -66.49 1166.54 C-64.12 1167.21 -64.12 1167.21 -62.03 1167.13 C-60.38 1167.4 -58.73 1167.7 -57.09 1168 C-56.11 1168.19 -55.12 1168.37 -54.11 1168.56 C-52.58 1168.84 -52.58 1168.84 -51.03 1169.13 C-41.58 1171.2 -41.58 1171.2 -32.03 1172.13 C-30.11 1172.44 -28.2 1172.77 -26.28 1173.09 C-19.15 1174.21 -12.11 1174.53 -4.9 1174.69 C-2.52 1174.75 -0.15 1174.82 2.23 1174.88 C3.26 1174.91 4.3 1174.93 5.36 1174.96 C7.97 1175.13 7.97 1175.13 10.97 1176.13 C19.29 1177.02 27.61 1177.27 35.97 1177.13 C36.63 1177.13 37.29 1177.13 37.97 1177.13 C39.31 1176.81 40.65 1176.48 41.97 1176.13 C41.97 1176.46 41.97 1176.79 41.97 1177.13 C50.35 1177.28 58.62 1176.81 66.97 1176.13 C66.97 1175.8 66.97 1175.47 66.97 1175.13 C76.87 1174.8 86.77 1174.47 96.97 1174.13 C96.97 1173.8 96.97 1173.47 96.97 1173.13 C98.15 1173.08 99.34 1173.03 100.55 1172.98 C102.11 1172.91 103.67 1172.83 105.22 1172.75 C106 1172.72 106.78 1172.69 107.58 1172.66 C111.65 1172.45 114.35 1172.03 117.97 1170.13 C120.38 1169.84 122.8 1169.64 125.22 1169.5 C126.49 1169.43 127.75 1169.35 129.05 1169.28 C130.02 1169.23 130.98 1169.18 131.97 1169.13 C131.97 1168.8 131.97 1168.47 131.97 1168.13 C132.82 1168.08 133.66 1168.03 134.53 1167.98 C135.62 1167.91 136.72 1167.83 137.85 1167.75 C138.94 1167.68 140.03 1167.62 141.15 1167.54 C144.1 1167.4 144.1 1167.4 145.97 1165.13 C148.58 1164.72 148.58 1164.72 151.6 1164.5 C152.6 1164.43 153.6 1164.35 154.64 1164.28 C155.41 1164.23 156.18 1164.18 156.97 1164.13 C156.97 1163.8 156.97 1163.47 156.97 1163.13 C157.6 1163.08 158.23 1163.03 158.87 1162.98 C159.69 1162.91 160.51 1162.83 161.35 1162.75 C162.16 1162.68 162.97 1162.62 163.81 1162.54 C166.18 1162.3 166.18 1162.3 167.97 1160.13 C170.14 1159.72 170.14 1159.72 172.6 1159.5 C173.42 1159.43 174.23 1159.35 175.08 1159.28 C175.7 1159.23 176.33 1159.18 176.97 1159.13 C176.97 1158.8 176.97 1158.47 176.97 1158.13 C182.91 1156.81 188.85 1155.49 194.97 1154.13 C194.97 1153.8 194.97 1153.47 194.97 1153.13 C199.59 1151.51 204.22 1150.28 208.97 1149.13 C208.97 1148.47 208.97 1147.81 208.97 1147.13 C209.94 1147.19 210.91 1147.25 211.91 1147.32 C217.76 1147.33 223.15 1145.35 227.97 1142.13 C229.36 1141.55 230.75 1141.01 232.16 1140.5 C232.88 1140.24 233.59 1139.98 234.33 1139.72 C234.87 1139.52 235.41 1139.33 235.97 1139.13 C235.97 1138.47 235.97 1137.81 235.97 1137.13 C237.01 1137.19 238.04 1137.25 239.1 1137.32 C243.21 1137.12 245.46 1136.18 248.97 1134.13 C248.97 1133.47 248.97 1132.81 248.97 1132.13 C250.05 1132.03 251.12 1131.92 252.22 1131.82 C256.01 1131.12 257.06 1130.38 259.97 1128.13 C263.22 1127.44 263.22 1127.44 265.97 1127.13 C265.97 1126.47 265.97 1125.81 265.97 1125.13 C266.96 1124.8 267.95 1124.47 268.97 1124.13 C268.97 1123.47 268.97 1122.81 268.97 1122.13 C271.28 1122.13 273.59 1122.13 275.97 1122.13 C275.97 1121.47 275.97 1120.81 275.97 1120.13 C279.24 1118.25 282.25 1117.64 285.97 1117.13 C285.97 1116.47 285.97 1115.81 285.97 1115.13 C288.31 1113.87 290.51 1112.95 293.04 1112.13 C296.11 1111.22 296.11 1111.22 298.97 1109.13 C298.97 1108.47 298.97 1107.81 298.97 1107.13 C300.06 1106.94 300.06 1106.94 301.16 1106.75 C306.62 1105.54 312.31 1103.52 315.97 1099.13 C315.97 1098.47 315.97 1097.81 315.97 1097.13 C317.62 1097.13 319.27 1097.13 320.97 1097.13 C321.24 1096.49 321.51 1095.85 321.79 1095.19 C322.97 1093.13 322.97 1093.13 325.97 1092.13 C326.3 1091.8 326.63 1091.47 326.97 1091.13 C327.63 1091.46 328.29 1091.79 328.97 1092.13 C329.56 1091.23 329.56 1091.23 330.16 1090.32 C332.22 1087.83 334.15 1086.67 336.97 1085.13 C341.66 1082.39 341.66 1082.39 345.97 1079.13 C345.97 1078.47 345.97 1077.81 345.97 1077.13 C349.97 1075.13 349.97 1075.13 351.9 1074.25 C354.06 1073.08 355.66 1071.78 357.47 1070.13 C359.87 1067.95 362.09 1066.57 364.97 1065.13 C365.8 1064.3 366.62 1063.48 367.47 1062.63 C369.76 1060.34 371.18 1059.53 373.97 1058.13 C375.17 1057.16 376.34 1056.16 377.47 1055.13 C379.25 1053.52 380.7 1052.26 382.88 1051.25 C385.19 1050.01 386.51 1048.71 388.25 1046.76 C388.85 1046.1 389.44 1045.44 390.06 1044.77 C391.29 1043.39 392.52 1042.01 393.75 1040.63 C396.94 1037.11 399.73 1034.37 403.97 1032.13 C407.63 1029.37 410.87 1026.4 413.72 1022.82 C415.97 1020.13 415.97 1020.13 418.97 1019.13 C420.43 1017.74 420.43 1017.74 421.79 1016 C422.31 1015.37 422.83 1014.74 423.37 1014.09 C423.9 1013.44 424.43 1012.79 424.97 1012.13 C425.97 1010.98 426.97 1009.84 427.97 1008.69 C430.67 1005.57 433.1 1002.29 435.48 998.93 C436.97 997.13 436.97 997.13 439.15 995.52 C439.75 995.06 440.35 994.6 440.97 994.13 C440.97 993.47 440.97 992.81 440.97 992.13 C441.57 991.87 442.17 991.6 442.79 991.33 C447.38 988.8 450.32 984.12 453.16 979.82 C454.97 977.13 454.97 977.13 457.97 975.13 C458.24 974.41 458.51 973.69 458.79 972.94 C460.18 969.64 462.08 967.55 464.45 964.9 C466.19 962.95 466.19 962.95 468.16 959.82 C469.97 957.13 469.97 957.13 472.97 955.13 C474.18 952.51 475.06 949.87 475.97 947.13 C476.57 946.88 477.17 946.63 477.79 946.38 C480.26 944.97 480.77 944.02 482.1 941.57 C483.97 938.13 483.97 938.13 485.97 937.13 C486.28 936.33 486.59 935.52 486.91 934.69 C487.97 932.13 487.97 932.13 490.97 930.13 C491.12 929.14 491.26 928.15 491.41 927.13 C491.6 926.14 491.78 925.15 491.97 924.13 C494.04 922.75 494.04 922.75 495.97 922.13 C495.97 920.48 495.97 918.83 495.97 917.13 C496.59 916.9 497.21 916.68 497.85 916.44 C500.63 914.72 500.95 913.19 501.97 910.13 C503.14 907.57 503.96 906.14 505.97 904.13 C505.97 902.81 505.97 901.49 505.97 900.13 C506.96 899.8 507.95 899.47 508.97 899.13 C509.7 897.49 510.36 895.82 510.97 894.13 C511.51 893.24 512.05 892.36 512.6 891.44 C514.14 889.29 514.14 889.29 513.97 887.13 C514.63 887.13 515.29 887.13 515.97 887.13 C516.28 886.04 516.59 884.94 516.91 883.82 C517.56 881.58 518.24 879.34 518.97 877.13 C519.63 877.13 520.29 877.13 520.97 877.13 C520.97 874.82 520.97 872.51 520.97 870.13 C521.96 869.8 522.95 869.47 523.97 869.13 C523.97 868.47 523.97 867.81 523.97 867.13 C524.63 867.13 525.29 867.13 525.97 867.13 C526.38 865.58 526.38 865.58 526.79 864 C527.52 861.39 528.34 859.4 529.6 856.94 C531.27 854.05 531.27 854.05 530.97 850.13 C531.63 850.13 532.29 850.13 532.97 850.13 C533.1 849.35 533.22 848.56 533.35 847.75 C533.97 845.13 533.97 845.13 535.97 843.13 C536.32 841.47 536.66 839.8 536.97 838.13 C537.62 836.79 538.29 835.46 538.97 834.13 C540.02 831.48 540.99 828.81 541.97 826.13 C542.3 826.13 542.63 826.13 542.97 826.13 C543.16 825.44 543.34 824.75 543.52 824.04 C544.97 818.62 546.53 813.29 548.42 808 C549.11 805.98 549.11 805.98 548.97 803.13 C549.63 802.8 550.29 802.47 550.97 802.13 C551.63 799.1 551.63 799.1 551.97 796.13 C552.3 796.13 552.63 796.13 552.97 796.13 C553.16 794.27 553.16 794.27 553.35 792.38 C553.74 789.18 554.46 786.97 555.97 784.13 C556.36 782.14 556.7 780.14 556.97 778.13 C557.3 778.13 557.63 778.13 557.97 778.13 C558.02 777.5 558.07 776.88 558.12 776.23 C558.23 775.01 558.23 775.01 558.35 773.75 C558.45 772.54 558.45 772.54 558.56 771.29 C558.97 769.13 558.97 769.13 560.97 767.13 C561.4 765.03 561.4 765.03 561.54 762.69 C561.76 759.89 562.08 757.82 562.97 755.13 C563.19 753.14 563.41 751.16 563.59 749.16 C563.97 747.13 563.97 747.13 564.97 745.19 C566.16 742.75 566.34 740.77 566.54 738.07 C566.75 735.13 567.04 732.94 567.97 730.13 C568.24 727.36 568.42 724.6 568.59 721.82 C568.97 719.13 568.97 719.13 569.97 717.33 C571.57 713.82 571.45 710.19 571.6 706.38 C571.64 705.59 571.68 704.79 571.72 703.98 C571.81 702.03 571.89 700.08 571.97 698.13 C572.3 698.13 572.63 698.13 572.97 698.13 C573.3 688.56 573.63 678.99 573.97 669.13 C574.3 669.13 574.63 669.13 574.97 669.13 C575.63 660.44 576.12 651.85 575.97 643.13 C575.97 642.47 575.97 641.81 575.97 641.13 C575.66 639.79 575.33 638.46 574.97 637.13 C575.3 637.13 575.63 637.13 575.97 637.13 C576.53 622.43 576.53 622.43 573.97 608.13 C573.85 606.29 573.77 604.45 573.73 602.61 C573.7 601.51 573.66 600.41 573.63 599.28 C573.6 598.12 573.57 596.95 573.54 595.75 C573.25 586.7 572.66 578.04 570.97 569.13 C570.97 568.47 570.97 567.81 570.97 567.13 C570.53 564.48 570.07 561.84 569.6 559.19 C569.4 558.05 569.4 558.05 569.19 556.88 C568.25 551.63 567.29 546.38 566.31 541.13 C565.97 539.13 565.97 539.13 565.97 537.13 C565.56 535.19 565.12 533.25 564.66 531.32 C563 524.22 563 524.22 562.25 520.91 C559.62 507.18 559.62 507.18 554.97 494.13 C554.44 491.66 553.98 489.19 553.6 486.69 C553.07 484.04 553.07 484.04 551.58 481.55 C549.63 477.41 548.65 473.31 547.6 468.88 C546.02 462.48 544.27 456.76 540.89 451.04 C539.97 449.13 539.97 449.13 539.97 445.13 C539.31 445.13 538.65 445.13 537.97 445.13 C537.31 442.82 536.65 440.51 535.97 438.13 C535.31 438.13 534.65 438.13 533.97 438.13 C534.3 437.14 534.63 436.15 534.97 435.13 C534.36 432.92 534.36 432.92 533.29 430.57 C532.91 429.68 532.54 428.8 532.15 427.88 C531.76 426.97 531.37 426.07 530.97 425.13 C530.3 423.42 529.64 421.71 528.97 420 C527.21 415.58 525.17 411.36 522.97 407.13 C522.31 407.13 521.65 407.13 520.97 407.13 C520.9 406.31 520.82 405.49 520.74 404.65 C519.78 400.22 517.91 396.76 515.72 392.82 C515.11 391.69 515.11 391.69 514.49 390.55 C513.69 389.07 512.88 387.59 512.07 386.12 C511.15 384.45 510.24 382.77 509.34 381.09 C507.05 376.82 507.05 376.82 503.97 373.13 C503.31 371.73 502.69 370.31 502.1 368.88 C500.42 364.98 498.43 361.61 495.97 358.13 C495.44 357.18 494.9 356.23 494.35 355.25 C493.9 354.55 493.44 353.85 492.97 353.13 C492.31 353.13 491.65 353.13 490.97 353.13 C490.85 352.16 490.73 351.19 490.6 350.19 C490.39 349.18 490.19 348.17 489.97 347.13 C489.31 346.8 488.65 346.47 487.97 346.13 C487.31 344.8 486.64 343.46 485.97 342.13 C485.31 341.8 484.65 341.47 483.97 341.13 C483.64 340.14 483.31 339.15 482.97 338.13 C482.31 338.13 481.65 338.13 480.97 338.13 C480.31 336.15 479.65 334.17 478.97 332.13 C477.98 332.13 476.99 332.13 475.97 332.13 C475.82 331.33 475.82 331.33 475.66 330.5 C474.79 327.5 473.42 324.89 471.97 322.13 C471.31 322.13 470.65 322.13 469.97 322.13 C469.31 320.81 468.65 319.49 467.97 318.13 C467.31 318.13 466.65 318.13 465.97 318.13 C465.77 317.28 465.56 316.44 465.35 315.57 C463.25 310.33 459.66 306.77 455.66 302.88 C453.97 301.13 453.97 301.13 452.97 298.13 C452.31 298.13 451.65 298.13 450.97 298.13 C450.7 297.55 450.43 296.96 450.15 296.36 C448.98 294.14 447.71 292.36 446.1 290.44 C445.36 289.54 445.36 289.54 444.61 288.62 C442.75 286.92 441.43 286.53 438.97 286.13 C438.64 284.81 438.31 283.49 437.97 282.13 C437.31 282.13 436.65 282.13 435.97 282.13 C435.64 281.14 435.31 280.15 434.97 279.13 C434.31 279.13 433.65 279.13 432.97 279.13 C432.64 278.14 432.31 277.15 431.97 276.13 C430.94 274.82 429.85 273.55 428.72 272.32 C426.53 269.87 424.36 267.42 422.29 264.88 C418.52 260.4 414.3 256.63 409.88 252.81 C407.97 251.13 407.97 251.13 406.35 249.41 C405.04 247.9 405.04 247.9 402.97 248.13 C402.97 247.47 402.97 246.81 402.97 246.13 C400.5 245.14 400.5 245.14 397.97 244.13 C397.97 243.47 397.97 242.81 397.97 242.13 C397.31 242.13 396.65 242.13 395.97 242.13 C395.64 241.14 395.31 240.15 394.97 239.13 C394.31 239.13 393.65 239.13 392.97 239.13 C392.97 238.47 392.97 237.81 392.97 237.13 C391.33 235.39 391.33 235.39 389.22 233.63 C388.53 233.02 387.83 232.41 387.11 231.79 C385.13 230.25 383.26 229.16 380.97 228.13 C380.97 227.47 380.97 226.81 380.97 226.13 C379.3 224.77 377.55 223.49 375.79 222.25 C372.87 220.2 370.02 218.17 367.26 215.92 C365.05 214.19 363.71 213.53 360.97 213.13 C360.97 212.47 360.97 211.81 360.97 211.13 C359.26 209.71 357.48 208.36 355.66 207.07 C354.68 206.35 353.69 205.64 352.67 204.91 C350.04 203.01 350.04 203.01 346.97 202.13 C346.97 201.47 346.97 200.81 346.97 200.13 C344.99 199.47 343.01 198.81 340.97 198.13 C340.97 197.47 340.97 196.81 340.97 196.13 C338.64 194.34 338.64 194.34 335.72 192.57 C334.75 191.95 333.77 191.33 332.77 190.69 C330.41 189.37 328.61 188.59 325.97 188.13 C325.97 187.47 325.97 186.81 325.97 186.13 C323.79 184.56 321.63 183.11 319.35 181.69 C318.73 181.3 318.11 180.9 317.48 180.49 C314.58 178.66 311.71 177 308.64 175.47 C305.97 174.13 305.97 174.13 303.97 172.13 C302.31 171.45 300.64 170.79 298.97 170.13 C296.69 168.94 294.42 167.74 292.16 166.5 C285.39 162.85 278.55 159.37 271.66 155.96 C269.38 154.84 267.13 153.69 264.88 152.52 C264.01 152.06 263.13 151.6 262.22 151.13 C261.49 150.74 260.75 150.35 259.99 149.94 C257.72 148.88 257.72 148.88 253.97 149.13 C253.97 148.47 253.97 147.81 253.97 147.13 C253.29 146.86 252.61 146.59 251.91 146.32 C249.77 145.45 247.65 144.55 245.54 143.63 C242.1 142.13 242.1 142.13 238.97 141.13 C235.97 140.13 235.97 140.13 232.9 138.76 C227.61 136.47 222.08 134.94 216.56 133.29 C215.74 133.04 214.92 132.79 214.08 132.53 C213.34 132.31 212.6 132.09 211.83 131.86 C209.97 131.13 209.97 131.13 207.97 129.13 C205.43 128.41 202.92 127.78 200.35 127.19 C191.53 125.1 191.53 125.1 187.6 123.5 C183.74 122.04 180.03 121.26 175.98 120.56 C173.97 120.13 173.97 120.13 172.97 119.13 C169.64 118.47 166.31 117.88 162.96 117.32 C157.37 116.34 157.37 116.34 155.04 115.13 C152.68 113.99 150.72 113.67 148.13 113.35 C147.21 113.23 146.3 113.11 145.35 112.98 C144.4 112.87 143.45 112.75 142.47 112.63 C140.59 112.4 138.7 112.16 136.82 111.91 C135.98 111.81 135.15 111.71 134.29 111.6 C131.89 111.11 130.14 110.24 127.97 109.13 C125.63 108.86 123.27 108.68 120.91 108.57 C114.26 108.22 114.26 108.22 110.97 107.13 C107.52 106.86 104.07 106.68 100.61 106.51 C96.97 106.13 96.97 106.13 93.76 105.13 C89.7 104.06 85.92 103.8 81.76 103.75 C80.99 103.73 80.21 103.72 79.42 103.7 C76.96 103.65 74.5 103.61 72.04 103.57 C68.82 103.51 65.6 103.44 62.38 103.38 C61.2 103.35 61.2 103.35 59.98 103.33 C54.82 103.22 49.69 102.92 44.53 102.54 C38.98 102.16 33.78 102.26 28.26 102.84 Z M191.97 122.13 C192.97 124.13 192.97 124.13 192.97 124.13 Z M-264.03 193.13 C-264.03 193.79 -264.03 194.45 -264.03 195.13 C-263.37 194.8 -262.71 194.47 -262.03 194.13 C-262.69 193.8 -263.35 193.47 -264.03 193.13 Z M-277.03 202.13 C-277.03 203.12 -277.03 204.11 -277.03 205.13 C-276.04 204.8 -275.05 204.47 -274.03 204.13 C-274.03 203.47 -274.03 202.81 -274.03 202.13 C-275.02 202.13 -276.01 202.13 -277.03 202.13 Z M-284.03 207.13 C-284.03 208.12 -284.03 209.11 -284.03 210.13 C-283.04 209.8 -282.05 209.47 -281.03 209.13 C-281.03 208.47 -281.03 207.81 -281.03 207.13 C-282.02 207.13 -283.01 207.13 -284.03 207.13 Z M-297.03 217.13 C-297.03 218.12 -297.03 219.11 -297.03 220.13 C-296.04 219.8 -295.05 219.47 -294.03 219.13 C-294.03 218.47 -294.03 217.81 -294.03 217.13 C-295.02 217.13 -296.01 217.13 -297.03 217.13 Z M-304.03 222.13 C-303.7 223.12 -303.37 224.11 -303.03 225.13 C-302.37 224.8 -301.71 224.47 -301.03 224.13 C-301.03 223.47 -301.03 222.81 -301.03 222.13 C-302.02 222.13 -303.01 222.13 -304.03 222.13 Z M-305.03 224.13 C-304.03 226.13 -304.03 226.13 -304.03 226.13 Z M-339.03 254.13 C-339.03 255.12 -339.03 256.11 -339.03 257.13 C-338.37 256.8 -337.71 256.47 -337.03 256.13 C-337.69 255.47 -338.35 254.81 -339.03 254.13 Z M-347.03 262.13 C-346.7 263.12 -346.37 264.11 -346.03 265.13 C-345.37 264.8 -344.71 264.47 -344.03 264.13 C-344.03 263.47 -344.03 262.81 -344.03 262.13 C-345.02 262.13 -346.01 262.13 -347.03 262.13 Z M-348.03 264.13 C-347.03 266.13 -347.03 266.13 -347.03 266.13 Z M-372.03 289.13 C-371.7 290.12 -371.37 291.11 -371.03 292.13 C-370.37 291.8 -369.71 291.47 -369.03 291.13 C-369.03 290.47 -369.03 289.81 -369.03 289.13 C-370.02 289.13 -371.01 289.13 -372.03 289.13 Z M-379.03 297.13 C-379.03 298.12 -379.03 299.11 -379.03 300.13 C-378.04 299.8 -377.05 299.47 -376.03 299.13 C-376.36 298.47 -376.69 297.81 -377.03 297.13 C-377.69 297.13 -378.35 297.13 -379.03 297.13 Z M-384.03 304.13 C-383.7 305.12 -383.37 306.11 -383.03 307.13 C-382.37 306.8 -381.71 306.47 -381.03 306.13 C-381.03 305.47 -381.03 304.81 -381.03 304.13 C-382.02 304.13 -383.01 304.13 -384.03 304.13 Z M-387.03 307.13 C-387.03 308.12 -387.03 309.11 -387.03 310.13 C-386.04 309.8 -385.05 309.47 -384.03 309.13 C-384.36 308.47 -384.69 307.81 -385.03 307.13 C-385.69 307.13 -386.35 307.13 -387.03 307.13 Z M-392.03 314.13 C-391.7 315.12 -391.37 316.11 -391.03 317.13 C-390.37 316.8 -389.71 316.47 -389.03 316.13 C-389.03 315.47 -389.03 314.81 -389.03 314.13 C-390.02 314.13 -391.01 314.13 -392.03 314.13 Z M-399.03 324.13 C-398.7 325.12 -398.37 326.11 -398.03 327.13 C-397.37 326.8 -396.71 326.47 -396.03 326.13 C-396.03 325.47 -396.03 324.81 -396.03 324.13 C-397.02 324.13 -398.01 324.13 -399.03 324.13 Z M-402.03 327.13 C-402.03 328.12 -402.03 329.11 -402.03 330.13 C-401.04 329.8 -400.05 329.47 -399.03 329.13 C-399.36 328.47 -399.69 327.81 -400.03 327.13 C-400.69 327.13 -401.35 327.13 -402.03 327.13 Z M-407.03 334.13 C-406.7 335.12 -406.37 336.11 -406.03 337.13 C-405.37 336.8 -404.71 336.47 -404.03 336.13 C-404.03 335.47 -404.03 334.81 -404.03 334.13 C-405.02 334.13 -406.01 334.13 -407.03 334.13 Z M-417.03 349.13 C-417.03 350.12 -417.03 351.11 -417.03 352.13 C-416.04 351.8 -415.05 351.47 -414.03 351.13 C-414.03 350.47 -414.03 349.81 -414.03 349.13 C-415.02 349.13 -416.01 349.13 -417.03 349.13 Z M-421.03 357.13 C-420.37 357.79 -419.71 358.45 -419.03 359.13 C-419.03 358.47 -419.03 357.81 -419.03 357.13 C-419.69 357.13 -420.35 357.13 -421.03 357.13 Z M-429.03 369.13 C-429.03 370.12 -429.03 371.11 -429.03 372.13 C-428.04 371.8 -427.05 371.47 -426.03 371.13 C-426.03 370.47 -426.03 369.81 -426.03 369.13 C-427.02 369.13 -428.01 369.13 -429.03 369.13 Z M642.97 431.13 C643.97 433.13 643.97 433.13 643.97 433.13 Z M647.97 446.13 C648.97 448.13 648.97 448.13 648.97 448.13 Z M667.97 529.13 C668.97 531.13 668.97 531.13 668.97 531.13 Z M-497.03 694.13 C-497.36 694.79 -497.69 695.45 -498.03 696.13 C-497.37 696.13 -496.71 696.13 -496.03 696.13 C-496.36 695.47 -496.69 694.81 -497.03 694.13 Z M-492.03 731.13 C-491.03 733.13 -491.03 733.13 -491.03 733.13 Z M-477.03 794.13 C-476.03 796.13 -476.03 796.13 -476.03 796.13 Z M-467.03 824.13 C-466.03 826.13 -466.03 826.13 -466.03 826.13 Z M521.97 871.13 C522.97 873.13 522.97 873.13 522.97 873.13 Z M597.97 944.13 C597.97 945.12 597.97 946.11 597.97 947.13 C598.96 946.8 599.95 946.47 600.97 946.13 C600.97 945.47 600.97 944.81 600.97 944.13 C599.98 944.13 598.99 944.13 597.97 944.13 Z M589.97 962.13 C590.97 964.13 590.97 964.13 590.97 964.13 Z M580.97 974.13 C580.97 975.12 580.97 976.11 580.97 977.13 C581.96 976.8 582.95 976.47 583.97 976.13 C583.97 975.47 583.97 974.81 583.97 974.13 C582.98 974.13 581.99 974.13 580.97 974.13 Z M575.97 982.13 C576.97 984.13 576.97 984.13 576.97 984.13 Z M577.97 982.13 C578.97 984.13 578.97 984.13 578.97 984.13 Z M565.97 997.13 C566.97 999.13 566.97 999.13 566.97 999.13 Z M567.97 997.13 C568.97 999.13 568.97 999.13 568.97 999.13 Z M560.97 1004.13 C560.97 1005.12 560.97 1006.11 560.97 1007.13 C561.96 1006.8 562.95 1006.47 563.97 1006.13 C563.97 1005.47 563.97 1004.81 563.97 1004.13 C562.98 1004.13 561.99 1004.13 560.97 1004.13 Z M555.97 1012.13 C556.97 1014.13 556.97 1014.13 556.97 1014.13 Z M557.97 1012.13 C558.97 1014.13 558.97 1014.13 558.97 1014.13 Z M547.97 1022.13 C549.46 1023.12 549.46 1023.12 550.97 1024.13 C550.97 1023.47 550.97 1022.81 550.97 1022.13 C549.98 1022.13 548.99 1022.13 547.97 1022.13 Z M540.97 1032.13 C541.97 1034.13 541.97 1034.13 541.97 1034.13 Z M542.97 1032.13 C543.97 1034.13 543.97 1034.13 543.97 1034.13 Z M530.97 1044.13 C531.3 1045.12 531.63 1046.11 531.97 1047.13 C532.63 1046.8 533.29 1046.47 533.97 1046.13 C533.97 1045.47 533.97 1044.81 533.97 1044.13 C532.98 1044.13 531.99 1044.13 530.97 1044.13 Z M515.97 1062.13 C516.97 1064.13 516.97 1064.13 516.97 1064.13 Z M517.97 1062.13 C518.97 1064.13 518.97 1064.13 518.97 1064.13 Z M422.97 1147.13 C422.97 1148.12 422.97 1149.11 422.97 1150.13 C423.63 1149.8 424.29 1149.47 424.97 1149.13 C424.31 1148.47 423.65 1147.81 422.97 1147.13 Z " fill="#000002" transform="translate(601.026123046875,-0.12939453125)"/>
<path d="M0 0 C1.24 0.01 2.47 0.01 3.75 0.02 C19.47 0.15 19.47 0.15 26.12 3.75 C28.74 5.15 31.06 6.31 33.88 7.25 C33.88 7.91 33.88 8.57 33.88 9.25 C34.62 9.33 35.36 9.42 36.12 9.5 C39.54 10.43 40.48 11.65 42.88 14.25 C44.16 15.34 45.45 16.42 46.75 17.5 C50.95 21.15 56.05 25.69 57.35 31.3 C58 33.7 59.11 34.54 60.88 36.25 C67.34 49.82 67.31 65.1 67.24 79.75 C67.24 81.81 67.25 83.87 67.25 85.93 C67.26 91.55 67.25 97.17 67.24 102.79 C67.23 108.86 67.23 114.94 67.24 121.01 C67.24 131.53 67.24 142.04 67.22 152.56 C67.21 163.59 67.2 174.61 67.2 185.64 C67.2 186.67 67.2 186.67 67.2 187.72 C67.2 190.51 67.2 193.3 67.2 196.09 C67.2 221.48 67.18 246.87 67.16 272.26 C67.13 296.23 67.12 320.19 67.12 344.15 C67.12 344.89 67.12 345.63 67.11 346.39 C67.11 349.37 67.11 352.34 67.11 355.32 C67.11 356.81 67.11 358.29 67.11 359.78 C67.11 361.26 67.11 362.74 67.11 364.22 C67.11 387.79 67.1 411.37 67.08 434.94 C67.08 441.84 67.08 448.74 67.08 455.64 C67.07 470.15 67.06 484.65 67.05 499.16 C67.04 505.15 67.04 511.15 67.03 517.15 C67.03 522.64 67.03 528.12 67.02 533.61 C67.02 535.6 67.02 537.59 67.02 539.57 C67.02 542.27 67.01 544.97 67.01 547.67 C67.01 548.44 67.01 549.22 67.01 550.01 C66.96 562.16 66.96 562.16 64.88 564.25 C64.53 565.66 64.22 567.08 63.94 568.5 C63.21 571.92 62.32 575.05 60.88 578.25 C60.22 578.25 59.56 578.25 58.88 578.25 C58.77 578.95 58.67 579.65 58.56 580.38 C55.7 592.36 44.99 600.77 35 607.06 C34.3 607.45 33.6 607.85 32.88 608.25 C31.88 608.91 30.89 609.57 29.88 610.25 C27.72 610.98 25.55 611.67 23.38 612.31 C22.23 612.65 21.09 613 19.91 613.35 C18.91 613.65 17.91 613.94 16.88 614.25 C15.88 614.58 14.89 614.91 13.88 615.25 C9.9 615.48 5.92 615.44 1.94 615.44 C0.84 615.45 -0.26 615.46 -1.39 615.47 C-2.97 615.48 -2.97 615.48 -4.59 615.48 C-5.56 615.48 -6.52 615.49 -7.52 615.49 C-10.23 615.24 -11.78 614.57 -14.12 613.25 C-15.97 612.82 -17.83 612.43 -19.69 612.06 C-30.57 609.4 -39.52 602.32 -47.12 594.25 C-47.62 592.76 -47.62 592.76 -48.12 591.25 C-48.78 591.25 -49.45 591.25 -50.12 591.25 C-50.62 589.76 -50.62 589.76 -51.12 588.25 C-51.6 587.79 -52.08 587.33 -52.57 586.85 C-54.46 584.91 -55.12 583.17 -56.06 580.62 C-57.65 576.45 -59.39 572.4 -61.29 568.36 C-63.32 563.24 -63.27 558.11 -63.25 552.68 C-63.26 551.82 -63.26 550.95 -63.26 550.06 C-63.26 547.14 -63.26 544.23 -63.26 541.31 C-63.26 539.21 -63.26 537.1 -63.27 535 C-63.27 529.2 -63.27 523.41 -63.27 517.61 C-63.27 511.37 -63.28 505.12 -63.28 498.87 C-63.29 486.63 -63.29 474.39 -63.29 462.15 C-63.29 452.21 -63.29 442.26 -63.3 432.32 C-63.3 429.46 -63.3 426.6 -63.3 423.74 C-63.3 422.67 -63.3 422.67 -63.3 421.58 C-63.31 401.57 -63.31 381.57 -63.31 361.56 C-63.31 360.8 -63.31 360.05 -63.31 359.27 C-63.31 355.45 -63.31 351.63 -63.31 347.8 C-63.31 347.04 -63.31 346.28 -63.31 345.5 C-63.31 343.96 -63.31 342.43 -63.31 340.89 C-63.31 316.99 -63.32 293.08 -63.33 269.17 C-63.35 242.33 -63.35 215.48 -63.35 188.63 C-63.35 185.77 -63.35 182.91 -63.35 180.05 C-63.35 179.34 -63.35 178.64 -63.35 177.91 C-63.35 166.56 -63.36 155.21 -63.37 143.86 C-63.38 132.46 -63.38 121.06 -63.37 109.66 C-63.37 103.48 -63.37 97.3 -63.38 91.12 C-63.38 85.47 -63.38 79.82 -63.37 74.17 C-63.37 72.12 -63.37 70.07 -63.38 68.02 C-63.39 65.24 -63.38 62.47 -63.37 59.69 C-63.38 58.89 -63.38 58.08 -63.39 57.25 C-63.36 53.38 -63.19 50.56 -61.12 47.25 C-60.13 44.02 -59.22 40.91 -58.75 37.56 C-57.94 34.55 -56.37 33.36 -54.12 31.25 C-53.43 29.93 -52.76 28.6 -52.12 27.25 C-51.14 25.91 -50.14 24.57 -49.12 23.25 C-48.53 22.28 -47.93 21.31 -47.31 20.31 C-44.2 15.96 -40.58 13.22 -36.12 10.25 C-35.13 10.25 -34.14 10.25 -33.12 10.25 C-33.12 9.26 -33.12 8.27 -33.12 7.25 C-31.8 7.25 -30.49 7.25 -29.12 7.25 C-28.79 6.59 -28.47 5.93 -28.12 5.25 C-26.48 5.25 -24.83 5.25 -23.12 5.25 C-23.12 4.59 -23.12 3.93 -23.12 3.25 C-15.31 0.04 -8.39 -0.14 0 0 Z M51.88 585.25 C52.88 587.25 52.88 587.25 52.88 587.25 Z M53.88 585.25 C54.88 587.25 54.88 587.25 54.88 587.25 Z M28.88 605.25 C28.88 606.24 28.88 607.23 28.88 608.25 C29.87 607.92 30.86 607.59 31.88 607.25 C31.88 606.59 31.88 605.93 31.88 605.25 C30.88 605.25 29.89 605.25 28.88 605.25 Z " fill="#000002" transform="translate(775.125,326.75)"/>
<path d="M0 0 C4 -0.02 8 -0.04 12.01 -0.05 C13.36 -0.06 14.72 -0.07 16.08 -0.08 C18.05 -0.09 20.01 -0.09 21.97 -0.1 C23.15 -0.1 24.33 -0.11 25.54 -0.11 C31.86 0.09 36.66 1.02 42.25 4 C45.18 5.55 47.85 6.95 51 8 C51 8.66 51 9.32 51 10 C52.03 10.19 53.06 10.37 54.12 10.56 C58.94 11.93 61.08 15.14 64 19 C64.95 20.11 65.91 21.21 66.88 22.31 C69 25 69 25 69 27 C69.66 27.33 70.32 27.66 71 28 C71 28.99 71 29.98 71 31 C71.66 31 72.32 31 73 31 C77.85 40.19 80.17 47.78 80.75 58.21 C80.82 60.95 80.82 60.95 82 63 C82.1 65.64 82.13 68.25 82.13 70.9 C82.13 71.73 82.13 72.55 82.13 73.41 C82.13 76.22 82.13 79.03 82.13 81.84 C82.13 83.86 82.13 85.88 82.13 87.9 C82.14 93.48 82.13 99.06 82.13 104.64 C82.13 110.65 82.13 116.66 82.13 122.67 C82.14 133.77 82.14 144.87 82.14 155.97 C82.13 166.22 82.13 176.47 82.13 186.72 C82.13 187.74 82.13 187.74 82.13 188.78 C82.13 191.53 82.13 194.29 82.14 197.05 C82.14 222.92 82.14 248.79 82.13 274.66 C82.13 297.67 82.13 320.68 82.13 343.68 C82.14 369.51 82.14 395.34 82.13 421.16 C82.13 423.91 82.13 426.66 82.13 429.41 C82.13 430.09 82.13 430.77 82.13 431.47 C82.13 441.71 82.13 451.96 82.14 462.21 C82.14 473.86 82.14 485.5 82.13 497.15 C82.13 503.1 82.13 509.05 82.13 514.99 C82.14 520.43 82.13 525.87 82.13 531.3 C82.13 533.28 82.13 535.25 82.13 537.23 C82.13 539.9 82.13 542.56 82.13 545.23 C82.13 546.01 82.13 546.8 82.13 547.6 C82.11 552.89 82.11 552.89 81 554 C80.84 556.02 80.72 558.04 80.62 560.06 C80.24 565.69 79.29 569.87 77 575 C76.61 575.99 76.22 576.98 75.81 578 C75.54 578.66 75.28 579.32 75 580 C74.34 580 73.68 580 73 580 C72.9 580.7 72.79 581.4 72.69 582.12 C71.91 585.39 70.58 588.05 69 591 C68.34 591 67.68 591 67 591 C66.78 591.56 66.55 592.11 66.32 592.69 C62.12 600.04 53.75 605.91 46 609 C44.87 609.52 43.73 610.03 42.56 610.56 C41.39 611.04 40.21 611.51 39 612 C38.38 612.26 37.76 612.52 37.12 612.78 C30.58 615.26 24.5 615.45 17.56 615.38 C16.49 615.39 15.43 615.4 14.33 615.41 C5.6 615.38 -1.92 613.67 -9.81 609.94 C-12.85 608.53 -15.88 607.21 -19 606 C-19 605.34 -19 604.68 -19 604 C-19.52 603.77 -20.03 603.55 -20.56 603.31 C-23.9 601.52 -27.15 599.5 -30 597 C-30 596.34 -30 595.68 -30 595 C-30.66 595 -31.32 595 -32 595 C-33.04 593.36 -34.03 591.69 -35 590 C-36.18 588.45 -36.18 588.45 -37.38 586.88 C-41.65 580.97 -44.77 574.19 -46 567 C-46.18 566.16 -46.35 565.33 -46.54 564.46 C-46.71 563.63 -46.88 562.8 -47.06 561.94 C-47.24 561.1 -47.42 560.26 -47.6 559.4 C-48 557 -48 557 -48 553 C-48 550.28 -48 547.55 -48 544.83 C-48 543.09 -48 541.35 -48 539.61 C-48 538.68 -48.01 537.74 -48.01 536.78 C-48.02 495.14 -48.03 453.49 -48.04 411.85 C-48.04 411.15 -48.04 410.46 -48.04 409.74 C-48.05 394.65 -48.05 379.57 -48.05 364.48 C-48.05 357.09 -48.05 349.69 -48.05 342.3 C-48.06 341.56 -48.06 340.83 -48.06 340.07 C-48.06 316.22 -48.07 292.37 -48.08 268.52 C-48.09 244 -48.09 219.48 -48.09 194.95 C-48.09 191.49 -48.09 188.03 -48.09 184.56 C-48.09 183.88 -48.1 183.2 -48.1 182.49 C-48.1 171.53 -48.1 160.56 -48.11 149.6 C-48.11 138.57 -48.11 127.54 -48.11 116.52 C-48.11 110.54 -48.11 104.57 -48.12 98.6 C-48.12 93.13 -48.12 87.66 -48.12 82.19 C-48.12 80.21 -48.12 78.24 -48.12 76.26 C-48.17 48.75 -48.17 48.75 -45 44 C-44.62 42.68 -44.3 41.34 -44 40 C-43.4 37.65 -42.74 35.31 -42 33 C-41.01 32.5 -41.01 32.5 -40 32 C-39.12 30.53 -38.29 29.02 -37.5 27.5 C-35.22 23.11 -35.22 23.11 -33 22 C-30.82 19.32 -30.82 19.32 -31 17 C-29.68 17 -28.36 17 -27 17 C-26.81 16.44 -26.63 15.89 -26.44 15.31 C-22.79 9.44 -14.53 5.21 -7.96 3.46 C-7.32 3.31 -6.67 3.16 -6 3 C-4 2.34 -2 1.68 0 1 C0 0.67 0 0.34 0 0 Z M80 64 C81 66 81 66 81 66 Z M65 587 C65.33 587.99 65.66 588.98 66 590 C66.66 589.67 67.32 589.34 68 589 C68 588.34 68 587.68 68 587 C67.01 587 66.02 587 65 587 Z M3 611 C2.67 611.66 2.34 612.32 2 613 C2.66 613 3.32 613 4 613 C3.67 612.34 3.34 611.68 3 611 Z " fill="#000002" transform="translate(504,327)"/>
<path d="M0 0 C0.33 0 0.66 0 1 0 C1 159.72 1 319.44 1 484 C0.67 484 0.34 484 0 484 C0 324.28 0 164.56 0 0 Z " fill="#000002" transform="translate(454,391)"/>
<path d="M0 0 C0.33 0 0.66 0 1 0 C1 3.3 1 6.6 1 10 C0.67 10 0.34 10 0 10 C0 6.7 0 3.4 0 0 Z " fill="#FDFDFD" transform="translate(105,681)"/>
<path d="M0 0 C0.33 0 0.66 0 1 0 C1 3.3 1 6.6 1 10 C0.67 10 0.34 10 0 10 C0 6.7 0 3.4 0 0 Z " fill="#FDFDFD" transform="translate(105,589)"/>
<path d="M0 0 C3.3 0 6.6 0 10 0 C10 0.33 10 0.66 10 1 C6.7 1 3.4 1 0 1 C0 0.67 0 0.34 0 0 Z " fill="#FDFDFD" transform="translate(681,105)"/>
<path d="M0 0 C3.3 0 6.6 0 10 0 C10 0.33 10 0.66 10 1 C6.7 1 3.4 1 0 1 C0 0.67 0 0.34 0 0 Z " fill="#FDFDFD" transform="translate(589,105)"/>
<path d="M0 0 C0.33 0 0.66 0 1 0 C1 1.98 1 3.96 1 6 C0.67 6 0.34 6 0 6 C0 4.02 0 2.04 0 0 Z " fill="#FDFDFD" transform="translate(585,881)"/>
<path d="M0 0 C0.33 0 0.66 0 1 0 C1 1.98 1 3.96 1 6 C0.67 6 0.34 6 0 6 C0 4.02 0 2.04 0 0 Z " fill="#FDFDFD" transform="translate(585,382)"/>
<path d="M0 0 C1.65 0 3.3 0 5 0 C5 0.33 5 0.66 5 1 C3.35 1 1.7 1 0 1 C0 0.67 0 0.34 0 0 Z " fill="#FDFDFD" transform="translate(721,1275)"/>
<path d="M0 0 C1.65 0 3.3 0 5 0 C5 0.33 5 0.66 5 1 C3.35 1 1.7 1 0 1 C0 0.67 0 0.34 0 0 Z " fill="#FDFDFD" transform="translate(554,1275)"/>
<path d="M0 0 C0.33 0 0.66 0 1 0 C1 1.65 1 3.3 1 5 C0.67 5 0.34 5 0 5 C0 3.35 0 1.7 0 0 Z " fill="#FDFDFD" transform="translate(1275,721)"/>
<path d="M0 0 C1 4 1 4 1 4 Z " fill="#FDFDFD" transform="translate(110,551)"/>
<path d="M0 0 C4 1 4 1 4 1 Z " fill="#FDFDFD" transform="translate(725,110)"/>
<path d="M0 0 C4 1 4 1 4 1 Z " fill="#FDFDFD" transform="translate(551,110)"/>
<path d="M0 0 C3 1 3 1 3 1 Z " fill="#FDFDFD" transform="translate(754,1270)"/>
<path d="M0 0 C3 1 3 1 3 1 Z " fill="#FDFDFD" transform="translate(523,1270)"/>
<path d="M0 0 C3 1 3 1 3 1 Z " fill="#FDFDFD" transform="translate(779,1265)"/>
<path d="M0 0 C3 1 3 1 3 1 Z " fill="#FDFDFD" transform="translate(498,1265)"/>
<path d="M0 0 C0.99 0.49 0.99 0.49 2 1 C1.01 1.49 1.01 1.49 0 2 C0 1.34 0 0.68 0 0 Z " fill="#000002" transform="translate(983,1049)"/>
<path d="M0 0 C0.99 0.49 0.99 0.49 2 1 C1.01 1.49 1.01 1.49 0 2 C0 1.34 0 0.68 0 0 Z " fill="#000002" transform="translate(985,1047)"/>
<path d="M0 0 C0.66 0.66 1.32 1.32 2 2 C1.34 2 0.68 2 0 2 C0 1.34 0 0.68 0 0 Z " fill="#7A797B" transform="translate(990,1040)"/>
<path d="M0 0 C0.99 0.5 0.99 0.5 2 1 C1.01 1.5 1.01 1.5 0 2 C0 1.34 0 0.68 0 0 Z " fill="#000002" transform="translate(1047,985)"/>
<path d="M0 0 C0.99 0.5 0.99 0.5 2 1 C1.01 1.5 1.01 1.5 0 2 C0 1.34 0 0.68 0 0 Z " fill="#000002" transform="translate(1049,983)"/>
<path d="" fill="#FDFDFD" transform="translate(0,0)"/>
<path d="" fill="#FDFDFD" transform="translate(0,0)"/>
<path d="" fill="#FDFDFD" transform="translate(0,0)"/>
<path d="" fill="#FDFDFD" transform="translate(0,0)"/>
<path d="" fill="#FDFDFD" transform="translate(0,0)"/>
<path d="" fill="#FDFDFD" transform="translate(0,0)"/>
<path d="M0 0 C0.66 0.66 1.32 1.32 2 2 C1.34 2 0.68 2 0 2 C0 1.34 0 0.68 0 0 Z " fill="#7A797B" transform="translate(475,340)"/>
<path d="M0 0 C3 1 3 1 3 1 Z " fill="#FDFDFD" transform="translate(751,115)"/>
<path d="M0 0 C3 1 3 1 3 1 Z " fill="#FDFDFD" transform="translate(526,115)"/>
<path d="M0 0 C2 1 2 1 2 1 Z " fill="#000002" transform="translate(370,1102)"/>
<path d="M0 0 C2 1 2 1 2 1 Z " fill="#000002" transform="translate(934,1084)"/>
<path d="" fill="#000002" transform="translate(0,0)"/>
<path d="M0 0 C2 1 2 1 2 1 Z " fill="#FDFDFD" transform="translate(759,940)"/>
<path d="" fill="#000002" transform="translate(0,0)"/>
<path d="" fill="#FDFDFD" transform="translate(0,0)"/>
<path d="" fill="#FDFDFD" transform="translate(0,0)"/>
<path d="" fill="#FDFDFD" transform="translate(0,0)"/>
<path d="M0 0 C2 1 2 1 2 1 Z " fill="#000002" transform="translate(801,330)"/>
<path d="" fill="#000002" transform="translate(0,0)"/>
<path d="" fill="#000002" transform="translate(0,0)"/>
<path d="M0 0 C2 1 2 1 2 1 Z " fill="#000002" transform="translate(217,154)"/>
<path d="M0 0 C2 1 2 1 2 1 Z " fill="#000002" transform="translate(234,139)"/>
<path d="M0 0 C2 1 2 1 2 1 Z " fill="#FDFDFD" transform="translate(807,130)"/>
<path d="M0 0 C2 1 2 1 2 1 Z " fill="#FDFDFD" transform="translate(471,130)"/>
<path d="M0 0 C2 1 2 1 2 1 Z " fill="#3D3C3E" transform="translate(274,109)"/>
<path d="" fill="#FDFDFD" transform="translate(0,0)"/>
<path d="" fill="#FDFDFD" transform="translate(0,0)"/>
<path d="" fill="#FDFDFD" transform="translate(0,0)"/>
<path d="" fill="#FDFDFD" transform="translate(0,0)"/>
<path d="" fill="#000002" transform="translate(0,0)"/>
<path d="" fill="#000002" transform="translate(0,0)"/>
<path d="" fill="#000002" transform="translate(0,0)"/>
<path d="" fill="#000002" transform="translate(0,0)"/>
<path d="" fill="#000002" transform="translate(0,0)"/>
<path d="" fill="#000002" transform="translate(0,0)"/>
<path d="" fill="#000002" transform="translate(0,0)"/>
<path d="" fill="#000002" transform="translate(0,0)"/>
<path d="" fill="#000002" transform="translate(0,0)"/>
<path d="" fill="#000002" transform="translate(0,0)"/>
<path d="" fill="#000002" transform="translate(0,0)"/>
<path d="" fill="#000002" transform="translate(0,0)"/>
<path d="" fill="#000002" transform="translate(0,0)"/>
<path d="" fill="#000002" transform="translate(0,0)"/>
<path d="" fill="#000002" transform="translate(0,0)"/>
<path d="" fill="#000002" transform="translate(0,0)"/>
<path d="" fill="#000002" transform="translate(0,0)"/>
<path d="" fill="#000002" transform="translate(0,0)"/>
<path d="" fill="#000002" transform="translate(0,0)"/>
<path d="" fill="#000002" transform="translate(0,0)"/>
<path d="" fill="#000002" transform="translate(0,0)"/>
<path d="" fill="#000002" transform="translate(0,0)"/>
<path d="" fill="#000002" transform="translate(0,0)"/>
<path d="" fill="#000002" transform="translate(0,0)"/>
<path d="" fill="#000002" transform="translate(0,0)"/>
<path d="" fill="#000002" transform="translate(0,0)"/>
<path d="" fill="#000002" transform="translate(0,0)"/>
<path d="" fill="#7A797B" transform="translate(0,0)"/>
<path d="" fill="#000002" transform="translate(0,0)"/>
<path d="" fill="#000002" transform="translate(0,0)"/>
<path d="" fill="#000002" transform="translate(0,0)"/>
<path d="" fill="#000002" transform="translate(0,0)"/>
<path d="" fill="#000002" transform="translate(0,0)"/>
<path d="" fill="#000002" transform="translate(0,0)"/>
<path d="" fill="#000002" transform="translate(0,0)"/>
<path d="" fill="#000002" transform="translate(0,0)"/>
<path d="" fill="#000002" transform="translate(0,0)"/>
<path d="" fill="#000002" transform="translate(0,0)"/>
<path d="" fill="#000002" transform="translate(0,0)"/>
<path d="" fill="#000002" transform="translate(0,0)"/>
<path d="" fill="#000002" transform="translate(0,0)"/>
<path d="" fill="#000002" transform="translate(0,0)"/>
<path d="" fill="#000002" transform="translate(0,0)"/>
<path d="" fill="#000002" transform="translate(0,0)"/>
<path d="" fill="#000002" transform="translate(0,0)"/>
<path d="" fill="#000002" transform="translate(0,0)"/>
<path d="" fill="#000002" transform="translate(0,0)"/>
<path d="" fill="#000002" transform="translate(0,0)"/>
<path d="" fill="#000002" transform="translate(0,0)"/>
<path d="" fill="#7A797B" transform="translate(0,0)"/>
<path d="" fill="#000002" transform="translate(0,0)"/>
<path d="" fill="#000002" transform="translate(0,0)"/>
<path d="" fill="#000002" transform="translate(0,0)"/>
<path d="" fill="#7A797B" transform="translate(0,0)"/>
<path d="" fill="#000002" transform="translate(0,0)"/>
<path d="" fill="#000002" transform="translate(0,0)"/>
<path d="" fill="#000002" transform="translate(0,0)"/>
<path d="" fill="#7A797B" transform="translate(0,0)"/>
<path d="" fill="#000002" transform="translate(0,0)"/>
<path d="" fill="#FDFDFD" transform="translate(0,0)"/>
<path d="" fill="#000002" transform="translate(0,0)"/>
<path d="" fill="#000002" transform="translate(0,0)"/>
<path d="" fill="#000002" transform="translate(0,0)"/>
<path d="" fill="#7A797B" transform="translate(0,0)"/>
<path d="" fill="#000002" transform="translate(0,0)"/>
<path d="" fill="#000002" transform="translate(0,0)"/>
<path d="" fill="#000002" transform="translate(0,0)"/>
<path d="" fill="#7A797B" transform="translate(0,0)"/>
<path d="" fill="#000002" transform="translate(0,0)"/>
<path d="" fill="#000002" transform="translate(0,0)"/>
<path d="" fill="#000002" transform="translate(0,0)"/>
<path d="" fill="#000002" transform="translate(0,0)"/>
<path d="" fill="#000002" transform="translate(0,0)"/>
<path d="" fill="#000002" transform="translate(0,0)"/>
<path d="" fill="#000002" transform="translate(0,0)"/>
<path d="" fill="#000002" transform="translate(0,0)"/>
<path d="" fill="#000002" transform="translate(0,0)"/>
<path d="" fill="#000002" transform="translate(0,0)"/>
<path d="" fill="#000002" transform="translate(0,0)"/>
<path d="" fill="#000002" transform="translate(0,0)"/>
<path d="" fill="#FDFDFD" transform="translate(0,0)"/>
<path d="" fill="#000002" transform="translate(0,0)"/>
<path d="" fill="#000002" transform="translate(0,0)"/>
<path d="" fill="#FDFDFD" transform="translate(0,0)"/>
<path d="" fill="#000002" transform="translate(0,0)"/>
<path d="" fill="#000002" transform="translate(0,0)"/>
<path d="" fill="#000002" transform="translate(0,0)"/>
<path d="" fill="#FDFDFD" transform="translate(0,0)"/>
<path d="" fill="#000002" transform="translate(0,0)"/>
<path d="" fill="#FDFDFD" transform="translate(0,0)"/>
<path d="" fill="#000002" transform="translate(0,0)"/>
<path d="" fill="#FDFDFD" transform="translate(0,0)"/>
<path d="" fill="#FDFDFD" transform="translate(0,0)"/>
<path d="" fill="#000002" transform="translate(0,0)"/>
<path d="" fill="#FDFDFD" transform="translate(0,0)"/>
<path d="" fill="#000002" transform="translate(0,0)"/>
<path d="" fill="#000002" transform="translate(0,0)"/>
<path d="" fill="#000002" transform="translate(0,0)"/>
<path d="" fill="#000002" transform="translate(0,0)"/>
<path d="" fill="#000002" transform="translate(0,0)"/>
<path d="" fill="#000002" transform="translate(0,0)"/>
<path d="" fill="#000002" transform="translate(0,0)"/>
<path d="" fill="#000002" transform="translate(0,0)"/>
<path d="" fill="#FDFDFD" transform="translate(0,0)"/>
<path d="" fill="#000002" transform="translate(0,0)"/>
<path d="" fill="#7A797B" transform="translate(0,0)"/>
<path d="" fill="#000002" transform="translate(0,0)"/>
<path d="" fill="#000002" transform="translate(0,0)"/>
<path d="" fill="#000002" transform="translate(0,0)"/>
<path d="" fill="#000002" transform="translate(0,0)"/>
<path d="" fill="#000002" transform="translate(0,0)"/>
<path d="" fill="#000002" transform="translate(0,0)"/>
<path d="" fill="#000002" transform="translate(0,0)"/>
<path d="" fill="#000002" transform="translate(0,0)"/>
<path d="" fill="#7A797B" transform="translate(0,0)"/>
<path d="" fill="#000002" transform="translate(0,0)"/>
<path d="" fill="#000002" transform="translate(0,0)"/>
<path d="" fill="#000002" transform="translate(0,0)"/>
<path d="" fill="#000002" transform="translate(0,0)"/>
<path d="" fill="#000002" transform="translate(0,0)"/>
<path d="" fill="#000002" transform="translate(0,0)"/>
<path d="" fill="#000002" transform="translate(0,0)"/>
<path d="" fill="#000002" transform="translate(0,0)"/>
<path d="" fill="#000002" transform="translate(0,0)"/>
<path d="" fill="#7A797B" transform="translate(0,0)"/>
<path d="" fill="#000002" transform="translate(0,0)"/>
<path d="" fill="#000002" transform="translate(0,0)"/>
<path d="" fill="#000002" transform="translate(0,0)"/>
<path d="" fill="#000002" transform="translate(0,0)"/>
<path d="" fill="#7A797B" transform="translate(0,0)"/>
<path d="" fill="#7A797B" transform="translate(0,0)"/>
<path d="" fill="#7A797B" transform="translate(0,0)"/>
<path d="" fill="#000002" transform="translate(0,0)"/>
<path d="" fill="#7A797B" transform="translate(0,0)"/>
<path d="" fill="#7A797B" transform="translate(0,0)"/>
<path d="" fill="#7A797B" transform="translate(0,0)"/>
<path d="" fill="#000002" transform="translate(0,0)"/>
<path d="" fill="#7A797B" transform="translate(0,0)"/>
<path d="" fill="#000002" transform="translate(0,0)"/>
<path d="" fill="#000002" transform="translate(0,0)"/>
<path d="" fill="#000002" transform="translate(0,0)"/>
<path d="" fill="#7A797B" transform="translate(0,0)"/>
<path d="" fill="#000002" transform="translate(0,0)"/>
<path d="" fill="#000002" transform="translate(0,0)"/>
<path d="" fill="#000002" transform="translate(0,0)"/>
<path d="" fill="#000002" transform="translate(0,0)"/>
<path d="" fill="#000002" transform="translate(0,0)"/>
<path d="" fill="#000002" transform="translate(0,0)"/>
<path d="" fill="#000002" transform="translate(0,0)"/>
<path d="" fill="#7A797B" transform="translate(0,0)"/>
<path d="" fill="#7A797B" transform="translate(0,0)"/>
<path d="" fill="#000002" transform="translate(0,0)"/>
<path d="" fill="#000002" transform="translate(0,0)"/>
<path d="" fill="#000002" transform="translate(0,0)"/>
<path d="" fill="#7A797B" transform="translate(0,0)"/>
<path d="" fill="#7A797B" transform="translate(0,0)"/>
<path d="" fill="#000002" transform="translate(0,0)"/>
<path d="" fill="#000002" transform="translate(0,0)"/>
<path d="" fill="#000002" transform="translate(0,0)"/>
<path d="" fill="#000002" transform="translate(0,0)"/>
<path d="" fill="#000002" transform="translate(0,0)"/>
<path d="" fill="#FDFDFD" transform="translate(0,0)"/>
<path d="" fill="#FDFDFD" transform="translate(0,0)"/>
<path d="" fill="#FDFDFD" transform="translate(0,0)"/>
<path d="" fill="#FDFDFD" transform="translate(0,0)"/>
<path d="" fill="#000002" transform="translate(0,0)"/>
<path d="" fill="#000002" transform="translate(0,0)"/>
<path d="" fill="#000002" transform="translate(0,0)"/>
<path d="" fill="#000002" transform="translate(0,0)"/>
<path d="" fill="#000002" transform="translate(0,0)"/>
<path d="" fill="#000002" transform="translate(0,0)"/>
<path d="" fill="#000002" transform="translate(0,0)"/>
<path d="" fill="#000002" transform="translate(0,0)"/>
<path d="" fill="#FDFDFD" transform="translate(0,0)"/>
<path d="" fill="#FDFDFD" transform="translate(0,0)"/>
<path d="" fill="#000002" transform="translate(0,0)"/>
<path d="" fill="#000002" transform="translate(0,0)"/>
<path d="" fill="#000002" transform="translate(0,0)"/>
<path d="" fill="#000002" transform="translate(0,0)"/>
<path d="" fill="#000002" transform="translate(0,0)"/>
<path d="" fill="#000002" transform="translate(0,0)"/>
<path d="" fill="#000002" transform="translate(0,0)"/>
<path d="" fill="#000002" transform="translate(0,0)"/>
<path d="" fill="#000002" transform="translate(0,0)"/>
<path d="" fill="#000002" transform="translate(0,0)"/>
<path d="" fill="#000002" transform="translate(0,0)"/>
<path d="" fill="#000002" transform="translate(0,0)"/>
<path d="" fill="#000002" transform="translate(0,0)"/>
<path d="" fill="#000002" transform="translate(0,0)"/>
<path d="" fill="#000002" transform="translate(0,0)"/>
<path d="" fill="#000002" transform="translate(0,0)"/>
<path d="" fill="#000002" transform="translate(0,0)"/>
<path d="" fill="#000002" transform="translate(0,0)"/>
<path d="" fill="#000002" transform="translate(0,0)"/>
<path d="" fill="#000002" transform="translate(0,0)"/>
<path d="" fill="#000002" transform="translate(0,0)"/>
<path d="" fill="#000002" transform="translate(0,0)"/>
<path d="" fill="#000002" transform="translate(0,0)"/>
<path d="" fill="#000002" transform="translate(0,0)"/>
<path d="" fill="#000002" transform="translate(0,0)"/>
<path d="" fill="#000002" transform="translate(0,0)"/>
</svg>
