<?xml version="1.0" encoding="UTF-8"?>
<!-- Generator: visioncortex VTracer 0.6.3 -->
<svg version="1.1" xmlns="http://www.w3.org/2000/svg" width="1280" height="1280">
<path d="M0 0 C5.23 3.9 9.92 8.52 13.75 13.81 C13.75 14.8 13.75 15.79 13.75 16.81 C14.41 16.81 15.07 16.81 15.75 16.81 C19.12 23.25 21 28.47 21 35.78 C21 36.46 21 37.14 21.01 37.84 C21.01 40.11 21.01 42.39 21 44.67 C21 46.32 21 47.97 21 49.62 C21.01 54.15 21 58.68 21 63.21 C20.99 68.1 21 72.99 21 77.87 C21 87.45 21 97.02 20.99 106.59 C20.98 117.73 20.98 128.88 20.98 140.02 C20.98 159.89 20.97 179.76 20.96 199.63 C20.94 218.92 20.93 238.22 20.94 257.52 C20.94 258.71 20.94 259.9 20.94 261.12 C20.94 262.31 20.94 263.5 20.94 264.72 C20.94 286.67 20.93 308.62 20.92 330.57 C20.92 338.34 20.92 346.12 20.92 353.89 C20.92 363.36 20.91 372.82 20.9 382.28 C20.9 387.12 20.89 391.95 20.9 396.78 C20.9 401.2 20.89 405.62 20.89 410.03 C20.88 411.64 20.88 413.24 20.89 414.85 C20.89 417.02 20.88 419.18 20.88 421.35 C20.88 423.16 20.88 423.16 20.88 425.01 C20.75 427.81 20.75 427.81 19.75 429.81 C19.62 431.54 19.52 433.27 19.44 435 C18.97 441.27 17.5 446.98 15.79 453.01 C14.79 456.68 13.99 460.33 13.25 464.06 C12.17 469.28 10.71 474.12 8.79 479.09 C7.66 482.05 6.71 485.04 5.75 488.06 C4.65 491.39 3.56 494.43 1.75 497.44 C0.1 500.22 -1.04 502.69 -2.19 505.69 C-5.23 513.52 -9.62 520.52 -14.02 527.65 C-15.38 529.88 -15.38 529.88 -16.25 532.81 C-16.91 532.81 -17.57 532.81 -18.25 532.81 C-18.41 533.67 -18.41 533.67 -18.57 534.55 C-19.36 537.17 -20.5 538.84 -22.12 541.04 C-22.98 542.21 -22.98 542.21 -23.86 543.42 C-24.46 544.23 -25.07 545.04 -25.69 545.88 C-26.87 547.49 -28.06 549.11 -29.25 550.72 C-30.04 551.79 -30.04 551.79 -30.85 552.88 C-32.02 554.5 -33.14 556.15 -34.25 557.81 C-34.91 557.81 -35.57 557.81 -36.25 557.81 C-36.48 558.53 -36.7 559.26 -36.94 560 C-38.22 562.74 -39.59 564.23 -41.73 566.31 C-43.46 568.02 -45.09 569.79 -46.73 571.58 C-47.64 572.57 -47.64 572.57 -48.57 573.58 C-49.83 574.96 -51.09 576.34 -52.34 577.72 C-52.94 578.38 -53.55 579.03 -54.17 579.71 C-54.71 580.3 -55.26 580.9 -55.82 581.51 C-57.25 582.81 -57.25 582.81 -59.25 582.81 C-59.25 583.47 -59.25 584.13 -59.25 584.81 C-60.71 586.32 -60.71 586.32 -62.62 587.94 C-63.56 588.75 -63.56 588.75 -64.52 589.57 C-66.25 590.81 -66.25 590.81 -68.25 590.81 C-68.25 591.47 -68.25 592.13 -68.25 592.81 C-71.71 595.81 -71.71 595.81 -74.25 595.81 C-74.25 596.47 -74.25 597.13 -74.25 597.81 C-75.94 599.23 -75.94 599.23 -78.31 600.86 C-79.17 601.46 -80.03 602.06 -80.92 602.67 C-81.83 603.3 -82.75 603.92 -83.69 604.56 C-84.57 605.17 -85.44 605.78 -86.35 606.41 C-88.98 608.22 -91.61 610.02 -94.25 611.81 C-95.07 612.37 -95.88 612.93 -96.72 613.5 C-100.65 616.16 -104.52 618.63 -108.81 620.69 C-112.26 622.36 -115.71 624.04 -119.12 625.79 C-126.39 629.52 -133.62 632.91 -141.31 635.73 C-143.97 636.71 -146.57 637.77 -149.19 638.88 C-155.39 641.37 -161.81 643.05 -168.25 644.81 C-169.25 645.1 -170.25 645.4 -171.27 645.7 C-176.26 647.13 -180.99 648.12 -186.16 648.57 C-188.52 648.79 -188.52 648.79 -191.81 649.75 C-206.99 653.66 -222.74 653.11 -238.28 653.09 C-241.82 653.09 -245.36 653.1 -248.9 653.11 C-255.09 653.12 -261.28 653.13 -267.47 653.13 C-276.67 653.13 -285.88 653.14 -295.08 653.16 C-310.57 653.18 -326.06 653.2 -341.54 653.21 C-356.87 653.22 -372.19 653.23 -387.52 653.25 C-388.95 653.26 -388.95 653.26 -390.41 653.26 C-395.26 653.26 -400.1 653.27 -404.95 653.28 C-439.24 653.32 -473.54 653.36 -507.83 653.39 C-541.14 653.42 -574.45 653.46 -607.76 653.5 C-608.78 653.5 -609.81 653.5 -610.87 653.5 C-621.19 653.51 -631.5 653.52 -641.82 653.54 C-662.84 653.56 -683.85 653.59 -704.87 653.61 C-705.83 653.61 -706.8 653.61 -707.79 653.61 C-772.28 653.69 -836.76 653.75 -901.25 653.81 C-900.51 654.49 -900.51 654.49 -899.75 655.19 C-898.25 656.81 -898.25 656.81 -898.25 658.81 C-897.59 658.81 -896.93 658.81 -896.25 658.81 C-894.62 660.19 -894.62 660.19 -893.25 661.81 C-893.25 662.47 -893.25 663.13 -893.25 663.81 C-892.59 663.81 -891.93 663.81 -891.25 663.81 C-889.62 665.19 -889.62 665.19 -888.25 666.81 C-888.25 667.47 -888.25 668.13 -888.25 668.81 C-887.59 668.81 -886.93 668.81 -886.25 668.81 C-884.62 670.19 -884.62 670.19 -883.25 671.81 C-883.25 672.47 -883.25 673.13 -883.25 673.81 C-882.59 673.81 -881.93 673.81 -881.25 673.81 C-879.62 675.19 -879.62 675.19 -878.25 676.81 C-878.25 677.47 -878.25 678.13 -878.25 678.81 C-877.59 678.81 -876.93 678.81 -876.25 678.81 C-874.62 680.19 -874.62 680.19 -873.25 681.81 C-873.25 682.47 -873.25 683.13 -873.25 683.81 C-872.59 683.81 -871.93 683.81 -871.25 683.81 C-869.62 685.19 -869.62 685.19 -868.25 686.81 C-868.25 687.47 -868.25 688.13 -868.25 688.81 C-867.59 688.81 -866.93 688.81 -866.25 688.81 C-864.62 690.19 -864.62 690.19 -863.25 691.81 C-863.25 692.47 -863.25 693.13 -863.25 693.81 C-862.59 693.81 -861.93 693.81 -861.25 693.81 C-859.62 695.19 -859.62 695.19 -858.25 696.81 C-858.25 697.47 -858.25 698.13 -858.25 698.81 C-857.59 698.81 -856.93 698.81 -856.25 698.81 C-854.62 700.19 -854.62 700.19 -853.25 701.81 C-853.25 702.47 -853.25 703.13 -853.25 703.81 C-852.59 703.81 -851.93 703.81 -851.25 703.81 C-849.62 705.19 -849.62 705.19 -848.25 706.81 C-848.25 707.47 -848.25 708.13 -848.25 708.81 C-847.59 708.81 -846.93 708.81 -846.25 708.81 C-844.62 710.19 -844.62 710.19 -843.25 711.81 C-843.25 712.47 -843.25 713.13 -843.25 713.81 C-842.59 713.81 -841.93 713.81 -841.25 713.81 C-839.62 715.19 -839.62 715.19 -838.25 716.81 C-838.25 717.47 -838.25 718.13 -838.25 718.81 C-837.59 718.81 -836.93 718.81 -836.25 718.81 C-834.56 720.46 -834.56 720.46 -832.69 722.62 C-832.07 723.33 -831.45 724.04 -830.81 724.77 C-829.25 726.81 -829.25 726.81 -828.25 729.81 C-827.59 729.81 -826.93 729.81 -826.25 729.81 C-825.47 731.1 -824.7 732.39 -823.94 733.69 C-823.51 734.41 -823.08 735.13 -822.64 735.87 C-819 743.58 -817.76 750.83 -817.88 759.31 C-817.86 760.19 -817.85 761.06 -817.84 761.96 C-817.88 770.62 -820.06 778.23 -824.25 785.81 C-824.91 785.81 -825.57 785.81 -826.25 785.81 C-826.44 786.71 -826.44 786.71 -826.62 787.62 C-827.25 789.81 -827.25 789.81 -829.25 792.81 C-829.91 792.81 -830.57 792.81 -831.25 792.81 C-831.65 793.77 -831.65 793.77 -832.06 794.75 C-833.25 796.81 -833.25 796.81 -836.25 797.81 C-836.25 798.47 -836.25 799.13 -836.25 799.81 C-842.54 804.59 -849.77 807.48 -857.25 809.81 C-857.87 810.01 -858.49 810.2 -859.13 810.4 C-872.92 813.07 -886.93 809.89 -898.47 802.13 C-905.21 797.13 -910.97 790.76 -916.86 784.81 C-918.5 783.18 -920.14 781.55 -921.78 779.91 C-926.21 775.5 -930.62 771.08 -935.02 766.64 C-939.65 762 -944.29 757.37 -948.92 752.73 C-956.7 744.96 -964.47 737.17 -972.23 729.37 C-980.2 721.37 -988.19 713.37 -996.18 705.38 C-1005.84 695.73 -1015.49 686.08 -1025.13 676.41 C-1028.8 672.73 -1032.48 669.05 -1036.16 665.37 C-1040.49 661.04 -1044.82 656.7 -1049.13 652.36 C-1050.72 650.77 -1052.3 649.18 -1053.89 647.59 C-1056.07 645.43 -1058.23 643.25 -1060.39 641.07 C-1061.02 640.45 -1061.64 639.82 -1062.29 639.18 C-1073.79 627.51 -1077.69 615.02 -1077.69 598.93 C-1077.54 590.84 -1076.63 584.75 -1072.25 577.81 C-1071.64 576.84 -1071.64 576.84 -1071.02 575.85 C-1067.54 570.42 -1063.72 565.85 -1059.15 561.32 C-1058.46 560.63 -1057.77 559.93 -1057.05 559.21 C-1054.76 556.9 -1052.45 554.6 -1050.14 552.3 C-1048.48 550.63 -1046.82 548.97 -1045.16 547.3 C-1040.68 542.79 -1036.18 538.3 -1031.68 533.8 C-1027.44 529.57 -1023.2 525.32 -1018.97 521.08 C-1010.07 512.17 -1001.16 503.27 -992.25 494.37 C-984.11 486.24 -975.99 478.1 -967.87 469.96 C-959.51 461.58 -951.15 453.21 -942.78 444.84 C-938.08 440.15 -933.39 435.46 -928.71 430.76 C-924.31 426.34 -919.89 421.93 -915.47 417.53 C-913.86 415.92 -912.24 414.3 -910.63 412.68 C-897.83 399.8 -886.26 388.48 -867.04 388.4 C-865.66 388.42 -865.66 388.42 -864.25 388.44 C-863.33 388.43 -862.41 388.41 -861.46 388.4 C-847.47 388.46 -836.85 394.23 -826.81 403.81 C-815.85 415.48 -812.82 428.59 -813.04 444.11 C-813.46 457.08 -820.29 468.64 -829.25 477.81 C-829.91 477.81 -830.57 477.81 -831.25 477.81 C-831.25 478.47 -831.25 479.13 -831.25 479.81 C-832.62 481.44 -832.62 481.44 -834.25 482.81 C-834.91 482.81 -835.57 482.81 -836.25 482.81 C-836.25 483.47 -836.25 484.13 -836.25 484.81 C-837.62 486.44 -837.62 486.44 -839.25 487.81 C-839.91 487.81 -840.57 487.81 -841.25 487.81 C-841.25 488.47 -841.25 489.13 -841.25 489.81 C-842.62 491.44 -842.62 491.44 -844.25 492.81 C-844.91 492.81 -845.57 492.81 -846.25 492.81 C-846.25 493.47 -846.25 494.13 -846.25 494.81 C-847.62 496.44 -847.62 496.44 -849.25 497.81 C-849.91 497.81 -850.57 497.81 -851.25 497.81 C-851.25 498.47 -851.25 499.13 -851.25 499.81 C-852.62 501.44 -852.62 501.44 -854.25 502.81 C-854.91 502.81 -855.57 502.81 -856.25 502.81 C-856.25 503.47 -856.25 504.13 -856.25 504.81 C-857.62 506.44 -857.62 506.44 -859.25 507.81 C-859.91 507.81 -860.57 507.81 -861.25 507.81 C-861.25 508.47 -861.25 509.13 -861.25 509.81 C-862.62 511.44 -862.62 511.44 -864.25 512.81 C-864.91 512.81 -865.57 512.81 -866.25 512.81 C-866.25 513.47 -866.25 514.13 -866.25 514.81 C-867.62 516.44 -867.62 516.44 -869.25 517.81 C-869.91 517.81 -870.57 517.81 -871.25 517.81 C-871.25 518.47 -871.25 519.13 -871.25 519.81 C-872.62 521.44 -872.62 521.44 -874.25 522.81 C-874.91 522.81 -875.57 522.81 -876.25 522.81 C-876.25 523.47 -876.25 524.13 -876.25 524.81 C-877.62 526.44 -877.62 526.44 -879.25 527.81 C-879.91 527.81 -880.57 527.81 -881.25 527.81 C-881.25 528.47 -881.25 529.13 -881.25 529.81 C-882.62 531.44 -882.62 531.44 -884.25 532.81 C-884.91 532.81 -885.57 532.81 -886.25 532.81 C-886.25 533.47 -886.25 534.13 -886.25 534.81 C-887.62 536.44 -887.62 536.44 -889.25 537.81 C-889.91 537.81 -890.57 537.81 -891.25 537.81 C-891.25 538.47 -891.25 539.13 -891.25 539.81 C-892.62 541.44 -892.62 541.44 -894.25 542.81 C-894.91 542.81 -895.57 542.81 -896.25 542.81 C-896.25 543.47 -896.25 544.13 -896.25 544.81 C-897.62 546.44 -897.62 546.44 -899.25 547.81 C-899.91 547.81 -900.57 547.81 -901.25 547.81 C-901.25 548.8 -901.25 549.79 -901.25 550.81 C-837.29 550.75 -773.33 550.69 -709.37 550.61 C-708.42 550.61 -707.47 550.61 -706.5 550.61 C-685.91 550.58 -665.32 550.56 -644.73 550.53 C-634.63 550.52 -624.54 550.51 -614.44 550.5 C-613.43 550.49 -612.43 550.49 -611.39 550.49 C-578.85 550.45 -546.31 550.42 -513.76 550.39 C-480.31 550.36 -446.86 550.32 -413.4 550.27 C-408.67 550.27 -403.94 550.26 -399.21 550.25 C-397.82 550.25 -397.82 550.25 -396.39 550.25 C-381.43 550.23 -366.47 550.22 -351.52 550.21 C-336.46 550.2 -321.41 550.18 -306.36 550.15 C-297.42 550.14 -288.49 550.13 -279.55 550.13 C-273.57 550.13 -267.59 550.12 -261.61 550.1 C-258.21 550.1 -254.81 550.09 -251.41 550.09 C-222.51 550.22 -222.51 550.22 -194.25 544.81 C-192.61 544.4 -192.61 544.4 -190.95 543.98 C-178.15 540.64 -166.83 535.05 -155.64 528.1 C-153.25 526.81 -153.25 526.81 -150.25 526.81 C-150.25 526.15 -150.25 525.49 -150.25 524.81 C-148.77 523.73 -148.77 523.73 -146.62 522.44 C-141.29 519.04 -136.66 514.97 -131.95 510.78 C-127.45 506.81 -127.45 506.81 -125.25 506.81 C-124.98 506.24 -124.71 505.66 -124.44 505.06 C-123.22 502.76 -121.95 500.79 -120.25 498.81 C-119.59 498.81 -118.93 498.81 -118.25 498.81 C-117.96 498.21 -117.67 497.62 -117.38 497 C-116.25 494.81 -116.25 494.81 -114.25 491.81 C-113.59 491.81 -112.93 491.81 -112.25 491.81 C-111.99 491.09 -111.73 490.36 -111.46 489.61 C-110.22 486.75 -108.77 484.52 -106.94 482 C-101.58 474.47 -97.51 467.48 -94.25 458.81 C-93.59 457.17 -92.92 455.52 -92.25 453.88 C-84.18 433.6 -80.93 414.35 -80.99 392.61 C-80.99 391.05 -80.99 389.5 -80.98 387.94 C-80.97 383.73 -80.97 379.51 -80.98 375.3 C-80.98 370.73 -80.97 366.16 -80.96 361.6 C-80.95 353.7 -80.95 345.8 -80.95 337.9 C-80.94 326.47 -80.93 315.04 -80.91 303.61 C-80.88 285.05 -80.85 266.48 -80.84 247.92 C-80.84 246.81 -80.83 245.7 -80.83 244.56 C-80.82 232.18 -80.81 219.79 -80.8 207.41 C-80.8 202.92 -80.8 198.42 -80.79 193.93 C-80.79 192.82 -80.79 191.71 -80.79 190.56 C-80.78 172.06 -80.75 153.55 -80.72 135.04 C-80.7 123.64 -80.69 112.24 -80.69 100.84 C-80.69 93.03 -80.68 85.22 -80.67 77.42 C-80.66 72.91 -80.65 68.41 -80.66 63.91 C-80.67 59.79 -80.66 55.66 -80.64 51.54 C-80.64 50.05 -80.64 48.56 -80.65 47.07 C-80.69 36.18 -79.69 26.4 -74.25 16.81 C-73.59 16.81 -72.93 16.81 -72.25 16.81 C-72.17 16.25 -72.09 15.69 -72 15.12 C-69.39 7.11 -60.42 0.64 -53.25 -3.19 C-52.36 -3.67 -51.48 -4.16 -50.57 -4.66 C-34.03 -12.38 -14.97 -9.63 0 0 Z " fill="#000000" transform="translate(1259.25,420.1875)"/>
<path d="M0 0 C6.74 5.01 12.5 11.37 18.39 17.32 C20.03 18.95 21.67 20.59 23.31 22.22 C27.74 26.63 32.15 31.06 36.55 35.49 C41.18 40.13 45.82 44.77 50.45 49.4 C58.23 57.18 66 64.97 73.76 72.76 C81.73 80.77 89.72 88.76 97.71 96.75 C107.37 106.4 117.02 116.06 126.66 125.72 C130.33 129.4 134.01 133.08 137.69 136.76 C142.02 141.09 146.35 145.43 150.66 149.78 C152.25 151.37 153.83 152.95 155.42 154.54 C157.6 156.71 159.76 158.89 161.92 161.07 C162.86 162 162.86 162 163.82 162.95 C174.26 173.56 179.14 185.42 179.09 200.2 C179.11 201.14 179.12 202.08 179.14 203.05 C179.15 224.04 164.27 236.95 150.46 250.78 C148.98 252.27 147.49 253.75 146.01 255.24 C144.43 256.82 142.84 258.41 141.26 260 C136.98 264.28 132.7 268.57 128.42 272.85 C125.75 275.52 123.07 278.2 120.4 280.87 C111.56 289.72 102.71 298.57 93.86 307.42 C93.39 307.9 92.91 308.37 92.42 308.86 C91.71 309.58 91.71 309.58 90.98 310.3 C83.24 318.04 75.51 325.79 67.78 333.53 C59.83 341.5 51.87 349.46 43.92 357.41 C39.45 361.88 34.99 366.34 30.53 370.81 C26.35 375 22.16 379.19 17.97 383.37 C16.43 384.91 14.89 386.46 13.35 388 C11.26 390.1 9.17 392.19 7.07 394.28 C6.46 394.9 5.84 395.52 5.21 396.15 C1.01 400.32 1.01 400.32 -1.22 400.32 C-1.55 401.31 -1.88 402.3 -2.22 403.32 C-4.62 405.41 -7.42 406.83 -10.22 408.32 C-11.09 408.79 -11.97 409.27 -12.87 409.76 C-20.11 413.11 -26.5 413.79 -34.41 413.82 C-35.32 413.83 -36.24 413.83 -37.18 413.84 C-51.07 413.58 -61.68 407.85 -71.66 398.32 C-82.62 386.65 -85.65 373.54 -85.43 358.03 C-85.01 345.06 -78.18 333.49 -69.22 324.32 C-68.56 324.32 -67.9 324.32 -67.22 324.32 C-67.22 323.66 -67.22 323 -67.22 322.32 C-65.85 320.7 -65.85 320.7 -64.22 319.32 C-63.56 319.32 -62.9 319.32 -62.22 319.32 C-62.22 318.66 -62.22 318 -62.22 317.32 C-60.85 315.7 -60.85 315.7 -59.22 314.32 C-58.56 314.32 -57.9 314.32 -57.22 314.32 C-57.22 313.66 -57.22 313 -57.22 312.32 C-55.85 310.7 -55.85 310.7 -54.22 309.32 C-53.56 309.32 -52.9 309.32 -52.22 309.32 C-52.22 308.66 -52.22 308 -52.22 307.32 C-50.85 305.7 -50.85 305.7 -49.22 304.32 C-48.56 304.32 -47.9 304.32 -47.22 304.32 C-47.22 303.66 -47.22 303 -47.22 302.32 C-45.85 300.7 -45.85 300.7 -44.22 299.32 C-43.56 299.32 -42.9 299.32 -42.22 299.32 C-42.22 298.66 -42.22 298 -42.22 297.32 C-40.85 295.7 -40.85 295.7 -39.22 294.32 C-38.56 294.32 -37.9 294.32 -37.22 294.32 C-37.22 293.66 -37.22 293 -37.22 292.32 C-35.85 290.7 -35.85 290.7 -34.22 289.32 C-33.56 289.32 -32.9 289.32 -32.22 289.32 C-32.22 288.66 -32.22 288 -32.22 287.32 C-30.85 285.7 -30.85 285.7 -29.22 284.32 C-28.56 284.32 -27.9 284.32 -27.22 284.32 C-27.22 283.66 -27.22 283 -27.22 282.32 C-25.85 280.7 -25.85 280.7 -24.22 279.32 C-23.56 279.32 -22.9 279.32 -22.22 279.32 C-22.22 278.66 -22.22 278 -22.22 277.32 C-20.85 275.7 -20.85 275.7 -19.22 274.32 C-18.56 274.32 -17.9 274.32 -17.22 274.32 C-17.22 273.66 -17.22 273 -17.22 272.32 C-15.85 270.7 -15.85 270.7 -14.22 269.32 C-13.56 269.32 -12.9 269.32 -12.22 269.32 C-12.22 268.66 -12.22 268 -12.22 267.32 C-10.85 265.7 -10.85 265.7 -9.22 264.32 C-8.56 264.32 -7.9 264.32 -7.22 264.32 C-7.22 263.66 -7.22 263 -7.22 262.32 C-5.85 260.7 -5.85 260.7 -4.22 259.32 C-3.56 259.32 -2.9 259.32 -2.22 259.32 C-2.22 258.66 -2.22 258 -2.22 257.32 C-0.85 255.7 -0.85 255.7 0.78 254.32 C1.44 254.32 2.1 254.32 2.78 254.32 C2.78 253.33 2.78 252.34 2.78 251.32 C-61.18 251.38 -125.14 251.45 -189.1 251.52 C-190.05 251.52 -191 251.53 -191.97 251.53 C-212.56 251.55 -233.15 251.58 -253.74 251.6 C-263.84 251.61 -273.93 251.63 -284.03 251.64 C-285.04 251.64 -286.04 251.64 -287.08 251.64 C-319.62 251.68 -352.16 251.72 -384.71 251.75 C-418.16 251.78 -451.61 251.81 -485.07 251.86 C-489.8 251.87 -494.53 251.87 -499.26 251.88 C-500.19 251.88 -501.12 251.88 -502.08 251.88 C-517.04 251.9 -532 251.92 -546.95 251.93 C-562.01 251.94 -577.06 251.96 -592.12 251.98 C-601.05 252 -609.98 252 -618.92 252.01 C-624.9 252.01 -630.88 252.02 -636.86 252.03 C-640.26 252.04 -643.66 252.04 -647.06 252.04 C-675.96 251.9 -675.96 251.9 -704.22 257.32 C-705.98 257.79 -705.98 257.79 -707.77 258.26 C-714.33 260.03 -720.31 261.97 -726.22 265.32 C-731.79 268.32 -731.79 268.32 -736.22 268.32 C-736.22 268.98 -736.22 269.64 -736.22 270.32 C-737.04 270.71 -737.86 271.09 -738.71 271.49 C-739.78 272.01 -740.86 272.53 -741.97 273.07 C-743.04 273.58 -744.11 274.09 -745.21 274.62 C-748.13 276.27 -749.91 277.94 -752.22 280.32 C-752.98 280.77 -753.74 281.22 -754.52 281.68 C-758.88 284.33 -762.51 287.82 -766.31 291.2 C-771.02 295.32 -771.02 295.32 -773.22 295.32 C-773.62 296.19 -773.62 296.19 -774.03 297.07 C-775.25 299.38 -776.52 301.34 -778.22 303.32 C-778.88 303.32 -779.54 303.32 -780.22 303.32 C-780.51 303.92 -780.8 304.52 -781.1 305.13 C-782.22 307.32 -782.22 307.32 -784.22 310.32 C-784.88 310.32 -785.54 310.32 -786.22 310.32 C-786.61 311.41 -786.61 311.41 -787.01 312.52 C-788.25 315.39 -789.7 317.62 -791.53 320.13 C-795.96 326.34 -799.99 332.11 -802.48 339.35 C-803.22 341.31 -804.1 343.05 -805.1 344.88 C-815.09 364.38 -817.54 386.87 -817.48 408.45 C-817.48 410 -817.49 411.56 -817.49 413.12 C-817.5 417.35 -817.5 421.58 -817.49 425.81 C-817.49 430.39 -817.5 434.97 -817.51 439.55 C-817.52 447.47 -817.53 455.39 -817.53 463.31 C-817.53 474.78 -817.54 486.24 -817.56 497.71 C-817.59 516.33 -817.62 534.95 -817.63 553.57 C-817.64 555.24 -817.64 555.24 -817.64 556.94 C-817.65 569.36 -817.66 581.78 -817.67 594.2 C-817.67 598.71 -817.67 603.22 -817.68 607.73 C-817.68 608.84 -817.68 609.95 -817.68 611.1 C-817.69 629.66 -817.72 648.22 -817.75 666.78 C-817.77 678.22 -817.78 689.65 -817.78 701.09 C-817.78 708.92 -817.79 716.75 -817.81 724.59 C-817.82 729.1 -817.82 733.62 -817.81 738.13 C-817.81 742.27 -817.81 746.41 -817.83 750.55 C-817.83 752.04 -817.83 753.53 -817.83 755.02 C-817.78 765.87 -818.78 775.74 -824.22 785.32 C-824.88 785.32 -825.54 785.32 -826.22 785.32 C-826.3 785.88 -826.39 786.44 -826.47 787.02 C-829.08 795.03 -838.05 801.49 -845.22 805.32 C-846.11 805.81 -846.99 806.29 -847.9 806.79 C-859.79 812.34 -875.14 812.66 -887.47 808.26 C-897.38 803.64 -905.77 797.24 -912.22 788.32 C-912.22 787.33 -912.22 786.34 -912.22 785.32 C-912.88 785.32 -913.54 785.32 -914.22 785.32 C-917.59 778.88 -919.47 773.66 -919.47 766.34 C-919.47 765.66 -919.48 764.98 -919.48 764.27 C-919.48 761.99 -919.48 759.71 -919.47 757.42 C-919.47 755.77 -919.47 754.11 -919.48 752.46 C-919.48 747.91 -919.48 743.37 -919.47 738.82 C-919.46 733.92 -919.47 729.02 -919.47 724.12 C-919.47 714.52 -919.47 704.92 -919.46 695.31 C-919.45 684.14 -919.45 672.97 -919.45 661.8 C-919.45 641.87 -919.44 621.95 -919.43 602.03 C-919.41 582.67 -919.41 563.32 -919.41 543.97 C-919.41 542.77 -919.41 541.58 -919.41 540.35 C-919.41 539.16 -919.41 537.97 -919.41 536.74 C-919.41 514.73 -919.4 492.72 -919.39 470.71 C-919.39 462.91 -919.39 455.12 -919.39 447.32 C-919.39 437.83 -919.38 428.34 -919.37 418.85 C-919.37 414 -919.37 409.16 -919.37 404.31 C-919.37 399.88 -919.36 395.45 -919.36 391.02 C-919.36 389.41 -919.36 387.8 -919.36 386.19 C-919.36 384.02 -919.36 381.85 -919.35 379.67 C-919.35 378.46 -919.35 377.25 -919.35 376 C-919.22 373.32 -919.22 373.32 -918.22 372.32 C-917.93 369.48 -917.77 366.64 -917.6 363.79 C-916.71 355.63 -914.34 347.68 -912.28 339.76 C-912.03 338.77 -911.78 337.78 -911.52 336.76 C-910.06 331.12 -908.34 325.75 -906.22 320.32 C-905.57 318.3 -904.92 316.28 -904.28 314.26 C-903.17 310.87 -902.06 307.75 -900.22 304.7 C-898.57 301.91 -897.43 299.45 -896.28 296.45 C-894.35 291.46 -891.9 286.94 -889.22 282.32 C-888.32 280.72 -887.43 279.12 -886.53 277.51 C-885.94 276.45 -885.94 276.45 -885.33 275.36 C-884.25 273.37 -883.22 271.36 -882.22 269.32 C-881.56 269.32 -880.9 269.32 -880.22 269.32 C-880.11 268.75 -879.99 268.18 -879.87 267.59 C-879.16 265.11 -878.15 263.26 -876.78 261.07 C-876.14 260.01 -876.14 260.01 -875.47 258.93 C-875.06 258.4 -874.65 257.87 -874.22 257.32 C-873.56 257.32 -872.9 257.32 -872.22 257.32 C-872.01 256.66 -871.81 256 -871.6 255.32 C-869.73 251.25 -867.25 247.63 -864.22 244.32 C-863.56 244.32 -862.9 244.32 -862.22 244.32 C-861.56 242.67 -860.9 241.02 -860.22 239.32 C-859.56 239.32 -858.9 239.32 -858.22 239.32 C-857.93 238.72 -857.64 238.13 -857.35 237.51 C-856.22 235.32 -856.22 235.32 -854.22 232.32 C-853.56 232.32 -852.9 232.32 -852.22 232.32 C-851.89 231.33 -851.56 230.34 -851.22 229.32 C-850.56 229.32 -849.9 229.32 -849.22 229.32 C-849.01 228.79 -848.81 228.25 -848.6 227.7 C-846.69 224.4 -844.17 221.73 -841.22 219.32 C-840.56 219.32 -839.9 219.32 -839.22 219.32 C-839.22 218.66 -839.22 218 -839.22 217.32 C-837.76 215.81 -837.76 215.81 -835.85 214.2 C-835.22 213.66 -834.59 213.12 -833.95 212.56 C-832.22 211.32 -832.22 211.32 -830.22 211.32 C-830.22 210.66 -830.22 210 -830.22 209.32 C-826.76 206.32 -826.76 206.32 -824.22 206.32 C-824.22 205.66 -824.22 205 -824.22 204.32 C-822.83 203.1 -822.83 203.1 -820.89 201.75 C-820.18 201.25 -819.47 200.75 -818.73 200.23 C-817.97 199.71 -817.2 199.18 -816.41 198.63 C-815.63 198.09 -814.85 197.55 -814.05 196.99 C-808.2 192.95 -802.28 189.05 -796.22 185.32 C-795.49 184.85 -794.75 184.37 -794 183.88 C-785.52 178.53 -776.32 174.48 -767.22 170.32 C-766.42 169.96 -765.62 169.59 -764.8 169.21 C-761.01 167.49 -757.32 165.9 -753.28 164.82 C-749.77 163.82 -746.42 162.65 -743.03 161.26 C-739.14 159.66 -735.3 158.38 -731.22 157.32 C-730.3 157.07 -729.39 156.83 -728.44 156.57 C-723.04 155.15 -717.83 154.06 -712.27 153.56 C-709.94 153.34 -709.94 153.34 -706.66 152.38 C-691.47 148.47 -675.71 149.02 -660.16 149.04 C-656.61 149.04 -653.07 149.03 -649.52 149.03 C-643.32 149.01 -637.12 149.01 -630.92 149.01 C-621.71 149 -612.49 148.99 -603.27 148.98 C-587.76 148.95 -572.25 148.94 -556.74 148.92 C-541.4 148.91 -526.05 148.9 -510.7 148.88 C-509.26 148.88 -509.26 148.88 -507.8 148.88 C-502.95 148.87 -498.1 148.86 -493.24 148.86 C-458.9 148.81 -424.56 148.77 -390.21 148.74 C-356.86 148.71 -323.5 148.68 -290.14 148.64 C-289.11 148.64 -288.08 148.64 -287.02 148.64 C-276.69 148.62 -266.36 148.61 -256.03 148.6 C-234.98 148.57 -213.94 148.55 -192.89 148.52 C-191.92 148.52 -190.96 148.52 -189.96 148.52 C-125.38 148.44 -60.8 148.38 3.78 148.32 C2.95 147.49 2.12 146.66 1.27 145.81 C-60.08 84.47 -60.08 84.47 -61.69 82.84 C-63.14 81.4 -64.6 79.97 -66.06 78.55 C-68.03 76.52 -69.16 74.92 -70.22 72.32 C-70.88 72.32 -71.54 72.32 -72.22 72.32 C-73.01 71.04 -73.77 69.74 -74.53 68.45 C-74.96 67.73 -75.39 67.01 -75.83 66.27 C-79.49 58.49 -80.78 51.06 -80.72 42.51 C-80.72 41.55 -80.71 40.59 -80.71 39.6 C-80.43 28.3 -76.82 17.95 -69.22 9.32 C-68.56 9.32 -67.9 9.32 -67.22 9.32 C-66.95 8.68 -66.68 8.04 -66.41 7.38 C-65.22 5.32 -65.22 5.32 -62.22 4.32 C-62.22 3.66 -62.22 3 -62.22 2.32 C-43.7 -11.47 -19.34 -13 0 0 Z " fill="#000000" transform="translate(919.2209846973419,57.678502321243286)"/>
</svg>
