<?xml version="1.0" encoding="UTF-8"?>
<!-- Generator: visioncortex VTracer 0.6.3 -->
<svg version="1.1" xmlns="http://www.w3.org/2000/svg" width="1280" height="1280">
<path d="M0 0 C1.32 0 2.64 0 4 0 C4 0.66 4 1.32 4 2 C4.57 2.27 5.14 2.54 5.73 2.81 C8.08 4.04 10.12 5.43 12.25 7 C13.31 7.77 13.31 7.77 14.39 8.56 C14.92 9.04 15.45 9.51 16 10 C16 10.66 16 11.32 16 12 C16.66 12.19 17.32 12.37 18 12.56 C21.67 14.32 24.25 16.7 27.23 19.44 C28.93 21.07 28.93 21.07 31 22 C31 22.66 31 23.32 31 24 C31.56 24.25 32.12 24.5 32.69 24.75 C35.41 26.22 37.57 28.01 39.94 30 C43.12 32.65 46.3 35.25 49.61 37.75 C50.5 38.42 50.5 38.42 51.41 39.11 C52.58 39.98 53.76 40.86 54.94 41.72 C56.33 42.77 57.67 43.88 59 45 C59 45.66 59 46.32 59 47 C59.74 47.27 60.49 47.54 61.25 47.81 C63.89 48.95 65.86 50.09 68 52 C68 52.66 68 53.32 68 54 C68.62 54.31 69.24 54.62 69.88 54.94 C71.25 55.62 72.62 56.31 74 57 C74 57.66 74 58.32 74 59 C74.57 59.27 75.14 59.54 75.73 59.81 C78.08 61.04 80.12 62.43 82.25 64 C83.31 64.77 83.31 64.77 84.39 65.56 C84.92 66.04 85.45 66.51 86 67 C86 67.66 86 68.32 86 69 C86.8 69.37 86.8 69.37 87.62 69.75 C90.58 71.31 93.3 73.03 96 75 C96 75.66 96 76.32 96 77 C96.66 77.19 97.32 77.37 98 77.56 C101.67 79.32 104.25 81.7 107.23 84.44 C108.93 86.07 108.93 86.07 111 87 C111 87.66 111 88.32 111 89 C111.56 89.25 112.12 89.5 112.69 89.75 C115.41 91.22 117.57 93.01 119.94 95 C123.12 97.65 126.3 100.25 129.61 102.75 C130.21 103.2 130.8 103.64 131.41 104.11 C132.58 104.98 133.76 105.86 134.94 106.72 C136.33 107.77 137.67 108.88 139 110 C139 110.66 139 111.32 139 112 C139.57 112.27 140.14 112.54 140.73 112.81 C143.08 114.04 145.12 115.43 147.25 117 C148.31 117.77 148.31 117.77 149.39 118.56 C149.92 119.04 150.45 119.51 151 120 C151 120.66 151 121.32 151 122 C152.07 122.37 152.07 122.37 153.17 122.75 C156.31 124.14 158.64 125.84 161.31 128 C162.2 128.7 163.08 129.4 163.99 130.12 C164.65 130.74 165.32 131.36 166 132 C166 132.66 166 133.32 166 134 C166.8 134.37 166.8 134.37 167.62 134.75 C170.58 136.31 173.3 138.03 176 140 C176 140.66 176 141.32 176 142 C176.59 142.28 177.18 142.56 177.78 142.84 C181.25 144.65 184.18 147.09 187.25 149.5 C187.9 150 188.55 150.5 189.22 151.01 C190.85 152.29 192.43 153.64 194 155 C194 155.66 194 156.32 194 157 C194.74 157.27 195.49 157.54 196.25 157.81 C198.89 158.95 200.86 160.09 203 162 C203 162.66 203 163.32 203 164 C203.93 164.46 203.93 164.46 204.88 164.94 C206.25 165.62 207.62 166.31 209 167 C209 167.66 209 168.32 209 169 C209.55 169.24 210.1 169.48 210.67 169.73 C213.53 171.29 215.82 173.21 218.31 175.31 C221.53 177.99 224.73 180.58 228.19 182.94 C229.12 183.62 230.04 184.3 231 185 C231 185.66 231 186.32 231 187 C231.99 187.28 231.99 187.28 233 187.56 C236.67 189.32 239.25 191.7 242.23 194.44 C243.93 196.07 243.93 196.07 246 197 C246 197.66 246 198.32 246 199 C246.55 199.24 247.1 199.48 247.67 199.73 C250.53 201.29 252.82 203.21 255.31 205.31 C258.53 207.99 261.73 210.58 265.19 212.94 C266.12 213.62 267.04 214.3 268 215 C268 215.66 268 216.32 268 217 C268.93 217.46 268.93 217.46 269.88 217.94 C271.25 218.62 272.62 219.31 274 220 C274 220.66 274 221.32 274 222 C274.73 222.24 275.45 222.49 276.2 222.74 C279.34 224.15 281.26 225.82 283.75 228.19 C289.19 233.23 294.82 237.88 301 242 C301 242.66 301 243.32 301 244 C301.8 244.37 301.8 244.37 302.62 244.75 C305.58 246.31 308.3 248.03 311 250 C311 250.66 311 251.32 311 252 C311.56 252.25 312.11 252.5 312.69 252.75 C315.4 254.22 317.61 255.98 320 257.94 C323.59 260.87 323.59 260.87 327.31 263.63 C328.15 264.31 328.15 264.31 329 265 C329 265.66 329 266.32 329 267 C329.74 267.27 330.49 267.54 331.25 267.81 C333.89 268.95 335.86 270.09 338 272 C338 272.66 338 273.32 338 274 C338.93 274.46 338.93 274.46 339.88 274.94 C341.25 275.62 342.62 276.31 344 277 C344 277.66 344 278.32 344 279 C344.52 279.22 345.03 279.44 345.56 279.66 C349.01 281.55 351.94 283.98 355 286.44 C356.23 287.42 357.46 288.39 358.69 289.37 C359.26 289.83 359.83 290.29 360.42 290.76 C361.73 291.79 363.08 292.76 364.44 293.72 C365.21 294.35 365.21 294.35 366 295 C366 295.66 366 296.32 366 297 C366.66 297.19 367.32 297.37 368 297.56 C371.67 299.32 374.25 301.7 377.23 304.44 C378.93 306.07 378.93 306.07 381 307 C381 307.66 381 308.32 381 309 C381.55 309.24 382.11 309.49 382.68 309.74 C385.46 311.25 387.69 313.09 390.12 315.12 C391.09 315.92 392.05 316.72 393.04 317.54 C394.5 318.76 394.5 318.76 396 320 C397.83 321.48 399.66 322.96 401.5 324.44 C402.29 325.08 403.09 325.71 403.91 326.37 C405.55 327.65 407.27 328.84 409 330 C409 330.66 409 331.32 409 332 C409.73 332.24 410.45 332.49 411.2 332.74 C414.34 334.15 416.26 335.82 418.75 338.19 C424.19 343.23 429.82 347.88 436 352 C436 352.66 436 353.32 436 354 C436.54 354.25 437.07 354.5 437.62 354.75 C440.58 356.31 443.3 358.03 446 360 C446 360.66 446 361.32 446 362 C446.57 362.26 447.14 362.52 447.72 362.78 C450.23 364.12 452.24 365.69 454.44 367.5 C457.44 369.95 460.45 372.36 463.54 374.68 C464.14 375.13 464.73 375.58 465.34 376.04 C466.52 376.92 467.7 377.8 468.88 378.67 C470.29 379.74 471.65 380.86 473 382 C473 382.66 473 383.32 473 384 C473.62 384.31 474.24 384.62 474.88 384.94 C476.25 385.62 477.62 386.31 479 387 C479 387.66 479 388.32 479 389 C479.52 389.22 480.03 389.44 480.56 389.66 C484.01 391.55 486.94 393.98 490 396.44 C491.23 397.42 492.46 398.39 493.69 399.37 C494.26 399.83 494.83 400.29 495.42 400.76 C496.73 401.79 498.08 402.76 499.44 403.72 C500.21 404.35 500.21 404.35 501 405 C501 405.66 501 406.32 501 407 C501.66 407.19 502.32 407.37 503 407.56 C506.67 409.32 509.25 411.7 512.23 414.44 C513.93 416.07 513.93 416.07 516 417 C516 417.66 516 418.32 516 419 C516.55 419.24 517.1 419.48 517.67 419.73 C520.53 421.29 522.82 423.21 525.31 425.31 C528.53 427.99 531.73 430.58 535.19 432.94 C536.12 433.62 537.04 434.3 538 435 C538 435.66 538 436.32 538 437 C538.8 437.27 539.61 437.54 540.44 437.81 C541.28 438.2 542.13 438.6 543 439 C543.33 439.99 543.66 440.98 544 442 C545.65 442.71 547.32 443.37 549 444 C551.31 445.5 551.31 445.5 553 447 C553 447.66 553 448.32 553 449 C553.62 449.31 554.24 449.62 554.88 449.94 C556.25 450.62 557.62 451.31 559 452 C559 452.66 559 453.32 559 454 C559.57 454.27 560.14 454.54 560.73 454.81 C563.08 456.04 565.12 457.43 567.25 459 C567.96 459.52 568.66 460.03 569.39 460.56 C569.92 461.04 570.45 461.51 571 462 C571 462.66 571 463.32 571 464 C571.54 464.25 572.07 464.5 572.62 464.75 C575.58 466.31 578.3 468.03 581 470 C581 470.66 581 471.32 581 472 C582.65 472.66 584.3 473.32 586 474 C586 474.66 586 475.32 586 476 C586.54 476.25 587.07 476.5 587.62 476.75 C590.58 478.31 593.3 480.03 596 482 C596 482.66 596 483.32 596 484 C596.9 484.43 596.9 484.43 597.81 484.88 C600 486 600 486 603 488 C603 489.32 603 490.64 603 492 C598.78 496 598.78 496 596 496 C596 496.66 596 497.32 596 498 C594.17 499.62 594.17 499.62 591.75 501.44 C590.96 502.03 590.17 502.63 589.36 503.25 C588.19 504.11 588.19 504.11 587 505 C586.28 505.57 585.57 506.14 584.83 506.72 C583 508 583 508 581 508 C581 508.66 581 509.32 581 510 C579.42 511.41 579.42 511.41 577.19 513.06 C572.42 516.65 567.85 520.43 563.29 524.28 C561 526 561 526 559 526 C559 526.66 559 527.32 559 528 C556.79 529.92 554.57 531.72 552.25 533.5 C551.3 534.25 551.3 534.25 550.33 535.01 C547.31 537.36 544.47 539.36 541 541 C541 541.66 541 542.32 541 543 C539.09 544.61 537.2 546.1 535.19 547.56 C534.64 547.97 534.09 548.39 533.53 548.81 C531.03 550.66 528.97 552.01 526 553 C526 553.66 526 554.32 526 555 C524.32 556.51 524.32 556.51 522.12 558.12 C521.05 558.93 521.05 558.93 519.95 559.76 C518 561 518 561 516 561 C516 561.66 516 562.32 516 563 C513.88 564.95 513.88 564.95 511.12 567.12 C510.22 567.85 509.32 568.57 508.38 569.32 C506 571 506 571 504 571 C504 571.66 504 572.32 504 573 C500.54 576 500.54 576 498 576 C498 576.66 498 577.32 498 578 C496.54 579.29 496.54 579.29 494.62 580.62 C493.69 581.29 493.69 581.29 492.73 581.98 C491 583 491 583 489 583 C488.67 583.99 488.34 584.98 488 586 C485.79 588.04 485.79 588.04 483.06 590.19 C482.17 590.9 481.27 591.62 480.35 592.36 C478 594 478 594 476 594 C476 594.66 476 595.32 476 596 C474.35 596.66 472.7 597.32 471 598 C471 598.66 471 599.32 471 600 C469.32 601.51 469.32 601.51 467.12 603.12 C466.05 603.93 466.05 603.93 464.95 604.76 C463 606 463 606 461 606 C461 606.66 461 607.32 461 608 C458.88 609.95 458.88 609.95 456.12 612.12 C455.22 612.85 454.32 613.57 453.38 614.32 C451 616 451 616 449 616 C449 616.66 449 617.32 449 618 C445.54 621 445.54 621 443 621 C443 621.66 443 622.32 443 623 C441.54 624.29 441.54 624.29 439.62 625.62 C438.69 626.29 438.69 626.29 437.73 626.98 C436 628 436 628 434 628 C433.67 628.99 433.34 629.98 433 631 C430.93 632.78 428.87 634.43 426.69 636.06 C426.11 636.51 425.52 636.96 424.92 637.42 C422.07 639.58 419.29 641.56 416 643 C416 643.66 416 644.32 416 645 C414.32 646.51 414.32 646.51 412.12 648.12 C411.05 648.93 411.05 648.93 409.95 649.76 C408 651 408 651 406 651 C406 651.66 406 652.32 406 653 C403.88 654.95 403.88 654.95 401.12 657.12 C400.22 657.85 399.32 658.57 398.38 659.32 C396 661 396 661 394 661 C394 661.66 394 662.32 394 663 C390.54 666 390.54 666 388 666 C388 666.66 388 667.32 388 668 C386.54 669.29 386.54 669.29 384.62 670.62 C383.69 671.29 383.69 671.29 382.73 671.98 C381 673 381 673 379 673 C378.67 673.99 378.34 674.98 378 676 C375.93 677.78 373.87 679.43 371.69 681.06 C371.11 681.51 370.52 681.96 369.92 682.42 C367.07 684.58 364.29 686.56 361 688 C361 688.66 361 689.32 361 690 C359.32 691.51 359.32 691.51 357.12 693.12 C356.05 693.93 356.05 693.93 354.95 694.76 C353 696 353 696 351 696 C351 696.66 351 697.32 351 698 C348.93 699.77 346.85 701.42 344.69 703.06 C343.4 704.05 342.12 705.04 340.84 706.02 C340.2 706.52 339.55 707.02 338.89 707.53 C335.22 710.39 331.67 713.41 328.11 716.42 C326 718 326 718 324 718 C324 718.66 324 719.32 324 720 C321.79 721.92 319.57 723.72 317.25 725.5 C316.3 726.25 316.3 726.25 315.33 727.01 C312.31 729.36 309.47 731.36 306 733 C306 733.66 306 734.32 306 735 C304.32 736.51 304.32 736.51 302.12 738.12 C301.41 738.66 300.69 739.2 299.95 739.76 C298 741 298 741 296 741 C296 741.66 296 742.32 296 743 C293.93 744.77 291.85 746.42 289.69 748.06 C288.4 749.05 287.12 750.04 285.84 751.02 C285.2 751.52 284.55 752.02 283.89 752.53 C280.22 755.39 276.67 758.41 273.11 761.42 C271 763 271 763 269 763 C269 763.66 269 764.32 269 765 C266.95 766.74 264.89 768.38 262.75 770 C256.79 774.57 251.02 779.3 245.33 784.2 C243 786 243 786 241 786 C241 786.66 241 787.32 241 788 C238.93 789.77 236.85 791.42 234.69 793.06 C233.4 794.05 232.12 795.04 230.84 796.02 C230.2 796.52 229.55 797.02 228.89 797.53 C225.22 800.39 221.67 803.41 218.11 806.42 C216 808 216 808 214 808 C214 808.66 214 809.32 214 810 C211.95 811.74 209.89 813.38 207.75 815 C201.79 819.57 196.02 824.3 190.33 829.2 C188 831 188 831 186 831 C186 831.66 186 832.32 186 833 C183.91 834.8 181.82 836.47 179.62 838.12 C179.02 838.59 178.42 839.06 177.8 839.54 C173.26 843 173.26 843 171 843 C171 843.66 171 844.32 171 845 C168.88 846.95 168.88 846.95 166.12 849.12 C165.22 849.85 164.32 850.57 163.38 851.32 C161 853 161 853 159 853 C159 853.66 159 854.32 159 855 C155.54 858 155.54 858 153 858 C153 858.66 153 859.32 153 860 C151.42 861.41 151.42 861.41 149.19 863.06 C144.42 866.65 139.85 870.43 135.29 874.28 C133 876 133 876 131 876 C131 876.66 131 877.32 131 878 C129.17 879.62 129.17 879.62 126.75 881.44 C125.96 882.03 125.17 882.63 124.36 883.25 C123.58 883.82 122.8 884.4 122 885 C121.28 885.57 120.57 886.14 119.83 886.72 C118 888 118 888 116 888 C116 888.66 116 889.32 116 890 C113.88 891.95 113.88 891.95 111.12 894.12 C110.22 894.85 109.32 895.57 108.38 896.32 C106 898 106 898 104 898 C104 898.66 104 899.32 104 900 C102.32 901.51 102.32 901.51 100.12 903.12 C99.41 903.66 98.69 904.2 97.95 904.76 C96 906 96 906 94 906 C94 906.66 94 907.32 94 908 C92.32 909.52 90.58 910.97 88.81 912.38 C87.85 913.15 86.89 913.92 85.89 914.71 C84.94 915.47 83.98 916.22 83 917 C82.1 917.76 81.19 918.51 80.26 919.29 C78 921 78 921 76 921 C76 921.66 76 922.32 76 923 C74.17 924.62 74.17 924.62 71.75 926.44 C70.96 927.03 70.17 927.63 69.36 928.25 C68.58 928.82 67.8 929.4 67 930 C66.28 930.57 65.57 931.14 64.83 931.72 C63 933 63 933 61 933 C61 933.66 61 934.32 61 935 C58.83 936.85 56.65 938.59 54.38 940.31 C53.13 941.27 51.89 942.22 50.65 943.18 C50.04 943.64 49.43 944.11 48.8 944.59 C47.04 945.97 45.35 947.4 43.66 948.86 C41 951 41 951 39 951 C39 951.66 39 952.32 39 953 C36.79 954.92 34.57 956.72 32.25 958.5 C31.3 959.25 31.3 959.25 30.33 960.01 C27.31 962.36 24.47 964.36 21 966 C21 966.66 21 967.32 21 968 C19.17 969.62 19.17 969.62 16.75 971.44 C15.96 972.03 15.17 972.63 14.36 973.25 C13.58 973.82 12.8 974.4 12 975 C11.28 975.57 10.57 976.14 9.83 976.72 C8 978 8 978 6 978 C6 978.66 6 979.32 6 980 C4.35 980.66 2.7 981.32 1 982 C-0.65 980.35 -0.13 978.46 -0.14 976.19 C-0.14 975.14 -0.15 974.1 -0.16 973.02 C-0.16 971.27 -0.16 971.27 -0.16 969.49 C-0.16 968.26 -0.17 967.04 -0.17 965.78 C-0.19 962.36 -0.19 958.94 -0.2 955.52 C-0.21 951.84 -0.22 948.16 -0.24 944.48 C-0.26 938.1 -0.28 931.72 -0.29 925.34 C-0.31 916.11 -0.34 906.88 -0.37 897.66 C-0.42 882.69 -0.46 867.72 -0.5 852.75 C-0.54 838.21 -0.58 823.66 -0.63 809.12 C-0.63 808.22 -0.63 807.33 -0.64 806.4 C-0.65 801.91 -0.66 797.42 -0.68 792.92 C-0.79 755.61 -0.9 718.31 -1 681 C-5.25 681.14 -9.5 681.29 -13.75 681.44 C-14.96 681.48 -16.16 681.52 -17.41 681.56 C-18.57 681.6 -19.73 681.64 -20.92 681.68 C-22.52 681.74 -22.52 681.74 -24.16 681.79 C-26.6 681.97 -28.65 682.37 -31 683 C-33.54 683.18 -36.08 683.32 -38.62 683.44 C-44.11 683.73 -49.3 684.32 -54.67 685.54 C-57.16 686.03 -59.59 686.25 -62.12 686.44 C-68.18 686.92 -74.08 688.07 -80.04 689.24 C-84.59 690.13 -89.16 690.86 -93.74 691.57 C-96.02 691.9 -96.02 691.9 -98 693 C-99.86 693.15 -99.86 693.15 -101.75 693.31 C-107.23 693.86 -112.31 695.45 -117.57 697.02 C-122.01 698.29 -126.47 699.16 -131 700 C-132.69 700.35 -134.38 700.7 -136.06 701.06 C-137.16 701.3 -137.16 701.3 -138.29 701.54 C-140.02 701.85 -140.02 701.85 -141 703 C-142.07 703.14 -143.14 703.29 -144.25 703.44 C-147.6 703.94 -149.9 704.75 -153 706 C-154.91 706.51 -156.83 706.99 -158.75 707.44 C-163.06 708.49 -167.26 709.66 -171.45 711.12 C-174.15 712.05 -176.86 712.95 -179.57 713.84 C-186.62 716.17 -193.62 718.53 -200.44 721.5 C-203.07 722.61 -205.61 723.56 -208.31 724.44 C-216.37 727.06 -224.14 730.45 -231.95 733.73 C-233.91 734.54 -235.87 735.35 -237.83 736.15 C-263.86 746.76 -289.42 759.91 -313.46 774.46 C-315.15 775.49 -316.84 776.5 -318.54 777.5 C-322.66 779.95 -326.71 782.45 -330.69 785.12 C-341.26 792.24 -341.26 792.24 -346 793 C-346 793.66 -346 794.32 -346 795 C-347.77 796.27 -347.77 796.27 -350.38 797.81 C-355.91 801.23 -361.18 804.93 -366.44 808.75 C-367.61 809.6 -367.61 809.6 -368.8 810.47 C-373.01 813.52 -373.01 813.52 -377.12 816.68 C-379 818 -379 818 -381 818 C-381 818.66 -381 819.32 -381 820 C-382.74 821.45 -384.54 822.81 -386.38 824.12 C-387.37 824.85 -388.37 825.57 -389.4 826.32 C-392 828 -392 828 -394 828 C-394 828.66 -394 829.32 -394 830 C-395.72 831.52 -395.72 831.52 -398.06 833.25 C-401.12 835.55 -404.07 837.89 -406.94 840.44 C-410 843 -410 843 -412 843 C-412 843.66 -412 844.32 -412 845 C-413.7 846.52 -415.46 847.97 -417.25 849.38 C-420.05 851.59 -422.74 853.73 -425.23 856.29 C-427 858 -427 858 -429 858 C-429 858.66 -429 859.32 -429 860 C-430.47 861.48 -430.47 861.48 -432.5 863.19 C-433.23 863.81 -433.95 864.43 -434.7 865.07 C-435.46 865.7 -436.22 866.34 -437 867 C-441.46 870.78 -445.37 874.39 -449 879 C-449.66 879 -450.32 879 -451 879 C-451 879.66 -451 880.32 -451 881 C-451.66 881 -452.32 881 -453 881 C-453.33 881.99 -453.66 882.98 -454 884 C-454.66 884 -455.32 884 -456 884 C-456.23 884.56 -456.46 885.12 -456.7 885.69 C-458.35 888.63 -460.45 890.6 -462.88 892.94 C-465.51 895.48 -467.94 897.93 -470.2 900.82 C-470.79 901.54 -471.39 902.26 -472 903 C-472.66 903 -473.32 903 -474 903 C-474.23 903.54 -474.45 904.09 -474.68 904.65 C-476.41 907.74 -478.65 910.04 -481.06 912.62 C-484.42 916.04 -484.42 916.04 -487 920 C-487.66 920 -488.32 920 -489 920 C-489.4 920.87 -489.4 920.87 -489.81 921.75 C-491.03 924.06 -492.3 926.02 -494 928 C-494.66 928 -495.32 928 -496 928 C-496.37 928.8 -496.37 928.8 -496.75 929.62 C-498.31 932.58 -500.03 935.3 -502 938 C-502.66 938 -503.32 938 -504 938 C-504.25 938.73 -504.5 939.45 -504.76 940.2 C-506.11 943.25 -507.69 945.24 -509.88 947.75 C-516.08 955.15 -521.5 963.07 -527 971 C-527.91 972.3 -528.82 973.61 -529.73 974.91 C-533.64 980.29 -533.64 980.29 -537 986 C-537.66 986 -538.32 986 -539 986 C-539.12 986.58 -539.23 987.16 -539.35 987.76 C-540.05 990.17 -541 991.81 -542.4 993.9 C-542.88 994.63 -543.36 995.35 -543.85 996.1 C-544.35 996.85 -544.86 997.6 -545.38 998.38 C-548.55 1003.14 -551.57 1007.79 -554 1013 C-554.66 1013 -555.32 1013 -556 1013 C-556.11 1013.57 -556.22 1014.13 -556.33 1014.72 C-557.09 1017.32 -558.23 1019.21 -559.69 1021.5 C-562 1025.25 -564.07 1029.04 -566 1033 C-567.81 1036.7 -569.7 1040.25 -571.88 1043.75 C-577.59 1053.09 -582.49 1062.92 -586.01 1073.29 C-587.59 1077.61 -589.6 1081.72 -591.56 1085.88 C-593.55 1090.19 -595.27 1094.58 -597 1099 C-599.46 1105.15 -602.03 1111.17 -605.06 1117.06 C-607.41 1121.67 -609.25 1126.27 -610.94 1131.15 C-612.56 1135.51 -614.58 1139.67 -616.56 1143.88 C-618.17 1147.37 -619.61 1150.9 -621.01 1154.48 C-623.82 1161.63 -626.82 1168.67 -630.06 1175.62 C-632.19 1180.2 -634.17 1184.79 -636.01 1189.48 C-639.26 1197.76 -642.84 1205.86 -646.6 1213.91 C-648.17 1217.37 -649.56 1220.87 -650.94 1224.41 C-652.2 1227.48 -653.59 1230.49 -655 1233.5 C-657.15 1238.11 -659.15 1242.75 -661.01 1247.48 C-670.43 1271.45 -670.43 1271.45 -676 1280 C-676.33 1280 -676.66 1280 -677 1280 C-677.02 1240.32 -677.04 1200.64 -677.05 1160.96 C-677.05 1156.28 -677.05 1151.6 -677.05 1146.92 C-677.06 1145.99 -677.06 1145.05 -677.06 1144.09 C-677.06 1128.99 -677.07 1113.89 -677.08 1098.79 C-677.09 1083.3 -677.09 1067.8 -677.09 1052.31 C-677.1 1042.75 -677.1 1033.19 -677.11 1023.63 C-677.11 1017.07 -677.11 1010.52 -677.11 1003.97 C-677.11 1000.19 -677.11 996.4 -677.12 992.62 C-677.12 988.52 -677.12 984.42 -677.12 980.33 C-677.12 979.12 -677.13 977.92 -677.13 976.68 C-677.13 975.59 -677.13 974.49 -677.12 973.36 C-677.12 972.42 -677.12 971.47 -677.12 970.5 C-677.01 968.18 -676.62 966.23 -676 964 C-675.87 962.46 -675.78 960.92 -675.72 959.38 C-675.68 958.5 -675.64 957.63 -675.61 956.73 C-675.57 955.83 -675.54 954.93 -675.5 954 C-675.43 952.21 -675.36 950.42 -675.28 948.62 C-675.24 947.44 -675.24 947.44 -675.19 946.23 C-675 944.04 -674.54 942.12 -674 940 C-673.81 938.45 -673.64 936.9 -673.5 935.34 C-673.42 934.46 -673.34 933.59 -673.25 932.69 C-673.08 930.85 -672.92 929.01 -672.75 927.18 C-672.67 926.3 -672.59 925.43 -672.5 924.53 C-672.43 923.73 -672.36 922.93 -672.28 922.11 C-672 920 -672 920 -671 917 C-670.84 915.29 -670.73 913.58 -670.62 911.88 C-670.21 906.47 -669.44 901.2 -668.5 895.88 C-668.37 895.13 -668.24 894.38 -668.1 893.61 C-667.13 888.26 -667.13 888.26 -666 886 C-665.72 883.93 -665.56 881.86 -665.38 879.78 C-664.84 875.79 -663.9 871.92 -663 868 C-662.54 865.99 -662.09 863.97 -661.63 861.96 C-654.46 830.54 -654.46 830.54 -652.01 824.6 C-650.69 821.21 -649.89 817.72 -649.06 814.19 C-647.9 809.37 -646.66 804.7 -644.78 800.11 C-643.69 797.15 -642.9 794.11 -642.06 791.06 C-640.7 786.19 -639.12 781.72 -636.94 777.16 C-635.53 773.92 -634.63 770.57 -633.71 767.16 C-633 765 -633 765 -631 762 C-630.32 759.95 -629.64 757.9 -628.97 755.84 C-624.74 743.46 -619.31 731.47 -613.38 719.81 C-611.79 716.69 -610.42 713.59 -609.19 710.31 C-607.23 705.27 -604.72 700.57 -602.14 695.82 C-599.78 691.49 -597.55 687.12 -595.38 682.69 C-592.94 677.78 -590.33 673.07 -587.46 668.41 C-585.93 665.88 -584.52 663.3 -583.12 660.69 C-578.3 651.75 -572.91 643.15 -567.13 634.8 C-565.83 632.89 -565.83 632.89 -565 630 C-564.34 630 -563.68 630 -563 630 C-562.77 629.32 -562.55 628.64 -562.31 627.94 C-560.91 624.81 -559.19 622.36 -557.12 619.65 C-555.81 617.88 -555.81 617.88 -555 615 C-554.34 615 -553.68 615 -553 615 C-552.75 614.3 -552.5 613.6 -552.25 612.88 C-550.83 609.6 -549.13 606.86 -547 604 C-546.34 604 -545.68 604 -545 604 C-544.81 603.1 -544.81 603.1 -544.62 602.19 C-544 600 -544 600 -542 597 C-541.34 597 -540.68 597 -540 597 C-540 596.01 -540 595.02 -540 594 C-539.34 594 -538.68 594 -538 594 C-537.67 592.68 -537.34 591.36 -537 590 C-536.34 590 -535.68 590 -535 590 C-534.79 589.34 -534.59 588.68 -534.38 588 C-532.51 583.93 -530.02 580.31 -527 577 C-526.34 577 -525.68 577 -525 577 C-524.72 576.01 -524.72 576.01 -524.44 575 C-522.68 571.33 -520.3 568.75 -517.56 565.77 C-515.93 564.07 -515.93 564.07 -515 562 C-514.34 562 -513.68 562 -513 562 C-512.73 561.43 -512.46 560.86 -512.19 560.27 C-510.96 557.92 -509.57 555.88 -508 553.75 C-507.23 552.69 -507.23 552.69 -506.44 551.61 C-505.96 551.08 -505.49 550.55 -505 550 C-504.34 550 -503.68 550 -503 550 C-502.67 549.01 -502.34 548.02 -502 547 C-501.34 547 -500.68 547 -500 547 C-499.6 546.13 -499.6 546.13 -499.19 545.25 C-497.97 542.94 -496.7 540.98 -495 539 C-494.34 539 -493.68 539 -493 539 C-492.74 538.41 -492.47 537.81 -492.2 537.2 C-490.96 534.92 -489.7 533.53 -487.81 531.75 C-485.38 529.45 -483.17 527.05 -481 524.52 C-476.48 519.31 -471.63 514.44 -466.76 509.57 C-465.17 507.98 -463.59 506.38 -462.01 504.79 C-461 503.77 -459.99 502.76 -458.98 501.75 C-458.07 500.84 -457.16 499.92 -456.23 498.98 C-454 497 -454 497 -452 497 C-452 496.34 -452 495.68 -452 495 C-450.6 493.59 -450.6 493.59 -448.62 491.94 C-445.45 489.24 -442.33 486.5 -439.25 483.69 C-435.39 480.21 -431.47 476.79 -427.5 473.44 C-426 472.17 -426 472.17 -424.47 470.87 C-422 469 -422 469 -420 469 C-420 468.34 -420 467.68 -420 467 C-417.88 465.05 -417.88 465.05 -415.12 462.88 C-414.22 462.15 -413.32 461.43 -412.38 460.68 C-410 459 -410 459 -408 459 C-408 458.34 -408 457.68 -408 457 C-406.26 455.55 -404.46 454.19 -402.62 452.88 C-401.63 452.15 -400.63 451.43 -399.6 450.68 C-397 449 -397 449 -395 449 C-395 448.34 -395 447.68 -395 447 C-393.05 445.45 -391.11 444.03 -389.06 442.62 C-388.44 442.19 -387.81 441.75 -387.17 441.3 C-385.82 440.36 -384.47 439.41 -383.11 438.47 C-381 437 -378.91 435.52 -376.81 434.02 C-369.82 429.04 -362.8 424.12 -355.69 419.31 C-354.76 418.68 -354.76 418.68 -353.82 418.03 C-350.95 416.11 -348.46 414.5 -345 414 C-345 413.34 -345 412.68 -345 412 C-344.02 411.45 -343.05 410.9 -342.04 410.34 C-338.51 408.32 -335.05 406.19 -331.59 404.04 C-324.73 399.78 -317.91 395.74 -310.58 392.32 C-307.88 391 -307.88 391 -305.07 389.04 C-301.99 386.99 -298.89 385.37 -295.56 383.75 C-291.23 381.63 -286.95 379.45 -282.73 377.11 C-275.21 372.97 -267.48 369.54 -259.56 366.22 C-254.85 364.25 -250.27 362.19 -245.75 359.81 C-240.39 357.03 -234.86 355.06 -229.14 353.18 C-224.8 351.73 -220.82 349.98 -216.76 347.88 C-214.78 346.89 -212.81 346.15 -210.69 345.5 C-207.45 344.47 -204.25 343.37 -201.06 342.19 C-195.18 340.03 -189.24 338.06 -183.28 336.11 C-179.46 334.85 -175.73 333.49 -172 332 C-170.06 331.51 -168.12 331.03 -166.17 330.57 C-163.92 329.98 -161.76 329.26 -159.56 328.5 C-155.1 326.98 -150.61 325.95 -146 325 C-144.33 324.65 -142.67 324.3 -141 323.94 C-140.26 323.78 -139.51 323.63 -138.75 323.46 C-136.99 323.15 -136.99 323.15 -136 322 C-134.57 321.67 -133.13 321.39 -131.69 321.12 C-127.75 320.37 -123.88 319.49 -120 318.5 C-111.56 316.36 -103.08 314.81 -94.47 313.46 C-92.01 313.12 -92.01 313.12 -90 312 C-88.3 311.82 -86.59 311.68 -84.88 311.56 C-80.83 311.23 -77.12 310.61 -73.2 309.54 C-64.75 307.47 -56.11 306.82 -47.46 306.28 C-44.15 306.01 -40.95 305.55 -37.69 305 C-31.77 304.02 -25.9 303.61 -19.91 303.34 C-16.89 303.2 -13.97 303 -11 302.47 C-8 302 -8 302 0 302 C0 202.34 0 102.68 0 0 Z " fill="#000000" transform="translate(677,0)"/>
</svg>
