<?xml version="1.0" encoding="UTF-8"?>
<svg version="1.1" viewBox="0 0 1600 1600" width="1280" height="1280" xmlns="http://www.w3.org/2000/svg">
<path transform="translate(1348 272)" d="m0 0c3.77 2.59 7.55 5.16 11.3 7.73 1.97 1.34 3.93 2.67 5.9 4.01 9.85 6.71 19.8 13.3 29.7 19.9 0.85 0.567 1.7 1.13 2.58 1.72 10.1 6.73 20.2 13.4 30.3 20.1 1.48 0.975 1.48 0.975 2.99 1.97 4.74 3.12 9.49 6.24 14.2 9.36 7.99 5.25 16 10.5 23.8 15.9 0.638 0.435 1.28 0.87 1.93 1.32 12.9 8.85 22.9 19.5 26.7 35 2.12 13.6-0.168 27-7.59 38.7-6.42 8.65-14 14.1-23 19.8-3.26 2.06-6.45 4.22-9.66 6.37-1.26 0.839-2.52 1.68-3.77 2.52-0.6 0.4-1.2 0.801-1.82 1.21-80.3 53.5-80.3 53.5-82.2 54.8-1.26 0.841-2.52 1.68-3.78 2.52-3.24 2.16-6.49 4.32-9.73 6.49-7.72 5.14-7.72 5.14-15.4 10.3-15.7 10.6-30.9 19.5-50.6 16.6-14.8-3.28-25.7-11.5-33.9-24.2-7.95-15.2-6.43-32.8-6.25-49.4 0.0151-2.43 0.0288-4.86 0.041-7.3 0.0327-5.9 0.0827-11.8 0.146-17.7-19.2-0.0235-38.4-0.041-57.6-0.0518-8.92-0.00513-17.8-0.0121-26.8-0.0236-7.79-0.01-15.6-0.0164-23.4-0.0186-4.11-0.00129-8.23-0.00428-12.3-0.0116-30.4-0.675-30.4-0.675-60.4 2.73-1.29 0.26-1.29 0.26-2.61 0.525-38.4 8.21-69 30.9-92.9 61.3-2.03 2.57-4.09 5.1-6.16 7.63-11.8 14.4-11.8 14.4-23.4 29-4.17 5.35-8.52 10.5-13 15.6-3.87 4.49-7.55 9.1-11.2 13.8-5.43 6.98-11.1 13.8-16.7 20.6-2.03 2.46-4.05 4.92-6.06 7.39-2.58 3.16-5.17 6.31-7.77 9.46-6.01 7.27-12 14.6-17.8 22-3.5 4.48-7.15 8.82-10.9 13.1-3.29 3.86-6.45 7.82-9.56 11.8-3.73 4.8-7.58 9.47-11.6 14.1-4.39 5.06-8.6 10.2-12.7 15.5-5.43 6.97-11.1 13.8-16.7 20.6-3.55 4.29-7.06 8.61-10.6 12.9-0.69 0.842-1.38 1.68-2.09 2.55-6.66 8.13-13.3 16.3-19.9 24.4-7.32 9.01-14.6 18-22 27-1.5 1.83-3 3.67-4.5 5.5-2.2 2.69-4.4 5.38-6.61 8.07-4.48 5.46-8.94 10.9-13.4 16.4-5.85 7.2-11.7 14.4-17.6 21.6-2.3 2.81-4.61 5.63-6.91 8.45-0.49 0.6-0.98 1.2-1.49 1.82-5.78 7.07-11.5 14.2-17.1 21.4-4.44 5.7-9.06 11.2-13.8 16.7-3.95 4.63-7.78 9.37-11.6 14.1-1.42 1.73-2.83 3.46-4.25 5.19-1.58 1.94-3.17 3.87-4.75 5.81-0.49 0.6-0.98 1.2-1.49 1.82-5.86 7.18-11.7 14.4-17.4 21.7-3.35 4.29-6.78 8.48-10.4 12.5-3.23 3.68-6.29 7.51-9.38 11.3-1.47 1.81-2.94 3.61-4.42 5.42-5.24 6.43-10.4 12.9-15.5 19.4-4.44 5.7-9.06 11.2-13.7 16.7-5.23 6.14-10.3 12.4-15.3 18.7-3.65 4.59-7.39 9.11-11.1 13.6-4.36 5.28-8.67 10.6-12.9 16-4.42 5.68-9.01 11.2-13.7 16.7-6.02 7.06-11.8 14.3-17.6 21.6-3.64 4.54-7.34 9.03-11 13.5-1.5 1.83-3 3.67-4.5 5.5-3 3.67-6 7.33-9 11-0.741 0.906-1.48 1.81-2.25 2.75-1.51 1.85-3.02 3.69-4.54 5.54-3.49 4.26-6.97 8.53-10.4 12.8-5.45 6.82-11 13.6-16.6 20.3-1.1 1.32-2.2 2.65-3.29 3.98-11.2 13.6-23.4 26.3-37.5 37.1-0.932 0.761-1.86 1.52-2.82 2.3-31 24.8-68.3 40.4-107 48-0.745 0.147-1.49 0.294-2.26 0.446-18.3 3.32-36.5 3.57-55 3.58-2.14 0.00144-4.29 0.00574-6.43 0.011-7.51 0.0184-15 0.0267-22.5 0.0251-6.95-0.00121-13.9 0.02-20.9 0.0515-6.02 0.0263-12 0.0369-18.1 0.0356-3.57-5.06e-4 -7.15 0.00497-10.7 0.0264-3.98 0.0232-7.97 0.0138-11.9 0.00179-1.16 0.0112-2.32 0.0225-3.51 0.0341-13.3-0.102-24.5-3.93-34.4-12.9-0.784-0.866-1.57-1.73-2.38-2.62-0.566-0.597-1.13-1.19-1.71-1.81-9.12-9.89-13-21.7-12.6-35.2 1.35-14.4 7.69-26.3 18.3-36 12-9.03 24.8-11.1 39.4-11.2 1.7-0.00762 1.7-0.00762 3.43-0.0154 2.45-0.0107 4.9-0.0193 7.35-0.0261 3.9-0.0118 7.79-0.0313 11.7-0.0531 11.1-0.0616 22.1-0.116 33.2-0.149 6.78-0.0205 13.6-0.0565 20.4-0.101 2.57-0.014 5.14-0.0229 7.71-0.0261 18.2-0.025 35.7-0.906 53.2-6.03 0.854-0.248 1.71-0.495 2.59-0.75 28.2-8.65 54.6-26.8 72.7-50 2.72-3.43 5.52-6.79 8.31-10.2 1.22-1.48 2.44-2.96 3.65-4.43 0.577-0.701 1.15-1.4 1.75-2.12 6.3-7.65 12.5-15.3 18.8-23 4.59-5.65 9.19-11.3 13.8-16.9 0.679-0.831 1.36-1.66 2.06-2.52 4.63-5.67 9.28-11.3 13.9-17 1.8-2.18 3.6-4.37 5.39-6.55 1.37-1.67 2.75-3.33 4.12-4.99 4.02-4.89 7.97-9.84 11.9-14.8 4.12-5.28 8.37-10.4 12.7-15.5 3.29-3.85 6.47-7.78 9.61-11.7 3.06-3.82 6.18-7.59 9.29-11.4 4.34-5.26 8.66-10.5 12.9-15.9 7.97-9.98 16.1-19.8 24.2-29.7 3.61-4.37 7.17-8.78 10.7-13.2 4.8-5.97 9.7-11.9 14.6-17.8 6.31-7.65 12.6-15.4 18.8-23.1 3.09-3.81 6.19-7.61 9.3-11.4 5.86-7.15 11.7-14.3 17.5-21.5 6.53-8.04 13.1-16.1 19.6-24.1 2.97-3.63 5.92-7.27 8.88-10.9 3.66-4.51 7.32-9.01 11-13.5 5.86-7.15 11.7-14.3 17.5-21.5 8.95-11 17.9-22 27-33 8.73-10.6 17.4-21.2 26-31.9 5.39-6.76 10.9-13.4 16.4-20.1 2.86-3.47 5.71-6.95 8.55-10.4 1.45-1.77 2.89-3.54 4.34-5.3 3.5-4.27 6.99-8.54 10.4-12.9 4.22-5.29 8.52-10.5 12.8-15.7 4.56-5.52 9.08-11.1 13.6-16.6 3.98-4.91 8-9.78 12-14.7 4.72-5.71 9.35-11.5 13.9-17.3 3.57-4.57 7.29-9.01 11.1-13.4 3.41-4 6.71-8.07 9.98-12.2 4.67-5.87 9.45-11.6 14.2-17.4 5.54-6.7 11.1-13.4 16.4-20.3 4.01-5.16 8.16-10.2 12.4-15.1 3.29-3.86 6.48-7.79 9.63-11.8 2.99-3.73 6.04-7.41 9.09-11.1 4.33-5.23 8.59-10.5 12.8-15.9 11.8-15.1 24.5-30.8 39.4-42.9 1.03-0.863 2.05-1.73 3.08-2.59 56.6-47 121-58.6 192-58.5 4.4 0.00633 8.81 0.00684 13.2 0.00803 8.3 0.00309 16.6 0.0113 24.9 0.0213 9.47 0.0112 18.9 0.0167 28.4 0.0217 19.4 0.0104 38.9 0.0279 58.3 0.0503-0.00666-0.637-0.0133-1.27-0.0202-1.93-0.0668-6.68-0.112-13.4-0.145-20.1-0.015-2.49-0.0354-4.98-0.0615-7.47-0.0367-3.59-0.0535-7.19-0.0667-10.8-0.0155-1.1-0.031-2.19-0.0469-3.33-0.00347-16.3 5.09-29.2 16.4-40.7 26.8-25 56.3-11 81.9 6.62z" fill="#000002"/>
<path transform="translate(832 915)" d="m0 0c6.11 5.17 10.9 11.2 15.7 17.5 2.65 3.47 5.44 6.8 8.29 10.1 3.71 4.34 7.31 8.74 10.8 13.2 5.81 7.47 11.8 14.8 17.9 22 3.07 3.71 6.14 7.43 9.2 11.1 0.589 0.715 1.18 1.43 1.79 2.17 3.71 4.5 7.37 9.04 11 13.6 2.73 3.42 5.51 6.8 8.29 10.2 3.6 4.39 7.17 8.8 10.7 13.2 3.13 3.86 6.27 7.7 9.43 11.5 3.31 4.04 6.54 8.13 9.75 12.2 4.12 5.28 8.37 10.4 12.7 15.5 2.65 3.1 5.25 6.23 7.79 9.42 0.636 0.797 1.27 1.59 1.93 2.41 1.19 1.5 2.38 3.01 3.56 4.52 18.6 23.7 39.6 42.5 67.6 54.3 1.21 0.514 2.42 1.03 3.66 1.56 18.2 7.46 37.3 9.57 56.8 9.65 1.55 0.00959 3.11 0.0196 4.66 0.03 4.2 0.0269 8.4 0.048 12.6 0.068 4.41 0.022 8.81 0.0493 13.2 0.0761 8.34 0.0498 16.7 0.0948 25 0.138 9.47 0.0493 18.9 0.104 28.4 0.16 14 0.0815 27.9 0.161 41.9 0.235 1.51 0.00799 3.02 0.0161 4.52 0.0242 7.05 0.0379 14.1 0.0749 21.1 0.0639-0.00999-0.971-0.00999-0.971-0.0202-1.96-0.0669-6.8-0.112-13.6-0.145-20.4-0.015-2.53-0.0354-5.06-0.0615-7.59-0.0368-3.66-0.0535-7.31-0.0667-11-0.0155-1.11-0.031-2.23-0.0469-3.38-0.00321-15.3 3.92-29.2 14.5-40.6 11.9-11 25-14.9 40.8-14.4 19 1.07 36.6 16.5 51.8 26.8 1.9 1.29 3.79 2.58 5.69 3.87 3.62 2.46 7.23 4.91 10.8 7.37 5.55 3.77 11.1 7.49 16.7 11.2 2.15 1.43 4.3 2.86 6.45 4.3 1.09 0.725 2.17 1.45 3.29 2.2 13.5 9 27 18 40.5 27 0.898 0.598 1.8 1.2 2.72 1.81 1.8 1.2 3.61 2.41 5.41 3.61 3.97 2.65 7.95 5.3 11.9 7.91 7.19 4.71 14.2 9.54 20.7 15.2 0.949 0.806 0.949 0.806 1.92 1.63 9.1 8.34 14.4 19.8 15.4 32 0.357 14.1-3.15 26.4-12.1 37.5-7.07 7.38-15.7 12.5-24.3 18-7.89 5.1-15.6 10.4-23.4 15.7-20.8 14.1-41.7 27.9-62.7 41.7-6.28 4.13-12.5 8.28-18.8 12.5-1.34 0.896-2.69 1.79-4.03 2.69-0.577 0.385-1.15 0.769-1.75 1.17-1.21 0.804-2.41 1.61-3.62 2.41-2.98 1.98-5.95 3.97-8.91 5.98-15.1 10.2-29.9 18.1-48.8 15.3-14.8-3.28-25.7-11.5-33.9-24.2-7.95-15.2-6.43-32.8-6.25-49.4 0.0151-2.43 0.0288-4.86 0.041-7.3 0.0327-5.9 0.0827-11.8 0.146-17.7-0.879-0.00239-1.76-0.00478-2.66-0.00724-21.5-0.0594-43-0.135-64.5-0.228-10.4-0.0447-20.8-0.0842-31.2-0.111-9.07-0.0232-18.1-0.0567-27.2-0.102-4.79-0.0237-9.59-0.0426-14.4-0.0489-49-0.0731-49-0.0731-72.6-6.19-1.02-0.256-2.03-0.511-3.08-0.775-53.7-13.9-102-43.8-136-87.5-1.5-1.84-3-3.67-4.5-5.5-0.748-0.914-1.5-1.83-2.27-2.77-1.45-1.77-2.9-3.54-4.34-5.3-8.63-10.5-17.3-21.1-25.7-31.8-2.24-2.79-4.51-5.57-6.77-8.35-4.66-5.71-9.28-11.4-13.8-17.3-4.75-6.1-9.65-12.1-14.6-18-3.67-4.43-7.29-8.9-10.9-13.4-2.78-3.48-5.61-6.93-8.42-10.4-4.16-5.1-8.27-10.2-12.3-15.4-4.05-5.2-8.25-10.3-12.5-15.3-3.07-3.61-6.03-7.27-8.9-11-1.56-2-3.15-3.94-4.79-5.88-11.4-13.7-19.5-27.1-18.2-45.6 1.87-14 7.99-26.1 19-35 19.1-13.7 43.7-13.3 62.5 0.898z" fill="#000002"/>
<path transform="translate(158 350)" d="m0 0c1.56-0.00504 1.56-0.00504 3.14-0.0102 3.42-0.00947 6.84-0.0115 10.3-0.0125 2.41-0.00322 4.82-0.00658 7.22-0.0101 5.06-0.00599 10.1-0.00784 15.2-0.00725 5.13 8.07e-5 10.3-0.00677 15.4-0.0205 74.4-0.196 142 6.19 202 54.2 0.539 0.422 1.08 0.843 1.63 1.28 14.9 11.8 28.8 25.7 40.4 40.7 1.41 1.73 2.83 3.46 4.25 5.19 6.51 7.95 13 15.9 19.5 23.9 11.7 14.5 11.7 14.5 23.6 28.9 6.03 7.29 12 14.6 17.8 22.1 3.74 4.79 7.61 9.46 11.5 14.1 7.68 9.16 15.2 18.5 22.7 27.8 2.19 2.7 4.38 5.39 6.57 8.09 1.08 1.33 2.16 2.66 3.24 3.99 3.27 4.02 6.53 8.04 9.81 12.1 1.62 2 3.24 4 4.86 6 2.14 2.64 4.3 5.26 6.48 7.87 10 12.1 18.7 25.5 17.9 41.9-1.47 14.8-7.25 27.5-18.7 37.3-11.8 8.68-24.7 11.8-39.1 10.4-19.4-3.01-30.9-16.5-42.2-31.2-3.13-4.03-6.35-7.96-9.68-11.8-4.27-4.98-8.35-10.1-12.4-15.3-3.12-3.99-6.33-7.88-9.62-11.7-4.19-4.9-8.21-9.9-12.2-15-3.7-4.74-7.5-9.38-11.3-14-4.3-5.19-8.55-10.4-12.7-15.8-4.43-5.69-9.03-11.2-13.7-16.7-3.95-4.63-7.78-9.35-11.6-14.1-0.997-1.23-1.99-2.45-2.99-3.68-2.2-2.71-4.4-5.41-6.6-8.12-2.28-2.81-4.57-5.62-6.85-8.43-1.12-1.38-2.25-2.76-3.37-4.14-0.822-1.01-0.822-1.01-1.66-2.04-2.89-3.55-5.75-7.12-8.59-10.7-25.3-31.6-58-54.6-98.8-61.1-20.4-2.15-41.1-1.83-61.7-1.93-2.21-0.0119-4.41-0.024-6.62-0.0363-13.7-0.0739-13.7-0.0739-27.4-0.114-5.66-0.0101-11.3-0.0395-17-0.0813-2.13-0.0122-4.25-0.0175-6.38-0.0152-16.9 0.0135-30.7-1.11-43.8-13-0.784-0.866-1.57-1.73-2.38-2.62-0.849-0.895-0.849-0.895-1.71-1.81-9.12-9.89-13-21.7-12.6-35.2 1.35-14.4 7.69-26.3 18.3-36 12-9.04 25-11.2 39.6-11.1z" fill="#000002"/>
</svg>
