<?xml version="1.0" encoding="UTF-8"?>
<!-- Generator: visioncortex VTracer 0.6.3 -->
<svg version="1.1" xmlns="http://www.w3.org/2000/svg" width="1280" height="1280">
<path d="M0 0 C1.33 -0.01 1.33 -0.01 2.68 -0.02 C5.64 -0.04 8.61 -0.05 11.57 -0.05 C13.69 -0.06 15.82 -0.07 17.95 -0.09 C23.72 -0.12 29.49 -0.13 35.26 -0.15 C38.88 -0.15 42.49 -0.16 46.1 -0.17 C57.4 -0.21 68.71 -0.23 80.02 -0.24 C93.05 -0.26 106.08 -0.3 119.12 -0.37 C129.2 -0.42 139.29 -0.45 149.37 -0.45 C155.39 -0.46 161.41 -0.47 167.43 -0.51 C173.09 -0.55 178.76 -0.56 184.43 -0.54 C186.5 -0.54 188.57 -0.55 190.64 -0.57 C206.7 -0.75 216.88 2.13 229.84 12.03 C231.1 13.29 231.1 13.29 231.1 15.29 C231.76 15.29 232.42 15.29 233.1 15.29 C243.55 28.8 247.18 41.43 246.1 58.29 C244.4 68.14 239.32 77.56 233.1 85.29 C232.44 85.29 231.78 85.29 231.1 85.29 C230.77 86.28 230.44 87.27 230.1 88.29 C221.12 95.49 210.5 101.43 198.78 101.4 C197.16 101.4 197.16 101.4 195.52 101.4 C194.39 101.4 193.27 101.39 192.11 101.39 C191.07 101.38 190.04 101.38 188.97 101.38 C185.09 101.38 181.22 101.36 177.35 101.35 C168.68 101.33 160.02 101.31 151.1 101.29 C151.1 131.32 151.1 161.35 151.1 192.29 C156.05 192.29 161 192.29 166.1 192.29 C169.53 192.66 172.83 193.07 176.22 193.66 C177.07 193.8 177.91 193.94 178.78 194.08 C180.46 194.35 182.13 194.63 183.8 194.91 C186.94 195.43 190.08 195.89 193.22 196.35 C206.65 198.44 206.65 198.44 211.88 200.26 C216.27 201.66 220.73 202.38 225.26 203.14 C229.12 203.82 232.49 204.81 236.1 206.29 C238.42 206.83 240.76 207.32 243.1 207.79 C247.34 208.63 251.11 209.64 255.1 211.29 C258.55 212.31 262.02 213.27 265.49 214.22 C271.57 215.9 277.45 217.71 283.26 220.15 C287.73 221.94 292.3 223.47 296.86 225.01 C301.2 226.5 305.25 228.28 309.33 230.39 C311.38 231.43 313.45 232.29 315.6 233.1 C326.88 237.54 337.75 242.48 348.39 248.29 C354.21 251.45 360.16 254.36 366.1 257.29 C366.1 257.95 366.1 258.61 366.1 259.29 C367.75 259.62 369.4 259.95 371.1 260.29 C371.1 260.95 371.1 261.61 371.1 262.29 C372.16 262.43 372.16 262.43 373.25 262.57 C376.59 263.41 378.8 264.81 381.66 266.73 C384.74 268.77 387.74 270.72 391.1 272.29 C391.1 272.95 391.1 273.61 391.1 274.29 C391.67 274.41 392.25 274.54 392.85 274.66 C395.12 275.29 397.02 276.18 399.1 277.29 C399.1 277.95 399.1 278.61 399.1 279.29 C399.74 279.5 400.38 279.71 401.04 279.92 C405.36 281.85 409.09 284.48 412.97 287.16 C413.81 287.74 414.65 288.31 415.51 288.91 C422.77 293.95 429.68 299.37 436.5 304.99 C439.98 307.82 443.54 310.55 447.1 313.29 C451.17 311.66 453.92 308.76 456.97 305.71 C457.83 304.85 457.83 304.85 458.71 303.98 C460.61 302.1 462.5 300.22 464.39 298.33 C465.71 297.02 467.03 295.71 468.34 294.4 C471.1 291.65 473.86 288.9 476.61 286.15 C480.14 282.62 483.68 279.1 487.23 275.59 C489.95 272.89 492.66 270.18 495.37 267.47 C496.68 266.17 497.98 264.87 499.29 263.58 C501.12 261.77 502.93 259.95 504.74 258.13 C505.29 257.59 505.83 257.06 506.4 256.51 C509.74 253.11 509.74 253.11 510.1 248.29 C509.44 248.29 508.78 248.29 508.1 248.29 C506.47 246.91 506.47 246.91 505.1 245.29 C505.1 244.63 505.1 243.97 505.1 243.29 C504.44 243.29 503.78 243.29 503.1 243.29 C501.47 241.91 501.47 241.91 500.1 240.29 C500.1 239.63 500.1 238.97 500.1 238.29 C499.44 238.29 498.78 238.29 498.1 238.29 C496.47 236.91 496.47 236.91 495.1 235.29 C495.1 234.63 495.1 233.97 495.1 233.29 C494.44 233.29 493.78 233.29 493.1 233.29 C491.47 231.91 491.47 231.91 490.1 230.29 C490.1 229.63 490.1 228.97 490.1 228.29 C489.44 228.29 488.78 228.29 488.1 228.29 C486.47 226.91 486.47 226.91 485.1 225.29 C485.1 224.63 485.1 223.97 485.1 223.29 C484.44 223.29 483.78 223.29 483.1 223.29 C472.64 213.64 466.51 200.31 465.1 186.29 C465.14 182.89 465.52 179.64 466.1 176.29 C466.22 175.53 466.35 174.76 466.48 173.98 C469.21 159.77 477.44 149.12 489 140.7 C500.41 133 513.5 130.5 527.08 132.79 C544.97 137.21 556.16 150.2 568.72 162.76 C570.06 164.1 571.4 165.44 572.74 166.78 C576.35 170.38 579.96 173.99 583.57 177.6 C585.83 179.85 588.09 182.11 590.34 184.36 C598.22 192.23 606.09 200.09 613.96 207.96 C621.29 215.3 628.64 222.63 635.98 229.96 C642.3 236.27 648.61 242.57 654.91 248.88 C658.68 252.64 662.45 256.41 666.22 260.16 C669.75 263.69 673.28 267.22 676.81 270.76 C678.11 272.05 679.41 273.35 680.71 274.65 C682.48 276.41 684.24 278.18 686 279.94 C686.52 280.46 687.05 280.98 687.58 281.51 C691.1 285.06 691.1 285.06 691.1 287.29 C691.76 287.29 692.42 287.29 693.1 287.29 C694.06 289.01 695.02 290.74 695.97 292.48 C696.77 293.92 696.77 293.92 697.59 295.39 C703.55 306.85 704.56 320.89 701.1 333.29 C698.64 339.6 695.57 346.17 691.1 351.29 C690.44 351.29 689.78 351.29 689.1 351.29 C688.83 351.93 688.56 352.57 688.28 353.23 C687.1 355.29 687.1 355.29 684.1 356.29 C684.1 356.95 684.1 357.61 684.1 358.29 C681.89 359.59 679.68 360.88 677.47 362.16 C676.55 362.71 676.55 362.71 675.6 363.27 C664.2 369.87 650.95 370.54 638.1 368.29 C629.47 365.78 621.8 361.26 615.1 355.29 C615.1 354.63 615.1 353.97 615.1 353.29 C614.44 353.29 613.78 353.29 613.1 353.29 C611.47 351.91 611.47 351.91 610.1 350.29 C610.1 349.63 610.1 348.97 610.1 348.29 C609.44 348.29 608.78 348.29 608.1 348.29 C606.47 346.91 606.47 346.91 605.1 345.29 C605.1 344.63 605.1 343.97 605.1 343.29 C604.44 343.29 603.78 343.29 603.1 343.29 C601.47 341.91 601.47 341.91 600.1 340.29 C600.1 339.63 600.1 338.97 600.1 338.29 C599.44 338.29 598.78 338.29 598.1 338.29 C596.47 336.91 596.47 336.91 595.1 335.29 C595.1 334.63 595.1 333.97 595.1 333.29 C594.44 333.29 593.78 333.29 593.1 333.29 C591.47 331.91 591.47 331.91 590.1 330.29 C590.1 329.63 590.1 328.97 590.1 328.29 C589.44 328.29 588.78 328.29 588.1 328.29 C586.72 327 585.39 325.66 584.1 324.29 C583.11 324.62 582.12 324.95 581.1 325.29 C580.77 326.28 580.44 327.27 580.1 328.29 C579.44 328.29 578.78 328.29 578.1 328.29 C578.1 328.95 578.1 329.61 578.1 330.29 C577.44 330.29 576.78 330.29 576.1 330.29 C575.77 331.28 575.44 332.27 575.1 333.29 C574.44 333.29 573.78 333.29 573.1 333.29 C573.1 333.95 573.1 334.61 573.1 335.29 C572.44 335.29 571.78 335.29 571.1 335.29 C570.77 336.28 570.44 337.27 570.1 338.29 C569.44 338.29 568.78 338.29 568.1 338.29 C568.1 338.95 568.1 339.61 568.1 340.29 C567.44 340.29 566.78 340.29 566.1 340.29 C565.77 341.28 565.44 342.27 565.1 343.29 C564.44 343.29 563.78 343.29 563.1 343.29 C563.1 343.95 563.1 344.61 563.1 345.29 C562.44 345.29 561.78 345.29 561.1 345.29 C560.77 346.28 560.44 347.27 560.1 348.29 C559.44 348.29 558.78 348.29 558.1 348.29 C558.1 348.95 558.1 349.61 558.1 350.29 C557.44 350.29 556.78 350.29 556.1 350.29 C555.77 351.28 555.44 352.27 555.1 353.29 C554.44 353.29 553.78 353.29 553.1 353.29 C553.1 353.95 553.1 354.61 553.1 355.29 C552.44 355.29 551.78 355.29 551.1 355.29 C550.77 356.28 550.44 357.27 550.1 358.29 C549.44 358.29 548.78 358.29 548.1 358.29 C548.1 358.95 548.1 359.61 548.1 360.29 C547.44 360.29 546.78 360.29 546.1 360.29 C545.77 361.28 545.44 362.27 545.1 363.29 C544.44 363.29 543.78 363.29 543.1 363.29 C543.1 363.95 543.1 364.61 543.1 365.29 C542.44 365.29 541.78 365.29 541.1 365.29 C540.77 366.28 540.44 367.27 540.1 368.29 C539.44 368.29 538.78 368.29 538.1 368.29 C538.1 368.95 538.1 369.61 538.1 370.29 C537.44 370.29 536.78 370.29 536.1 370.29 C535.85 370.87 535.6 371.44 535.35 372.04 C533.91 374.62 532.31 376.35 530.1 378.29 C529.44 378.29 528.78 378.29 528.1 378.29 C528.1 378.95 528.1 379.61 528.1 380.29 C527.44 380.29 526.78 380.29 526.1 380.29 C525.77 381.28 525.44 382.27 525.1 383.29 C524.44 383.29 523.78 383.29 523.1 383.29 C522.44 385.27 521.78 387.25 521.1 389.29 C521.76 389.29 522.42 389.29 523.1 389.29 C526.1 392.75 526.1 392.75 526.1 395.29 C526.76 395.29 527.42 395.29 528.1 395.29 C528.43 396.61 528.76 397.93 529.1 399.29 C529.76 399.29 530.42 399.29 531.1 399.29 C534.1 402.75 534.1 402.75 534.1 405.29 C534.76 405.29 535.42 405.29 536.1 405.29 C539.1 409.67 539.1 409.67 539.1 412.29 C539.76 412.29 540.42 412.29 541.1 412.29 C542.9 414.52 544.57 416.76 546.22 419.1 C546.69 419.74 547.16 420.39 547.64 421.05 C551.1 425.91 551.1 425.91 551.1 429.29 C551.76 429.29 552.42 429.29 553.1 429.29 C554.61 431.38 554.61 431.38 556.35 434.23 C558.55 437.8 560.78 441.33 563.16 444.79 C565.84 448.79 568.12 452.93 570.39 457.18 C572.78 461.53 575.35 465.76 577.94 469.99 C584.1 480.11 584.1 480.11 584.1 484.29 C584.76 484.29 585.42 484.29 586.1 484.29 C586.48 485.22 586.87 486.15 587.27 487.1 C590.38 494.75 590.38 494.75 594.22 502.04 C596.24 505.54 597.65 509.07 599.1 512.84 C599.96 514.95 600.9 516.91 601.97 518.91 C604.7 524.19 606.6 529.82 608.65 535.39 C609.78 538.46 610.98 541.51 612.22 544.54 C613.99 548.91 615.5 553.34 616.96 557.82 C617.81 560.42 618.69 563.01 619.58 565.6 C622.3 573.53 624.78 581.35 626.46 589.59 C627.02 592.28 627.02 592.28 628.08 594.68 C629.37 597.98 629.95 601.25 630.6 604.73 C631.47 609.41 632.53 613.79 634.1 618.29 C635.5 623.53 636.29 628.72 636.82 634.12 C637.17 636.83 637.86 639.44 638.56 642.08 C640.56 650.26 641.3 658.48 641.82 666.87 C642.07 669.97 642.52 672.92 643.1 675.98 C644.22 682.17 644.51 688.34 644.75 694.61 C644.79 695.39 644.82 696.17 644.85 696.97 C644.89 698 644.89 698 644.92 699.05 C645.07 701.39 645.07 701.39 645.6 704.07 C646.07 707.11 646.22 709.94 646.23 713.01 C646.23 714.67 646.23 714.67 646.24 716.35 C646.23 717.53 646.23 718.7 646.23 719.91 C646.23 721.13 646.23 722.35 646.23 723.61 C646.23 726.19 646.23 728.76 646.23 731.34 C646.22 735.27 646.23 739.21 646.23 743.15 C646.23 745.65 646.23 748.16 646.23 750.66 C646.23 752.43 646.23 752.43 646.24 754.22 C646.23 755.32 646.23 756.43 646.23 757.56 C646.22 759.01 646.22 759.01 646.22 760.48 C646.09 763.48 645.63 766.33 645.1 769.29 C644.98 770.73 644.9 772.17 644.85 773.61 C644.82 774.38 644.79 775.16 644.75 775.96 C644.72 776.77 644.69 777.58 644.66 778.41 C644.37 784.87 643.77 791.06 642.56 797.42 C642.04 800.61 641.84 803.75 641.66 806.98 C641.31 812.58 640.58 818.02 639.6 823.54 C639.4 824.65 639.4 824.65 639.2 825.78 C638.24 831.01 638.24 831.01 637.1 833.29 C636.96 834.68 636.87 836.08 636.78 837.48 C636.26 843.3 634.72 848.7 633.14 854.32 C631.73 859.5 630.77 864.76 629.81 870.05 C629.16 873.01 628.23 875.49 627.1 878.29 C626.42 880.89 625.77 883.48 625.16 886.1 C623.99 890.92 622.76 895.59 620.87 900.17 C619.78 903.14 618.99 906.18 618.16 909.23 C616.84 913.94 615.34 918.27 613.23 922.68 C611.35 927.02 609.88 931.51 608.38 936 C606.89 940.37 605.11 944.42 602.99 948.53 C601.96 950.57 601.13 952.64 600.35 954.79 C598.33 959.94 595.88 964.85 593.36 969.77 C591.49 973.46 589.68 977.15 587.96 980.91 C583.79 990.03 579.28 998.68 573.9 1007.15 C570.98 1011.74 568.46 1016.38 566.1 1021.29 C565.44 1021.29 564.78 1021.29 564.1 1021.29 C563.98 1021.87 563.86 1022.45 563.73 1023.04 C562.63 1026.93 560.3 1030.14 558.16 1033.54 C557.48 1034.66 557.48 1034.66 556.78 1035.8 C556.12 1036.85 556.12 1036.85 555.44 1037.93 C555.04 1038.57 554.64 1039.22 554.23 1039.88 C553.85 1040.35 553.48 1040.81 553.1 1041.29 C552.44 1041.29 551.78 1041.29 551.1 1041.29 C551.02 1041.81 550.95 1042.33 550.87 1042.87 C549.76 1046.33 547.73 1049.09 545.66 1052.04 C545.05 1052.94 545.05 1052.94 544.42 1053.86 C543.37 1055.38 542.24 1056.84 541.1 1058.29 C540.44 1058.29 539.78 1058.29 539.1 1058.29 C538.79 1059.07 538.48 1059.86 538.16 1060.66 C537.1 1063.29 537.1 1063.29 536.1 1065.29 C535.44 1065.29 534.78 1065.29 534.1 1065.29 C533.86 1065.82 533.62 1066.36 533.38 1066.91 C531.73 1069.96 529.67 1072.62 527.53 1075.35 C527.1 1075.91 526.66 1076.48 526.2 1077.06 C524.84 1078.81 523.47 1080.55 522.1 1082.29 C521.66 1082.84 521.23 1083.39 520.78 1083.97 C519.56 1085.52 518.33 1087.06 517.1 1088.6 C516.37 1089.5 515.65 1090.41 514.91 1091.34 C514.31 1091.98 513.71 1092.62 513.1 1093.29 C512.44 1093.29 511.78 1093.29 511.1 1093.29 C510.83 1093.87 510.56 1094.44 510.28 1095.04 C509.07 1097.34 507.79 1099.31 506.1 1101.29 C505.44 1101.29 504.78 1101.29 504.1 1101.29 C503.73 1102.15 503.73 1102.15 503.35 1103.03 C501.9 1105.64 500.19 1107.35 498.03 1109.41 C495.18 1112.07 495.18 1112.07 493.1 1115.29 C492.44 1115.29 491.78 1115.29 491.1 1115.29 C490.86 1115.85 490.62 1116.41 490.38 1116.99 C488.81 1119.81 486.88 1121.77 484.6 1124.04 C483.8 1124.84 483.01 1125.64 482.19 1126.46 C480.1 1128.29 480.1 1128.29 478.1 1128.29 C478.1 1128.95 478.1 1129.61 478.1 1130.29 C476.49 1131.87 476.49 1131.87 474.35 1133.66 C472.03 1135.63 469.84 1137.55 467.72 1139.73 C466.1 1141.29 466.1 1141.29 464.1 1141.29 C464.1 1141.95 464.1 1142.61 464.1 1143.29 C458.62 1148.29 458.62 1148.29 456.1 1148.29 C456.1 1148.95 456.1 1149.61 456.1 1150.29 C453.98 1152.23 453.98 1152.23 451.22 1154.41 C450.32 1155.14 449.41 1155.86 448.48 1156.61 C446.1 1158.29 446.1 1158.29 444.1 1158.29 C444.1 1158.95 444.1 1159.61 444.1 1160.29 C442.36 1161.73 440.56 1163.1 438.72 1164.41 C437.72 1165.14 436.73 1165.86 435.7 1166.61 C433.1 1168.29 433.1 1168.29 431.1 1168.29 C431.1 1168.95 431.1 1169.61 431.1 1170.29 C429.68 1171.55 429.68 1171.55 427.69 1172.98 C426.95 1173.5 426.21 1174.03 425.46 1174.58 C424.66 1175.14 423.86 1175.71 423.03 1176.29 C421.82 1177.15 421.82 1177.15 420.58 1178.04 C414.19 1182.58 407.69 1186.96 401.14 1191.26 C398.18 1193.17 398.18 1193.17 395.87 1195.06 C394.1 1196.29 394.1 1196.29 391.1 1196.29 C391.1 1196.95 391.1 1197.61 391.1 1198.29 C390.15 1198.82 389.2 1199.36 388.22 1199.91 C382.57 1203.14 376.95 1206.45 371.48 1209.97 C369.1 1211.29 369.1 1211.29 366.1 1211.29 C366.1 1211.95 366.1 1212.61 366.1 1213.29 C364.59 1214.03 364.59 1214.03 363.05 1214.79 C356.38 1218.1 349.75 1221.44 343.22 1225.04 C338.77 1227.46 334.36 1229.47 329.62 1231.26 C326.71 1232.45 323.95 1233.85 321.16 1235.29 C316.42 1237.71 311.68 1239.63 306.65 1241.37 C304.37 1242.19 302.22 1243.12 300.03 1244.16 C294.76 1246.58 289.25 1248.31 283.74 1250.09 C278.81 1251.7 273.95 1253.45 269.1 1255.29 C261.48 1257.96 253.83 1260.2 245.92 1261.82 C244.09 1262.12 244.09 1262.12 243.1 1263.29 C240.99 1263.76 238.87 1264.24 236.76 1264.69 C234.03 1265.3 231.35 1266.03 228.66 1266.79 C224.43 1267.96 220.21 1268.93 215.89 1269.75 C213.75 1270.16 211.62 1270.6 209.49 1271.04 C203.08 1272.37 196.8 1273.52 190.28 1274.04 C188.17 1274.28 186.27 1274.71 184.22 1275.29 C179.78 1276.51 175.32 1276.75 170.73 1277.04 C167.99 1277.2 167.99 1277.2 165.1 1278.29 C161.48 1278.55 157.88 1278.73 154.26 1278.89 C151 1279.06 148.21 1279.25 145.1 1280.29 C142.24 1280.38 139.4 1280.42 136.54 1280.42 C135.67 1280.42 134.79 1280.42 133.9 1280.42 C131 1280.43 128.11 1280.42 125.22 1280.42 C123.22 1280.42 121.21 1280.42 119.2 1280.42 C115 1280.42 110.79 1280.42 106.58 1280.42 C101.19 1280.41 95.79 1280.42 90.39 1280.42 C86.25 1280.43 82.1 1280.42 77.96 1280.42 C75.97 1280.42 73.98 1280.42 71.99 1280.42 C69.21 1280.43 66.43 1280.42 63.65 1280.42 C62.41 1280.42 62.41 1280.42 61.15 1280.42 C57.87 1280.41 55.23 1280.33 52.1 1279.29 C50.72 1279.15 49.35 1279.06 47.97 1279.01 C46.79 1278.95 46.79 1278.95 45.58 1278.89 C44.76 1278.86 43.94 1278.82 43.1 1278.79 C41.47 1278.72 39.85 1278.65 38.22 1278.57 C37.14 1278.52 37.14 1278.52 36.04 1278.48 C34.1 1278.29 34.1 1278.29 31.1 1277.29 C28.51 1276.97 25.93 1276.68 23.35 1276.41 C16.32 1275.64 9.51 1274.47 2.59 1273.01 C-0.63 1272.34 -3.84 1271.79 -7.09 1271.29 C-11.97 1270.5 -16.7 1269.39 -21.48 1268.14 C-26.49 1266.89 -31.54 1265.81 -36.59 1264.73 C-41.67 1263.63 -46.55 1262.31 -51.34 1260.23 C-53.96 1259.15 -53.96 1259.15 -57.15 1258.91 C-61.14 1258.25 -64.11 1256.96 -67.73 1255.26 C-70.71 1253.92 -73.75 1253.13 -76.9 1252.29 C-83.54 1250.4 -89.86 1248.51 -95.95 1245.22 C-98.92 1243.8 -102.03 1243.01 -105.22 1242.19 C-108.21 1241.18 -110.87 1239.83 -113.67 1238.39 C-117.68 1236.41 -121.84 1234.76 -125.97 1233.04 C-133.77 1229.75 -141.27 1226.16 -148.68 1222.06 C-151.49 1220.51 -154.33 1219.07 -157.22 1217.66 C-161.56 1215.53 -165.67 1213.08 -169.77 1210.52 C-171.97 1209.15 -171.97 1209.15 -174.9 1208.29 C-174.9 1207.63 -174.9 1206.97 -174.9 1206.29 C-175.42 1206.21 -175.93 1206.13 -176.46 1206.05 C-179.96 1204.96 -182.92 1203.06 -186.03 1201.16 C-187.02 1200.56 -187.02 1200.56 -188.04 1199.95 C-192.82 1197.03 -197.43 1193.92 -201.95 1190.6 C-203.97 1189.12 -203.97 1189.12 -206.9 1188.29 C-206.9 1187.63 -206.9 1186.97 -206.9 1186.29 C-207.42 1186.04 -207.93 1185.79 -208.47 1185.54 C-211.68 1183.89 -214.78 1182.09 -217.9 1180.29 C-217.9 1179.63 -217.9 1178.97 -217.9 1178.29 C-218.5 1178.16 -219.1 1178.04 -219.72 1177.91 C-221.9 1177.29 -221.9 1177.29 -224.9 1175.29 C-224.9 1174.63 -224.9 1173.97 -224.9 1173.29 C-225.89 1173.29 -226.88 1173.29 -227.9 1173.29 C-227.9 1172.63 -227.9 1171.97 -227.9 1171.29 C-228.44 1171.04 -228.98 1170.79 -229.53 1170.54 C-232.49 1168.98 -235.2 1167.25 -237.9 1165.29 C-237.9 1164.63 -237.9 1163.97 -237.9 1163.29 C-238.63 1163.04 -239.36 1162.8 -240.11 1162.55 C-243.24 1161.13 -245.16 1159.47 -247.65 1157.1 C-251.69 1153.34 -255.84 1149.95 -260.29 1146.7 C-261.09 1146 -261.09 1146 -261.9 1145.29 C-261.9 1144.63 -261.9 1143.97 -261.9 1143.29 C-262.48 1143.02 -263.06 1142.75 -263.65 1142.48 C-265.96 1141.26 -267.92 1139.98 -269.9 1138.29 C-269.9 1137.63 -269.9 1136.97 -269.9 1136.29 C-270.89 1135.96 -271.88 1135.63 -272.9 1135.29 C-272.9 1134.63 -272.9 1133.97 -272.9 1133.29 C-273.56 1133.29 -274.22 1133.29 -274.9 1133.29 C-274.9 1132.63 -274.9 1131.97 -274.9 1131.29 C-275.89 1130.96 -276.88 1130.63 -277.9 1130.29 C-277.9 1129.63 -277.9 1128.97 -277.9 1128.29 C-278.72 1127.96 -278.72 1127.96 -279.54 1127.63 C-282.72 1125.82 -285.11 1123.37 -287.65 1120.79 C-288.16 1120.29 -288.67 1119.79 -289.19 1119.28 C-292.9 1115.54 -292.9 1115.54 -292.9 1113.29 C-293.56 1113.29 -294.22 1113.29 -294.9 1113.29 C-294.9 1112.63 -294.9 1111.97 -294.9 1111.29 C-295.89 1110.96 -296.88 1110.63 -297.9 1110.29 C-297.9 1109.63 -297.9 1108.97 -297.9 1108.29 C-298.56 1108.29 -299.22 1108.29 -299.9 1108.29 C-299.9 1107.63 -299.9 1106.97 -299.9 1106.29 C-300.89 1105.96 -301.88 1105.63 -302.9 1105.29 C-302.9 1104.63 -302.9 1103.97 -302.9 1103.29 C-303.56 1103.29 -304.22 1103.29 -304.9 1103.29 C-306.38 1101.65 -307.79 1099.95 -309.15 1098.23 C-311.86 1094.83 -314.58 1091.47 -317.47 1088.23 C-319.9 1085.29 -319.9 1085.29 -319.9 1083.29 C-320.89 1082.96 -321.88 1082.63 -322.9 1082.29 C-324.29 1080.73 -324.29 1080.73 -325.59 1078.85 C-326.03 1078.23 -326.46 1077.62 -326.92 1076.98 C-327.9 1075.29 -327.9 1075.29 -327.9 1073.29 C-328.56 1073.29 -329.22 1073.29 -329.9 1073.29 C-336.91 1065.92 -342.47 1056.65 -348.39 1048.39 C-349.37 1047.03 -350.35 1045.67 -351.34 1044.3 C-359.06 1033.58 -359.06 1033.58 -359.9 1028.29 C-360.56 1028.29 -361.22 1028.29 -361.9 1028.29 C-363.11 1026.7 -363.11 1026.7 -364.43 1024.49 C-364.92 1023.7 -365.4 1022.9 -365.89 1022.08 C-366.64 1020.82 -366.64 1020.82 -367.4 1019.54 C-367.9 1018.71 -368.4 1017.89 -368.92 1017.04 C-374.9 1007.08 -374.9 1007.08 -374.9 1003.29 C-375.56 1003.29 -376.22 1003.29 -376.9 1003.29 C-377.23 1001.64 -377.56 999.99 -377.9 998.29 C-378.56 998.29 -379.22 998.29 -379.9 998.29 C-384.43 989.36 -388.85 980.39 -393.15 971.35 C-393.57 970.49 -393.98 969.62 -394.4 968.74 C-396.99 963.29 -399.48 957.81 -401.9 952.29 C-402.4 951.17 -402.89 950.06 -403.4 948.91 C-407.21 940.14 -410.64 931.27 -413.9 922.29 C-414.16 921.58 -414.42 920.88 -414.69 920.15 C-417.76 911.72 -420.57 903.3 -422.97 894.65 C-424.79 888.12 -426.76 881.62 -428.96 875.2 C-429.78 872.67 -430.37 870.27 -430.84 867.66 C-431.51 864.11 -432.33 860.65 -433.28 857.16 C-435.21 849.67 -436.34 842.03 -437.55 834.39 C-437.71 833.37 -437.87 832.36 -438.04 831.31 C-438.18 830.39 -438.32 829.47 -438.47 828.53 C-438.8 826.26 -438.8 826.26 -439.9 824.29 C-440.09 822.48 -440.23 820.66 -440.34 818.85 C-440.64 814.87 -441.07 811.02 -441.84 807.1 C-444.82 791.6 -445.54 775.9 -446.15 760.16 C-446.2 759.04 -446.24 757.92 -446.29 756.77 C-447.46 725.78 -447.08 694.29 -442.26 663.59 C-441.9 661.26 -441.59 658.94 -441.3 656.61 C-441.21 655.89 -441.12 655.17 -441.03 654.44 C-440.91 653.43 -440.91 653.43 -440.78 652.41 C-440.03 646.54 -440.03 646.54 -438.9 644.29 C-438.58 642.17 -438.3 640.04 -438.03 637.91 C-437.25 632.2 -436.1 626.74 -434.63 621.16 C-433.69 617.43 -433.03 613.67 -432.37 609.89 C-431.11 602.84 -429.7 595.59 -426.93 588.96 C-425.45 585.11 -424.62 581.15 -423.68 577.13 C-422.99 574.59 -422.08 572.62 -420.9 570.29 C-420.45 568.55 -420.04 566.8 -419.65 565.04 C-417.47 555.94 -414.03 547.23 -410.34 538.65 C-409.1 535.74 -408 532.84 -406.97 529.85 C-405.52 525.83 -403.88 522.08 -401.9 518.3 C-400.8 516.07 -399.91 513.8 -399.03 511.48 C-397.19 506.74 -394.83 502.43 -392.34 498.01 C-390.99 495.45 -389.92 492.93 -388.9 490.23 C-387.16 485.61 -384.81 481.58 -382.17 477.42 C-380.76 475.23 -380.76 475.23 -379.9 472.29 C-379.24 472.29 -378.58 472.29 -377.9 472.29 C-377.79 471.55 -377.67 470.82 -377.56 470.07 C-376.89 467.22 -375.97 465.33 -374.46 462.85 C-373.96 462.02 -373.47 461.2 -372.95 460.35 C-372.42 459.48 -371.89 458.62 -371.34 457.73 C-370.8 456.83 -370.25 455.94 -369.69 455.02 C-366.15 449.22 -362.5 443.53 -358.68 437.92 C-356.96 435.37 -355.33 432.78 -353.72 430.16 C-344.88 416.25 -334.75 403.34 -324.1 390.79 C-322.81 389.28 -322.81 389.28 -321.9 387.29 C-321.24 387.29 -320.58 387.29 -319.9 387.29 C-319.7 386.61 -319.49 385.93 -319.28 385.23 C-317.47 381.37 -315 378.21 -311.9 375.29 C-311.24 375.29 -310.58 375.29 -309.9 375.29 C-309.5 374.42 -309.5 374.42 -309.09 373.54 C-307.87 371.23 -306.6 369.27 -304.9 367.29 C-304.24 367.29 -303.58 367.29 -302.9 367.29 C-302.57 366.3 -302.24 365.31 -301.9 364.29 C-301.24 364.29 -300.58 364.29 -299.9 364.29 C-299.9 363.63 -299.9 362.97 -299.9 362.29 C-299.24 362.29 -298.58 362.29 -297.9 362.29 C-297.57 361.3 -297.24 360.31 -296.9 359.29 C-296.24 359.29 -295.58 359.29 -294.9 359.29 C-294.63 358.69 -294.37 358.1 -294.09 357.49 C-292.9 355.28 -291.7 353.82 -289.93 352.05 C-289.36 351.48 -288.79 350.91 -288.2 350.31 C-287.61 349.73 -287.02 349.14 -286.4 348.54 C-285.81 347.94 -285.21 347.33 -284.6 346.71 C-284.03 346.14 -283.46 345.58 -282.87 344.99 C-282.35 344.47 -281.83 343.95 -281.29 343.42 C-279.9 342.29 -279.9 342.29 -277.9 342.29 C-277.57 341.3 -277.24 340.31 -276.9 339.29 C-276.24 339.29 -275.58 339.29 -274.9 339.29 C-274.9 338.63 -274.9 337.97 -274.9 337.29 C-274.24 337.29 -273.58 337.29 -272.9 337.29 C-272.57 336.3 -272.24 335.31 -271.9 334.29 C-271.24 334.29 -270.58 334.29 -269.9 334.29 C-269.9 333.63 -269.9 332.97 -269.9 332.29 C-268.33 330.87 -266.69 329.53 -265.03 328.23 C-260.12 324.32 -255.48 320.23 -250.9 315.94 C-248.9 314.29 -248.9 314.29 -246.9 314.29 C-246.9 313.63 -246.9 312.97 -246.9 312.29 C-245.44 311 -245.44 311 -243.53 309.66 C-242.9 309.22 -242.28 308.77 -241.63 308.31 C-239.9 307.29 -239.9 307.29 -237.9 307.29 C-237.9 306.63 -237.9 305.97 -237.9 305.29 C-236.17 303.84 -234.36 302.48 -232.53 301.16 C-231.53 300.44 -230.53 299.71 -229.51 298.97 C-226.9 297.29 -226.9 297.29 -224.9 297.29 C-224.9 296.63 -224.9 295.97 -224.9 295.29 C-220.52 292.29 -220.52 292.29 -217.9 292.29 C-217.9 291.63 -217.9 290.97 -217.9 290.29 C-216.01 288.78 -216.01 288.78 -213.53 287.16 C-212.72 286.62 -211.9 286.08 -211.07 285.53 C-208.9 284.29 -208.9 284.29 -206.9 284.29 C-206.9 283.63 -206.9 282.97 -206.9 282.29 C-205.98 281.77 -205.05 281.26 -204.09 280.73 C-199.87 278.32 -195.81 275.69 -191.72 273.07 C-188.38 270.95 -184.99 268.92 -181.58 266.9 C-177.35 264.36 -173.17 261.73 -168.98 259.12 C-160.86 254.29 -160.86 254.29 -156.9 254.29 C-156.9 253.63 -156.9 252.97 -156.9 252.29 C-156.23 252.04 -155.55 251.79 -154.85 251.53 C-151.34 250.05 -148.05 248.25 -144.72 246.41 C-139.6 243.64 -134.53 241.19 -129.08 239.14 C-127.04 238.34 -125.15 237.43 -123.22 236.41 C-118.77 234.12 -114.13 232.33 -109.47 230.51 C-105.97 229.13 -102.51 227.69 -99.09 226.1 C-95.27 224.36 -91.39 223.21 -87.36 222.06 C-85 221.32 -82.88 220.41 -80.65 219.35 C-75.74 217.07 -70.66 215.72 -65.45 214.29 C-62.2 213.37 -59.03 212.33 -55.84 211.23 C-50.68 209.47 -45.49 208.19 -40.17 207.01 C-36.82 206.27 -33.49 205.48 -30.15 204.66 C-29.17 204.42 -28.18 204.18 -27.17 203.94 C-24.95 203.5 -24.95 203.5 -23.9 202.29 C-22.51 202.1 -21.11 201.96 -19.72 201.85 C-15.84 201.46 -12.59 200.57 -8.9 199.29 C2.38 196.62 13.94 195.23 25.45 193.98 C28.48 193.65 31.19 193.26 34.1 192.29 C38.72 192.29 43.34 192.29 48.1 192.29 C48.1 162.26 48.1 132.23 48.1 101.29 C31.48 101.41 31.48 101.41 14.86 101.56 C12.76 101.57 10.65 101.57 8.55 101.58 C6.95 101.6 6.95 101.6 5.31 101.63 C-3.83 101.63 -12.6 100.31 -20.4 95.23 C-21.2 94.72 -21.99 94.21 -22.81 93.69 C-23.5 93.23 -24.19 92.76 -24.9 92.29 C-25.89 91.63 -26.88 90.97 -27.9 90.29 C-27.9 89.63 -27.9 88.97 -27.9 88.29 C-28.54 88.02 -29.18 87.75 -29.84 87.48 C-31.9 86.29 -31.9 86.29 -32.9 83.29 C-33.56 83.29 -34.22 83.29 -34.9 83.29 C-44.24 71.94 -47.17 59.23 -46.82 44.8 C-45.75 35.1 -41.39 24.67 -34.9 17.29 C-34.24 17.29 -33.58 17.29 -32.9 17.29 C-32.64 16.65 -32.37 16.01 -32.09 15.35 C-30.9 13.29 -30.9 13.29 -27.9 12.29 C-27.57 11.3 -27.24 10.31 -26.9 9.29 C-24.39 7.53 -24.39 7.53 -21.22 5.73 C-20.18 5.13 -19.15 4.53 -18.08 3.91 C-11.9 0.75 -6.82 -0.01 0 0 Z M71.1 292.29 C69.66 292.39 68.22 292.46 66.78 292.5 C55.16 292.89 43.86 294.11 32.39 295.93 C30.4 296.24 28.41 296.52 26.41 296.79 C19.3 297.76 12.51 299.43 5.61 301.34 C1.14 302.55 -3.36 303.43 -7.9 304.29 C-13.14 305.33 -18.16 306.63 -23.2 308.37 C-26.67 309.55 -30.16 310.64 -33.65 311.73 C-34.34 311.94 -35.03 312.16 -35.74 312.38 C-39 313.4 -42.27 314.39 -45.54 315.36 C-50.95 316.95 -55.94 318.62 -60.9 321.3 C-63.24 322.46 -65.62 323.3 -68.09 324.16 C-73.89 326.22 -79.4 328.72 -84.95 331.36 C-87.16 332.41 -89.38 333.44 -91.6 334.46 C-99.15 337.97 -106.59 341.45 -113.65 345.89 C-117.09 348.02 -120.65 349.91 -124.21 351.83 C-128.13 353.95 -132.01 356.12 -135.9 358.29 C-135.9 358.95 -135.9 359.61 -135.9 360.29 C-136.63 360.56 -137.36 360.83 -138.11 361.11 C-146.35 364.59 -153.77 370.51 -161.09 375.6 C-161.86 376.13 -162.63 376.66 -163.42 377.2 C-164.13 377.7 -164.84 378.2 -165.57 378.71 C-166.21 379.16 -166.86 379.61 -167.52 380.07 C-167.97 380.47 -168.43 380.87 -168.9 381.29 C-168.9 381.95 -168.9 382.61 -168.9 383.29 C-169.48 383.56 -170.06 383.82 -170.65 384.1 C-172.96 385.32 -174.9 386.7 -176.97 388.29 C-179.25 390.04 -181.51 391.69 -183.9 393.29 C-183.9 393.95 -183.9 394.61 -183.9 395.29 C-184.48 395.56 -185.06 395.83 -185.65 396.1 C-187.94 397.31 -189.9 398.66 -191.97 400.23 C-192.64 400.73 -193.31 401.23 -194 401.75 C-195.78 403.18 -197.4 404.57 -198.9 406.29 C-198.9 406.95 -198.9 407.61 -198.9 408.29 C-199.46 408.52 -200.02 408.75 -200.59 408.99 C-203.5 410.62 -205.53 412.65 -207.89 415.01 C-208.82 415.94 -209.76 416.87 -210.72 417.83 C-211.2 418.32 -211.68 418.8 -212.18 419.3 C-213.66 420.79 -215.14 422.27 -216.63 423.74 C-217.56 424.68 -218.49 425.61 -219.45 426.57 C-220.3 427.43 -221.16 428.28 -222.04 429.16 C-224.12 431.07 -224.12 431.07 -223.9 433.29 C-224.89 433.62 -225.88 433.95 -226.9 434.29 C-226.9 434.95 -226.9 435.61 -226.9 436.29 C-227.56 436.29 -228.22 436.29 -228.9 436.29 C-228.9 436.95 -228.9 437.61 -228.9 438.29 C-229.56 438.29 -230.22 438.29 -230.9 438.29 C-232.47 439.98 -233.96 441.74 -235.4 443.54 C-236.2 444.51 -236.99 445.49 -237.81 446.49 C-239.49 448.74 -240.78 450.73 -241.9 453.29 C-242.56 453.29 -243.22 453.29 -243.9 453.29 C-245.54 455.22 -245.54 455.22 -247.28 457.79 C-250.2 461.92 -253.18 465.99 -256.25 470.02 C-262.48 478.23 -268.34 486.62 -273.9 495.29 C-274.33 495.96 -274.77 496.63 -275.21 497.32 C-280.43 505.48 -285.39 513.71 -289.9 522.29 C-290.55 523.48 -291.19 524.68 -291.83 525.87 C-300.02 540.99 -300.02 540.99 -306.91 556.73 C-308.03 559.6 -309.21 562.44 -310.4 565.29 C-313.78 573.37 -317.01 581.46 -319.97 589.71 C-320.76 591.9 -321.6 594.06 -322.47 596.23 C-324.1 600.53 -325.12 604.97 -326.16 609.46 C-326.9 612.29 -326.9 612.29 -327.87 614.62 C-329.29 618.28 -330.03 622.01 -330.84 625.85 C-331.98 631.13 -333.15 636.38 -334.53 641.6 C-335.9 646.91 -336.73 652.24 -337.47 657.67 C-337.9 660.29 -337.9 660.29 -338.9 662.29 C-339.26 665.05 -339.57 667.81 -339.84 670.58 C-339.93 671.41 -340.01 672.24 -340.1 673.09 C-340.37 675.74 -340.64 678.39 -340.9 681.04 C-341.17 683.67 -341.44 686.31 -341.71 688.94 C-341.88 690.58 -342.04 692.22 -342.21 693.87 C-342.28 694.62 -342.36 695.37 -342.44 696.15 C-342.5 696.81 -342.57 697.46 -342.64 698.14 C-342.85 699.83 -343.12 701.52 -343.42 703.2 C-343.88 706.14 -344.04 708.88 -344.06 711.85 C-344.07 712.92 -344.08 713.99 -344.09 715.09 C-344.1 716.24 -344.1 717.39 -344.11 718.58 C-344.11 719.79 -344.12 721 -344.12 722.25 C-344.13 724.83 -344.14 727.41 -344.14 729.98 C-344.15 733.82 -344.18 737.66 -344.22 741.5 C-344.28 757.64 -343.29 773.39 -341.27 789.4 C-340.84 792.82 -340.44 796.24 -340.06 799.67 C-339.59 803.78 -339.08 807.68 -337.93 811.67 C-336.78 815.72 -336.15 819.7 -335.53 823.85 C-334.26 831.91 -332.28 839.48 -329.9 847.29 C-329.54 848.72 -329.18 850.16 -328.84 851.6 C-327.95 855.11 -326.87 858.49 -325.68 861.92 C-324.29 866.15 -323.13 870.45 -321.97 874.75 C-320.17 881.39 -318.15 887.23 -314.9 893.29 C-314.23 895.28 -313.56 897.28 -312.9 899.29 C-310.2 906.16 -307.19 912.89 -304.11 919.6 C-302.24 923.77 -300.56 928.02 -298.9 932.29 C-298.24 932.29 -297.58 932.29 -296.9 932.29 C-296.57 933.48 -296.24 934.68 -295.9 935.91 C-293.82 942.12 -290.51 947.59 -287.16 953.18 C-285.79 955.47 -284.45 957.77 -283.1 960.07 C-274.36 974.91 -264.74 988.95 -254.49 1002.78 C-252.8 1005.06 -251.14 1007.35 -249.51 1009.67 C-248.79 1010.68 -248.08 1011.69 -247.34 1012.73 C-246.72 1013.61 -246.1 1014.5 -245.46 1015.41 C-244.95 1016.03 -244.43 1016.65 -243.9 1017.29 C-243.24 1017.29 -242.58 1017.29 -241.9 1017.29 C-241.66 1017.85 -241.41 1018.42 -241.16 1019 C-239.69 1021.68 -237.91 1023.67 -235.84 1025.91 C-232 1030.09 -232 1030.09 -230.9 1032.29 C-230.24 1032.29 -229.58 1032.29 -228.9 1032.29 C-228.9 1032.95 -228.9 1033.61 -228.9 1034.29 C-227.57 1035.95 -227.57 1035.95 -225.9 1037.29 C-225.24 1037.29 -224.58 1037.29 -223.9 1037.29 C-223.65 1037.87 -223.39 1038.45 -223.13 1039.04 C-221.78 1041.52 -220.27 1043.18 -218.28 1045.18 C-217.57 1045.89 -216.87 1046.6 -216.14 1047.33 C-215.4 1048.06 -214.66 1048.79 -213.9 1049.54 C-213.17 1050.28 -212.43 1051.03 -211.67 1051.8 C-210.61 1052.85 -210.61 1052.85 -209.53 1053.93 C-208.88 1054.57 -208.23 1055.22 -207.57 1055.88 C-206.01 1057.5 -206.01 1057.5 -203.9 1057.29 C-203.64 1057.93 -203.37 1058.57 -203.09 1059.23 C-202.02 1061.62 -202.02 1061.62 -198.9 1062.29 C-198.9 1062.95 -198.9 1063.61 -198.9 1064.29 C-197.21 1065.85 -195.45 1067.34 -193.65 1068.79 C-192.68 1069.58 -191.7 1070.38 -190.7 1071.19 C-188.45 1072.88 -186.46 1074.17 -183.9 1075.29 C-183.9 1075.95 -183.9 1076.61 -183.9 1077.29 C-181.81 1079.08 -179.73 1080.76 -177.53 1082.41 C-176.93 1082.88 -176.32 1083.35 -175.7 1083.83 C-172.65 1086.42 -172.65 1086.42 -168.9 1087.29 C-168.9 1087.95 -168.9 1088.61 -168.9 1089.29 C-166.34 1091.58 -165.42 1092.29 -161.9 1092.29 C-161.9 1092.95 -161.9 1093.61 -161.9 1094.29 C-160.22 1095.64 -160.22 1095.64 -158.03 1096.98 C-153.69 1099.77 -149.47 1102.69 -145.26 1105.67 C-140.94 1108.98 -140.94 1108.98 -135.9 1110.29 C-135.9 1110.95 -135.9 1111.61 -135.9 1112.29 C-134.47 1113.13 -133.03 1113.96 -131.59 1114.79 C-130.79 1115.25 -129.99 1115.72 -129.17 1116.19 C-126.87 1117.51 -126.87 1117.51 -123.9 1117.29 C-123.9 1117.95 -123.9 1118.61 -123.9 1119.29 C-120.24 1121.3 -116.58 1123.3 -112.9 1125.29 C-112.27 1125.64 -111.63 1125.98 -110.97 1126.34 C-102.03 1131.21 -93.04 1135.69 -83.67 1139.67 C-80.22 1141.13 -76.84 1142.73 -73.47 1144.35 C-67.07 1147.33 -60.51 1149.63 -53.84 1151.91 C-50.75 1152.98 -47.73 1154.14 -44.72 1155.41 C-38.61 1157.91 -32.26 1159.54 -25.9 1161.29 C-23.4 1161.99 -20.9 1162.7 -18.4 1163.41 C-17.3 1163.72 -16.2 1164.04 -15.06 1164.36 C-13.02 1164.96 -10.99 1165.61 -8.99 1166.31 C-5.38 1167.45 -1.75 1168.14 1.97 1168.79 C10.53 1170.33 10.53 1170.33 14.35 1171.35 C23.45 1173.63 32.72 1174.65 42.04 1175.59 C45.21 1175.92 48.06 1176.28 51.1 1177.29 C52.65 1177.42 54.21 1177.51 55.77 1177.57 C57.14 1177.62 57.14 1177.62 58.53 1177.68 C59.96 1177.73 59.96 1177.73 61.41 1177.79 C63.28 1177.86 65.15 1177.93 67.02 1178.01 C68.27 1178.05 68.27 1178.05 69.54 1178.1 C72.1 1178.29 72.1 1178.29 74.79 1178.8 C79.24 1179.46 83.6 1179.43 88.1 1179.42 C89.05 1179.42 90 1179.42 90.99 1179.42 C93 1179.42 95.01 1179.42 97.02 1179.42 C100.09 1179.41 103.15 1179.42 106.22 1179.42 C108.18 1179.42 110.14 1179.42 112.1 1179.42 C113.47 1179.42 113.47 1179.42 114.86 1179.43 C119.4 1179.41 123.62 1179.14 128.1 1178.29 C129.58 1178.19 131.06 1178.11 132.54 1178.08 C133.36 1178.05 134.18 1178.02 135.03 1178 C135.9 1177.97 136.76 1177.94 137.66 1177.91 C145.44 1177.61 153.08 1176.91 160.78 1175.79 C161.69 1175.66 162.59 1175.53 163.52 1175.39 C167.95 1174.8 167.95 1174.8 172.1 1173.29 C174.49 1173.01 176.89 1172.84 179.3 1172.67 C182.68 1172.21 185.81 1171.23 189.1 1170.29 C191.63 1169.8 194.18 1169.35 196.72 1168.91 C203.08 1167.78 209.14 1166.19 215.29 1164.19 C217.53 1163.47 219.74 1162.83 222.03 1162.29 C230.61 1160.22 239.05 1157.99 247.05 1154.21 C249.06 1153.3 251.06 1152.59 253.16 1151.91 C263.65 1148.52 273.78 1144.67 283.57 1139.59 C286.68 1137.99 289.88 1136.66 293.1 1135.29 C297.12 1133.33 301.11 1131.31 305.1 1129.29 C307.01 1128.33 308.93 1127.37 310.85 1126.41 C311.67 1126 312.49 1125.59 313.33 1125.17 C313.91 1124.88 314.5 1124.59 315.1 1124.29 C315.1 1123.63 315.1 1122.97 315.1 1122.29 C315.67 1122.17 316.24 1122.05 316.83 1121.92 C323.52 1120.04 329.51 1115.44 335.15 1111.52 C337.1 1110.29 337.1 1110.29 340.1 1109.29 C340.1 1108.63 340.1 1107.97 340.1 1107.29 C340.68 1107.17 341.27 1107.06 341.87 1106.94 C344.24 1106.25 345.72 1105.35 347.71 1103.92 C348.4 1103.43 349.08 1102.94 349.78 1102.44 C350.51 1101.91 351.23 1101.39 351.97 1100.85 C353.49 1099.76 355.01 1098.67 356.52 1097.58 C357.28 1097.03 358.05 1096.48 358.83 1095.91 C360.98 1094.37 363.15 1092.85 365.33 1091.34 C365.97 1090.89 366.62 1090.43 367.29 1089.97 C368.52 1089.11 369.75 1088.26 370.98 1087.41 C372.39 1086.42 373.75 1085.36 375.1 1084.29 C375.1 1083.63 375.1 1082.97 375.1 1082.29 C375.67 1082.02 376.24 1081.75 376.83 1081.48 C379.18 1080.25 381.22 1078.86 383.35 1077.29 C384.05 1076.77 384.76 1076.26 385.49 1075.73 C386.02 1075.25 386.55 1074.78 387.1 1074.29 C387.1 1073.63 387.1 1072.97 387.1 1072.29 C387.67 1072.02 388.25 1071.75 388.85 1071.48 C391.15 1070.26 393.12 1068.98 395.1 1067.29 C395.1 1066.63 395.1 1065.97 395.1 1065.29 C395.67 1065.04 396.25 1064.8 396.84 1064.54 C399.45 1063.09 401.16 1061.38 403.22 1059.23 C406.9 1055.38 406.9 1055.38 409.1 1054.29 C409.1 1053.63 409.1 1052.97 409.1 1052.29 C409.69 1052.03 410.28 1051.77 410.89 1051.5 C413.24 1050.21 414.64 1048.89 416.44 1046.92 C417.05 1046.26 417.65 1045.6 418.28 1044.93 C418.9 1044.24 419.52 1043.56 420.16 1042.85 C421.4 1041.5 422.64 1040.14 423.88 1038.79 C424.43 1038.19 424.97 1037.59 425.53 1036.97 C426.58 1035.84 427.67 1034.75 428.8 1033.69 C430.32 1032.36 430.32 1032.36 430.1 1030.29 C430.76 1030.29 431.42 1030.29 432.1 1030.29 C433.62 1028.61 435.06 1026.87 436.47 1025.1 C437.24 1024.14 438.01 1023.17 438.81 1022.18 C439.94 1020.75 439.94 1020.75 441.1 1019.29 C441.85 1018.38 442.61 1017.48 443.39 1016.55 C445.3 1014.49 445.3 1014.49 445.1 1012.29 C445.76 1012.29 446.42 1012.29 447.1 1012.29 C448.68 1010.57 448.68 1010.57 450.22 1008.41 C450.76 1007.69 451.3 1006.97 451.85 1006.23 C453.28 1004.39 453.28 1004.39 453.1 1002.29 C453.76 1002.29 454.42 1002.29 455.1 1002.29 C456.5 1000.64 456.5 1000.64 457.89 998.48 C458.43 997.68 458.98 996.87 459.54 996.04 C460.4 994.74 460.4 994.74 461.28 993.41 C462.46 991.66 463.63 989.92 464.81 988.17 C465.66 986.9 465.66 986.9 466.52 985.61 C468.94 982.05 471.47 978.57 474.02 975.1 C475.35 973.21 475.35 973.21 475.1 970.29 C475.76 970.29 476.42 970.29 477.1 970.29 C479.14 967.38 480.1 965.89 480.1 962.29 C480.76 962.29 481.42 962.29 482.1 962.29 C482.43 960.64 482.76 958.99 483.1 957.29 C483.76 957.29 484.42 957.29 485.1 957.29 C485.59 956.28 485.59 956.28 486.09 955.26 C488.38 950.63 490.69 946.02 493.15 941.48 C497.52 933.41 501.6 925.26 505.41 916.91 C505.82 916.02 506.23 915.13 506.65 914.21 C509.1 908.77 511.26 903.28 513.24 897.65 C513.94 895.71 514.76 893.8 515.6 891.91 C517.41 887.54 518.71 883.07 520.06 878.54 C520.95 875.76 521.95 873.15 523.1 870.48 C525.68 864.25 527.08 857.7 528.64 851.17 C529.26 848.61 529.95 846.07 530.66 843.54 C530.9 842.67 531.14 841.79 531.38 840.9 C531.86 839.14 532.35 837.37 532.84 835.62 C534.95 827.72 536.19 819.77 537.41 811.71 C537.91 808.42 538.5 805.17 539.22 801.91 C540.26 797.03 540.56 792.14 540.85 787.17 C541.1 784.29 541.1 784.29 541.58 782.62 C542.35 779.16 542.47 775.69 542.65 772.16 C542.69 771.34 542.74 770.51 542.78 769.66 C543.25 759.34 543.25 749.01 543.23 738.68 C543.22 735.29 543.23 731.9 543.23 728.51 C543.24 718.47 543.16 708.44 542.65 698.41 C542.61 697.64 542.57 696.87 542.53 696.07 C542.34 692.7 542.03 689.54 541.1 686.29 C540.94 684.23 540.82 682.16 540.72 680.1 C540.35 674.33 539.61 668.73 538.6 663.04 C538.47 662.3 538.34 661.56 538.2 660.8 C537.51 656.93 537.51 656.93 536.1 653.29 C535.94 651.43 535.94 651.43 535.78 649.54 C535.24 644.13 533.71 639.1 532.13 633.91 C531.15 630.48 530.37 627.06 529.61 623.58 C528.79 619.91 527.8 616.29 526.78 612.66 C526.46 611.51 526.46 611.51 526.13 610.33 C523.33 600.43 520.19 590.73 516.1 581.29 C515.43 579.29 514.76 577.29 514.1 575.29 C513.6 574.13 513.11 572.98 512.6 571.79 C511.1 568.29 511.1 568.29 510.22 565.57 C508.9 561.71 507.31 558.02 505.66 554.29 C505.36 553.6 505.06 552.92 504.75 552.21 C501.89 545.7 498.66 539.42 495.28 533.16 C491.76 526.6 488.38 519.97 485.1 513.29 C484.44 513.29 483.78 513.29 483.1 513.29 C482.77 511.64 482.44 509.99 482.1 508.29 C481.44 508.29 480.78 508.29 480.1 508.29 C479.91 507.42 479.91 507.42 479.72 506.54 C479.09 504.26 478.21 502.36 477.1 500.29 C476.44 500.29 475.78 500.29 475.1 500.29 C474.99 499.72 474.88 499.16 474.77 498.58 C472.41 490.56 465.53 482.93 460.78 476.1 C459.99 474.95 459.99 474.95 459.19 473.78 C458.69 473.06 458.19 472.35 457.67 471.62 C457 470.66 457 470.66 456.31 469.67 C455.91 469.22 455.51 468.76 455.1 468.29 C454.44 468.29 453.78 468.29 453.1 468.29 C452.87 467.76 452.64 467.24 452.41 466.7 C450.64 463.45 448.38 460.62 446.1 457.73 C443.68 454.63 441.28 451.56 439.1 448.29 C438.44 448.29 437.78 448.29 437.1 448.29 C436.83 447.71 436.56 447.13 436.28 446.54 C435.07 444.23 433.79 442.27 432.1 440.29 C431.44 440.29 430.78 440.29 430.1 440.29 C429.86 439.73 429.63 439.16 429.39 438.58 C427.78 435.72 425.78 433.82 423.41 431.54 C419.53 427.75 415.92 423.87 412.47 419.69 C412.02 419.22 411.56 418.76 411.1 418.29 C410.44 418.29 409.78 418.29 409.1 418.29 C409.1 417.63 409.1 416.97 409.1 416.29 C407.44 414.62 407.44 414.62 405.35 412.91 C403.03 410.95 400.84 409.03 398.72 406.85 C397.23 405.06 397.23 405.06 395.1 405.29 C395.1 404.63 395.1 403.97 395.1 403.29 C391.62 399.65 391.62 399.65 387.1 398.29 C387.1 397.63 387.1 396.97 387.1 396.29 C384.92 394.24 384.92 394.24 382.22 392.16 C381.32 391.44 380.41 390.71 379.48 389.97 C377.31 388.1 377.31 388.1 375.1 388.29 C375.1 387.63 375.1 386.97 375.1 386.29 C373.15 384.74 371.21 383.32 369.16 381.91 C367.88 381.02 366.6 380.13 365.33 379.24 C364.3 378.53 364.3 378.53 363.26 377.8 C361 376.22 358.76 374.61 356.52 372.99 C355.76 372.45 355.01 371.91 354.23 371.35 C352.74 370.28 351.26 369.21 349.78 368.14 C348.76 367.4 348.76 367.4 347.71 366.66 C346.81 366.01 346.81 366.01 345.89 365.34 C343.97 364.21 342.27 363.72 340.1 363.29 C340.1 362.63 340.1 361.97 340.1 361.29 C339.1 360.73 338.11 360.16 337.08 359.58 C334.44 358.08 331.83 356.52 329.24 354.93 C328.6 354.54 327.96 354.14 327.3 353.74 C325.98 352.93 324.66 352.11 323.35 351.29 C319.51 348.89 319.51 348.89 315.1 348.29 C315.1 347.63 315.1 346.97 315.1 346.29 C314.2 345.84 313.31 345.39 312.39 344.93 C311.81 344.64 311.23 344.35 310.63 344.05 C309.34 343.41 308.06 342.77 306.78 342.13 C303.98 340.73 301.19 339.33 298.4 337.92 C292.76 335.07 287.07 332.39 281.32 329.76 C279.29 328.83 277.26 327.89 275.24 326.94 C269.61 324.29 263.97 322.14 258.02 320.28 C255.1 319.29 255.1 319.29 251.7 317.83 C247.44 316.01 243.11 314.57 238.72 313.13 C235.37 312.04 232.04 310.91 228.72 309.73 C223.73 308.05 218.59 306.95 213.46 305.77 C209.42 304.84 205.41 303.86 201.41 302.73 C192.4 300.22 183.33 298.15 173.99 297.5 C172.1 297.29 172.1 297.29 170.1 296.29 C168.76 296.08 167.42 295.92 166.07 295.79 C165.28 295.71 164.48 295.62 163.67 295.54 C162.84 295.46 162.01 295.37 161.16 295.29 C159.52 295.12 157.89 294.96 156.26 294.79 C155.53 294.72 154.81 294.64 154.06 294.57 C152.1 294.29 152.1 294.29 149.1 293.29 C147.54 293.15 145.98 293.06 144.42 293.01 C143.51 292.97 142.6 292.93 141.66 292.89 C140.24 292.84 140.24 292.84 138.78 292.79 C136.91 292.72 135.04 292.65 133.17 292.57 C132.34 292.54 131.51 292.51 130.66 292.48 C128.1 292.29 128.1 292.29 125.4 291.78 C120.96 291.12 116.61 291.14 112.13 291.15 C111.18 291.15 110.23 291.15 109.25 291.15 C107.24 291.15 105.24 291.15 103.23 291.16 C100.17 291.16 97.12 291.16 94.06 291.15 C92.1 291.15 90.15 291.15 88.19 291.15 C87.29 291.15 86.38 291.15 85.44 291.15 C80.56 291.17 75.93 291.51 71.1 292.29 Z " fill="#000000" transform="translate(511.9034423828125,-0.2876129150390625)"/>
<path d="M0 0 C1.13 0.43 2.27 0.87 3.44 1.31 C7.9 3.43 12.16 5.87 16 9 C16 9.66 16 10.32 16 11 C16.66 11 17.32 11 18 11 C28.57 21.76 33.33 34.6 33.24 49.41 C33.24 50.44 33.24 51.48 33.25 52.55 C33.25 56.01 33.24 59.47 33.23 62.93 C33.23 65.41 33.23 67.9 33.23 70.38 C33.23 75.72 33.22 81.07 33.21 86.41 C33.2 94.14 33.19 101.86 33.19 109.59 C33.18 122.12 33.17 134.66 33.15 147.19 C33.13 159.37 33.12 171.54 33.11 183.72 C33.11 184.47 33.11 185.22 33.11 185.99 C33.11 189.76 33.1 193.53 33.1 197.3 C33.08 228.53 33.04 259.77 33 291 C33.86 291 34.71 290.99 35.6 290.99 C56.46 290.93 77.33 290.88 98.2 290.84 C108.29 290.83 118.38 290.81 128.47 290.77 C137.27 290.74 146.06 290.72 154.86 290.72 C159.52 290.71 164.17 290.7 168.83 290.68 C173.22 290.66 177.61 290.66 181.99 290.66 C183.6 290.66 185.2 290.65 186.81 290.64 C202.9 290.53 215.86 293.76 227.75 305.31 C231 308.67 231 308.67 231 311 C231.66 311 232.32 311 233 311 C241.24 321.69 244.45 335.73 243 349 C241.49 357.76 237.91 365.63 233 373 C232.34 373 231.68 373 231 373 C230.75 373.58 230.51 374.16 230.25 374.75 C225 384.17 213.59 389.51 203.67 392.38 C199.5 393.35 195.48 393.41 191.22 393.38 C190.28 393.39 189.35 393.39 188.39 393.4 C185.3 393.41 182.2 393.4 179.11 393.39 C176.88 393.39 174.65 393.4 172.42 393.4 C166.38 393.42 160.35 393.41 154.31 393.4 C147.98 393.4 141.65 393.4 135.32 393.41 C124.01 393.41 112.71 393.4 101.4 393.39 C91.16 393.37 80.93 393.38 70.69 393.39 C58.78 393.41 46.88 393.41 34.97 393.4 C28.67 393.4 22.38 393.4 16.08 393.41 C10.16 393.42 4.24 393.41 -1.68 393.39 C-3.85 393.39 -6.01 393.39 -8.18 393.4 C-33.48 393.47 -33.48 393.47 -43.5 386.94 C-44.29 386.43 -45.09 385.92 -45.91 385.4 C-46.94 384.71 -46.94 384.71 -48 384 C-48.99 383.34 -49.98 382.68 -51 382 C-51 381.34 -51 380.68 -51 380 C-51.64 379.73 -52.28 379.46 -52.94 379.19 C-55 378 -55 378 -56 375 C-56.66 375 -57.32 375 -58 375 C-68.62 362.08 -70.32 347.44 -70.25 331.21 C-70.26 329.99 -70.26 328.77 -70.26 327.52 C-70.27 324.17 -70.27 320.83 -70.26 317.49 C-70.26 313.87 -70.26 310.25 -70.27 306.62 C-70.28 299.55 -70.28 292.47 -70.27 285.39 C-70.27 279.63 -70.27 273.88 -70.27 268.12 C-70.27 267.3 -70.27 266.48 -70.27 265.63 C-70.27 263.96 -70.27 262.29 -70.27 260.63 C-70.28 245 -70.27 229.37 -70.26 213.75 C-70.25 200.36 -70.25 186.97 -70.26 173.59 C-70.27 158.01 -70.28 142.44 -70.27 126.87 C-70.27 125.2 -70.27 123.54 -70.27 121.88 C-70.27 120.65 -70.27 120.65 -70.27 119.4 C-70.26 113.65 -70.27 107.91 -70.27 102.17 C-70.28 95.16 -70.28 88.15 -70.27 81.14 C-70.26 77.57 -70.26 74 -70.27 70.43 C-70.27 66.55 -70.26 62.67 -70.25 58.79 C-70.26 57.68 -70.26 56.56 -70.27 55.42 C-70.21 44.37 -69.32 33.95 -63.88 24.19 C-63.5 23.48 -63.13 22.78 -62.75 22.05 C-61.85 20.36 -60.93 18.68 -60 17 C-59.34 17 -58.68 17 -58 17 C-57.76 16.43 -57.53 15.86 -57.28 15.28 C-52.97 7.62 -44.16 1.82 -36 -1 C-23.63 -4.29 -11.97 -5.41 0 0 Z " fill="#000000" transform="translate(630,393)"/>
</svg>
